<?xml version="1.0" standalone="no"?>
<!DOCTYPE svg PUBLIC "-//W3C//DTD SVG 1.1//EN" "http://www.w3.org/Graphics/SVG/1.1/DTD/svg11.dtd" >
<svg xmlns="http://www.w3.org/2000/svg" xmlns:xlink="http://www.w3.org/1999/xlink" version="1.1">
<metadata></metadata>
<defs>
<font id="athletic_gothic_shadowregular" horiz-adv-x="1220" >
<font-face units-per-em="2048" ascent="1638" descent="-410" />
<missing-glyph horiz-adv-x="508" />
<glyph unicode="&#xd;" horiz-adv-x="508" />
<glyph horiz-adv-x="0" />
<glyph horiz-adv-x="0" />
<glyph unicode=" "  horiz-adv-x="508" />
<glyph unicode="&#x09;" horiz-adv-x="508" />
<glyph unicode="&#xa0;" horiz-adv-x="508" />
<glyph unicode="!" horiz-adv-x="672" d="M207 136q0 15 16 31l82 84q15 14 29 14q13 0 31 -16l80 -86q12 -16 12 -29q0 -15 -14 -31l-80 -88q-20 -20 -29 -20q-16 0 -29 14l-88 101q-10 13 -10 26zM264 1364q0 46 21 69t62 23q42 0 62.5 -23t20.5 -69l-80 -1036h-37z" />
<glyph unicode="&#x22;" d="M98 0v1434h1024v-1434h-1024zM147 49h926v1336h-926v-1336z" />
<glyph unicode="#" d="M98 0v1434h1024v-1434h-1024zM147 49h926v1336h-926v-1336z" />
<glyph unicode="$" d="M98 0v1434h1024v-1434h-1024zM147 49h926v1336h-926v-1336z" />
<glyph unicode="%" d="M98 0v1434h1024v-1434h-1024zM147 49h926v1336h-926v-1336z" />
<glyph unicode="&#x26;" d="M98 0v1434h1024v-1434h-1024zM147 49h926v1336h-926v-1336z" />
<glyph unicode="'" d="M98 0v1434h1024v-1434h-1024zM147 49h926v1336h-926v-1336z" />
<glyph unicode="(" d="M98 0v1434h1024v-1434h-1024zM147 49h926v1336h-926v-1336z" />
<glyph unicode=")" d="M98 0v1434h1024v-1434h-1024zM147 49h926v1336h-926v-1336z" />
<glyph unicode="*" d="M98 0v1434h1024v-1434h-1024zM147 49h926v1336h-926v-1336z" />
<glyph unicode="+" d="M98 0v1434h1024v-1434h-1024zM147 49h926v1336h-926v-1336z" />
<glyph unicode="," horiz-adv-x="557" d="M119 91v42l119 125q44 0 88.5 -65.5t44.5 -151.5q0 -109 -71 -226.5t-139 -117.5v43q73 43 87 190q0 119 -129 161z" />
<glyph unicode="-" horiz-adv-x="670" d="M116 437v83q0 29 41 29h356q41 0 41 -29v-83q0 -28 -40 -28h-358q-40 0 -40 28z" />
<glyph unicode="." horiz-adv-x="557" d="M129 136q0 15 16 31l82 84q15 14 29 14q13 0 31 -16l80 -86q12 -16 12 -29q0 -15 -14 -31l-80 -88q-20 -20 -29 -20q-16 0 -29 14l-88 101q-10 13 -10 26z" />
<glyph unicode="/" horiz-adv-x="569" d="M13 -50l541 1484h80l-541 -1484h-80z" />
<glyph unicode="0" horiz-adv-x="1117" d="M0 703q0 -283 87 -483q99 -230 286 -277q80 -43 177 -43q223 0 352 242q115 216 115 529q0 280 -82 482q-97 236 -282 280q-85 47 -190 40q-236 -13 -358 -248q-105 -203 -105 -522zM70 703q0 305 97 490q105 200 300 211q192 11 300 -199q98 -193 98 -502 q0 -299 -107 -496q-111 -205 -291 -205q-190 0 -298 205q-99 191 -99 496zM310 703q0 -181 46 -308q46 -128 111 -128q66 0 112 128t46 308t-46 308t-112 128q-65 0 -111 -128t-46 -308zM462 671q0 168 42 284q4 11 11 27q40 -115 40 -279q0 -168 -42 -285q-5 -14 -11 -26 q-40 116 -40 279z" />
<glyph unicode="1" horiz-adv-x="753" d="M0 -49l67 -51h586v405l-67 51h-45v1071l-66 51h-395q-4 -296 -66 -423q-1 -1 66 -36h31v-663h-111v-405zM69 12v267h111v852h-70q19 39 34 270h260v-1122h111v-267h-446z" />
<glyph unicode="2" horiz-adv-x="1183" d="M0 -47l81 -53h937v391l-81 53h-312q1 2 33 36q25 28 48 52q171 185 198 218q180 241 86 472q-83 203 -309 286q-107 60 -222 68q-120 9 -214 -44l-4 -2l-231 -175l174 -334l81 -37q142 79 228 140q9 6 18 9q29 -53 -4 -97l-434 -488q-20 -24 -37 -60q-36 -70 -36 -140 v-295zM69 7v241q0 84 57 156l434 488q44 55 39 112q-5 49 -45 87q-38 36 -88 45q-53 9 -93 -17q-83 -59 -160 -102l-114 218l181 137q106 59 243 27q131 -30 228 -129q102 -104 114 -239q14 -152 -98 -301q-41 -53 -355 -387q-38 -39 -40 -69h496v-267h-799z" />
<glyph unicode="3" horiz-adv-x="1136" d="M0 1297l220 -323l77 -35l136 85q2 1 4 1q15 -28 -18 -56l-187 -119v-291l77 -51l216 -1q17 -27 18 -66q1 -99 -91 -99h-429v-391l76 -51h489q111 0 221 89q107 86 165 219q62 142 41 282q-25 158 -155 276q67 164 3 370q-72 227 -258 287q-148 93 -360 26 q-78 -33 -142 -74q-35 -22 -103 -78zM92 5v268h360q79 0 123 53q39 47 37 116q-1 68 -38 117q-41 53 -106 53l-166 1v199l158 100q39 32 44 81q4 44 -21 85q-25 40 -66 54q-47 15 -95 -12l-82 -51l-147 215q67 54 175 99q153 49 271 -8q102 -49 160 -167q54 -106 52 -228 q-1 -122 -56 -195q133 -100 166 -242q30 -123 -20 -254q-46 -121 -140 -202q-94 -82 -190 -82h-419z" />
<glyph unicode="4" horiz-adv-x="1121" d="M0 623q78 -176 39 -392l92 -35h329v-245l92 -51h394v296h75v408l-78 37v776l-92 61h-392zM70 615l431 793h280v-838h79v-269h-76v-296h-254v296h-418q9 243 -42 314zM337 563h193v366zM442 602l28 65v-65h-28z" />
<glyph unicode="5" horiz-adv-x="1161" d="M0 592l139 -76l51 27q161 87 282 69q50 -33 68 -87q18 -52 -1 -99q-19 -51 -70 -72q-57 -24 -140 -3q-84 25 -326 189l-2 1v-439l29 -21q128 -89 251 -126q253 -110 456 0q180 98 253 321q71 220 -9 415q-88 216 -325 283q-71 33 -156 47v17h506v392l-85 47h-875 q-46 -750 -46 -885zM70 138v268q245 -177 407 -127q67 21 105 77q35 52 36 120q2 68 -31 125q-36 63 -101 94q-160 76 -413 -60q0 134 38 772h741v-269h-502l-8 -178q312 11 449 -195q120 -182 54 -417q-66 -238 -265 -317q-228 -90 -510 107z" />
<glyph unicode="6" horiz-adv-x="1124" d="M6 475q-6 -178 73 -314q73 -126 199 -186q127 -86 277 -73q201 16 324 166q121 148 121 366q0 157 -84 283q-77 115 -201 176q-22 14 -43 26q33 62 70 123q91 154 195 288l87 112l-59 34h-501q-125 -148 -232 -331q-215 -369 -226 -670zM76 472q10 285 216 638 q103 177 205 296h326q-158 -203 -317 -505q145 -20 251 -135q114 -124 114 -298q0 -194 -105 -322q-105 -127 -276 -141q-168 -14 -290 110q-132 135 -124 357zM318 448q0 -76 47 -129t113 -53q67 0 114 53q47 54 47 129t-47 128t-114 53q-66 0 -113 -53t-47 -128zM446 414 q0 49 30 82q27 29 61 29h6q26 -31 26 -77q0 -50 -29 -82q-27 -30 -62 -30h-6q-26 32 -26 78z" />
<glyph unicode="7" horiz-adv-x="1119" d="M0 1082l39 -53h323q-151 -434 -211 -1016l-8 -75l39 -38h384l6 61q104 880 388 1376l59 102l-40 38h-979v-395zM67 1135v274h796q-311 -542 -396 -1403h-249q75 738 258 1130z" />
<glyph unicode="8" horiz-adv-x="1119" d="M0 444q0 -168 93 -304q93 -135 241 -182q101 -58 218 -58q196 0 333 151q134 149 134 356q0 206 -132 354q69 109 69 244q0 146 -82 264t-212 157q-90 53 -194 53q-170 0 -289 -130q-116 -128 -116 -307q0 -134 69 -244q-132 -147 -132 -354zM70 444q0 215 153 346 q-90 106 -90 252q0 152 98 260t237 108q138 0 236 -108t98 -260q0 -145 -91 -252q154 -131 154 -346q0 -181 -116 -309q-117 -128 -281 -128q-165 0 -282 128q-116 128 -116 309zM303 457q0 -75 48 -128t117 -53q68 0 116 53t48 128t-48 127q-48 53 -116 53q-69 0 -117 -53 q-48 -52 -48 -127zM349 1048q0 -54 35 -92q34 -38 84 -38q49 0 83 38q35 38 35 92t-35 92q-34 38 -83 38q-50 0 -84 -38q-35 -38 -35 -92zM457 419q0 44 25 76q24 29 57 34q23 -30 23 -72q0 -44 -25 -76q-23 -29 -57 -34q-23 30 -23 72zM503 1007q-11 36 13 44v-3 q0 -24 -13 -41z" />
<glyph unicode="9" horiz-adv-x="1128" d="M0 -65l69 -35h497q125 149 231 332q214 369 224 671q7 188 -80 328q-81 131 -218 184q-119 74 -257 62q-200 -16 -322 -167q-120 -148 -120 -366q0 -167 94 -299q85 -120 220 -175q11 -6 14 -7q-36 -67 -72 -129q-91 -154 -194 -288zM94 944q0 194 104 322t273 142 q167 14 288 -111q131 -134 124 -357q-10 -285 -215 -639q-103 -177 -203 -297h-324q159 206 315 506q-144 21 -249 135q-113 125 -113 299zM324 964q0 -75 47 -128t113 -53t112 53q47 53 47 128q0 76 -47 129q-46 53 -112 53t-113 -53t-47 -129zM463 930q0 48 27 80 q25 30 58 32q25 -32 25 -78q0 -48 -27 -80q-25 -29 -58 -31q-25 31 -25 77z" />
<glyph unicode=":" d="M98 0v1434h1024v-1434h-1024zM147 49h926v1336h-926v-1336z" />
<glyph unicode=";" d="M98 0v1434h1024v-1434h-1024zM147 49h926v1336h-926v-1336z" />
<glyph unicode="&#x3c;" d="M98 0v1434h1024v-1434h-1024zM147 49h926v1336h-926v-1336z" />
<glyph unicode="=" horiz-adv-x="1014" d="M87 491v140h840v-140h-840zM87 803v140h840v-140h-840z" />
<glyph unicode="&#x3e;" d="M98 0v1434h1024v-1434h-1024zM147 49h926v1336h-926v-1336z" />
<glyph unicode="?" horiz-adv-x="748" d="M132 1266v64q128 104 242 104q132 0 212 -68t80 -182q0 -69 -32.5 -140t-124.5 -186q-90 -113 -141.5 -187.5t-51.5 -142.5q0 -63 35 -189h-47q-50 138 -50 211q0 109 116.5 312t116.5 309q0 82 -47 129t-130 47q-84 0 -178 -81zM207 136q0 15 16 31l82 84q15 14 29 14 q13 0 31 -16l80 -86q12 -16 12 -29q0 -15 -14 -31l-80 -88q-20 -20 -29 -20q-16 0 -29 14l-88 101q-10 13 -10 26z" />
<glyph unicode="@" horiz-adv-x="2019" d="M100 508q0 242 124 464.5t345.5 342t456.5 119.5q362 0 609 -230t247 -566q0 -270 -176 -439q-175 -168 -346 -170q-63 1 -100.5 18t-61.5 54q-29 -37 -82 -64.5t-133 -27.5q-144 0 -256.5 100.5t-112.5 233.5q1 87 53 166.5t132.5 115t173.5 49.5q67 16 110 42.5 t43 74.5q-2 69 -41 125t-129 56q-72 0 -121.5 -59t-50.5 -125h-45v159q0 20 72 40q73 20 178 20q109 -2 193.5 -64.5t84.5 -157.5v-589q0 -117 94 -117q185 35 267 191.5t82 382.5q-20 335 -232 540q-197 188 -480 188q-205 0 -392.5 -137.5t-269.5 -355.5 q-67 -178 -67 -361q0 -313 129.5 -511.5t305 -290.5t318.5 -92q274 0 575 208v-75q-263 -184 -571 -184q-240 0 -461 122.5t-343 342t-122 461.5zM753 343q0 -107 64 -194t183 -87q97 5 126 167v476q-54 -63 -154 -83q-83 -10 -151 -80t-68 -199z" />
<glyph unicode="A" horiz-adv-x="1357" d="M0 -67l98 -103h369l99 444h143l80 -341l98 -103h370l-406 1565l-99 103h-339zM71 2l376 1427h271l371 -1427h-264l-104 444h-289l-99 -444h-262zM508 764h152l-77 293z" />
<glyph unicode="B" horiz-adv-x="1101" d="M0 -67l98 -103h507q137 0 236 102q90 92 125 242q19 79 19 156q0 67 -14 133q-33 152 -128 243q62 103 62 244q0 41 -5 85q-25 215 -165 307q-95 155 -283 155h-452v-1564zM49 2v1426h403q138 0 218 -90q67 -76 82 -203q4 -33 4 -65q0 -76 -22 -148q-30 -100 -83 -122 q108 -59 156 -194q30 -85 30 -177q0 -44 -7 -89q-22 -144 -103 -236q-88 -102 -220 -102h-458zM308 303h183q37 0 60 44q20 40 21 97v5q0 54 -19 92q-22 44 -62 44h-183v-282zM308 897h123q37 0 60 35q21 34 21 83q0 44 -18 74q-23 35 -63 35h-123v-227zM455 372v42h65 q-9 -42 -29 -42h-36z" />
<glyph unicode="C" horiz-adv-x="1052" d="M0 720q0 -212 77 -395q74 -176 202 -283q170 -222 407 -222q121 0 231 64l30 17l5 510l-98 103l-79 -79q-69 -69 -154 -69q-54 0 -103 30q-58 97 -58 222q0 146 76 250t183 104q82 0 155 -72l78 -78v507l-98 103l-30 18q-113 67 -236 67q-243 0 -415 -232 q-173 -234 -173 -565zM49 720q0 302 158 515t381 213q113 0 217 -61v-328q-87 85 -184 85q-127 0 -218 -124q-90 -124 -90 -299t90 -299q91 -124 218 -124q101 0 182 81l-3 -328q-101 -59 -212 -59q-223 0 -381 213t-158 515z" />
<glyph unicode="D" horiz-adv-x="1174" d="M0 -65l98 -104h400q12 -1 26 -1q28 0 62 4q106 14 195 69q290 182 291 713q0 12 1 26q0 41 -5 95q-14 145 -60 268q-66 174 -189 273q-164 221 -465 221h-354v-1564zM49 3v1428h305q378 0 512 -355q60 -159 60 -317q0 -19 -1 -38q0 -488 -262 -652q-111 -68 -221 -68 l-41 2h-352zM306 303h137q52 7 105 58q105 103 105 328q1 14 1 29q0 94 -23 187q-54 217 -211 217h-114v-819zM454 376v574h65q23 0 45 -7q41 -94 41 -215q0 -18 -1 -37q0 -191 -84 -274q-26 -25 -58 -38z" />
<glyph unicode="E" horiz-adv-x="973" d="M0 -67l98 -103h775v439l-98 103h-323v42h421v448l-98 91h98v441l-98 103h-775v-1564zM49 2v1426h677v-304h-422v-227h422v-312h-422v-282h422v-301h-677z" />
<glyph unicode="F" horiz-adv-x="944" d="M0 -67l98 -103h356v584h390v448l-98 91h98v441l-98 103h-746v-1564zM49 2v1426h648v-304h-391v-227h391v-312h-391v-583h-257z" />
<glyph unicode="G" horiz-adv-x="1167" d="M0 713q0 -212 78 -395q75 -177 204 -286q180 -232 431 -232q178 0 328 124l24 20v760l-99 103h-353v-444q-59 8 -111 42q-60 98 -60 218q0 148 86 256q89 110 216 110q77 0 144 -45l82 -72q5 -6 96 -103l1 504l-98 103l-24 20q-151 127 -330 127q-254 0 -434 -236 q-181 -237 -181 -574zM49 713q0 307 166 524q165 217 400 217q166 0 305 -117l-1 -337q-106 161 -273 161q-145 0 -248 -128q-103 -127 -103 -307q0 -179 103 -307q103 -127 248 -127q5 0 16 1v18v427h255v-652q-137 -114 -302 -114q-235 0 -400 217q-166 217 -166 524z" />
<glyph unicode="H" horiz-adv-x="1147" d="M0 -67l98 -103h357v584h137v-481l98 -103h357v1564l-98 103h-357v-532h-137v429l-98 103h-357v-1564zM49 2v1426h259v-531h333v531h259v-1426h-259v583h-333v-583h-259z" />
<glyph unicode="I" horiz-adv-x="555" d="M0 -67l98 -103h357v1564l-98 103h-357v-1564zM49 2v1426h259v-1426h-259z" />
<glyph unicode="J" horiz-adv-x="845" d="M0 33l98 -103l18 -20q38 -45 134 -72q64 -18 124 -18q40 0 78 8q127 27 203 138q90 134 90 370v1062l-98 103h-354q0 -1070 0 -1057q-1 -7 -5 -17q-10 -25 -25 -38q-18 -16 -42 -16q-56 0 -146 80l-75 67v-487zM49 65v330q101 -90 173 -90q38 0 67 25q42 37 53 101v1002 h256v-994q0 -387 -251 -440q-34 -7 -70 -7q-56 0 -116 17q-83 23 -112 56z" />
<glyph unicode="K" horiz-adv-x="1205" d="M0 -67l98 -103h355v381l133 -278l98 -103h421l-438 853l420 711l-99 103h-415l-120 -219v116l-99 103h-354v-1564zM49 2v1426h256v-531l292 531h287l-377 -639l404 -787h-299l-307 638v-638h-256z" />
<glyph unicode="L" horiz-adv-x="938" d="M0 -67l98 -103h740v439l-98 103h-285v1022l-98 103h-357v-1564zM49 2v1426h259v-1125h383v-301h-642z" />
<glyph unicode="M" horiz-adv-x="1244" d="M0 -67l98 -103h351v669l71 -134l98 -103l71 134v-463l99 -103h356v1559l-98 103h-333l-168 -336l-120 233l-98 103h-327v-1559zM49 2v1422h252l222 -431l215 431h259v-1422h-259v892l-218 -414l-219 408v-886h-252z" />
<glyph unicode="N" horiz-adv-x="1155" d="M0 -67l98 -103h360v493l185 -390l98 -103h314v1561l-98 103h-352v-492l-168 389l-99 103h-338v-1561zM49 2v1424h262l343 -793v793h254v-1424h-238l-359 755v-755h-262z" />
<glyph unicode="O" horiz-adv-x="1330" d="M0 705q0 -214 77 -398q74 -178 201 -284q163 -213 386 -213q234 0 400 232t166 560q0 214 -77 398q-74 179 -201 284q-163 213 -386 213q-235 0 -400 -232q-166 -232 -166 -560zM49 705q0 300 151 512q152 212 366 212t365 -212q152 -212 152 -512q0 -299 -152 -511 q-151 -212 -365 -212t-366 212q-151 212 -151 511zM302 705q0 -170 77 -289q77 -120 187 -120q109 0 186 120q78 119 78 289t-78 290q-77 120 -186 120q-110 0 -187 -120t-77 -290zM449 602q0 144 65 244q63 97 150 97q33 0 65 -16q52 -96 52 -222q0 -144 -65 -243 q-63 -98 -150 -98q-34 0 -65 17q-52 94 -52 221z" />
<glyph unicode="P" horiz-adv-x="1030" d="M0 -67l98 -103h366v510l55 1q44 1 70 1q9 0 33 -3q121 0 210 171q83 157 89 351v28q0 296 -184 427q-115 176 -350 176h-387v-1559zM49 2v1422h338q205 0 306 -143q80 -113 80 -289v-25q-5 -175 -78 -313q-76 -143 -171 -143q0 2 -52 2.5t-155 -2.5v-509h-268zM317 822 h114q45 0 71 39q24 35 24 86q0 50 -24 85q-26 39 -71 39h-114v-249z" />
<glyph unicode="Q" horiz-adv-x="1379" d="M0 718q0 -214 77 -398q74 -178 201 -284q163 -213 386 -213q109 0 210 56l76 -79v1q31 -38 67 -64q54 -37 107 -37q66 0 131 56l24 20v410l-99 103q50 154 50 326q0 214 -77 398q-74 179 -201 284q-163 213 -386 213q-234 0 -400 -232t-166 -560zM49 718q0 300 151 512 q152 212 366 212t365 -212q152 -212 152 -512q0 -259 -117 -458q37 -66 105 -71q34 -3 61 8v-280q-53 -45 -105 -45q-43 0 -86 30q-48 33 -77 82l-59 93q-112 -82 -239 -82q-214 0 -366 212q-151 212 -151 511zM302 718q0 -166 75 -285q74 -119 181 -124l-79 86v285 q46 31 93 31l101 -37q48 -35 77 -83l47 -71q33 92 33 198q0 170 -78 290q-77 120 -186 120t-187 -120q-77 -120 -77 -290zM466 747q25 94 79 152q54 57 119 57q33 0 65 -16q52 -95 52 -222q0 -36 -4 -67q-7 10 -15 20q-31 38 -67 64q-61 45 -123 45q-53 0 -106 -33z" />
<glyph unicode="R" horiz-adv-x="1155" d="M0 -67l98 -103h365v526l124 -423l98 -103h364l6 201q-53 42 -69 70q-67 121 -129 381l-2 9q-22 43 -43 77l-5 7q100 114 100 320q0 37 -3 77q-21 272 -180 375q-90 145 -245 145h-479v-1559zM49 2v1422h430q122 0 198 -105q65 -92 79 -236q3 -35 3 -68q0 -97 -28 -182 q-39 -119 -115 -145q33 0 96 -125q65 -272 137 -401q36 -65 59 -76l-3 -84h-285l-137 468q-24 94 -98 110q-17 4 -32 4q-19 0 -37 -6v-576h-267zM316 874h111q37 0 59 31q20 28 21 68q0 40 -20 67q-22 31 -60 31h-111v-197z" />
<glyph unicode="S" horiz-adv-x="1039" d="M8 54l98 -103l23 -21q47 -45 162 -80q100 -30 193 -30q30 0 60 3q158 17 257 125q122 133 136 388q2 22 2 56q0 65 -14 133q-39 192 -170 285q-50 76 -124 120l-15 8q72 -21 169 -71l66 -35v491l-98 103q-185 74 -318 85q-137 0 -246 -96q-101 -90 -145 -231 q-25 -80 -25 -159q0 -62 16 -123q39 -150 163 -246q54 -78 140 -132q75 -45 136 -79q-5 -10 -15 -20q-36 -38 -101 -38q-12 0 -24 1q-110 10 -253 119l-73 56q2 -228 2 -352q0 -83 -1 -119zM58 90q2 46 2 135t-2 221q152 -115 273 -127q13 -1 26 -1q83 0 132 52q41 43 41 97 q0 13 -2 26q-12 71 -82 91q-54 27 -187 106q-117 73 -163 203q-24 70 -24 143q0 52 12 106q30 129 119 211q97 89 231 89q128 -10 270 -68v-340q-173 90 -263 90q-49 0 -74 -26q-16 -17 -16 -40q0 -14 6 -30q16 -42 55 -60q46 -24 201 -102q130 -78 167 -256q12 -62 12 -117 q0 -24 -2 -47q-22 -417 -347 -451q-27 -3 -55 -3q-89 0 -185 29q-106 31 -145 69z" />
<glyph unicode="T" horiz-adv-x="1074" d="M0 1003l98 -103h154v-967l98 -103h356v1070h268v489l-98 103h-876v-489zM49 1071v353h778v-353h-268v-1069h-258v1069h-252z" />
<glyph unicode="U" horiz-adv-x="1147" d="M0 408q0 -241 173 -369q66 -99 180 -152q102 -47 214 -47h5q183 1 317 110q157 127 158 352v1093l-98 103h-357q1 -301 1 -532v-318v-104l-1 -38q0 -81 -37 -127q-32 -42 -81 -43q-6 0 -11 1q-7 29 -7 65v993l-99 103h-357q2 -515 2 -787.5t-2 -302.5zM49 405 q2 30 2 286.5t-2 737.5h259v-924q0 -114 52 -179q46 -59 114 -59q67 1 114 61q53 66 53 177q2 -2 2 229t-2 695h259v-1024q-1 -184 -135 -293q-120 -99 -292 -100h-3q-170 0 -288 97q-133 109 -133 296z" />
<glyph unicode="V" horiz-adv-x="1154" d="M0 1498l335 -1565l98 -103h332l289 1565l-99 103h-365l-68 -399l-60 296l-98 103h-364zM66 1430h260l164 -809l139 809h263l-263 -1428h-257z" />
<glyph unicode="W" horiz-adv-x="1741" d="M0 1498l335 -1565l98 -103h333l54 316l33 -213l98 -103h333l357 1565l-98 103h-361l-90 -430l-64 327l-98 103h-340l-68 -401l-60 298l-98 103h-364zM66 1430h260l165 -814l138 814h263l159 -809l167 809h258l-326 -1428h-258l-125 812l-138 -812h-257z" />
<glyph unicode="X" horiz-adv-x="1286" d="M0 -67l98 -103h365q64 126 114 228l40 82q46 -97 99 -207l98 -103h372l-367 779l359 780l-98 102h-375q-57 -125 -102 -225l-29 -66q-67 158 -65 154l-14 35l-98 102h-392l364 -773zM91 2l337 716l-332 705h272q164 -395 180 -418q13 42 184 418h258l-328 -711l335 -710 h-255q-185 385 -196 426q-11 -39 -207 -426h-248z" />
<glyph unicode="Y" horiz-adv-x="1116" d="M0 1493l277 -1000v-560l98 -103h352v556l289 996l-98 103h-350l-75 -214l-37 119l-98 103h-358zM72 1425h254l129 -418l143 409h247l-265 -914v-500h-254v504z" />
<glyph unicode="Z" horiz-adv-x="1161" d="M0 1070l98 -103h323l-417 -673v-361l98 -103h959v438l-98 104h-298l392 639v377l-98 103h-959v-421zM49 1139v284h861v-284l-513 -836h517v-301h-861v266l539 871h-543z" />
<glyph unicode="[" horiz-adv-x="758" />
<glyph unicode="\" horiz-adv-x="569" />
<glyph unicode="]" horiz-adv-x="758" />
<glyph unicode="^" horiz-adv-x="1014" />
<glyph unicode="_" d="M98 0v1434h1024v-1434h-1024zM147 49h926v1336h-926v-1336z" />
<glyph unicode="`" d="M98 0v1434h1024v-1434h-1024zM147 49h926v1336h-926v-1336z" />
<glyph unicode="a" horiz-adv-x="1357" d="M0 -67l98 -103h369l99 444h143l80 -341l98 -103h370l-406 1565l-99 103h-339zM71 2l376 1427h271l371 -1427h-264l-104 444h-289l-99 -444h-262zM508 764h152l-77 293z" />
<glyph unicode="b" horiz-adv-x="1101" d="M0 -67l98 -103h507q137 0 236 102q90 92 125 242q19 79 19 156q0 67 -14 133q-33 152 -128 243q62 103 62 244q0 41 -5 85q-25 215 -165 307q-95 155 -283 155h-452v-1564zM49 2v1426h403q138 0 218 -90q67 -76 82 -203q4 -33 4 -65q0 -76 -22 -148q-30 -100 -83 -122 q108 -59 156 -194q30 -85 30 -177q0 -44 -7 -89q-22 -144 -103 -236q-88 -102 -220 -102h-458zM308 303h183q37 0 60 44q20 40 21 97v5q0 54 -19 92q-22 44 -62 44h-183v-282zM308 897h123q37 0 60 35q21 34 21 83q0 44 -18 74q-23 35 -63 35h-123v-227zM455 372v42h65 q-9 -42 -29 -42h-36z" />
<glyph unicode="c" horiz-adv-x="1052" d="M0 720q0 -212 77 -395q74 -176 202 -283q170 -222 407 -222q121 0 231 64l30 17l5 510l-98 103l-79 -79q-69 -69 -154 -69q-54 0 -103 30q-58 97 -58 222q0 146 76 250t183 104q82 0 155 -72l78 -78v507l-98 103l-30 18q-113 67 -236 67q-243 0 -415 -232 q-173 -234 -173 -565zM49 720q0 302 158 515t381 213q113 0 217 -61v-328q-87 85 -184 85q-127 0 -218 -124q-90 -124 -90 -299t90 -299q91 -124 218 -124q101 0 182 81l-3 -328q-101 -59 -212 -59q-223 0 -381 213t-158 515z" />
<glyph unicode="d" horiz-adv-x="1174" d="M0 -65l98 -104h400q12 -1 26 -1q28 0 62 4q106 14 195 69q290 182 291 713q0 12 1 26q0 41 -5 95q-14 145 -60 268q-66 174 -189 273q-164 221 -465 221h-354v-1564zM49 3v1428h305q378 0 512 -355q60 -159 60 -317q0 -19 -1 -38q0 -488 -262 -652q-111 -68 -221 -68 l-41 2h-352zM306 303h137q52 7 105 58q105 103 105 328q1 14 1 29q0 94 -23 187q-54 217 -211 217h-114v-819zM454 376v574h65q23 0 45 -7q41 -94 41 -215q0 -18 -1 -37q0 -191 -84 -274q-26 -25 -58 -38z" />
<glyph unicode="e" horiz-adv-x="973" d="M0 -67l98 -103h775v439l-98 103h-323v42h421v448l-98 91h98v441l-98 103h-775v-1564zM49 2v1426h677v-304h-422v-227h422v-312h-422v-282h422v-301h-677z" />
<glyph unicode="f" horiz-adv-x="944" d="M0 -67l98 -103h356v584h390v448l-98 91h98v441l-98 103h-746v-1564zM49 2v1426h648v-304h-391v-227h391v-312h-391v-583h-257z" />
<glyph unicode="g" horiz-adv-x="1167" d="M0 713q0 -212 78 -395q75 -177 204 -286q180 -232 431 -232q178 0 328 124l24 20v760l-99 103h-353v-444q-59 8 -111 42q-60 98 -60 218q0 148 86 256q89 110 216 110q77 0 144 -45l82 -72q5 -6 96 -103l1 504l-98 103l-24 20q-151 127 -330 127q-254 0 -434 -236 q-181 -237 -181 -574zM49 713q0 307 166 524q165 217 400 217q166 0 305 -117l-1 -337q-106 161 -273 161q-145 0 -248 -128q-103 -127 -103 -307q0 -179 103 -307q103 -127 248 -127q5 0 16 1v18v427h255v-652q-137 -114 -302 -114q-235 0 -400 217q-166 217 -166 524z" />
<glyph unicode="h" horiz-adv-x="1147" d="M0 -67l98 -103h357v584h137v-481l98 -103h357v1564l-98 103h-357v-532h-137v429l-98 103h-357v-1564zM49 2v1426h259v-531h333v531h259v-1426h-259v583h-333v-583h-259z" />
<glyph unicode="i" horiz-adv-x="555" d="M0 -67l98 -103h357v1564l-98 103h-357v-1564zM49 2v1426h259v-1426h-259z" />
<glyph unicode="j" horiz-adv-x="845" d="M0 33l98 -103l18 -20q38 -45 134 -72q64 -18 124 -18q40 0 78 8q127 27 203 138q90 134 90 370v1062l-98 103h-354q0 -1070 0 -1057q-1 -7 -5 -17q-10 -25 -25 -38q-18 -16 -42 -16q-56 0 -146 80l-75 67v-487zM49 65v330q101 -90 173 -90q38 0 67 25q42 37 53 101v1002 h256v-994q0 -387 -251 -440q-34 -7 -70 -7q-56 0 -116 17q-83 23 -112 56z" />
<glyph unicode="k" horiz-adv-x="1205" d="M0 -67l98 -103h355v381l133 -278l98 -103h421l-438 853l420 711l-99 103h-415l-120 -219v116l-99 103h-354v-1564zM49 2v1426h256v-531l292 531h287l-377 -639l404 -787h-299l-307 638v-638h-256z" />
<glyph unicode="l" horiz-adv-x="938" d="M0 -67l98 -103h740v439l-98 103h-285v1022l-98 103h-357v-1564zM49 2v1426h259v-1125h383v-301h-642z" />
<glyph unicode="m" horiz-adv-x="1244" d="M0 -67l98 -103h351v669l71 -134l98 -103l71 134v-463l99 -103h356v1559l-98 103h-333l-168 -336l-120 233l-98 103h-327v-1559zM49 2v1422h252l222 -431l215 431h259v-1422h-259v892l-218 -414l-219 408v-886h-252z" />
<glyph unicode="n" horiz-adv-x="1155" d="M0 -67l98 -103h360v493l185 -390l98 -103h314v1561l-98 103h-352v-492l-168 389l-99 103h-338v-1561zM49 2v1424h262l343 -793v793h254v-1424h-238l-359 755v-755h-262z" />
<glyph unicode="o" horiz-adv-x="1330" d="M0 705q0 -214 77 -398q74 -178 201 -284q163 -213 386 -213q234 0 400 232t166 560q0 214 -77 398q-74 179 -201 284q-163 213 -386 213q-235 0 -400 -232q-166 -232 -166 -560zM49 705q0 300 151 512q152 212 366 212t365 -212q152 -212 152 -512q0 -299 -152 -511 q-151 -212 -365 -212t-366 212q-151 212 -151 511zM302 705q0 -170 77 -289q77 -120 187 -120q109 0 186 120q78 119 78 289t-78 290q-77 120 -186 120q-110 0 -187 -120t-77 -290zM449 602q0 144 65 244q63 97 150 97q33 0 65 -16q52 -96 52 -222q0 -144 -65 -243 q-63 -98 -150 -98q-34 0 -65 17q-52 94 -52 221z" />
<glyph unicode="p" horiz-adv-x="1030" d="M0 -67l98 -103h366v510l55 1q44 1 70 1q9 0 33 -3q121 0 210 171q83 157 89 351v28q0 296 -184 427q-115 176 -350 176h-387v-1559zM49 2v1422h338q205 0 306 -143q80 -113 80 -289v-25q-5 -175 -78 -313q-76 -143 -171 -143q0 3 -52 3t-155 -3v-509h-268zM317 822h114 q45 0 71 39q24 35 24 86q0 50 -24 85q-26 39 -71 39h-114v-249z" />
<glyph unicode="q" horiz-adv-x="1379" d="M0 718q0 -214 77 -398q74 -178 201 -284q163 -213 386 -213q109 0 210 56l76 -79v1q31 -38 67 -64q54 -37 107 -37q66 0 131 56l24 20v410l-99 103q50 154 50 326q0 214 -77 398q-74 179 -201 284q-163 213 -386 213q-234 0 -400 -232t-166 -560zM49 718q0 300 151 512 q152 212 366 212t365 -212q152 -212 152 -512q0 -259 -117 -458q37 -66 105 -71q34 -3 61 8v-280q-53 -45 -105 -45q-43 0 -86 30q-48 33 -77 82l-59 93q-112 -82 -239 -82q-214 0 -366 212q-151 212 -151 511zM302 718q0 -166 75 -285q74 -119 181 -124l-79 86v285 q46 31 93 31l101 -37q48 -35 77 -83l47 -71q33 92 33 198q0 170 -78 290q-77 120 -186 120t-187 -120q-77 -120 -77 -290zM466 747q25 94 79 152q54 57 119 57q33 0 65 -16q52 -95 52 -222q0 -36 -4 -67q-7 10 -15 20q-31 38 -67 64q-61 45 -123 45q-53 0 -106 -33z" />
<glyph unicode="r" horiz-adv-x="1155" d="M0 -67l98 -103h365v526l124 -423l98 -103h364l6 201q-53 42 -69 70q-67 121 -129 381l-2 9q-22 43 -43 77l-5 7q100 114 100 320q0 37 -3 77q-21 272 -180 375q-90 145 -245 145h-479v-1559zM49 2v1422h430q122 0 198 -105q65 -92 79 -236q3 -35 3 -68q0 -97 -28 -182 q-39 -119 -115 -145q33 0 96 -125q65 -272 137 -401q36 -65 59 -76l-3 -84h-285l-137 468q-24 94 -98 110q-17 4 -32 4q-19 0 -37 -6v-576h-267zM316 874h111q37 0 59 31q20 28 21 68q0 40 -20 67q-22 31 -60 31h-111v-197z" />
<glyph unicode="s" horiz-adv-x="1039" d="M8 54l98 -103l23 -21q47 -45 162 -80q100 -30 193 -30q30 0 60 3q158 17 257 125q122 133 136 388q2 22 2 56q0 65 -14 133q-39 192 -170 285q-50 76 -124 120l-15 8q72 -21 169 -71l66 -35v491l-98 103q-185 74 -318 85q-137 0 -246 -96q-101 -90 -145 -231 q-25 -80 -25 -159q0 -62 16 -123q39 -150 163 -246q54 -78 140 -132q75 -45 136 -79q-5 -10 -15 -20q-36 -38 -101 -38q-12 0 -24 1q-110 10 -253 119l-73 56q2 -228 2 -352q0 -83 -1 -119zM58 90q2 46 2 135t-2 221q152 -115 273 -127q13 -1 26 -1q83 0 132 52q41 43 41 97 q0 13 -2 26q-12 71 -82 91q-54 27 -187 106q-117 73 -163 203q-24 70 -24 143q0 52 12 106q30 129 119 211q97 89 231 89q128 -10 270 -68v-340q-173 90 -263 90q-49 0 -74 -26q-16 -17 -16 -40q0 -14 6 -30q16 -42 55 -60q46 -24 201 -102q130 -78 167 -256q12 -62 12 -117 q0 -24 -2 -47q-22 -417 -347 -451q-27 -3 -55 -3q-89 0 -185 29q-106 31 -145 69z" />
<glyph unicode="t" horiz-adv-x="1074" d="M0 1003l98 -103h154v-967l98 -103h356v1070h268v489l-98 103h-876v-489zM49 1071v353h778v-353h-268v-1069h-258v1069h-252z" />
<glyph unicode="u" horiz-adv-x="1147" d="M0 408q0 -241 173 -369q66 -99 180 -152q102 -47 214 -47h5q183 1 317 110q157 127 158 352v1093l-98 103h-357q1 -301 1 -532v-318v-104l-1 -38q0 -81 -37 -127q-32 -42 -81 -43q-6 0 -11 1q-7 29 -7 65v993l-99 103h-357q2 -515 2 -787.5t-2 -302.5zM49 405 q2 30 2 286.5t-2 737.5h259v-924q0 -114 52 -179q46 -59 114 -59q67 1 114 61q53 66 53 177q2 -2 2 229t-2 695h259v-1024q-1 -184 -135 -293q-120 -99 -292 -100h-3q-170 0 -288 97q-133 109 -133 296z" />
<glyph unicode="v" horiz-adv-x="1154" d="M0 1498l335 -1565l98 -103h332l289 1565l-99 103h-365l-68 -399l-60 296l-98 103h-364zM66 1430h260l164 -809l139 809h263l-263 -1428h-257z" />
<glyph unicode="w" horiz-adv-x="1741" d="M0 1498l335 -1565l98 -103h333l54 316l33 -213l98 -103h333l357 1565l-98 103h-361l-90 -430l-64 327l-98 103h-340l-68 -401l-60 298l-98 103h-364zM66 1430h260l165 -814l138 814h263l159 -809l167 809h258l-326 -1428h-258l-125 812l-138 -812h-257z" />
<glyph unicode="x" horiz-adv-x="1286" d="M0 -67l98 -103h365q64 126 114 228l40 82q46 -97 99 -207l98 -103h372l-367 779l359 780l-98 102h-375q-57 -125 -102 -225l-29 -66q-67 158 -65 154l-14 35l-98 102h-392l364 -773zM91 2l337 716l-332 705h272q164 -395 180 -418q13 42 184 418h258l-328 -711l335 -710 h-255q-185 385 -196 426q-11 -39 -207 -426h-248z" />
<glyph unicode="y" horiz-adv-x="1116" d="M0 1493l277 -1000v-560l98 -103h352v556l289 996l-98 103h-350l-75 -214l-37 119l-98 103h-358zM72 1425h254l129 -418l143 409h247l-265 -914v-500h-254v504z" />
<glyph unicode="z" horiz-adv-x="1161" d="M0 1070l98 -103h323l-417 -673v-361l98 -103h959v438l-98 104h-298l392 639v377l-98 103h-959v-421zM49 1139v284h861v-284l-513 -836h517v-301h-861v266l539 871h-543z" />
<glyph unicode="{" d="M98 0v1434h1024v-1434h-1024zM147 49h926v1336h-926v-1336z" />
<glyph unicode="|" d="M98 0v1434h1024v-1434h-1024zM147 49h926v1336h-926v-1336z" />
<glyph unicode="}" d="M98 0v1434h1024v-1434h-1024zM147 49h926v1336h-926v-1336z" />
<glyph unicode="~" d="M98 0v1434h1024v-1434h-1024zM147 49h926v1336h-926v-1336z" />
<glyph unicode="&#xa1;" horiz-adv-x="672" />
<glyph unicode="&#xa2;" horiz-adv-x="1139" />
<glyph unicode="&#xa3;" d="M98 0v1434h1024v-1434h-1024zM147 49h926v1336h-926v-1336z" />
<glyph unicode="&#xa4;" d="M98 0v1434h1024v-1434h-1024zM147 49h926v1336h-926v-1336z" />
<glyph unicode="&#xa5;" d="M98 0v1434h1024v-1434h-1024zM147 49h926v1336h-926v-1336z" />
<glyph unicode="&#xa6;" d="M98 0v1434h1024v-1434h-1024zM147 49h926v1336h-926v-1336z" />
<glyph unicode="&#xa7;" d="M98 0v1434h1024v-1434h-1024zM147 49h926v1336h-926v-1336z" />
<glyph unicode="&#xa8;" d="M98 0v1434h1024v-1434h-1024zM147 49h926v1336h-926v-1336z" />
<glyph unicode="&#xa9;" d="M98 0v1434h1024v-1434h-1024zM147 49h926v1336h-926v-1336z" />
<glyph unicode="&#xaa;" horiz-adv-x="648" />
<glyph unicode="&#xab;" d="M98 0v1434h1024v-1434h-1024zM147 49h926v1336h-926v-1336z" />
<glyph unicode="&#xac;" d="M98 0v1434h1024v-1434h-1024zM147 49h926v1336h-926v-1336z" />
<glyph unicode="&#xad;" horiz-adv-x="670" d="M116 437v83q0 29 41 29h356q41 0 41 -29v-83q0 -28 -40 -28h-358q-40 0 -40 28z" />
<glyph unicode="&#xae;" d="M98 0v1434h1024v-1434h-1024zM147 49h926v1336h-926v-1336z" />
<glyph unicode="&#xaf;" horiz-adv-x="670" />
<glyph unicode="&#xb0;" d="M98 0v1434h1024v-1434h-1024zM147 49h926v1336h-926v-1336z" />
<glyph unicode="&#xb1;" horiz-adv-x="1014" />
<glyph unicode="&#xb2;" horiz-adv-x="1014" />
<glyph unicode="&#xb3;" horiz-adv-x="1014" />
<glyph unicode="&#xb4;" d="M98 0v1434h1024v-1434h-1024zM147 49h926v1336h-926v-1336z" />
<glyph unicode="&#xb5;" horiz-adv-x="1180" />
<glyph unicode="&#xb6;" d="M98 0v1434h1024v-1434h-1024zM147 49h926v1336h-926v-1336z" />
<glyph unicode="&#xb7;" d="M98 0v1434h1024v-1434h-1024zM147 49h926v1336h-926v-1336z" />
<glyph unicode="&#xb8;" d="M98 0v1434h1024v-1434h-1024zM147 49h926v1336h-926v-1336z" />
<glyph unicode="&#xb9;" horiz-adv-x="1014" />
<glyph unicode="&#xba;" horiz-adv-x="718" />
<glyph unicode="&#xbb;" d="M98 0v1434h1024v-1434h-1024zM147 49h926v1336h-926v-1336z" />
<glyph unicode="&#xbc;" horiz-adv-x="1708" />
<glyph unicode="&#xbd;" horiz-adv-x="1964" />
<glyph unicode="&#xbe;" horiz-adv-x="1708" />
<glyph unicode="&#xbf;" horiz-adv-x="748" />
<glyph unicode="&#xc0;" horiz-adv-x="1540" />
<glyph unicode="&#xc1;" horiz-adv-x="1540" />
<glyph unicode="&#xc2;" horiz-adv-x="1540" />
<glyph unicode="&#xc3;" horiz-adv-x="1540" />
<glyph unicode="&#xc4;" horiz-adv-x="1540" />
<glyph unicode="&#xc5;" horiz-adv-x="1540" />
<glyph unicode="&#xc6;" horiz-adv-x="2118" />
<glyph unicode="&#xc7;" horiz-adv-x="1399" />
<glyph unicode="&#xc8;" horiz-adv-x="1151" />
<glyph unicode="&#xc9;" horiz-adv-x="1151" />
<glyph unicode="&#xca;" horiz-adv-x="1151" />
<glyph unicode="&#xcb;" horiz-adv-x="1151" />
<glyph unicode="&#xcc;" horiz-adv-x="657" />
<glyph unicode="&#xcd;" horiz-adv-x="657" />
<glyph unicode="&#xce;" horiz-adv-x="657" />
<glyph unicode="&#xcf;" horiz-adv-x="657" />
<glyph unicode="&#xd0;" horiz-adv-x="1518" />
<glyph unicode="&#xd1;" horiz-adv-x="1554" />
<glyph unicode="&#xd2;" horiz-adv-x="1614" />
<glyph unicode="&#xd3;" horiz-adv-x="1614" />
<glyph unicode="&#xd4;" horiz-adv-x="1614" />
<glyph unicode="&#xd5;" horiz-adv-x="1614" />
<glyph unicode="&#xd6;" horiz-adv-x="1614" />
<glyph unicode="&#xd7;" d="M98 0v1434h1024v-1434h-1024zM147 49h926v1336h-926v-1336z" />
<glyph unicode="&#xd8;" horiz-adv-x="1614" />
<glyph unicode="&#xd9;" horiz-adv-x="1501" />
<glyph unicode="&#xda;" horiz-adv-x="1501" />
<glyph unicode="&#xdb;" horiz-adv-x="1501" />
<glyph unicode="&#xdc;" horiz-adv-x="1501" />
<glyph unicode="&#xdd;" horiz-adv-x="1233" />
<glyph unicode="&#xde;" horiz-adv-x="1120" />
<glyph unicode="&#xdf;" horiz-adv-x="1251" />
<glyph unicode="&#xe0;" horiz-adv-x="922" />
<glyph unicode="&#xe1;" horiz-adv-x="922" />
<glyph unicode="&#xe2;" horiz-adv-x="922" />
<glyph unicode="&#xe3;" horiz-adv-x="922" />
<glyph unicode="&#xe4;" horiz-adv-x="922" />
<glyph unicode="&#xe5;" horiz-adv-x="922" />
<glyph unicode="&#xe6;" horiz-adv-x="1454" />
<glyph unicode="&#xe7;" horiz-adv-x="905" />
<glyph unicode="&#xe8;" horiz-adv-x="909" />
<glyph unicode="&#xe9;" horiz-adv-x="909" />
<glyph unicode="&#xea;" horiz-adv-x="909" />
<glyph unicode="&#xeb;" horiz-adv-x="909" />
<glyph unicode="&#xec;" horiz-adv-x="514" />
<glyph unicode="&#xed;" horiz-adv-x="514" />
<glyph unicode="&#xee;" horiz-adv-x="514" />
<glyph unicode="&#xef;" horiz-adv-x="514" />
<glyph unicode="&#xf0;" horiz-adv-x="1139" />
<glyph unicode="&#xf1;" horiz-adv-x="1108" />
<glyph unicode="&#xf2;" horiz-adv-x="1010" />
<glyph unicode="&#xf3;" horiz-adv-x="1010" />
<glyph unicode="&#xf4;" horiz-adv-x="1010" />
<glyph unicode="&#xf5;" horiz-adv-x="1010" />
<glyph unicode="&#xf6;" horiz-adv-x="1010" />
<glyph unicode="&#xf7;" d="M98 0v1434h1024v-1434h-1024zM147 49h926v1336h-926v-1336z" />
<glyph unicode="&#xf8;" horiz-adv-x="1010" />
<glyph unicode="&#xf9;" horiz-adv-x="1059" />
<glyph unicode="&#xfa;" horiz-adv-x="1059" />
<glyph unicode="&#xfb;" horiz-adv-x="1059" />
<glyph unicode="&#xfc;" horiz-adv-x="1059" />
<glyph unicode="&#xfd;" horiz-adv-x="868" />
<glyph unicode="&#xfe;" horiz-adv-x="1010" />
<glyph unicode="&#xff;" horiz-adv-x="868" />
<glyph unicode="&#x2c6;" d="M98 0v1434h1024v-1434h-1024zM147 49h926v1336h-926v-1336z" />
<glyph unicode="&#x2dc;" d="M98 0v1434h1024v-1434h-1024zM147 49h926v1336h-926v-1336z" />
<glyph unicode="&#x2000;" horiz-adv-x="761" />
<glyph unicode="&#x2001;" horiz-adv-x="1523" />
<glyph unicode="&#x2002;" horiz-adv-x="761" />
<glyph unicode="&#x2003;" horiz-adv-x="1523" />
<glyph unicode="&#x2004;" horiz-adv-x="507" />
<glyph unicode="&#x2005;" horiz-adv-x="380" />
<glyph unicode="&#x2006;" horiz-adv-x="253" />
<glyph unicode="&#x2007;" horiz-adv-x="253" />
<glyph unicode="&#x2008;" horiz-adv-x="190" />
<glyph unicode="&#x2009;" horiz-adv-x="304" />
<glyph unicode="&#x200a;" horiz-adv-x="84" />
<glyph unicode="&#x2010;" horiz-adv-x="670" d="M116 437v83q0 29 41 29h356q41 0 41 -29v-83q0 -28 -40 -28h-358q-40 0 -40 28z" />
<glyph unicode="&#x2011;" horiz-adv-x="670" d="M116 437v83q0 29 41 29h356q41 0 41 -29v-83q0 -28 -40 -28h-358q-40 0 -40 28z" />
<glyph unicode="&#x2012;" horiz-adv-x="670" d="M116 437v83q0 29 41 29h356q41 0 41 -29v-83q0 -28 -40 -28h-358q-40 0 -40 28z" />
<glyph unicode="&#x2013;" d="M98 0v1434h1024v-1434h-1024zM147 49h926v1336h-926v-1336z" />
<glyph unicode="&#x2014;" d="M98 0v1434h1024v-1434h-1024zM147 49h926v1336h-926v-1336z" />
<glyph unicode="&#x2018;" d="M98 0v1434h1024v-1434h-1024zM147 49h926v1336h-926v-1336z" />
<glyph unicode="&#x2019;" d="M98 0v1434h1024v-1434h-1024zM147 49h926v1336h-926v-1336z" />
<glyph unicode="&#x201a;" d="M98 0v1434h1024v-1434h-1024zM147 49h926v1336h-926v-1336z" />
<glyph unicode="&#x201c;" d="M98 0v1434h1024v-1434h-1024zM147 49h926v1336h-926v-1336z" />
<glyph unicode="&#x201d;" d="M98 0v1434h1024v-1434h-1024zM147 49h926v1336h-926v-1336z" />
<glyph unicode="&#x201e;" d="M98 0v1434h1024v-1434h-1024zM147 49h926v1336h-926v-1336z" />
<glyph unicode="&#x2022;" d="M98 0v1434h1024v-1434h-1024zM147 49h926v1336h-926v-1336z" />
<glyph unicode="&#x2026;" d="M98 0v1434h1024v-1434h-1024zM147 49h926v1336h-926v-1336z" />
<glyph unicode="&#x202f;" horiz-adv-x="304" />
<glyph unicode="&#x2039;" d="M98 0v1434h1024v-1434h-1024zM147 49h926v1336h-926v-1336z" />
<glyph unicode="&#x203a;" d="M98 0v1434h1024v-1434h-1024zM147 49h926v1336h-926v-1336z" />
<glyph unicode="&#x205f;" horiz-adv-x="380" />
<glyph unicode="&#x20ac;" d="M98 0v1434h1024v-1434h-1024zM147 49h926v1336h-926v-1336z" />
<glyph unicode="&#x2122;" horiz-adv-x="1497" />
<glyph unicode="&#x25fc;" horiz-adv-x="1490" d="M0 0v1490h1490v-1490h-1490z" />
</font>
</defs>
</svg>
