<?xml version="1.0" standalone="no"?>
<!DOCTYPE svg PUBLIC "-//W3C//DTD SVG 1.1//EN" "http://www.w3.org/Graphics/SVG/1.1/DTD/svg11.dtd" >
<svg xmlns="http://www.w3.org/2000/svg" xmlns:xlink="http://www.w3.org/1999/xlink" version="1.1">
<metadata></metadata>
<defs>
<font id="caxton_romanregular" horiz-adv-x="1220" >
<font-face units-per-em="2048" ascent="1638" descent="-410" />
<missing-glyph horiz-adv-x="508" />
<glyph unicode="&#xd;" horiz-adv-x="508" />
<glyph horiz-adv-x="0" />
<glyph horiz-adv-x="0" />
<glyph unicode=" "  horiz-adv-x="508" />
<glyph unicode="&#x09;" horiz-adv-x="508" />
<glyph unicode="&#xa0;" horiz-adv-x="508" />
<glyph unicode="!" horiz-adv-x="672" d="M207 136q0 15 16 31l82 84q15 14 29 14q13 0 31 -16l80 -86q12 -16 12 -29q0 -15 -14 -31l-80 -88q-20 -20 -29 -20q-16 0 -29 14l-88 101q-10 13 -10 26zM264 1364q0 46 21 69t62 23q42 0 62.5 -23t20.5 -69l-80 -1036h-37z" />
<glyph unicode="&#x22;" d="M98 0v1434h1024v-1434h-1024zM147 49h926v1336h-926v-1336z" />
<glyph unicode="#" d="M98 0v1434h1024v-1434h-1024zM147 49h926v1336h-926v-1336z" />
<glyph unicode="$" d="M98 0v1434h1024v-1434h-1024zM147 49h926v1336h-926v-1336z" />
<glyph unicode="%" d="M98 0v1434h1024v-1434h-1024zM147 49h926v1336h-926v-1336z" />
<glyph unicode="&#x26;" d="M98 0v1434h1024v-1434h-1024zM147 49h926v1336h-926v-1336z" />
<glyph unicode="'" d="M98 0v1434h1024v-1434h-1024zM147 49h926v1336h-926v-1336z" />
<glyph unicode="(" d="M98 0v1434h1024v-1434h-1024zM147 49h926v1336h-926v-1336z" />
<glyph unicode=")" d="M98 0v1434h1024v-1434h-1024zM147 49h926v1336h-926v-1336z" />
<glyph unicode="*" d="M98 0v1434h1024v-1434h-1024zM147 49h926v1336h-926v-1336z" />
<glyph unicode="+" d="M98 0v1434h1024v-1434h-1024zM147 49h926v1336h-926v-1336z" />
<glyph unicode="," horiz-adv-x="557" d="M119 91v42l119 125q44 0 88.5 -65.5t44.5 -151.5q0 -109 -71 -226.5t-139 -117.5v43q73 43 87 190q0 119 -129 161z" />
<glyph unicode="-" horiz-adv-x="670" d="M116 437v83q0 29 41 29h356q41 0 41 -29v-83q0 -28 -40 -28h-358q-40 0 -40 28z" />
<glyph unicode="." horiz-adv-x="557" d="M129 136q0 15 16 31l82 84q15 14 29 14q13 0 31 -16l80 -86q12 -16 12 -29q0 -15 -14 -31l-80 -88q-20 -20 -29 -20q-16 0 -29 14l-88 101q-10 13 -10 26z" />
<glyph unicode="/" horiz-adv-x="569" d="M13 -50l541 1484h80l-541 -1484h-80z" />
<glyph unicode="0" horiz-adv-x="1053" d="M2 633q-2 -287 136 -477q133 -182 294 -152q203 39 336 268q130 224 133 524q2 294 -136 484q-136 189 -323 153q-184 -35 -311 -270q-127 -232 -129 -530zM241 690q-3 472 214 503q73 10 141 -117q73 -136 73 -321q0 -458 -214 -503q-88 -19 -150 108t-64 330z" />
<glyph unicode="1" horiz-adv-x="841" d="M9 1096q-9 -43 12 -64q25 -24 87 -9l121 35v-806q0 -19 -15 -42q-31 -44 -106 -58q-13 0 -33 -25q-22 -28 -25 -56q-10 -78 143 -70q258 30 371 4q27 -6 62 19q34 26 49 60q16 39 -7 65q-27 31 -104 34q-75 -16 -76 104q-9 957 24 1053q6 9 3 30q-4 23 -19 38 q-40 44 -121 -12q-133 -160 -275 -182q-28 -6 -56 -43q-27 -36 -35 -75z" />
<glyph unicode="2" horiz-adv-x="984" d="M26 144q-26 -140 122 -122q187 29 481 4q32 -10 65 -2q66 15 74 101q9 139 32 200q34 64 27 83q-17 40 -48 53q-60 28 -126 -100q-4 -20 -20 -41q-32 -42 -90 -45h-225q266 275 335 373q78 107 105 256q28 149 -6 273q-38 135 -137 191q-114 64 -287 10q-59 -5 -80 17 q-19 15 -43 12q-47 -7 -71 -98l-59 -262q-5 -13 0 -29q9 -33 59 -48q68 4 113 111q30 90 107 105q72 15 131 -43q64 -61 63 -166q-2 -123 -99 -264l-367 -425q-43 -74 -56 -144z" />
<glyph unicode="3" horiz-adv-x="1061" d="M42 358q-42 -67 5 -146q17 -39 58 -84q81 -90 200 -122q68 -16 164 11q190 55 324 274q73 108 88 243q30 270 -258 405l224 361q8 13 7 33q0 41 -41 80q-61 23 -103 -3h-319q-78 -10 -109 3q-26 14 -57 11q-62 -8 -83 -97l-45 -183q-30 -76 -5 -99q17 -31 45 -38 q56 -14 109 104q33 47 92 50l226 3l-192 -302q-12 -9 -19 -27q-12 -35 16 -72l44 -50q37 -23 70 -23h59q109 -81 116 -192q6 -96 -61 -176q-66 -79 -153 -88q-96 -9 -159 77q-13 10 -17 30q-9 40 30 90q18 17 14 46q-4 27 -25 47q-54 51 -123 -17z" />
<glyph unicode="4" horiz-adv-x="991" d="M35 505q66 -93 96 -93h329v-150q0 -26 -12 -50q-23 -50 -81 -47q-50 -24 -54 -59q-11 -30 -7 -58q8 -57 88 -46q189 51 309 0q21 0 46 10q49 20 66 70q15 19 12 42q-7 45 -97 60q-50 10 -50 54v174q35 15 54 54l101 155q6 10 6 25q0 29 -33 53q-9 11 -21 17 q-24 13 -41 -11l-66 -64v724q4 21 -2 40q-11 39 -60 33l-96 -44q-39 -19 -62 -68l-417 -705q-43 -77 -8 -116zM255 641l205 340v-340h-205z" />
<glyph unicode="5" horiz-adv-x="1017" d="M10 296q-10 -68 31 -131q75 -105 202 -147q254 -84 515 229q68 91 88 224q21 139 -24 257q-50 132 -170 195q-139 73 -353 41l16 163l300 10q70 -5 123 72l78 140q-4 37 -23 62q-38 49 -117 -14q-57 -24 -86 -24h-246l-61 14q-63 16 -94 -34q-25 -33 -33 -91 q-21 -327 -58 -491q45 -130 91 -139q194 140 337 48q62 -41 88 -117q26 -78 5 -172q-14 -64 -68 -109q-51 -42 -116 -51q-68 -9 -121 23q-59 36 -81 113q33 24 54 53q7 5 1 30q-6 26 -22 45q-43 56 -106 -3l-131 -140q-14 -22 -19 -56z" />
<glyph unicode="6" horiz-adv-x="1078" d="M3 542q11 -205 104 -345q87 -130 220 -171q132 -40 266 21q143 65 245 229q66 104 78 246q12 141 -32 262q-47 129 -144 189q-108 68 -256 31l-182 -69q32 84 99 165q134 162 310 150q39 40 57 81q38 82 -62 91l-186 -14q-63 0 -127 -50q-98 -54 -197 -183 q-196 -258 -193 -633zM257 605q-9 84 50 118q159 123 270 20q56 -51 80 -128q58 -253 -58 -348q-45 -38 -104 -36q-56 3 -98 40q-140 108 -140 334z" />
<glyph unicode="7" horiz-adv-x="1023" d="M0 1037q23 -60 90 -57q49 18 74 54l31 66q18 52 118 64l176 6q-103 -163 -201 -382q-196 -438 -172 -717q0 -27 58 -56q62 -31 104 1q79 82 118 115q37 36 26 215q8 107 62 276q108 339 336 650q49 54 51 84q2 22 -23 46q-46 42 -95 30l-75 -24q-249 -9 -395 3 q-42 0 -65 12q-27 12 -57 10q-61 -6 -74 -79q-10 -130 -48 -205z" />
<glyph unicode="8" horiz-adv-x="1130" d="M16 398q-5 -202 148 -316q243 -174 549 30q121 87 177 247q90 253 -182 434q131 117 144 260q12 128 -71 234q-83 104 -212 131q-142 29 -277 -51q-124 -73 -191 -222q-101 -225 126 -407q-205 -124 -211 -340zM303 368q-27 126 42 190q45 41 83 70q47 -23 138 -73 q55 -39 70 -100q13 -55 -9 -112q-22 -56 -66 -89q-47 -35 -99 -29q-130 8 -159 143zM350 1137q25 55 78 72q54 19 95 -20q92 -96 38 -210q-26 -57 -71 -95q-105 56 -139 131q-28 63 -1 122z" />
<glyph unicode="9" horiz-adv-x="1078" d="M12 910q-12 -140 32 -261q48 -130 144 -190q108 -67 256 -31l182 69q-32 -84 -99 -165q-134 -162 -310 -150q-38 -39 -57 -81q-37 -82 62 -91l186 15q64 0 127 49q99 54 197 183q196 259 194 634q-12 204 -105 344q-86 130 -219 171t-267 -20q-143 -65 -245 -229 q-66 -105 -78 -247zM272 817q-58 253 57 349q46 37 104 35q57 -2 98 -39q88 -68 123 -208q17 -70 17 -127q9 -84 -50 -118q-158 -123 -270 -20q-55 52 -79 128z" />
<glyph unicode=":" d="M98 0v1434h1024v-1434h-1024zM147 49h926v1336h-926v-1336z" />
<glyph unicode=";" d="M98 0v1434h1024v-1434h-1024zM147 49h926v1336h-926v-1336z" />
<glyph unicode="&#x3c;" d="M98 0v1434h1024v-1434h-1024zM147 49h926v1336h-926v-1336z" />
<glyph unicode="=" horiz-adv-x="1014" d="M87 491v140h840v-140h-840zM87 803v140h840v-140h-840z" />
<glyph unicode="&#x3e;" d="M98 0v1434h1024v-1434h-1024zM147 49h926v1336h-926v-1336z" />
<glyph unicode="?" horiz-adv-x="748" d="M132 1266v64q128 104 242 104q132 0 212 -68t80 -182q0 -69 -32.5 -140t-124.5 -186q-90 -113 -141.5 -187.5t-51.5 -142.5q0 -63 35 -189h-47q-50 138 -50 211q0 109 116.5 312t116.5 309q0 82 -47 129t-130 47q-84 0 -178 -81zM207 136q0 15 16 31l82 84q15 14 29 14 q13 0 31 -16l80 -86q12 -16 12 -29q0 -15 -14 -31l-80 -88q-20 -20 -29 -20q-16 0 -29 14l-88 101q-10 13 -10 26z" />
<glyph unicode="@" horiz-adv-x="2019" d="M100 508q0 242 124 464.5t345.5 342t456.5 119.5q362 0 609 -230t247 -566q0 -270 -176 -439q-175 -168 -346 -170q-63 1 -100.5 18t-61.5 54q-29 -37 -82 -64.5t-133 -27.5q-144 0 -256.5 100.5t-112.5 233.5q1 87 53 166.5t132.5 115t173.5 49.5q67 16 110 42.5 t43 74.5q-2 69 -41 125t-129 56q-72 0 -121.5 -59t-50.5 -125h-45v159q0 20 72 40q73 20 178 20q109 -2 193.5 -64.5t84.5 -157.5v-589q0 -117 94 -117q185 35 267 191.5t82 382.5q-20 335 -232 540q-197 188 -480 188q-205 0 -392.5 -137.5t-269.5 -355.5 q-67 -178 -67 -361q0 -313 129.5 -511.5t305 -290.5t318.5 -92q274 0 575 208v-75q-263 -184 -571 -184q-240 0 -461 122.5t-343 342t-122 461.5zM753 343q0 -107 64 -194t183 -87q97 5 126 167v476q-54 -63 -154 -83q-83 -10 -151 -80t-68 -199z" />
<glyph unicode="A" horiz-adv-x="1243" d="M0 68q0 -27 17 -46q20 -20 54 -20q14 0 29 2l51 9h25q56 0 122 -10q18 -3 32 -3q44 0 69 35l15 24q11 17 11 41q0 64 -59 69l-14 1q-20 2 -26 9q-10 12 -10 49q0 72 78 363q76 5 132 5q63 0 94 -4v-1q8 -29 28 -103l34 -130q28 -107 28 -143q0 -34 -24 -43 q-39 -13 -56 -43l-9 -19q-13 -17 -13 -42q0 -29 19 -48q20 -19 49 -19q9 0 31 2q78 10 134 10q69 0 139 -11q12 -2 20 -2q43 0 66 36l12 19q15 18 15 46q0 55 -53 67q-26 6 -38 23q-18 26 -44 110l-70 231q-67 219 -131 450l-22 79q-7 25 -11 37v1l-32 113q-30 108 -36 210 q-3 40 -21 69q-21 35 -55 35q-38 0 -64 -47q-24 -46 -62 -58l-19 -7q-25 -7 -38 -27l-20 -45l-3 -18q0 -23 15 -44l4 -6q1 -3 1 -8q0 -33 -28 -135l-47 -178l-153 -542q-60 -206 -109 -242q-30 -21 -41 -45l-10 -26q-6 -16 -6 -30zM446 784l61 221q14 -49 30 -108l10 -39 q3 -11 10 -36q7 -24 10 -37q-27 -2 -77 -2q-32 0 -44 1z" />
<glyph unicode="B" horiz-adv-x="1035" d="M0 1340q0 -62 67 -69l23 -3l13 -1q15 -23 16 -302q1 -110 1 -247q0 -130 -2 -224l-3 -209q-2 -117 -19 -124l-19 -7q-24 -13 -39 -55q-14 -25 -14 -43q0 -30 20 -48q20 -19 51 -19l87 10q25 3 49 3q28 0 120 -11l16 -3q67 -8 99 -8q102 0 200 74q219 168 219 441 q0 122 -50 215q-50 91 -136 130q92 104 92 265q0 153 -82 250q-83 96 -214 96q-33 0 -69 -4l-95 -14q-28 -5 -101 -5q-32 0 -65 4l-53 6q-12 2 -23 2q-44 0 -67 -38l-10 -20q-12 -17 -12 -42zM358 553v137q22 2 54 2q123 0 176 -55q52 -54 52 -181q0 -102 -27 -167 q-40 -95 -131 -95q-84 0 -107 17q-15 12 -15 54v31q0 40 -1 115q-1 19 -1 142zM359 888v33l5 318l10 2q12 1 27 1q67 0 102 -31q49 -45 49 -157q0 -111 -46 -150q-26 -21 -73 -21q-50 0 -74 5z" />
<glyph unicode="C" horiz-adv-x="932" d="M0 690q0 -332 107 -531q106 -199 285 -199q85 0 151 43q59 39 157 151l35 39q39 43 40 86l1 21q0 3 1 10q5 20 5 31q0 30 -19 50q-18 20 -45 20q-34 0 -55 -33l-19 -27q-101 -146 -189 -146q-95 0 -153 149q-59 148 -59 389q0 484 173 484q140 0 162 -142l10 -62 q6 -53 45 -65q11 -4 20 -4q24 0 45 21l22 32q17 21 17 60q0 21 -3 45q-8 92 -8 136q0 37 4 78q4 29 4 48q0 81 -62 81l-28 -6q-14 -2 -36 -18q-15 -2 -25 1l-60 13q-30 8 -74 8q-189 0 -319 -221t-130 -542z" />
<glyph unicode="D" horiz-adv-x="1098" d="M0 1340q0 -70 89 -70q26 0 28 -137l3 -201v-220l-1 -239q0 -212 -6 -265q-5 -43 -24 -52q-28 -13 -42 -35l-13 -25l-3 -8q-7 -17 -7 -31q0 -30 19 -49q20 -19 51 -19h1q19 2 34 4q30 5 46 8q22 2 43 2q30 0 58 -4l78 -13q39 -6 69 -6q232 0 378 226q147 226 147 583 q0 301 -115 481t-307 180q-48 0 -98 -6l-96 -10q-44 -4 -80 -4q-64 0 -117 7q-30 4 -45 4q-41 0 -66 -37l-13 -24q-11 -16 -11 -40zM359 619q0 119 1 190l3 423q41 6 95 6q108 0 164 -86q79 -122 79 -428q0 -254 -59 -393q-58 -139 -164 -139q-81 0 -114 26q-1 2 -1 11 q-2 50 -3 174z" />
<glyph unicode="E" horiz-adv-x="1018" d="M0 1343q0 -66 64 -70q24 -1 32 -7q11 -8 17 -36q8 -46 8 -284l1 -256l-1 -206q-2 -218 -7 -275q-4 -40 -24 -50q-39 -19 -52 -63q-12 -25 -12 -39q0 -30 21 -49q21 -20 53 -20q18 0 32 2q9 1 42 3l373 1q119 0 185 -12q10 -2 22 -2q38 0 55 27l8 10q9 12 12 19 q9 15 10 47l1 41q4 129 20 212q8 38 8 58q0 44 -34 63q-15 8 -29 8l-41 -16l-17 -12q-29 -18 -37 -57l-13 -53q-16 -71 -57 -101q-42 -30 -123 -30q-115 0 -134 18q-20 17 -21 123l-1 107q-1 36 -1 109l1 180q12 1 20 2q42 2 64 2q58 0 80 -20q15 -14 17 -49l3 -51 q5 -76 65 -76q31 0 55 34l16 27q15 22 15 51l-2 134v19q0 55 5 93v8q2 20 2 28q0 30 -18 50q-17 20 -43 20q-18 0 -38 -13l-11 -4q-16 -9 -23 -20l-11 -14q-24 -21 -108 -21q-43 0 -87 5l3 297q56 1 87 1q127 0 170 -30q38 -28 52 -118l4 -29q11 -65 66 -65q28 0 48 25 l12 19q21 19 21 55q0 25 -8 76l-12 97q-6 42 -6 103q0 100 -63 100q-15 0 -28 -5l-26 -8q-11 -5 -18 -9q-14 -5 -42 -7q-17 0 -75 -1l-317 -2q-59 0 -90 2q-29 4 -52 4q-37 0 -60 -35l-15 -22q-13 -18 -13 -43z" />
<glyph unicode="F" horiz-adv-x="959" d="M0 1341q0 -28 18 -48q17 -20 43 -22l22 -3q19 -1 19 -2q16 -21 18 -300l1 -246q0 -372 -5 -483q-4 -65 -22 -74q-29 -14 -41 -31l-18 -35q-9 -16 -9 -37q0 -30 20 -49q19 -19 49 -19q16 0 34 3q7 2 56 6q53 3 74 3q49 0 115 -11q19 -3 35 -3q47 0 70 39l18 30q8 16 8 35 q0 66 -86 70q-37 2 -45 34q-11 41 -12 221l-1 164l1 129h7q10 1 31 1q87 0 112 -23q18 -17 18 -75q2 -98 66 -98q35 0 55 34l13 19q18 24 18 68l-1 31q-3 49 -3 108q0 60 4 97q2 16 2 28q0 30 -19 51q-19 20 -46 20l-13 -1l-33 -16q-11 -5 -24 -19q-26 -28 -95 -28 q-52 0 -92 5l3 320h65q135 0 178 -33q39 -29 52 -129q11 -79 67 -79q39 0 59 38l12 21q5 10 8 22q3 13 3 25q0 17 -5 47q-8 41 -14 100q-2 15 -5 51l-1 9q-3 38 -3 51v11q0 95 -65 95l-17 -1l-12 -6q-3 0 -8 -2q-8 -2 -26 -8q-8 -3 -56 -5l-88 -3q-37 -2 -85 -2l-180 -1 q-29 0 -55 1q-33 2 -96 2q-42 0 -65 -28l-16 -27q-12 -17 -12 -42z" />
<glyph unicode="G" horiz-adv-x="1075" d="M0 668q0 -337 116 -528q115 -190 320 -190q89 0 150 51q112 96 180 115q46 12 60 39l12 33q7 13 7 31q0 8 -4 30q-6 33 -6 210q0 121 8 133q5 3 18 8q30 11 45 42l10 22q9 16 9 37q0 29 -19 48q-19 20 -48 20q-13 0 -31 -2l-56 -4q-19 -2 -47 -2t-65 2l-9 1q-26 1 -58 4 q-18 3 -32 3q-45 0 -69 -38l-13 -20q-13 -20 -13 -44q0 -42 31 -59q19 -9 64 -13q20 -2 27 -18q9 -24 9 -108l-1 -193q0 -36 -16 -53q-23 -26 -87 -26q-145 0 -207 189q-44 131 -44 336q0 240 53 371q53 132 150 132q106 0 155 -45t64 -156q10 -63 63 -63q28 0 51 29l14 18 q21 23 21 61q0 10 -3 29l-2 22q-6 65 -6 109q0 52 8 108q3 30 3 41q0 33 -20 53q-17 18 -42 18l-21 -2l-4 -2q-21 -1 -35 -10l-12 -7q-4 -2 -20 -2q-19 0 -25 1l-71 14q-43 6 -73 6q-212 0 -351 -221q-138 -220 -138 -560z" />
<glyph unicode="H" horiz-adv-x="1205" d="M0 1348q0 -65 80 -70q25 -1 32 -34q10 -48 10 -229l-4 -514q-2 -215 -2 -233q-1 -25 -3 -46q-5 -48 -26 -58q-28 -12 -43 -38l-14 -30q-5 -15 -5 -29q0 -28 19 -47q20 -19 49 -19q14 0 24 2q37 6 133 6q20 0 57 -1l74 -8h6q52 0 73 45l10 17q10 16 10 38q0 28 -18 48 q-18 19 -48 21h-14l-23 1q-17 21 -17 301q0 171 1 228l170 1q102 0 166 -1l-2 -219q-3 -214 -6 -256q-4 -50 -25 -59q-27 -11 -43 -38l-10 -19q-10 -16 -10 -40q0 -28 20 -47q19 -19 48 -19q6 0 19 1l8 1q31 7 129 7q44 0 119 -8q7 -1 14 -1q51 0 75 41l10 18q12 16 12 39 q0 68 -74 70q-24 2 -29 3q-16 20 -16 281q0 98 1 276q0 81 2 223v28q3 222 4 245q2 33 8 43q4 7 20 14q27 14 41 43l9 20q8 15 8 34q0 67 -70 67q-13 0 -15 -1l-64 -7q-17 -2 -46 -2q-85 0 -149 8q-13 2 -20 2q-38 0 -60 -28l-20 -30q-11 -18 -11 -40q0 -70 74 -70h10 q21 0 28 -29q11 -45 11 -201v-142l-219 -1q-89 0 -115 1l1 132q1 208 13 237l17 8q30 11 45 45l7 15q10 18 10 37q0 29 -19 48t-48 19q-12 0 -17 -1l-76 -8q-13 -2 -31 -2q-79 0 -149 8q-14 3 -26 3q-39 0 -60 -27l-21 -34q-9 -18 -9 -39z" />
<glyph unicode="I" horiz-adv-x="630" d="M0 1345q0 -63 60 -69l19 -1q25 -2 32 -31q10 -42 10 -201l-2 -521q-2 -277 -10 -327q-4 -26 -15 -30q-39 -14 -55 -56l-13 -45q0 -28 18 -46t46 -18l84 7q19 2 75 2q71 0 114 -7q14 -2 24 -2q45 0 70 40l12 20q11 17 11 44q-1 60 -76 65q-34 2 -38 38q-6 50 -6 479l3 351 q3 155 4 172q0 20 5 45q4 18 5 18q2 2 17 8q29 14 44 45l10 22q6 16 6 31q0 29 -18 48q-18 18 -46 18h-13l-10 -2q-68 -8 -128 -8t-128 9q-12 1 -20 1q-42 0 -67 -36l-12 -22q-12 -16 -12 -41z" />
<glyph unicode="J" horiz-adv-x="617" d="M0 -217q0 -50 47 -63l26 -11h14q32 0 82 49l14 13q12 11 21 20q-1 -1 10 9l16 14q95 81 126 148q31 66 31 187l-5 251q0 22 -2 162v55q-1 104 -1 201l1 234q2 212 14 230l7 2q33 7 48 43l10 18q8 15 8 33q0 27 -18 46q-19 18 -46 18q-16 0 -34 -3q-42 -7 -102 -7 q-65 0 -116 7q-13 2 -23 2q-40 0 -60 -33l-10 -15q-14 -17 -14 -42q0 -58 78 -69q12 -2 18 -10q7 -10 9 -25q6 -33 7 -267q2 -226 2 -249l-2 -560q0 -214 -106 -311q-50 -45 -50 -77z" />
<glyph unicode="K" horiz-adv-x="1145" d="M0 1346q0 -69 85 -73q22 -2 28 -36q8 -55 8 -497q0 -48 -2 -248l-2 -218q-2 -97 -25 -109l-18 -8q-17 -11 -26 -27l-17 -36q-5 -14 -5 -28q0 -29 20 -50q21 -20 50 -20q7 0 34 4q38 7 108 7q50 0 116 -8q27 -2 36 -2q43 0 67 40l11 18q13 18 13 40q0 69 -84 74 q-19 2 -21 3q-17 21 -17 316l-1 220q20 33 28 35q27 0 105 -260l29 -96q72 -241 115 -320q55 -97 136 -97q58 0 114 65l32 36l20 20q43 40 51 80l7 49q0 29 -18 49t-44 20q-27 0 -51 -23l-34 -34q-22 17 -99 251l-47 146q-83 260 -185 307l75 106q92 129 123 163 q57 62 102 70q38 6 57 34l19 27q12 18 12 43q0 35 -27 54q-19 13 -44 13q-11 0 -23 -2l-58 -7q-32 -3 -60 -3q-41 0 -76 6q-28 4 -37 4q-35 0 -57 -25l-21 -29q-14 -20 -14 -45q0 -47 46 -64q-13 -37 -141 -218l-32 -46v18v19q1 149 8 187q4 28 23 36q29 13 41 39l15 28 q7 14 7 32q0 30 -19 48q-18 19 -48 19q-15 0 -38 -4q-45 -5 -118 -5q-42 0 -95 6q-20 3 -37 3q-47 0 -69 -26l-20 -31q-11 -17 -11 -40z" />
<glyph unicode="L" horiz-adv-x="985" d="M0 1346q0 -19 8 -32q19 -35 57 -39l22 -3q7 0 12 -1q3 -1 2 -1q20 -21 20 -316l-3 -479q-2 -282 -14 -302l-23 -14q-19 -7 -34 -28q-1 -2 -14 -30q-12 -22 -12 -40q0 -67 76 -67l23 1q19 2 87 3q53 1 98 1h177q147 0 223 -16l8 -1q8 -2 15 -2q33 0 56 30l9 15 q18 20 18 76q0 148 17 232q7 34 7 52q0 47 -32 65q-14 8 -29.5 8t-32.5 -8l-28 -22q-26 -19 -38 -69q-23 -93 -62 -126q-34 -28 -103 -28q-64 0 -110 8q-14 3 -26 6l-9 3q-7 27 -7 399q0 41 1 64l2 272q2 202 4 234q0 18 4 45q5 32 21 34q49 9 69 48l11 19q9 17 9 37 q0 38 -27 56q-20 13 -49 13q-11 0 -24 -2q-18 -3 -65 -5q-46 -2 -73 -2q-52 0 -111 7q-17 2 -31 2q-44 0 -64 -21l-21 -31q-14 -19 -14 -45z" />
<glyph unicode="M" horiz-adv-x="1408" d="M0 62q0 -35 25 -52q20 -14 50 -14q8 0 17 1q58 7 92 7q48 0 109 -8q17 -3 30 -3q42 0 69 37l16 24q12 18 12 44q0 65 -77 67q-32 1 -43 15q-18 23 -18 98q0 79 6 174l18 267q4 55 8 111q19 -75 53 -224q27 -118 44 -191l43 -192q30 -142 32 -161q12 -92 69 -92l20 2l12 8 l33 27q9 10 18 28q14 30 29 47q39 42 50 104q24 133 90 416l51 216l20 -287q14 -201 14 -263q0 -99 -28 -104q-31 -6 -47 -27l-19 -35q-12 -19 -12 -40q0 -28 21 -48q20 -20 48 -20q15 0 32 4q16 2 63 6l29 1q28 2 36 2q21 0 66 -5q37 -3 56 -6h9q11 -1 15 -1q44 0 69 37 l13 21q15 19 15 45t-18 46t-42 21l-12 2q-23 2 -33 47q-13 58 -32 270l-41 498q-14 184 -14 227q0 59 18 64q33 10 50 45l14 28q7 15 7 33q0 28 -20 47q-19 20 -47 20q-9 0 -29 -4q-28 -6 -74 -6q-43 0 -68 5q-17 4 -29 4q-65 0 -83 -95l-21 -122q-14 -77 -72 -316l-90 -367 q-6 23 -19 80q-56 228 -69 289l-59 261l-42 202q-14 67 -73 67q-7 0 -23 -3l-11 -2q-26 -6 -46 -6q-23 0 -73 7q-18 3 -34 3q-40 0 -65 -34l-13 -21q-13 -18 -13 -43q0 -66 76 -69q5 0 7 -1q10 -10 10 -55v-7q-4 -109 -13 -218l-23 -300q-5 -68 -16 -186q-19 -227 -30 -286 q-8 -48 -29 -59q-3 -2 -13 -8q-15 -10 -25 -24l-16 -32q-10 -18 -10 -38z" />
<glyph unicode="N" horiz-adv-x="1125" d="M0 1336q0 -62 73 -64q21 -1 29 -9q14 -13 18 -55q5 -59 5 -357q0 -417 -7 -566q-5 -115 -36 -132l-7 -4q-22 -9 -35 -35l-11 -26q-7 -15 -7 -31q0 -28 17 -46q18 -18 44 -18q6 0 22 2q12 1 27 3q14 1 17 2h7q45 3 76 3q26 0 43 -2l48 -5q11 -1 21 -1q53 0 77 40l9 18 q11 16 11 39q0 28 -19 46q-18 19 -46 19l-17 1q-39 1 -51 35q-18 51 -18 232v46q0 104 -1 267v174q44 -93 88 -189l71 -154q51 -111 96 -213l90 -206q44 -100 53 -133q19 -57 62 -57q20 0 39 15l21 21q12 12 21 35q15 33 37 61q37 47 37 96q0 11 -2 32l-1 12q-5 53 -5 264 l-1 41v195l2 244q1 274 29 299l10 9q12 12 19 27l10 21q10 15 10 37q0 27 -19 46q-18 18 -46 18q-5 0 -18 -2q-56 -7 -90 -7q-48 0 -123 7q-10 2 -20 2q-32 0 -53 -23l-23 -35q-10 -18 -10 -37q0 -61 65 -67l17 -1q28 -3 38 -9q16 -9 24 -38q15 -57 16 -293v-97 q0 -36 0.5 -57t-0.5 -26v-177v-34v-30l-11 23q-59 123 -68 145l-155 342q-123 272 -146 341q-25 72 -75 72q-11 0 -30 -3q-18 -4 -49 -4q-37 0 -85 6q-19 3 -29 3q-36 0 -57 -26l-19 -36q-9 -16 -9 -36z" />
<glyph unicode="O" horiz-adv-x="1070" d="M0 662q0 -315 115 -508q114 -194 300 -194q206 0 356 234q149 235 149 556q0 320 -112 512q-113 191 -301 191q-210 0 -358 -232q-149 -232 -149 -559zM233 753q0 180 37 295q54 166 178 166q112 0 175 -146t63 -404q0 -168 -34 -284q-53 -180 -178 -180q-113 0 -177 147 q-64 146 -64 406z" />
<glyph unicode="P" horiz-adv-x="973" d="M0 1349q0 -65 76 -71q29 -2 36 -40q8 -48 9 -258v-217q0 -93 -2 -236l-2 -126q-2 -108 -2 -129q0 -100 -25 -108q-30 -12 -45 -37l-12 -25q-10 -19 -10 -38q0 -28 18 -46t48 -18q8 0 20 2l16 2q59 8 122 8q66 0 136 -9q12 -2 18 -2q41 0 73 44l9 12q14 19 14 42 q0 29 -20 48q-19 18 -50 18q-41 0 -54 22q-20 33 -20 151v277q57 -11 103 -11q142 0 254 153q113 152 113 344q0 154 -81 251q-82 98 -211 98q-43 0 -89 -7l-93 -11q-27 -1 -63 -1q-66 0 -142 8q-40 4 -55 4q-33 0 -52 -18l-37 -65v-11zM352 870l5 368l19 3q39 4 60 4 q69 0 104 -34q48 -47 48 -167q0 -112 -32 -181t-85 -69q-80 0 -104 22q-15 14 -15 54z" />
<glyph unicode="Q" horiz-adv-x="1096" d="M0 657q0 -240 68 -415q68 -172 187 -246q-27 -14 -54 -40l-67 -69q-27 -26 -36 -86q-3 -14 -3 -22q0 -25 18 -44q18 -18 43 -18q27 0 59 32q34 36 51 36q26 0 80 -17l74 -23q26 -8 28 -9l135 -47q71 -25 109 -25q67 0 126 74l97 117q22 25 26 57l2 20q0 1 3 25 q0 27 -17 46q-17 18 -42 18q-31 0 -53 -25l-38 -41q-34 -37 -61 -37q-45 0 -133 29l-73 24q169 63 281 279q115 219 115 494q0 322 -113 515q-113 192 -303 192q-210 0 -360 -233q-149 -233 -149 -561zM234 748q0 181 38 297q54 166 178 166q112 0 176 -146q64 -147 64 -406 q0 -169 -35 -286q-53 -180 -179 -180q-114 0 -178 147q-64 148 -64 408z" />
<glyph unicode="R" horiz-adv-x="1139" d="M0 1342q0 -61 64 -67q23 -2 31 -8q11 -10 17 -38q9 -49 9 -287v-234q0 -106 -2 -231l-1 -67q-2 -135 -2 -149q0 -92 -23 -101q-31 -13 -45 -36l-8 -19q-16 -28 -16 -49q0 -31 23 -49q22 -18 56 -11q63 11 137 11q67 0 111 -8q15 -4 28 -4q41 0 68 35l16 26q9 17 9 35 q0 58 -61 68q-35 6 -42 17q-17 27 -17 325l1 194q54 -3 84 -40q36 -44 73 -169l46 -155q62 -205 100 -275q49 -86 122 -86q55 0 116 77q30 38 40 47l18 17q22 22 26 45l7 36q4 13 4 25q0 27 -17 46t-42 19q-30 0 -42 -16l-28 -26q-8 -7 -8 -6q-24 16 -95 258 q-60 205 -118 268q82 54 131 149t49 204q0 145 -79 239t-200 94q-46 0 -114 -10q-103 -14 -149 -14h-15l-64 3q-40 2 -51 4q-42 9 -62 9q-35 0 -56 -27l-18 -29q-11 -17 -11 -40zM354 896l4 335q51 10 83 10q140 0 140 -166q0 -91 -35 -147t-93 -56q-99 0 -99 24z" />
<glyph unicode="S" horiz-adv-x="896" d="M0 45q0 -34 20 -55q17 -19 41 -19l37 10q14 3 28 16q3 2 9 2q12 0 11 0q3 -1 17 -4q15 -3 28 -6q101 -19 142 -19q160 0 286 151q127 152 127 342q0 281 -263 395l-117 50q-127 55 -127 168q0 75 34 120t90 45q166 0 179 -173l2 -21q6 -68 62 -68q30 0 52 29l16 23 q16 19 16 57q0 12 -4 59q-2 19 -2 56q0 74 5 120q7 50 7 60q0 41 -27 60q-14 10 -31 10t-37 -11l-14 -3l-10 -6q-4 -2 -9 -2q-11 0 -86 16q-56 11 -90 11q-149 0 -264 -132q-115 -133 -115 -305q0 -260 242 -368l128 -58q71 -32 98 -74q28 -42 28 -121q0 -99 -40 -154 q-40 -56 -111 -56q-87 0 -145 59t-68 157q-8 84 -63 84q-28 0 -48 -27l-15 -23q-19 -24 -19 -64q0 -15 1 -29l7 -68q2 -25 2 -82q0 -65 -5 -98q-5 -40 -5 -54z" />
<glyph unicode="T" horiz-adv-x="993" d="M0 1055q0 -37 19 -58q17 -19 41 -19q23 0 44 21l14 13q26 22 31 64l11 66q9 59 30 77q27 23 111 25l1 -118q1 -133 1 -248q0 -315 -5 -545q-2 -110 -9 -138q-5 -21 -27 -29q-31 -11 -47 -35l-15 -27q-11 -17 -11 -40q0 -27 18 -46q18 -18 44 -18l96 10q36 3 88 3 q54 0 114 -10q10 -1 18 -1q48 0 72 37l16 24q9 15 9 37q0 66 -75 69q-29 1 -39 16q-17 26 -17 110v167q-1 34 -1 114q0 199 2 304l4 226q0 62 2 137q100 -2 126 -34q23 -30 28 -155q4 -74 60 -74q36 0 59 43l10 13q19 23 19 68l-5 112q-1 34 -1 43q0 66 4 112q3 32 3 52 q0 30 -16 49q-17 20 -42 20l-22 -2l-10 -7l-10 -4q-11 -3 -31 -18q-23 -18 -75 -19l-334 -1l-83 1q-63 2 -78 18l-10 10q-19 22 -45 23q-28 1 -48 -22l-14 -15q-18 -20 -18 -63v-21l2 -101q0 -120 -7 -182q-2 -19 -2 -34z" />
<glyph unicode="U" horiz-adv-x="1160" d="M0 1352q0 -58 59 -67q37 -3 43 -13q18 -27 20 -275l1 -189q0 -155 -4 -290q-1 -19 -1 -59q0 -228 97 -353q96 -126 271 -126q188 0 308 146q120 147 128 386l-6 321l1 197q0 238 29 253l12 6q22 13 35 40l9 18q8 14 8 34q0 29 -19 47t-50 18q-12 0 -28 -3q-43 -7 -94 -7 q-60 0 -98 6q-26 4 -38 4q-37 0 -60 -33l-15 -24q-11 -18 -11 -39q0 -28 18 -47q18 -18 45 -18q31 -1 42 -7q18 -9 26 -39q17 -58 17 -304l1 -98q0 -110 1 -134v-58q0 -257 -53 -354q-45 -82 -150 -82q-91 0 -134 64q-59 86 -59 309v17q0 9 1 40v63q1 96 1 195q2 310 10 355 q4 26 24 32q41 13 56 45l12 22q7 15 7 31q0 33 -25 51q-19 13 -46 13q-8 0 -17 -1q-76 -7 -140 -7q-55 0 -117 8l-9 1q-15 1 -21 1q-36 0 -56 -26l-18 -30q-13 -18 -13 -40z" />
<glyph unicode="V" horiz-adv-x="1153" d="M0 1346q0 -47 49 -63q28 -9 45 -47q22 -49 65 -217q10 -37 58 -210q34 -128 108 -420l50 -197q24 -97 35 -156q12 -66 63 -66q17 0 42 15q26 17 37 40l10 21q6 13 27 37q42 47 53 110q17 99 66 287l128 490q77 289 105 306l12 7q17 10 29 35l11 22q10 18 10 38 q0 26 -19 45q-19 18 -46 18q-7 0 -21 -2q-82 -9 -112 -9q-26 0 -43 2l-45 6q-21 2 -34 2q-41 0 -67 -35l-15 -24q-10 -16 -10 -38q0 -56 72 -66q22 -3 30 -12q12 -13 12 -53q0 -59 -37 -217l-99 -406l-30 -120q-4 16 -18 76l-120 494q-31 121 -31 191q0 34 18 40l24 7 q30 10 46 38l16 27q9 17 9 36q0 28 -18 45q-18 18 -46 18q-10 0 -31 -1l-67 -7q-32 -1 -48 -1q-71 0 -139 7q-20 2 -38 2q-39 0 -64 -28l-16 -22q-16 -19 -16 -45z" />
<glyph unicode="W" horiz-adv-x="1530" d="M0 1343q0 -48 50 -64q22 -8 33 -35q9 -21 17 -56q57 -245 118 -548l66 -320q47 -233 52 -276q8 -74 62 -74q26 0 42 19l5 4q22 11 38 44l17 35q5 8 22 28q35 41 46 103l33 180q3 18 22 109l13 62q33 161 41 196l13 55q3 -18 18 -89q9 -44 50 -259l42 -220q18 -98 32 -199 q8 -64 60 -64q26 0 47 21l14 15q14 13 24 37q18 41 45 71q35 42 46 98l36 190q12 61 45 220l46 210q87 405 135 445q28 22 34 44l6 17q0 -2 0 -1q10 16 10 36q0 29 -21 47t-53 14h-8q-61 -9 -107 -9h-10q-10 0 -49 4l-46 4q-10 2 -19 2q-36 0 -58 -25l-22 -32 q-10 -17 -10 -37q0 -62 70 -70q26 -2 32 -11q9 -11 9 -52q0 -49 -11 -126q-28 -173 -111 -553q-9 46 -22 113l-45 240q-68 360 -68 444q0 16 3 35q2 14 2 28q0 23 -11 42q-5 7 -14 14q-21 23 -47 23q-27 0 -49 -26q-48 -56 -98 -73q-29 -10 -43 -25l-19 -30q-12 -17 -12 -41 q0 -51 53 -64q2 -9 2 -25q0 -53 -37 -228l-55 -270q-6 -29 -33 -154q-1 4 -9 44q-5 29 -9 50l-83 446q-18 99 -18 141q0 49 31 60q27 10 39 27l16 30q12 17 12 41q0 65 -70 65q-18 0 -26 -2l-19 -2q-72 -9 -110 -9q-43 0 -66 4l-52 6q-10 2 -20 2q-37 0 -60 -31l-18 -24 q-11 -17 -11 -41z" />
<glyph unicode="X" horiz-adv-x="1204" d="M0 65q0 -27 21 -46q20 -19 50 -19q8 0 29 4q41 9 117 9q30 0 42 -1l48 -7q19 -3 32 -3q38 0 65 32l10 16q18 17 18 47q0 50 -56 65l-20 5q-5 8 -5 20q0 45 55 153l98 191l120 -234q34 -68 34 -101q0 -22 -3 -22l-29 -12q-20 -9 -36 -34l-12 -22q-12 -17 -12 -40 q0 -35 25 -52q18 -13 44 -13q10 0 21 2l74 9q41 5 77 5q32 0 60 -4l57 -9q15 -3 29 -3q46 0 71 35l19 26q11 16 11 38q0 49 -51 63q-43 13 -87 91l-69 127q-60 108 -78 141l-134 258l182 334q78 142 128 165q30 14 46 41l9 18q11 17 11 39q0 27 -19 46q-19 18 -47 18 q-12 0 -35 -3q-42 -7 -87 -7h-17q-76 2 -110 6q-25 3 -29 3q-38 0 -59 -26l-19 -31q-10 -16 -10 -37q0 -55 54 -64l26 -6q6 -2 6 -20q0 -60 -55 -163l-68 -130l-105 206q-27 53 -27 84q0 18 11 22q37 13 54 39l14 26q10 16 10 37q0 26 -18 44q-20 20 -56 20q-14 0 -22 -1 l-76 -8q-35 -4 -74 -4q-61 0 -129 10q-18 3 -30 3q-40 0 -65 -34l-17 -26q-10 -15 -10 -38q0 -50 51 -65q40 -9 70 -47q36 -47 133 -227l155 -290l-141 -257q-137 -251 -206 -292q-30 -17 -40 -36l-15 -27q-9 -17 -9 -37z" />
<glyph unicode="Y" horiz-adv-x="1120" d="M0 1345q0 -55 50 -62l14 -4q21 -4 108 -215q49 -117 53 -129l122 -309q13 -34 15 -40q17 -48 17 -110l-1 -28v-120q0 -150 -18 -166q-34 -8 -53 -38l-9 -17q-13 -18 -13 -43q0 -27 17 -46q18 -18 44 -18q3 0 36 3q67 7 130 7q62 0 100 -6q19 -4 37 -4q40 0 64 38l15 25 q8 15 8 35q0 60 -67 65q-32 3 -41 14q-15 18 -16 77l-3 194v56q0 101 62 259l167 421q30 74 61 89l18 9q16 10 29 31l13 23q11 17 11 39q0 26 -18 44q-19 19 -45 19q-16 0 -27 -3q-34 -6 -96 -6q-26 0 -64 3q-24 1 -47 3l-9 1q-14 2 -19 2q-33 0 -53 -20l-20 -30 q-14 -17 -14 -41q0 -59 58 -67l29 -3q11 -1 11 -35q0 -45 -38 -151l-52 -144q-26 -74 -47 -126q-27 68 -68 182l-48 132q-28 76 -28 114q0 23 12 24q35 6 52 28l25 39q8 15 8 33q0 65 -75 65l-88 -8q-29 -3 -49 -3q-10 0 -17 1l-66 4q-41 2 -52 4q-27 4 -35 4q-36 0 -61 -31 l-20 -28q-9 -15 -9 -36z" />
<glyph unicode="Z" horiz-adv-x="1007" d="M0 80q0 -33 28 -56l22 -18q15 -9 35 -9q14 0 30 4q26 7 119 7l347 -3q87 -2 105 -3q19 -1 33 -6q19 -6 29 -6q38 0 60 40l15 29q5 14 5 33l1 72q0 24 6 78q9 92 19 143q3 14 3 28q0 28 -18 47q-17 19 -43 19q-21 0 -44 -17l-25 -23q-19 -19 -27 -58q-25 -105 -76 -142 q-52 -36 -174 -36q-87 0 -126 10l98 230q77 183 258 580q93 202 119 254l16 29q23 44 23 70q0 19 -11 36l-8 13q-18 33 -60 33q-11 0 -49 -7q-29 -6 -122 -7h-145q-197 0 -256 25q-17 7 -30 7q-19 0 -36 -12l-23 -22q-21 -21 -21 -65q0 -54 -10 -144q-10 -82 -20 -129 q-4 -19 -4 -34q0 -42 31 -61q13 -8 27 -8q21 0 45 18l19 16q23 17 32 60l9 43q12 57 49 80q52 33 183 33h84q-20 -49 -85 -198l-88 -200q-52 -118 -56 -129l-219 -478q-26 -56 -53 -105q-21 -38 -21 -61z" />
<glyph unicode="[" horiz-adv-x="758" />
<glyph unicode="\" horiz-adv-x="569" />
<glyph unicode="]" horiz-adv-x="758" />
<glyph unicode="^" horiz-adv-x="1014" />
<glyph unicode="_" d="M98 0v1434h1024v-1434h-1024zM147 49h926v1336h-926v-1336z" />
<glyph unicode="`" d="M98 0v1434h1024v-1434h-1024zM147 49h926v1336h-926v-1336z" />
<glyph unicode="a" horiz-adv-x="1243" d="M0 68q0 -27 17 -46q20 -20 54 -20q14 0 29 2l51 9h25q56 0 122 -10q18 -3 32 -3q44 0 69 35l15 24q11 17 11 41q0 64 -59 69l-14 1q-20 2 -26 9q-10 12 -10 49q0 72 78 363q76 5 132 5q63 0 94 -4v-1q8 -29 28 -103l34 -130q28 -107 28 -143q0 -34 -24 -43 q-39 -13 -56 -43l-9 -19q-13 -17 -13 -42q0 -29 19 -48q20 -19 49 -19q9 0 31 2q78 10 134 10q69 0 139 -11q12 -2 20 -2q43 0 66 36l12 19q15 18 15 46q0 55 -53 67q-26 6 -38 23q-18 26 -44 110l-70 231q-67 219 -131 450l-22 79q-7 25 -11 37v1l-32 113q-30 108 -36 210 q-3 40 -21 69q-21 35 -55 35q-38 0 -64 -47q-24 -46 -62 -58l-19 -7q-25 -7 -38 -27l-20 -45l-3 -18q0 -23 15 -44l4 -6q1 -3 1 -8q0 -33 -28 -135l-47 -178l-153 -542q-60 -206 -109 -242q-30 -21 -41 -45l-10 -26q-6 -16 -6 -30zM446 784l61 221q14 -49 30 -108l10 -39 q3 -11 10 -36q7 -24 10 -37q-27 -2 -77 -2q-32 0 -44 1z" />
<glyph unicode="b" horiz-adv-x="1035" d="M0 1340q0 -62 67 -69l23 -3l13 -1q15 -23 16 -302q1 -110 1 -247q0 -130 -2 -224l-3 -209q-2 -117 -19 -124l-19 -7q-24 -13 -39 -55q-14 -25 -14 -43q0 -30 20 -48q20 -19 51 -19l87 10q25 3 49 3q28 0 120 -11l16 -3q67 -8 99 -8q102 0 200 74q219 168 219 441 q0 122 -50 215q-50 91 -136 130q92 104 92 265q0 153 -82 250q-83 96 -214 96q-33 0 -69 -4l-95 -14q-28 -5 -101 -5q-32 0 -65 4l-53 6q-12 2 -23 2q-44 0 -67 -38l-10 -20q-12 -17 -12 -42zM358 553v137q22 2 54 2q123 0 176 -55q52 -54 52 -181q0 -102 -27 -167 q-40 -95 -131 -95q-84 0 -107 17q-15 12 -15 54v31q0 40 -1 115q-1 19 -1 142zM359 888v33l5 318l10 2q12 1 27 1q67 0 102 -31q49 -45 49 -157q0 -111 -46 -150q-26 -21 -73 -21q-50 0 -74 5z" />
<glyph unicode="c" horiz-adv-x="932" d="M0 690q0 -332 107 -531q106 -199 285 -199q85 0 151 43q59 39 157 151l35 39q39 43 40 86l1 21q0 3 1 10q5 20 5 31q0 30 -19 50q-18 20 -45 20q-34 0 -55 -33l-19 -27q-101 -146 -189 -146q-95 0 -153 149q-59 148 -59 389q0 484 173 484q140 0 162 -142l10 -62 q6 -53 45 -65q11 -4 20 -4q24 0 45 21l22 32q17 21 17 60q0 21 -3 45q-8 92 -8 136q0 37 4 78q4 29 4 48q0 81 -62 81l-28 -6q-14 -2 -36 -18q-15 -2 -25 1l-60 13q-30 8 -74 8q-189 0 -319 -221t-130 -542z" />
<glyph unicode="d" horiz-adv-x="1098" d="M0 1340q0 -70 89 -70q26 0 28 -137l3 -201v-220l-1 -239q0 -212 -6 -265q-5 -43 -24 -52q-28 -13 -42 -35l-13 -25l-3 -8q-7 -17 -7 -31q0 -30 19 -49q20 -19 51 -19h1q19 2 34 4q30 5 46 8q22 2 43 2q30 0 58 -4l78 -13q39 -6 69 -6q232 0 378 226q147 226 147 583 q0 301 -115 481t-307 180q-48 0 -98 -6l-96 -10q-44 -4 -80 -4q-64 0 -117 7q-30 4 -45 4q-41 0 -66 -37l-13 -24q-11 -16 -11 -40zM359 619q0 119 1 190l3 423q41 6 95 6q108 0 164 -86q79 -122 79 -428q0 -254 -59 -393q-58 -139 -164 -139q-81 0 -114 26q-1 2 -1 11 q-2 50 -3 174z" />
<glyph unicode="e" horiz-adv-x="1018" d="M0 1343q0 -66 64 -70q24 -1 32 -7q11 -8 17 -36q8 -46 8 -284l1 -256l-1 -206q-2 -218 -7 -275q-4 -40 -24 -50q-39 -19 -52 -63q-12 -25 -12 -39q0 -30 21 -49q21 -20 53 -20q18 0 32 2q9 1 42 3l373 1q119 0 185 -12q10 -2 22 -2q38 0 55 27l8 10q9 12 12 19 q9 15 10 47l1 41q4 129 20 212q8 38 8 58q0 44 -34 63q-15 8 -29 8l-41 -16l-17 -12q-29 -18 -37 -57l-13 -53q-16 -71 -57 -101q-42 -30 -123 -30q-115 0 -134 18q-20 17 -21 123l-1 107q-1 36 -1 109l1 180q12 1 20 2q42 2 64 2q58 0 80 -20q15 -14 17 -49l3 -51 q5 -76 65 -76q31 0 55 34l16 27q15 22 15 51l-2 134v19q0 55 5 93v8q2 20 2 28q0 30 -18 50q-17 20 -43 20q-18 0 -38 -13l-11 -4q-16 -9 -23 -20l-11 -14q-24 -21 -108 -21q-43 0 -87 5l3 297q56 1 87 1q127 0 170 -30q38 -28 52 -118l4 -29q11 -65 66 -65q28 0 48 25 l12 19q21 19 21 55q0 25 -8 76l-12 97q-6 42 -6 103q0 100 -63 100q-15 0 -28 -5l-26 -8q-11 -5 -18 -9q-14 -5 -42 -7q-17 0 -75 -1l-317 -2q-59 0 -90 2q-29 4 -52 4q-37 0 -60 -35l-15 -22q-13 -18 -13 -43z" />
<glyph unicode="f" horiz-adv-x="959" d="M0 1341q0 -28 18 -48q17 -20 43 -22l22 -3q19 -1 19 -2q16 -21 18 -300l1 -246q0 -372 -5 -483q-4 -65 -22 -74q-29 -14 -41 -31l-18 -35q-9 -16 -9 -37q0 -30 20 -49q19 -19 49 -19q16 0 34 3q7 2 56 6q53 3 74 3q49 0 115 -11q19 -3 35 -3q47 0 70 39l18 30q8 16 8 35 q0 66 -86 70q-37 2 -45 34q-11 41 -12 221l-1 164l1 129h7q10 1 31 1q87 0 112 -23q18 -17 18 -75q2 -98 66 -98q35 0 55 34l13 19q18 24 18 68l-1 31q-3 49 -3 108q0 60 4 97q2 16 2 28q0 30 -19 51q-19 20 -46 20l-13 -1l-33 -16q-11 -5 -24 -19q-26 -28 -95 -28 q-52 0 -92 5l3 320h65q135 0 178 -33q39 -29 52 -129q11 -79 67 -79q39 0 59 38l12 21q5 10 8 22q3 13 3 25q0 17 -5 47q-8 41 -14 100q-2 15 -5 51l-1 9q-3 38 -3 51v11q0 95 -65 95l-17 -1l-12 -6q-3 0 -8 -2q-8 -2 -26 -8q-8 -3 -56 -5l-88 -3q-37 -2 -85 -2l-180 -1 q-29 0 -55 1q-33 2 -96 2q-42 0 -65 -28l-16 -27q-12 -17 -12 -42z" />
<glyph unicode="g" horiz-adv-x="1075" d="M0 668q0 -337 116 -528q115 -190 320 -190q89 0 150 51q112 96 180 115q46 12 60 39l12 33q7 13 7 31q0 8 -4 30q-6 33 -6 210q0 121 8 133q5 3 18 8q30 11 45 42l10 22q9 16 9 37q0 29 -19 48q-19 20 -48 20q-13 0 -31 -2l-56 -4q-19 -2 -47 -2t-65 2l-9 1q-26 1 -58 4 q-18 3 -32 3q-45 0 -69 -38l-13 -20q-13 -20 -13 -44q0 -42 31 -59q19 -9 64 -13q20 -2 27 -18q9 -24 9 -108l-1 -193q0 -36 -16 -53q-23 -26 -87 -26q-145 0 -207 189q-44 131 -44 336q0 240 53 371q53 132 150 132q106 0 155 -45t64 -156q10 -63 63 -63q28 0 51 29l14 18 q21 23 21 61q0 10 -3 29l-2 22q-6 65 -6 109q0 52 8 108q3 30 3 41q0 33 -20 53q-17 18 -42 18l-21 -2l-4 -2q-21 -1 -35 -10l-12 -7q-4 -2 -20 -2q-19 0 -25 1l-71 14q-43 6 -73 6q-212 0 -351 -221q-138 -220 -138 -560z" />
<glyph unicode="h" horiz-adv-x="1205" d="M0 1348q0 -65 80 -70q25 -1 32 -34q10 -48 10 -229l-4 -514q-2 -215 -2 -233q-1 -25 -3 -46q-5 -48 -26 -58q-28 -12 -43 -38l-14 -30q-5 -15 -5 -29q0 -28 19 -47q20 -19 49 -19q14 0 24 2q37 6 133 6q20 0 57 -1l74 -8h6q52 0 73 45l10 17q10 16 10 38q0 28 -18 48 q-18 19 -48 21h-14l-23 1q-17 21 -17 301q0 171 1 228l170 1q102 0 166 -1l-2 -219q-3 -214 -6 -256q-4 -50 -25 -59q-27 -11 -43 -38l-10 -19q-10 -16 -10 -40q0 -28 20 -47q19 -19 48 -19q6 0 19 1l8 1q31 7 129 7q44 0 119 -8q7 -1 14 -1q51 0 75 41l10 18q12 16 12 39 q0 68 -74 70q-24 2 -29 3q-16 20 -16 281q0 98 1 276q0 81 2 223v28q3 222 4 245q2 33 8 43q4 7 20 14q27 14 41 43l9 20q8 15 8 34q0 67 -70 67q-13 0 -15 -1l-64 -7q-17 -2 -46 -2q-85 0 -149 8q-13 2 -20 2q-38 0 -60 -28l-20 -30q-11 -18 -11 -40q0 -70 74 -70h10 q21 0 28 -29q11 -45 11 -201v-142l-219 -1q-89 0 -115 1l1 132q1 208 13 237l17 8q30 11 45 45l7 15q10 18 10 37q0 29 -19 48t-48 19q-12 0 -17 -1l-76 -8q-13 -2 -31 -2q-79 0 -149 8q-14 3 -26 3q-39 0 -60 -27l-21 -34q-9 -18 -9 -39z" />
<glyph unicode="i" horiz-adv-x="630" d="M0 1345q0 -63 60 -69l19 -1q25 -2 32 -31q10 -42 10 -201l-2 -521q-2 -277 -10 -327q-4 -26 -15 -30q-39 -14 -55 -56l-13 -45q0 -28 18 -46t46 -18l84 7q19 2 75 2q71 0 114 -7q14 -2 24 -2q45 0 70 40l12 20q11 17 11 44q-1 60 -76 65q-34 2 -38 38q-6 50 -6 479l3 351 q3 155 4 172q0 20 5 45q4 18 5 18q2 2 17 8q29 14 44 45l10 22q6 16 6 31q0 29 -18 48q-18 18 -46 18h-13l-10 -2q-68 -8 -128 -8t-128 9q-12 1 -20 1q-42 0 -67 -36l-12 -22q-12 -16 -12 -41z" />
<glyph unicode="j" horiz-adv-x="617" d="M0 -217q0 -50 47 -63l26 -11h14q32 0 82 49l14 13q12 11 21 20q-1 -1 10 9l16 14q95 81 126 148q31 66 31 187l-5 251q0 22 -2 162v55q-1 104 -1 201l1 234q2 212 14 230l7 2q33 7 48 43l10 18q8 15 8 33q0 27 -18 46q-19 18 -46 18q-16 0 -34 -3q-42 -7 -102 -7 q-65 0 -116 7q-13 2 -23 2q-40 0 -60 -33l-10 -15q-14 -17 -14 -42q0 -58 78 -69q12 -2 18 -10q7 -10 9 -25q6 -33 7 -267q2 -226 2 -249l-2 -560q0 -214 -106 -311q-50 -45 -50 -77z" />
<glyph unicode="k" horiz-adv-x="1145" d="M0 1346q0 -69 85 -73q22 -2 28 -36q8 -55 8 -497q0 -48 -2 -248l-2 -218q-2 -97 -25 -109l-18 -8q-17 -11 -26 -27l-17 -36q-5 -14 -5 -28q0 -29 20 -50q21 -20 50 -20q7 0 34 4q38 7 108 7q50 0 116 -8q27 -2 36 -2q43 0 67 40l11 18q13 18 13 40q0 69 -84 74 q-19 2 -21 3q-17 21 -17 316l-1 220q20 33 28 35q27 0 105 -260l29 -96q72 -241 115 -320q55 -97 136 -97q58 0 114 65l32 36l20 20q43 40 51 80l7 49q0 29 -18 49t-44 20q-27 0 -51 -23l-34 -34q-22 17 -99 251l-47 146q-83 260 -185 307l75 106q92 129 123 163 q57 62 102 70q38 6 57 34l19 27q12 18 12 43q0 35 -27 54q-19 13 -44 13q-11 0 -23 -2l-58 -7q-32 -3 -60 -3q-41 0 -76 6q-28 4 -37 4q-35 0 -57 -25l-21 -29q-14 -20 -14 -45q0 -47 46 -64q-13 -37 -141 -218l-32 -46v18v19q1 149 8 187q4 28 23 36q29 13 41 39l15 28 q7 14 7 32q0 30 -19 48q-18 19 -48 19q-15 0 -38 -4q-45 -5 -118 -5q-42 0 -95 6q-20 3 -37 3q-47 0 -69 -26l-20 -31q-11 -17 -11 -40z" />
<glyph unicode="l" horiz-adv-x="985" d="M0 1346q0 -19 8 -32q19 -35 57 -39l22 -3q7 0 12 -1q3 -1 2 -1q20 -21 20 -316l-3 -479q-2 -282 -14 -302l-23 -14q-19 -7 -34 -28q-1 -2 -14 -30q-12 -22 -12 -40q0 -67 76 -67l23 1q19 2 87 3q53 1 98 1h177q147 0 223 -16l8 -1q8 -2 15 -2q33 0 56 30l9 15 q18 20 18 76q0 148 17 232q7 34 7 52q0 47 -32 65q-14 8 -29.5 8t-32.5 -8l-28 -22q-26 -19 -38 -69q-23 -93 -62 -126q-34 -28 -103 -28q-64 0 -110 8q-14 3 -26 6l-9 3q-7 27 -7 399q0 41 1 64l2 272q2 202 4 234q0 18 4 45q5 32 21 34q49 9 69 48l11 19q9 17 9 37 q0 38 -27 56q-20 13 -49 13q-11 0 -24 -2q-18 -3 -65 -5q-46 -2 -73 -2q-52 0 -111 7q-17 2 -31 2q-44 0 -64 -21l-21 -31q-14 -19 -14 -45z" />
<glyph unicode="m" horiz-adv-x="1408" d="M0 62q0 -35 25 -52q20 -14 50 -14q8 0 17 1q58 7 92 7q48 0 109 -8q17 -3 30 -3q42 0 69 37l16 24q12 18 12 44q0 65 -77 67q-32 1 -43 15q-18 23 -18 98q0 79 6 174l18 267q4 55 8 111q19 -75 53 -224q27 -118 44 -191l43 -192q30 -142 32 -161q12 -92 69 -92l20 2l12 8 l33 27q9 10 18 28q14 30 29 47q39 42 50 104q24 133 90 416l51 216l20 -287q14 -201 14 -263q0 -99 -28 -104q-31 -6 -47 -27l-19 -35q-12 -19 -12 -40q0 -28 21 -48q20 -20 48 -20q15 0 32 4q16 2 63 6l29 1q28 2 36 2q21 0 66 -5q37 -3 56 -6h9q11 -1 15 -1q44 0 69 37 l13 21q15 19 15 45t-18 46t-42 21l-12 2q-23 2 -33 47q-13 58 -32 270l-41 498q-14 184 -14 227q0 59 18 64q33 10 50 45l14 28q7 15 7 33q0 28 -20 47q-19 20 -47 20q-9 0 -29 -4q-28 -6 -74 -6q-43 0 -68 5q-17 4 -29 4q-65 0 -83 -95l-21 -122q-14 -77 -72 -316l-90 -367 q-6 23 -19 80q-56 228 -69 289l-59 261l-42 202q-14 67 -73 67q-7 0 -23 -3l-11 -2q-26 -6 -46 -6q-23 0 -73 7q-18 3 -34 3q-40 0 -65 -34l-13 -21q-13 -18 -13 -43q0 -66 76 -69q5 0 7 -1q10 -10 10 -55v-7q-4 -109 -13 -218l-23 -300q-5 -68 -16 -186q-19 -227 -30 -286 q-8 -48 -29 -59q-3 -2 -13 -8q-15 -10 -25 -24l-16 -32q-10 -18 -10 -38z" />
<glyph unicode="n" horiz-adv-x="1125" d="M0 1336q0 -62 73 -64q21 -1 29 -9q14 -13 18 -55q5 -59 5 -357q0 -417 -7 -566q-5 -115 -36 -132l-7 -4q-22 -9 -35 -35l-11 -26q-7 -15 -7 -31q0 -28 17 -46q18 -18 44 -18q6 0 22 2q12 1 27 3q14 1 17 2h7q45 3 76 3q26 0 43 -2l48 -5q11 -1 21 -1q53 0 77 40l9 18 q11 16 11 39q0 28 -19 46q-18 19 -46 19l-17 1q-39 1 -51 35q-18 51 -18 232v46q0 104 -1 267v174q44 -93 88 -189l71 -154q51 -111 96 -213l90 -206q44 -100 53 -133q19 -57 62 -57q20 0 39 15l21 21q12 12 21 35q15 33 37 61q37 47 37 96q0 11 -2 32l-1 12q-5 53 -5 264 l-1 41v195l2 244q1 274 29 299l10 9q12 12 19 27l10 21q10 15 10 37q0 27 -19 46q-18 18 -46 18q-5 0 -18 -2q-56 -7 -90 -7q-48 0 -123 7q-10 2 -20 2q-32 0 -53 -23l-23 -35q-10 -18 -10 -37q0 -61 65 -67l17 -1q28 -3 38 -9q16 -9 24 -38q15 -57 16 -293v-97 q0 -36 0.5 -57t-0.5 -26v-177v-34v-30l-11 23q-59 123 -68 145l-155 342q-123 272 -146 341q-25 72 -75 72q-11 0 -30 -3q-18 -4 -49 -4q-37 0 -85 6q-19 3 -29 3q-36 0 -57 -26l-19 -36q-9 -16 -9 -36z" />
<glyph unicode="o" horiz-adv-x="1070" d="M0 662q0 -315 115 -508q114 -194 300 -194q206 0 356 234q149 235 149 556q0 320 -112 512q-113 191 -301 191q-210 0 -358 -232q-149 -232 -149 -559zM233 753q0 180 37 295q54 166 178 166q112 0 175 -146t63 -404q0 -168 -34 -284q-53 -180 -178 -180q-113 0 -177 147 q-64 146 -64 406z" />
<glyph unicode="p" horiz-adv-x="973" d="M0 1349q0 -65 76 -71q29 -2 36 -40q8 -48 9 -258v-217q0 -93 -2 -236l-2 -126q-2 -108 -2 -129q0 -100 -25 -108q-30 -12 -45 -37l-12 -25q-10 -19 -10 -38q0 -28 18 -46t48 -18q8 0 20 2l16 2q59 8 122 8q66 0 136 -9q12 -2 18 -2q41 0 73 44l9 12q14 19 14 42 q0 29 -20 48q-19 18 -50 18q-41 0 -54 22q-20 33 -20 151v277q57 -11 103 -11q142 0 254 153q113 152 113 344q0 154 -81 251q-82 98 -211 98q-43 0 -89 -7l-93 -11q-27 -1 -63 -1q-66 0 -142 8q-40 4 -55 4q-33 0 -52 -18l-37 -65v-11zM352 870l5 368l19 3q39 4 60 4 q69 0 104 -34q48 -47 48 -167q0 -112 -32 -181t-85 -69q-80 0 -104 22q-15 14 -15 54z" />
<glyph unicode="q" horiz-adv-x="1096" d="M0 657q0 -240 68 -415q68 -172 187 -246q-27 -14 -54 -40l-67 -69q-27 -26 -36 -86q-3 -14 -3 -22q0 -25 18 -44q18 -18 43 -18q27 0 59 32q34 36 51 36q26 0 80 -17l74 -23q26 -8 28 -9l135 -47q71 -25 109 -25q67 0 126 74l97 117q22 25 26 57l2 20q0 1 3 25 q0 27 -17 46q-17 18 -42 18q-31 0 -53 -25l-38 -41q-34 -37 -61 -37q-45 0 -133 29l-73 24q169 63 281 279q115 219 115 494q0 322 -113 515q-113 192 -303 192q-210 0 -360 -233q-149 -233 -149 -561zM234 748q0 181 38 297q54 166 178 166q112 0 176 -146q64 -147 64 -406 q0 -169 -35 -286q-53 -180 -179 -180q-114 0 -178 147q-64 148 -64 408z" />
<glyph unicode="r" horiz-adv-x="1139" d="M0 1342q0 -61 64 -67q23 -2 31 -8q11 -10 17 -38q9 -49 9 -287v-234q0 -106 -2 -231l-1 -67q-2 -135 -2 -149q0 -92 -23 -101q-31 -13 -45 -36l-8 -19q-16 -28 -16 -49q0 -31 23 -49q22 -18 56 -11q63 11 137 11q67 0 111 -8q15 -4 28 -4q41 0 68 35l16 26q9 17 9 35 q0 58 -61 68q-35 6 -42 17q-17 27 -17 325l1 194q54 -3 84 -40q36 -44 73 -169l46 -155q62 -205 100 -275q49 -86 122 -86q55 0 116 77q30 38 40 47l18 17q22 22 26 45l7 36q4 13 4 25q0 27 -17 46t-42 19q-30 0 -42 -16l-28 -26q-8 -7 -8 -6q-24 16 -95 258 q-60 205 -118 268q82 54 131 149t49 204q0 145 -79 239t-200 94q-46 0 -114 -10q-103 -14 -149 -14h-15l-64 3q-40 2 -51 4q-42 9 -62 9q-35 0 -56 -27l-18 -29q-11 -17 -11 -40zM354 896l4 335q51 10 83 10q140 0 140 -166q0 -91 -35 -147t-93 -56q-99 0 -99 24z" />
<glyph unicode="s" horiz-adv-x="896" d="M0 45q0 -34 20 -55q17 -19 41 -19l37 10q14 3 28 16q3 2 9 2q12 0 11 0q3 -1 17 -4q15 -3 28 -6q101 -19 142 -19q160 0 286 151q127 152 127 342q0 281 -263 395l-117 50q-127 55 -127 168q0 75 34 120t90 45q166 0 179 -173l2 -21q6 -68 62 -68q30 0 52 29l16 23 q16 19 16 57q0 12 -4 59q-2 19 -2 56q0 74 5 120q7 50 7 60q0 41 -27 60q-14 10 -31 10t-37 -11l-14 -3l-10 -6q-4 -2 -9 -2q-11 0 -86 16q-56 11 -90 11q-149 0 -264 -132q-115 -133 -115 -305q0 -260 242 -368l128 -58q71 -32 98 -74q28 -42 28 -121q0 -99 -40 -154 q-40 -56 -111 -56q-87 0 -145 59t-68 157q-8 84 -63 84q-28 0 -48 -27l-15 -23q-19 -24 -19 -64q0 -15 1 -29l7 -68q2 -25 2 -82q0 -65 -5 -98q-5 -40 -5 -54z" />
<glyph unicode="t" horiz-adv-x="993" d="M0 1055q0 -37 19 -58q17 -19 41 -19q23 0 44 21l14 13q26 22 31 64l11 66q9 59 30 77q27 23 111 25l1 -118q1 -133 1 -248q0 -315 -5 -545q-2 -110 -9 -138q-5 -21 -27 -29q-31 -11 -47 -35l-15 -27q-11 -17 -11 -40q0 -27 18 -46q18 -18 44 -18l96 10q36 3 88 3 q54 0 114 -10q10 -1 18 -1q48 0 72 37l16 24q9 15 9 37q0 66 -75 69q-29 1 -39 16q-17 26 -17 110v167q-1 34 -1 114q0 199 2 304l4 226q0 62 2 137q100 -2 126 -34q23 -30 28 -155q4 -74 60 -74q36 0 59 43l10 13q19 23 19 68l-5 112q-1 34 -1 43q0 66 4 112q3 32 3 52 q0 30 -16 49q-17 20 -42 20l-22 -2l-10 -7l-10 -4q-11 -3 -31 -18q-23 -18 -75 -19l-334 -1l-83 1q-63 2 -78 18l-10 10q-19 22 -45 23q-28 1 -48 -22l-14 -15q-18 -20 -18 -63v-21l2 -101q0 -120 -7 -182q-2 -19 -2 -34z" />
<glyph unicode="u" horiz-adv-x="1160" d="M0 1352q0 -58 59 -67q37 -3 43 -13q18 -27 20 -275l1 -189q0 -155 -4 -290q-1 -19 -1 -59q0 -228 97 -353q96 -126 271 -126q188 0 308 146q120 147 128 386l-6 321l1 197q0 238 29 253l12 6q22 13 35 40l9 18q8 14 8 34q0 29 -19 47t-50 18q-12 0 -28 -3q-43 -7 -94 -7 q-60 0 -98 6q-26 4 -38 4q-37 0 -60 -33l-15 -24q-11 -18 -11 -39q0 -28 18 -47q18 -18 45 -18q31 -1 42 -7q18 -9 26 -39q17 -58 17 -304l1 -98q0 -110 1 -134v-58q0 -257 -53 -354q-45 -82 -150 -82q-91 0 -134 64q-59 86 -59 309v17q0 9 1 40v63q1 96 1 195q2 310 10 355 q4 26 24 32q41 13 56 45l12 22q7 15 7 31q0 33 -25 51q-19 13 -46 13q-8 0 -17 -1q-76 -7 -140 -7q-55 0 -117 8l-9 1q-15 1 -21 1q-36 0 -56 -26l-18 -30q-13 -18 -13 -40z" />
<glyph unicode="v" horiz-adv-x="1153" d="M0 1346q0 -47 49 -63q28 -9 45 -47q22 -49 65 -217q10 -37 58 -210q34 -128 108 -420l50 -197q24 -97 35 -156q12 -66 63 -66q17 0 42 15q26 17 37 40l10 21q6 13 27 37q42 47 53 110q17 99 66 287l128 490q77 289 105 306l12 7q17 10 29 35l11 22q10 18 10 38 q0 26 -19 45q-19 18 -46 18q-7 0 -21 -2q-82 -9 -112 -9q-26 0 -43 2l-45 6q-21 2 -34 2q-41 0 -67 -35l-15 -24q-10 -16 -10 -38q0 -56 72 -66q22 -3 30 -12q12 -13 12 -53q0 -59 -37 -217l-99 -406l-30 -120q-4 16 -18 76l-120 494q-31 121 -31 191q0 34 18 40l24 7 q30 10 46 38l16 27q9 17 9 36q0 28 -18 45q-18 18 -46 18q-10 0 -31 -1l-67 -7q-32 -1 -48 -1q-71 0 -139 7q-20 2 -38 2q-39 0 -64 -28l-16 -22q-16 -19 -16 -45z" />
<glyph unicode="w" horiz-adv-x="1530" d="M0 1343q0 -48 50 -64q22 -8 33 -35q9 -21 17 -56q57 -245 118 -548l66 -320q47 -233 52 -276q8 -74 62 -74q26 0 42 19l5 4q22 11 38 44l17 35q5 8 22 28q35 41 46 103l33 180q3 18 22 109l13 62q33 161 41 196l13 55q3 -18 18 -89q9 -44 50 -259l42 -220q18 -98 32 -199 q8 -64 60 -64q26 0 47 21l14 15q14 13 24 37q18 41 45 71q35 42 46 98l36 190q12 61 45 220l46 210q87 405 135 445q28 22 34 44l6 17q0 -2 0 -1q10 16 10 36q0 29 -21 47t-53 14h-8q-61 -9 -107 -9h-10q-10 0 -49 4l-46 4q-10 2 -19 2q-36 0 -58 -25l-22 -32 q-10 -17 -10 -37q0 -62 70 -70q26 -2 32 -11q9 -11 9 -52q0 -49 -11 -126q-28 -173 -111 -553q-9 46 -22 113l-45 240q-68 360 -68 444q0 16 3 35q2 14 2 28q0 23 -11 42q-5 7 -14 14q-21 23 -47 23q-27 0 -49 -26q-48 -56 -98 -73q-29 -10 -43 -25l-19 -30q-12 -17 -12 -41 q0 -51 53 -64q2 -9 2 -25q0 -53 -37 -228l-55 -270q-6 -29 -33 -154q-1 4 -9 44q-5 29 -9 50l-83 446q-18 99 -18 141q0 49 31 60q27 10 39 27l16 30q12 17 12 41q0 65 -70 65q-18 0 -26 -2l-19 -2q-72 -9 -110 -9q-43 0 -66 4l-52 6q-10 2 -20 2q-37 0 -60 -31l-18 -24 q-11 -17 -11 -41z" />
<glyph unicode="x" horiz-adv-x="1204" d="M0 65q0 -27 21 -46q20 -19 50 -19q8 0 29 4q41 9 117 9q30 0 42 -1l48 -7q19 -3 32 -3q38 0 65 32l10 16q18 17 18 47q0 50 -56 65l-20 5q-5 8 -5 20q0 45 55 153l98 191l120 -234q34 -68 34 -101q0 -22 -3 -22l-29 -12q-20 -9 -36 -34l-12 -22q-12 -17 -12 -40 q0 -35 25 -52q18 -13 44 -13q10 0 21 2l74 9q41 5 77 5q32 0 60 -4l57 -9q15 -3 29 -3q46 0 71 35l19 26q11 16 11 38q0 49 -51 63q-43 13 -87 91l-69 127q-60 108 -78 141l-134 258l182 334q78 142 128 165q30 14 46 41l9 18q11 17 11 39q0 27 -19 46q-19 18 -47 18 q-12 0 -35 -3q-42 -7 -87 -7h-17q-76 2 -110 6q-25 3 -29 3q-38 0 -59 -26l-19 -31q-10 -16 -10 -37q0 -55 54 -64l26 -6q6 -2 6 -20q0 -60 -55 -163l-68 -130l-105 206q-27 53 -27 84q0 18 11 22q37 13 54 39l14 26q10 16 10 37q0 26 -18 44q-20 20 -56 20q-14 0 -22 -1 l-76 -8q-35 -4 -74 -4q-61 0 -129 10q-18 3 -30 3q-40 0 -65 -34l-17 -26q-10 -15 -10 -38q0 -50 51 -65q40 -9 70 -47q36 -47 133 -227l155 -290l-141 -257q-137 -251 -206 -292q-30 -17 -40 -36l-15 -27q-9 -17 -9 -37z" />
<glyph unicode="y" horiz-adv-x="1120" d="M0 1345q0 -55 50 -62l14 -4q21 -4 108 -215q49 -117 53 -129l122 -309q13 -34 15 -40q17 -48 17 -110l-1 -28v-120q0 -150 -18 -166q-34 -8 -53 -38l-9 -17q-13 -18 -13 -43q0 -27 17 -46q18 -18 44 -18q3 0 36 3q67 7 130 7q62 0 100 -6q19 -4 37 -4q40 0 64 38l15 25 q8 15 8 35q0 60 -67 65q-32 3 -41 14q-15 18 -16 77l-3 194v56q0 101 62 259l167 421q30 74 61 89l18 9q16 10 29 31l13 23q11 17 11 39q0 26 -18 44q-19 19 -45 19q-16 0 -27 -3q-34 -6 -96 -6q-26 0 -64 3q-24 1 -47 3l-9 1q-14 2 -19 2q-33 0 -53 -20l-20 -30 q-14 -17 -14 -41q0 -59 58 -67l29 -3q11 -1 11 -35q0 -45 -38 -151l-52 -144q-26 -74 -47 -126q-27 68 -68 182l-48 132q-28 76 -28 114q0 23 12 24q35 6 52 28l25 39q8 15 8 33q0 65 -75 65l-88 -8q-29 -3 -49 -3q-10 0 -17 1l-66 4q-41 2 -52 4q-27 4 -35 4q-36 0 -61 -31 l-20 -28q-9 -15 -9 -36z" />
<glyph unicode="z" horiz-adv-x="1007" d="M0 80q0 -33 28 -56l22 -18q15 -9 35 -9q14 0 30 4q26 7 119 7l347 -3q87 -2 105 -3q19 -1 33 -6q19 -6 29 -6q38 0 60 40l15 29q5 14 5 33l1 72q0 24 6 78q9 92 19 143q3 14 3 28q0 28 -18 47q-17 19 -43 19q-21 0 -44 -17l-25 -23q-19 -19 -27 -58q-25 -105 -76 -142 q-52 -36 -174 -36q-87 0 -126 10l98 230q77 183 258 580q93 202 119 254l16 29q23 44 23 70q0 19 -11 36l-8 13q-18 33 -60 33q-11 0 -49 -7q-29 -6 -122 -7h-145q-197 0 -256 25q-17 7 -30 7q-19 0 -36 -12l-23 -22q-21 -21 -21 -65q0 -54 -10 -144q-10 -82 -20 -129 q-4 -19 -4 -34q0 -42 31 -61q13 -8 27 -8q21 0 45 18l19 16q23 17 32 60l9 43q12 57 49 80q52 33 183 33h84q-20 -49 -85 -198l-88 -200q-52 -118 -56 -129l-219 -478q-26 -56 -53 -105q-21 -38 -21 -61z" />
<glyph unicode="{" d="M98 0v1434h1024v-1434h-1024zM147 49h926v1336h-926v-1336z" />
<glyph unicode="|" d="M98 0v1434h1024v-1434h-1024zM147 49h926v1336h-926v-1336z" />
<glyph unicode="}" d="M98 0v1434h1024v-1434h-1024zM147 49h926v1336h-926v-1336z" />
<glyph unicode="~" d="M98 0v1434h1024v-1434h-1024zM147 49h926v1336h-926v-1336z" />
<glyph unicode="&#xa1;" horiz-adv-x="672" />
<glyph unicode="&#xa2;" horiz-adv-x="1139" />
<glyph unicode="&#xa3;" d="M98 0v1434h1024v-1434h-1024zM147 49h926v1336h-926v-1336z" />
<glyph unicode="&#xa4;" d="M98 0v1434h1024v-1434h-1024zM147 49h926v1336h-926v-1336z" />
<glyph unicode="&#xa5;" d="M98 0v1434h1024v-1434h-1024zM147 49h926v1336h-926v-1336z" />
<glyph unicode="&#xa6;" d="M98 0v1434h1024v-1434h-1024zM147 49h926v1336h-926v-1336z" />
<glyph unicode="&#xa7;" d="M98 0v1434h1024v-1434h-1024zM147 49h926v1336h-926v-1336z" />
<glyph unicode="&#xa8;" d="M98 0v1434h1024v-1434h-1024zM147 49h926v1336h-926v-1336z" />
<glyph unicode="&#xa9;" d="M98 0v1434h1024v-1434h-1024zM147 49h926v1336h-926v-1336z" />
<glyph unicode="&#xaa;" horiz-adv-x="648" />
<glyph unicode="&#xab;" d="M98 0v1434h1024v-1434h-1024zM147 49h926v1336h-926v-1336z" />
<glyph unicode="&#xac;" d="M98 0v1434h1024v-1434h-1024zM147 49h926v1336h-926v-1336z" />
<glyph unicode="&#xad;" horiz-adv-x="670" d="M116 437v83q0 29 41 29h356q41 0 41 -29v-83q0 -28 -40 -28h-358q-40 0 -40 28z" />
<glyph unicode="&#xae;" d="M98 0v1434h1024v-1434h-1024zM147 49h926v1336h-926v-1336z" />
<glyph unicode="&#xaf;" horiz-adv-x="670" />
<glyph unicode="&#xb0;" d="M98 0v1434h1024v-1434h-1024zM147 49h926v1336h-926v-1336z" />
<glyph unicode="&#xb1;" horiz-adv-x="1014" />
<glyph unicode="&#xb2;" horiz-adv-x="1014" />
<glyph unicode="&#xb3;" horiz-adv-x="1014" />
<glyph unicode="&#xb4;" d="M98 0v1434h1024v-1434h-1024zM147 49h926v1336h-926v-1336z" />
<glyph unicode="&#xb5;" horiz-adv-x="1180" />
<glyph unicode="&#xb6;" d="M98 0v1434h1024v-1434h-1024zM147 49h926v1336h-926v-1336z" />
<glyph unicode="&#xb7;" d="M98 0v1434h1024v-1434h-1024zM147 49h926v1336h-926v-1336z" />
<glyph unicode="&#xb8;" d="M98 0v1434h1024v-1434h-1024zM147 49h926v1336h-926v-1336z" />
<glyph unicode="&#xb9;" horiz-adv-x="1014" />
<glyph unicode="&#xba;" horiz-adv-x="718" />
<glyph unicode="&#xbb;" d="M98 0v1434h1024v-1434h-1024zM147 49h926v1336h-926v-1336z" />
<glyph unicode="&#xbc;" horiz-adv-x="1708" />
<glyph unicode="&#xbd;" horiz-adv-x="1964" />
<glyph unicode="&#xbe;" horiz-adv-x="1708" />
<glyph unicode="&#xbf;" horiz-adv-x="748" />
<glyph unicode="&#xc0;" horiz-adv-x="1540" />
<glyph unicode="&#xc1;" horiz-adv-x="1540" />
<glyph unicode="&#xc2;" horiz-adv-x="1540" />
<glyph unicode="&#xc3;" horiz-adv-x="1540" />
<glyph unicode="&#xc4;" horiz-adv-x="1540" />
<glyph unicode="&#xc5;" horiz-adv-x="1540" />
<glyph unicode="&#xc6;" horiz-adv-x="2118" />
<glyph unicode="&#xc7;" horiz-adv-x="1399" />
<glyph unicode="&#xc8;" horiz-adv-x="1151" />
<glyph unicode="&#xc9;" horiz-adv-x="1151" />
<glyph unicode="&#xca;" horiz-adv-x="1151" />
<glyph unicode="&#xcb;" horiz-adv-x="1151" />
<glyph unicode="&#xcc;" horiz-adv-x="657" />
<glyph unicode="&#xcd;" horiz-adv-x="657" />
<glyph unicode="&#xce;" horiz-adv-x="657" />
<glyph unicode="&#xcf;" horiz-adv-x="657" />
<glyph unicode="&#xd0;" horiz-adv-x="1518" />
<glyph unicode="&#xd1;" horiz-adv-x="1554" />
<glyph unicode="&#xd2;" horiz-adv-x="1614" />
<glyph unicode="&#xd3;" horiz-adv-x="1614" />
<glyph unicode="&#xd4;" horiz-adv-x="1614" />
<glyph unicode="&#xd5;" horiz-adv-x="1614" />
<glyph unicode="&#xd6;" horiz-adv-x="1614" />
<glyph unicode="&#xd7;" d="M98 0v1434h1024v-1434h-1024zM147 49h926v1336h-926v-1336z" />
<glyph unicode="&#xd8;" horiz-adv-x="1614" />
<glyph unicode="&#xd9;" horiz-adv-x="1501" />
<glyph unicode="&#xda;" horiz-adv-x="1501" />
<glyph unicode="&#xdb;" horiz-adv-x="1501" />
<glyph unicode="&#xdc;" horiz-adv-x="1501" />
<glyph unicode="&#xdd;" horiz-adv-x="1233" />
<glyph unicode="&#xde;" horiz-adv-x="1120" />
<glyph unicode="&#xdf;" horiz-adv-x="1251" />
<glyph unicode="&#xe0;" horiz-adv-x="922" />
<glyph unicode="&#xe1;" horiz-adv-x="922" />
<glyph unicode="&#xe2;" horiz-adv-x="922" />
<glyph unicode="&#xe3;" horiz-adv-x="922" />
<glyph unicode="&#xe4;" horiz-adv-x="922" />
<glyph unicode="&#xe5;" horiz-adv-x="922" />
<glyph unicode="&#xe6;" horiz-adv-x="1454" />
<glyph unicode="&#xe7;" horiz-adv-x="905" />
<glyph unicode="&#xe8;" horiz-adv-x="909" />
<glyph unicode="&#xe9;" horiz-adv-x="909" />
<glyph unicode="&#xea;" horiz-adv-x="909" />
<glyph unicode="&#xeb;" horiz-adv-x="909" />
<glyph unicode="&#xec;" horiz-adv-x="514" />
<glyph unicode="&#xed;" horiz-adv-x="514" />
<glyph unicode="&#xee;" horiz-adv-x="514" />
<glyph unicode="&#xef;" horiz-adv-x="514" />
<glyph unicode="&#xf0;" horiz-adv-x="1139" />
<glyph unicode="&#xf1;" horiz-adv-x="1108" />
<glyph unicode="&#xf2;" horiz-adv-x="1010" />
<glyph unicode="&#xf3;" horiz-adv-x="1010" />
<glyph unicode="&#xf4;" horiz-adv-x="1010" />
<glyph unicode="&#xf5;" horiz-adv-x="1010" />
<glyph unicode="&#xf6;" horiz-adv-x="1010" />
<glyph unicode="&#xf7;" d="M98 0v1434h1024v-1434h-1024zM147 49h926v1336h-926v-1336z" />
<glyph unicode="&#xf8;" horiz-adv-x="1010" />
<glyph unicode="&#xf9;" horiz-adv-x="1059" />
<glyph unicode="&#xfa;" horiz-adv-x="1059" />
<glyph unicode="&#xfb;" horiz-adv-x="1059" />
<glyph unicode="&#xfc;" horiz-adv-x="1059" />
<glyph unicode="&#xfd;" horiz-adv-x="868" />
<glyph unicode="&#xfe;" horiz-adv-x="1010" />
<glyph unicode="&#xff;" horiz-adv-x="868" />
<glyph unicode="&#x2c6;" d="M98 0v1434h1024v-1434h-1024zM147 49h926v1336h-926v-1336z" />
<glyph unicode="&#x2dc;" d="M98 0v1434h1024v-1434h-1024zM147 49h926v1336h-926v-1336z" />
<glyph unicode="&#x2000;" horiz-adv-x="763" />
<glyph unicode="&#x2001;" horiz-adv-x="1526" />
<glyph unicode="&#x2002;" horiz-adv-x="763" />
<glyph unicode="&#x2003;" horiz-adv-x="1526" />
<glyph unicode="&#x2004;" horiz-adv-x="508" />
<glyph unicode="&#x2005;" horiz-adv-x="381" />
<glyph unicode="&#x2006;" horiz-adv-x="254" />
<glyph unicode="&#x2007;" horiz-adv-x="254" />
<glyph unicode="&#x2008;" horiz-adv-x="190" />
<glyph unicode="&#x2009;" horiz-adv-x="305" />
<glyph unicode="&#x200a;" horiz-adv-x="84" />
<glyph unicode="&#x2010;" horiz-adv-x="670" d="M116 437v83q0 29 41 29h356q41 0 41 -29v-83q0 -28 -40 -28h-358q-40 0 -40 28z" />
<glyph unicode="&#x2011;" horiz-adv-x="670" d="M116 437v83q0 29 41 29h356q41 0 41 -29v-83q0 -28 -40 -28h-358q-40 0 -40 28z" />
<glyph unicode="&#x2012;" horiz-adv-x="670" d="M116 437v83q0 29 41 29h356q41 0 41 -29v-83q0 -28 -40 -28h-358q-40 0 -40 28z" />
<glyph unicode="&#x2013;" d="M98 0v1434h1024v-1434h-1024zM147 49h926v1336h-926v-1336z" />
<glyph unicode="&#x2014;" d="M98 0v1434h1024v-1434h-1024zM147 49h926v1336h-926v-1336z" />
<glyph unicode="&#x2018;" d="M98 0v1434h1024v-1434h-1024zM147 49h926v1336h-926v-1336z" />
<glyph unicode="&#x2019;" d="M98 0v1434h1024v-1434h-1024zM147 49h926v1336h-926v-1336z" />
<glyph unicode="&#x201a;" d="M98 0v1434h1024v-1434h-1024zM147 49h926v1336h-926v-1336z" />
<glyph unicode="&#x201c;" d="M98 0v1434h1024v-1434h-1024zM147 49h926v1336h-926v-1336z" />
<glyph unicode="&#x201d;" d="M98 0v1434h1024v-1434h-1024zM147 49h926v1336h-926v-1336z" />
<glyph unicode="&#x201e;" d="M98 0v1434h1024v-1434h-1024zM147 49h926v1336h-926v-1336z" />
<glyph unicode="&#x2022;" d="M98 0v1434h1024v-1434h-1024zM147 49h926v1336h-926v-1336z" />
<glyph unicode="&#x2026;" d="M98 0v1434h1024v-1434h-1024zM147 49h926v1336h-926v-1336z" />
<glyph unicode="&#x202f;" horiz-adv-x="305" />
<glyph unicode="&#x2039;" d="M98 0v1434h1024v-1434h-1024zM147 49h926v1336h-926v-1336z" />
<glyph unicode="&#x203a;" d="M98 0v1434h1024v-1434h-1024zM147 49h926v1336h-926v-1336z" />
<glyph unicode="&#x205f;" horiz-adv-x="381" />
<glyph unicode="&#x20ac;" d="M98 0v1434h1024v-1434h-1024zM147 49h926v1336h-926v-1336z" />
<glyph unicode="&#x2122;" horiz-adv-x="1497" />
<glyph unicode="&#x25fc;" horiz-adv-x="1440" d="M0 0v1440h1440v-1440h-1440z" />
</font>
</defs>
</svg>
