<?xml version="1.0" standalone="no"?>
<!DOCTYPE svg PUBLIC "-//W3C//DTD SVG 1.1//EN" "http://www.w3.org/Graphics/SVG/1.1/DTD/svg11.dtd" >
<svg xmlns="http://www.w3.org/2000/svg" xmlns:xlink="http://www.w3.org/1999/xlink" version="1.1">
<metadata></metadata>
<defs>
<font id="russell_circusregular" horiz-adv-x="1014" >
<font-face units-per-em="2048" ascent="1638" descent="-410" />
<missing-glyph horiz-adv-x="508" />
<glyph unicode="&#xd;" horiz-adv-x="508" />
<glyph horiz-adv-x="0" />
<glyph horiz-adv-x="0" />
<glyph unicode=" "  horiz-adv-x="508" />
<glyph unicode="&#x09;" horiz-adv-x="508" />
<glyph unicode="&#xa0;" horiz-adv-x="508" />
<glyph unicode="!" horiz-adv-x="672" />
<glyph unicode="&#x22;" horiz-adv-x="672" />
<glyph unicode="#" horiz-adv-x="1336" />
<glyph unicode="$" />
<glyph unicode="%" horiz-adv-x="1610" />
<glyph unicode="&#x26;" horiz-adv-x="1683" />
<glyph unicode="'" horiz-adv-x="346" />
<glyph unicode="(" horiz-adv-x="758" />
<glyph unicode=")" horiz-adv-x="758" />
<glyph unicode="*" horiz-adv-x="1024" />
<glyph unicode="+" />
<glyph unicode="," horiz-adv-x="557" />
<glyph unicode="-" horiz-adv-x="670" />
<glyph unicode="." horiz-adv-x="557" />
<glyph unicode="/" horiz-adv-x="569" />
<glyph unicode="0" horiz-adv-x="973" d="M0 713q0 2 20 28q20 25 20 71q0 276 34 378q40 120 134 188q92 67 208 67q117 0 206 -63q91 -66 131 -185q28 -85 28 -329q0 -47 21 -90q21 -44 21 -43q0 2 -22 -42q-21 -44 -21 -100q0 -401 -114 -500q-118 -102 -250 -102t-250 102q-113 99 -113 490q0 47 -27 88z M258 856q0 -47 26 -95l26 -48l-19 -46q-18 -47 -18 -93q0 -252 3 -282q15 -137 89 -178q33 -19 59 -20h4q40 2 67 15q63 30 69 150q2 40 -1 123q-4 102 -4 144q0 75 -23 134q-22 58 -22 61q0 -1 21 44q22 44 22 91q0 311 -15 355q-22 65 -40 89q-31 39 -89 39 q-94 0 -140 -128q-15 -42 -15 -355z" />
<glyph unicode="1" horiz-adv-x="610" d="M0 1240q74 0 87 -6q44 -20 44 -112q0 -142 -2 -203q0 -94 -31 -138q-30 -45 -30 -37q0 -5 9 -12q13 -10 21 -21q31 -43 31 -153v-288q0 -60 -9 -83q-18 -44 -75 -44h-39v-139q19 0 63 -3q34 -2 54 0q56 5 110 52q54 -47 111 -52q19 -2 53 0q44 3 63 3v139h-38 q-58 0 -75 44q-9 23 -9 83v288q0 110 30 153q8 11 21 21q10 7 10 12q0 -8 -31 37q-31 44 -31 138q0 85 -9 521h-136q-22 -38 -81 -75q-58 -36 -111 -46v-79z" />
<glyph unicode="2" horiz-adv-x="972" d="M0 230q0 191 257 426q170 156 167 153q46 47 41 84q-2 20 -13 36q-9 16 -9 17q0 -2 27 10q32 15 53 69q44 118 -43 231q-52 66 -135 73q-77 6 -120 -36q-53 -52 -64 -92q59 14 107 -57q50 -74 0 -149q-24 -35 -65 -46q-40 -12 -77 6q-93 44 -74 204q9 81 76 159 q79 93 196 113q129 23 240 -33q84 -43 127 -108q58 -90 73 -235q6 -61 33 -99q25 -37 25 -39q0 -6 -36 -23q-43 -21 -66 -51q-121 -162 -295 -275q-321 -206 -311 -455q108 35 240 37q39 1 99 -7q72 -9 88 -10q88 -5 97 62l5 44h99q0 -270 -196 -246q-220 28 -265 30 q-122 6 -198 -16q-51 -14 -59 -8q-24 17 -24 231z" />
<glyph unicode="3" horiz-adv-x="998" d="M47 423q45 109 134 104q33 -2 61 -20q26 -17 32 -35q37 -128 -37 -202q-43 -43 -96 -33q1 -18 34 -55q39 -43 82 -61q170 -70 271 57q39 49 27 128q-11 71 -44 93q5 7 18 13q16 8 22 12q27 21 28 85q0 79 -77 145q-80 69 -165 50v91q60 -25 125 -1q75 28 100 110 q23 71 -5 128q-15 30 -31 43q-11 9 -11 11q0 -6 20 17q21 23 21 80q0 42 -36 94q-50 73 -136 69q-71 -3 -121 -46q-55 -47 -57 -89q86 21 121 -59q32 -75 -11 -141q-23 -36 -64 -47q-42 -12 -80 6q-96 45 -78 208q9 80 81 159q84 93 199 108q197 27 315 -134q21 -28 47 -86 q30 -66 38 -78q21 -35 41 -59q13 -15 13 -18q0 -1 -20 -13q-23 -15 -39 -59q-27 -79 -73 -151q-62 -97 -120 -111q58 -14 113 -75q45 -49 61 -93q19 -51 33 -107q12 -47 40 -79q25 -28 25 -26q0 1 -20 -12q-23 -15 -38 -51q-90 -218 -226 -268q-213 -77 -385 19 q-81 45 -126 146q-53 119 -6 233z" />
<glyph unicode="4" horiz-adv-x="981" d="M0 463l454 947q16 31 21 37q10 10 32 5q51 -12 54 -43q21 20 38 28q36 18 68 1q12 -7 10 -13q0 -1 -5 -10q-3 -9 -5 -17q-7 -23 -9 -71q0 11 0 -268q0 -184 10 -227q3 -12 14 -25q14 -16 20 -29q-18 -7 -29 -30q-17 -34 -17 -146q0 -63 2 -112h104q7 17 13 33 q21 -6 32 -65q10 -50 -5 -70q29 -29 18 -81q-14 -63 -28 -63q-4 0 -11 12q-9 15 -12 18q-18 17 -46 19q-21 2 -70 -1v-111q0 -36 5 -47q9 -19 44 -23q6 0 21 1q17 1 18 1v-110q-48 -1 -70 -1q-68 -1 -97 29q-24 -23 -56 -27q-61 -6 -119 0v109q59 -1 76 18q15 17 11 60v101 h-337q-3 0 -31 -25q-23 20 -34 46q-16 35 -3 66q-17 0 -34 14q-42 35 -47 70zM201 490h276q7 55 7 118q0 99 -15 144q-9 24 -19 39q25 14 33 44q3 12 3 125q0 106 1 149z" />
<glyph unicode="5" horiz-adv-x="991" d="M31 593q162 159 283 146q167 -18 219 -124q22 -44 6 -80q3 7 -33 -46q55 -23 58 -133q2 -105 -40 -161q-92 -123 -264 -61q-47 17 -85 64q-31 38 -32 58q32 -6 79 44q43 45 34 113q-7 53 -30 77q-50 52 -113 28q-68 -26 -81 -123q-32 -249 143 -352q161 -94 360 -18 q99 38 160 142q12 21 92 226q14 35 36 50q18 13 18 12q0 -3 -23 21q-26 26 -37 72q-18 71 -32 106q-57 143 -160 197q-168 77 -329 36l37 384q74 38 174 28q98 -10 171 -59l-4 -118q57 50 132 39q-29 99 19 254q-43 25 -133 -27q-60 53 -259 60q-137 6 -241 -70 q-15 -235 -47 -444q-32 -206 -78 -341z" />
<glyph unicode="6" horiz-adv-x="972" d="M0 378l16 23q20 28 33 86q13 34 14 176q2 378 2 440q0 78 42 160q42 83 100 119q146 90 301 52q118 -28 193 -110q60 -66 75 -179q15 -121 -44 -181q-60 -61 -134 -32q-71 28 -78 101q-7 71 34 125q42 55 106 51q-42 143 -205 131q-90 -7 -138 -68q-41 -51 -41 -123v-171 v-234q178 66 329 -1q156 -70 169 -261q13 -58 32 -86l16 -23q0 -3 -14 -21q-18 -22 -27 -44q-4 -8 -20 -81q-12 -59 -41 -98q-103 -138 -289 -138q-137 0 -225 60q-33 22 -82 83q-36 45 -54 106q-23 74 -25 78q-15 29 -32 46q-13 12 -13 14zM272 257q2 -40 32 -92 q42 -73 128 -73t128 73q29 51 31 92q3 62 -21 97q-7 10 -17 20q-8 7 -8 9q0 1 15 14q18 16 31 49q18 48 -6 126q-14 46 -65 72q-44 22 -88 19q-123 9 -151 -84q-24 -80 -8 -125q12 -33 31 -53q14 -16 14 -18t-7 -9q-10 -10 -17 -19q-24 -35 -22 -98z" />
<glyph unicode="7" horiz-adv-x="975" d="M0 1135q22 25 47 129q26 106 21 161q69 25 104 -25q228 119 448 -9q55 67 142 3q24 -17 42 -68q21 -58 2 -96q-4 -8 -19 -6q-17 4 -33 -14q-27 -29 -131 -221q-71 -130 -77 -180q-5 -35 5 -50l8 -13q-1 -4 -24 -22q-26 -21 -42 -44q-62 -89 -108 -238q-56 -176 -59 -226 q-8 -119 109 -105v-102q-34 -15 -101 -3q-68 12 -87 39q-22 -29 -74 -40q-56 -12 -117 4v97q48 0 59 9q23 19 35 102q31 209 127 488q12 34 1 61q-10 27 -10 29l29 11q33 13 66 69q95 157 204 389q4 22 -56 35q-55 11 -99 6q-134 -17 -282 -138q-43 -36 -52 -58z" />
<glyph unicode="8" horiz-adv-x="973" d="M0 390q0 1 24 34q30 42 52 109q57 160 171 215q-129 53 -163 196q-17 77 -46 116q-24 34 -24 30q0 3 18 21q21 21 31 38q10 16 46 82q31 58 46 80q89 134 241 134q103 0 167 -43q41 -27 91 -96q25 -35 51 -87l36 -72q13 -22 32 -39q15 -15 15 -17q0 2 -26 -31 q-30 -40 -51 -113q-45 -133 -129 -186q119 -74 165 -213q23 -74 52 -118q24 -36 24 -35q0 -2 -15 -18q-17 -19 -28 -46q-72 -183 -94 -213q-91 -127 -281 -127q-128 0 -197 44q-37 24 -92 99q-14 20 -78 195q-10 27 -25 45q-13 14 -13 16zM258 285q-1 -50 29 -107 q31 -58 123 -58q82 0 123 58q32 45 32 108q0 53 -21 84q-22 31 -22 27q0 2 13 17q15 18 26 50q21 65 -4 134q-16 45 -58 76t-89 31q-41 0 -81 -27q-42 -29 -57 -72q-27 -76 -13 -142q7 -34 24 -51l15 -16q0 6 -19 -22q-20 -29 -21 -90zM271 1014q-12 -58 9 -122 q13 -39 52 -66q36 -25 71 -25q40 0 77 26q38 27 51 66q22 63 4 121q-9 29 -24 48q-13 16 -13 18q0 3 18 31q18 29 18 69q0 57 -27 98q-35 52 -104 52q-78 0 -104 -52t-25 -98q1 -47 18 -73q16 -25 16 -27q0 -1 -15 -17q-16 -18 -22 -49z" />
<glyph unicode="9" horiz-adv-x="972" d="M0 1074q0 3 15 22q17 22 26 43q4 7 20 76q12 54 41 93q102 137 289 137q137 0 225 -59q33 -23 82 -83q36 -45 54 -97l25 -69q15 -29 32 -46q13 -12 13 -14l-16 -23q-20 -27 -33 -86q-13 -33 -14 -193q-2 -381 -2 -443q0 -77 -42 -160q-41 -83 -99 -118q-147 -89 -302 -52 q-118 28 -192 109q-61 67 -75 179q-16 121 43 181q61 60 134 31q71 -28 78 -100q7 -71 -33 -124q-42 -56 -107 -51q42 -143 205 -131q90 7 138 67q41 51 41 123v173v236q-178 -65 -329 1q-155 69 -168 269q-13 59 -33 87q-16 23 -16 22zM231 989q-17 -48 6 -125 q14 -46 65 -73q44 -24 88 -21q123 -8 151 87q25 80 8 124q-12 33 -30 53q-15 16 -15 18t7 9q11 10 17 19q24 35 22 98q-2 37 -32 89q-41 72 -128 72q-86 0 -127 -72q-30 -51 -32 -89q-3 -62 21 -97q7 -10 17 -20q8 -7 8 -9q0 -1 -15 -14q-18 -15 -31 -49z" />
<glyph unicode=":" horiz-adv-x="150" />
<glyph unicode=";" horiz-adv-x="150" />
<glyph unicode="&#x3c;" horiz-adv-x="150" />
<glyph unicode="=" horiz-adv-x="150" />
<glyph unicode="&#x3e;" horiz-adv-x="150" />
<glyph unicode="?" horiz-adv-x="150" />
<glyph unicode="@" horiz-adv-x="150" />
<glyph unicode="A" horiz-adv-x="1235" d="M1 66l2 76l3 7q133 34 167 92l56 307q-14 121 -46 149q1 7 -8 28q-7 17 1 27q81 41 99 75q45 232 56 300q-1 51 -57 74q-61 25 -71 65q-16 39 -16.5 72.5t16.5 62.5q39 64 128 64q25 0 54 -5q16 -4 98 -49q41 -23 75 -23q15 0 28 4q120 56 196 56q24 0 43 -5 q60 -51 60 -130q0 -27 -7 -56q-5 -41 -69 -70q-48 -21 -48 -65q0 -8 2 -17l56 -291q6 -23 75 -63q24 -14 26 -28q4 -19 -23 -49q-25 -22 -44 -67l68 -347q29 -106 146 -123q17 -13 18 -49q0 -11 -1 -31q-1 -23 -1 -30l-17 -17q-60 -7 -109 -7q-45 0 -81 6q-136 7 -136 34 q0 5 5 11q-26 -51 -90 -53q-17 -1 -55 3q-35 3 -51 1q-18 16 -18 55v8v34q0 28 -1 33q10 18 38 33q33 18 43 29q43 35 43 99q0 8 -1 16q-2 23 -10 66q-9 44 -11 63q-24 45 -82 53q2 0 -9 0q-21 0 -90 1q-33 -6 -55 -41q-17 -82 -17 -148q0 -59 14 -104q6 -9 47 -44 q30 -25 33 -55q-1 -77 -9 -87l-22 -13q-17 -1 -33 -1q-102 0 -138 51q-6 2 -12 2q-23 0 -49 -23q-37 -31 -57 -31l-131 -1q-22 20 -21 66zM424 692l12 -29q26 -19 65 -20h7q34 0 59 17l13 18q0 2 -27 220q-6 13 -15 74q-7 46 -30 65q-16 11 -29 -11q-38 -211 -55 -334z" />
<glyph unicode="B" horiz-adv-x="1098" d="M30 1252q21 -46 99 -62q77 -16 94 -63l9 -240q4 -13 4 -24q0 -28 -25 -48q-48 -38 -54 -53q-8 -9 10 -43q71 -45 85 -182q1 -82 1 -126.5t-1 -51.5q-8 -100 -60 -152q-13 -23 -46 -34q-41 -13 -52 -23q-10 -11 -17 -62q-1 -8 -1 -16q0 -49 29 -65q27 -6 54 -6 q94 0 183 68l51 -17q75 -56 173 -67q19 -2 38 -2q80 0 142 39q139 91 178 315q3 29 3 58q0 171 -122 339q-6 20 -6 37q0 16 5 29q75 143 78 157q7 58 8 111q0 254 -164 379q-75 30 -150 30q-27 0 -54 -4q-116 -17 -182 -105q-145 76 -159 76h-8q-89 0 -130 -61 q-25 -30 -25 -70q0 -28 12 -61zM498 1235q20 44 59 45q31 2 49 -33q6 -10 14 -33q8 -21 13 -30q20 -100 20 -177q0 -108 -39 -171l-31 -23q-40 6 -43 7q-25 9 -31 35l-10 40q-6 104 -6 192q0 81 5 148zM520 383q1 106 1 156v37v6q0 32 39 58q20 16 50 1q26 -24 53 -151 q-17 -276 -19 -282q-29 -44 -48 -48q-55 11 -65 34q-11 67 -11 171v18z" />
<glyph unicode="C" horiz-adv-x="972" d="M5 751q72 48 72 167v10q-6 211 -6 212q22 188 169 285q82 52 184 55h11q102 0 172 -55h3q22 0 71 43q19 17 35 17q19 0 33 -23l-4 -177q32 -93 32 -158q0 -93 -65 -131q-27 -23 -70 -23q-21 0 -45 5q-52 17 -74 97q-1 3 -1 18q0 29 3 103v6q0 67 -40 95q-28 19 -55 19 t-53 -20q-49 -38 -57 -133l7 -312q6 -23 32 -53q30 -34 38 -50q-7 -20 -39 -55q-30 -32 -33 -58l5 -316q26 -110 86 -143q12 -2 24 -2q64 0 107 68q31 51 31 141q0 23 -2 48q-6 71 -6 120q0 53 7 79q13 22 42 17q43 -8 49 -7q35 15 59 15q12 0 21 -4l14 -21q12 -92 12 -171 q0 -310 -180 -430q-84 -46 -179 -46h-4q-108 1 -177 63q-154 126 -154 373q0 40 4 83q-3 18 -2 47q1 37 0 47q-2 53 -31 80q-5 6 -15 16l-17 17q-19 21 -14 42z" />
<glyph unicode="D" horiz-adv-x="1159" d="M13 1392q-5 -24 -5 -44q0 -31 12 -53q34 -92 159 -99q31 -16 38 -56l3 -286q-12 -34 -61 -88q-3 -8 -3 -17q0 -25 22 -52q44 -54 47 -61l2 -204v-16q0 -111 -26 -175q-23 -70 -116 -71q-26 -15 -26 -59v-6q3 -48 3 -68q0 -10 -1 -14q5 -10 30 -21q18 1 67 1q42 0 66 3 q74 10 112 69q20 10 41 -9q5 -5 17 -18q11 -12 17 -17q55 -52 146 -52q42 0 92 11q80 19 147 86q72 71 91 159l2 -2l-1 -1q-1 0 -1 6q0 44 40 384q1 27 27 58q33 39 39 52q5 12 5 25q0 29 -26 59q-44 51 -45 77q1 43 1 81q0 128 -15 209q-28 152 -118 242q-74 69 -186 69 q-18 0 -37 -2q-109 -11 -226 -76q-30 4 -106 54q-49 32 -90 32q-13 0 -25 -3q-91 -21 -112 -107zM482 345v22q0 26 1 65q1 28 1 49.5t-1 35.5q1 14 0 44t-1 45q2 52 26 77q47 54 47 79q0 17 -35 40q-26 18 -29 41q-6 41 -6 223q0 68 1 156q24 77 74 80q59 -5 88 -75l17 -113 l3 -775q-3 -115 -76 -149q-24 -12 -58 5q-47 49 -52 150z" />
<glyph unicode="E" horiz-adv-x="1096" d="M22 1357q32 73 62 86q32 23 70 22q26 0 54 -10q34 -13 115 -66q8 -1 16 -1q41 0 96 38q73 49 111 50q17 3 33 2q82 0 174 -60q7 -2 14 -3q25 0 61 26t61 26q7 0 13 -2q15 -17 10 -52q-1 -9 -5 -31q-4 -19 -4 -29q-2 -7 4 -31q4 -18 -5 -28q26 -116 28 -144l2 -28 q0 -68 -34 -110q-39 -48 -89 -48q-22 0 -47 10q-45 6 -66 56q-8 18 -8 66q0 34 4 84q1 10 1 18q0 78 -55 104q-22 8 -43 8q-36 0 -71 -23q-57 -57 -59 -183q0 -23 4 -108q1 -28 1 -51q0 -31 -2 -52q2 -36 24 -63q21 -23 78 -27q141 1 141 30q0 5 -5 12q1 -4 1 -10 q0 -23 -9 -77q-3 -16 -3 -30q0 -32 15 -54q2 -41 -12 -58q-27 -20 -55 -11q-5 2 -61 34q-21 11 -40 11q-14 0 -28 -6q-36 -27 -41 -45q20 -356 20 -354q22 -56 77 -73q19 -3 36 -3q56 0 86 36q18 18 18 45q0 13 -4 28q-15 63 -13 77v6q0 85 58 121q30 19 64 19q33 0 69 -18 q53 -41 54 -123q0 -13 -2 -28q-3 -33 -15 -88q-15 -63 -18 -81l4 -39q15 -97 15 -95q-16 -15 -38 -15q-23 0 -54 16q-15 19 -36 19q-12 0 -25 -6q-10 -4 -31 -17q-20 -11 -30 -15q-143 -24 -174 -24q-107 1 -157 71q-10 4 -20 4q-34 0 -79 -38q-49 -41 -85 -41q-8 0 -16 2 q-11 1 -39 1q-25 0 -38 1q-43 6 -60 41q-10 22 -10 43q0 31 21 61q16 14 82 27q53 11 68 57l19 52q-3 31 -3 106q0 38 1 86v35q0 100 -10 153q-5 21 -45 48q-31 21 -19 52q79 46 76 103l-4 299q-12 40 -65 40h-8h-11q-56 0 -73 28q-43 46 -43 99q0 19 6 40z" />
<glyph unicode="F" horiz-adv-x="1090" d="M28 1384q28 75 98 85q14 3 30 3q80 0 181 -71l29 -5q139 69 254 69q81 0 150 -34q8 -3 17 -3q24 0 54 19q34 21 58 21q7 0 13 -2q16 -15 6 -38q-15 -34 -15 -40q-3 -16 -3 -36q0 -50 17 -120q18 -77 18 -127q0 -15 -2 -28q-24 -60 -51 -80q-29 -20 -69 -21h-7 q-36 0 -62 18q-48 52 -48 138q0 44 12 96q2 35 -54 72q-29 15 -55 15q-39 0 -74 -33q-56 -64 -56 -190q0 -223 5 -223v1q19 -51 58 -51h2q3 -1 7 -1q28 0 73 36q31 24 56 24q13 0 24 -6q19 -26 19 -55q0 -11 -3 -23q-9 -13 -9 -51q0 -23 3 -54q1 -7 1 -12q0 -52 -48 -61 q-19 -1 -50 27q-30 27 -52 23q-33 2 -56 -25l1 1q2 0 2 -9q0 -39 -28 -241q5 -110 4 -103q10 -58 50 -81q64 -25 66 -26q37 -20 47 -56q1 -11 1 -21q0 -61 -42 -87q-36 -5 -68 -5q-120 0 -173 66q-10 4 -20 4q-29 0 -64 -30q-54 -47 -80 -48q-14 1 -42 -2q-33 -3 -45 -3 q-52 1 -69 46q-7 21 -7 40q0 41 31 77q113 85 127 85q3 0 2 -3l23 78l-3 331q-7 36 -64 84q-4 28 26 46q33 21 37 43q4 123 4 216q0 79 -3 136q-16 39 -77 40q-66 1 -85 24q-32 31 -32 80q0 28 10 61z" />
<glyph unicode="G" horiz-adv-x="983" d="M0 758q5 5 20 17q13 11 20 18q21 22 21 49q3 37 7 157q2 100 10 156q24 174 132 250q82 62 197 62h4q111 -2 203 -58q22 0 69 34q27 20 49 20q12 0 22 -5q-1 1 -2 1q-8 0 -13 -105q1 9 24 -206q2 -16 2 -31q0 -98 -76 -135q-21 -10 -43 -10q-48 0 -96 49q-45 30 -45 110 v68q0 56 -1 63q-16 39 -74 45h-2q-42 0 -65 -36q-26 -39 -42 -138l-1 -306q5 -18 42 -44q31 -22 23 -53q-75 -90 -75 -146v-8v1l-2 -198q0 -116 49 -174q34 -39 72 -39q16 0 34 8q48 16 52 76l-6 347q-4 15 -15 44q-13 33 -17 47q-7 23 -7 43q0 28 13 51q15 26 57 31h4 q22 0 65 -21q25 -13 46 -13q13 0 24 5q10 2 28 10q22 8 29 10q34 10 58 -6q23 -40 23 -79q0 -25 -10 -50q-59 -137 -63 -137v1l1 -494q-6 -23 -31 -28q-2 -1 -5 -1q-21 0 -47 37q-19 25 -39 25q-8 0 -17 -4q-110 -85 -215 -85q-44 0 -87 15q-114 48 -181 181 q-61 120 -63 266q-19 238 -16 233q-31 83 -41 83q-2 0 -3 -3z" />
<glyph unicode="H" horiz-adv-x="1320" d="M20 1377q5 31 31 58q25 26 53 33q7 1 13 1q41 0 91 -26q9 -5 47 -27q29 -17 48 -25q6 0 114 52q28 13 52 13q35 0 63 -28q23 -34 23 -77q0 -31 -12 -67q-6 -28 -57 -62q-34 -23 -34 -56q0 -9 2 -18v-17q0 -28 -2 -68q-3 -69 -4 -87v-7q0 -99 27 -153q29 -31 91 -31 q9 0 51 3q32 2 50 0q34 6 45 44l1 350q-4 34 -46 61q-42 28 -46 59q0 7 -3 48q-2 32 -1 51q4 58 38 79h9q100 0 178 -85q12 -6 26 -6q29 0 66 26q55 38 87 38q4 0 7 -1q88 -1 122 -67q12 -27 12 -56q0 -19 -5 -38q-14 -51 -54 -72q-5 -2 -78 -18q-47 -10 -65 -45 q-13 -51 -13 -307q0 -32 39 -61q41 -31 39 -65q-66 -59 -76 -95v-60q0 -286 9 -330q14 -47 75 -66q66 -20 83 -53q6 -22 6 -43q0 -29 -12 -55q-26 -28 -71 -28q-39 0 -93 21q-81 46 -75 44q-22 10 -42.5 10t-38.5 -10h1q0 -2 -93 -47q-27 -13 -50 -13q-26 0 -49 16 q-27 38 -27 79q0 21 7 42q12 23 68 68q47 37 52 80l8 49l1 283q-29 46 -98 46q-15 0 -59 -3q-37 -3 -57 -1q-31 -8 -45 -49q1 -19 1 -44.5t-1 -57.5q-3 -87 -3 -103v-6q0 -118 38 -181q8 -15 41 -35q27 -18 31 -43q5 -31 5 -54q0 -50 -24 -67q-25 -19 -69 -19q-8 0 -17 1 q-20 2 -55 44q-27 35 -53 35q-3 0 -6 -1h-2q-31 0 -76 -31q-53 -36 -75 -42q-85 0 -92 1q-52 8 -69 53q-4 20 -4 38q0 47 28 72q15 13 69 26q46 10 62 37q20 20 31 60l1 358q-4 25 -28 49q-6 5 -22 19q-14 11 -20 19q-13 30 19 44q47 19 57 44l2 351q-18 34 -79 34h-4h-4 q-63 0 -82 30q-35 38 -35 91q0 22 6 47z" />
<glyph unicode="I" horiz-adv-x="811" d="M60 156q120 95 133 95q2 0 2 -3q10 28 20 329q-12 92 -22 101q7 -8 -38 31q-22 19 -18 44q70 74 76 98q6 71 6 200q0 48 -1 105q-10 33 -36 49q-23 -2 -41 -2q-27 0 -41 4q-44 10 -62 51q-20 39 -20 76q0 34 17 67q36 64 105 64h12q7 2 15 2q41 0 108 -49q40 -28 73 -28 q26 0 48 16l2 -2q64 48 130 48q36 0 73 -14q49 -23 60 -82q-2 -94 -49 -137q-17 -24 -81 -27q-56 -3 -68 -44q-6 -51 -6 -97q0 -27 2 -52h-2q4 -144 15 -187q3 -10 35 -43q24 -24 13 -49q-8 -14 -38 -43q-25 -25 -32 -47l-1 -301q8 -100 56 -132q-1 0 58 -20q34 -11 47 -40 q7 -25 7 -46q0 -37 -22 -63q-19 -28 -55 -32q2 0 2 1q0 2 -67 2q-22 3 -92 57q-31 24 -59 24q-19 0 -36 -11q-51 -47 -112 -62q-24 -6 -47 -6q-41 0 -76 20q-20 37 -20 63q0 45 27 72z" />
<glyph unicode="J" horiz-adv-x="1068" d="M13 346q-2 15 -2 29q0 85 68 118q30 10 56 10q43 0 76 -28q43 -32 43 -116v-17q0 -89 10 -113q13 -30 52 -45q10 -4 21 -4q43 0 84 64q42 48 43 150q3 169 3 171v14q0 99 -66 144q-26 23 -20 39q62 80 67 80q1 0 1 -1q8 67 8 161q0 57 -3 124q-2 6 -5 18q-2 14 -4 19 q-7 21 -23 28q-15 3 -43 3q-31 1 -43 2q-50 8 -68 54q-16 29 -16 64q0 42 25 94q27 37 100 37q23 0 51 -4q16 -3 87 -35q42 -18 75 -18q9 0 17 1q104 56 128 63q26 8 49 8q47 0 83 -34q37 -43 37 -91q0 -19 -6 -38q-22 -56 -65 -85q-17 -17 -68 -25q-46 -7 -62 -32 q-8 -24 -12 -222q0 -127 72 -176q1 -4 1 -8q0 -26 -29 -49q-37 -30 -40 -54q-5 -43 -5 -125v-29v-42q0 -78 -3 -118q-15 -185 -127 -263q-79 -57 -174 -67q-19 -2 -36 -2q-84 0 -143 48q-33 26 -54 26q-6 0 -11 -2q-9 -4 -26 -17q-18 -13 -27 -18q-32 -17 -55 10 q-14 24 -4 59q14 46 13 61q1 30 -12 87q-15 71 -18 92z" />
<glyph unicode="K" horiz-adv-x="1250" d="M19 1370q20 73 96 92q14 3 29 3q71 0 151 -69q33 -12 52 -12q7 0 12 2q94 85 171 85q39 0 74 -22q59 -44 59 -115v-7q-1 -89 -72 -121q-12 -10 -56 -10q-11 0 -24 1h-6q-46 0 -54 -43q-14 -98 -14 -174q0 -71 12 -125q12 -24 32 -19q27 35 153 253q112 237 111 232 q1 6 1 11q0 40 -53 101q-6 15 18 30q19 8 39 8q55 0 124 -56q5 -1 10 -1q25 0 63 24q35 22 61 22q7 0 13 -1q30 -3 53 -27q15 -20 15 -39q0 -13 -7 -25q-11 -23 -40 -23q-10 3 -21 3q-52 0 -112 -78q-96 -138 -162 -278q-21 -49 -21 -105q0 -64 28 -138q21 -76 74 -250 q50 -160 74 -249q28 -70 87 -88q71 -1 88 -17q11 -20 15 -48q1 -10 1 -20q0 -42 -28 -74q-25 -12 -66 -12q-20 0 -44 3h-15q-23 1 -64 41q-32 30 -57 30q-4 0 -9 -1q-85 -36 -85 -44q0 -1 1 -2q-41 29 -58 98q-3 14 -12 60q-7 37 -13 58q-53 226 -85 325q-9 21 -36 12 q-76 -68 -76 -214q0 -28 3 -58q19 -104 71 -126q11 -12 66 -20q42 -6 49 -45q2 -14 2 -26q0 -31 -13 -49q-40 -39 -108 -39q-39 0 -86 13q-4 2 -63 50q-22 18 -43 18q-14 0 -26 -8q-59 -56 -88 -64q-11 0 -50 -2q-33 -3 -52 -1q-59 5 -79 52q-5 18 -5 34q0 26 14 43 q-1 0 -1 -1q0 -2 98 51q58 32 61 93q8 118 8 208q0 106 -11 175q-4 14 -39 47q-27 25 -17 52q69 56 71 95q-2 290 -10 320q-19 28 -76 31q-59 4 -78 29q-31 26 -31 84q0 26 6 57z" />
<glyph unicode="L" horiz-adv-x="1099" d="M2 1338q2 60 36 98q39 37 101 37q34 0 74 -11q11 -4 59 -38q27 -19 51 -19q8 0 15 2q15 6 52 25q34 18 54 25q32 12 61 12t55 -12q75 -23 87 -99q-2 -76 -44 -121q-16 -25 -105 -36q-33 -4 -47 -18q-15 -16 -15 -48q0 -8 1 -18q-8 -49 -8 -256q0 -29 25 -59 q35 -42 41 -54q-4 -21 -36 -47q-30 -26 -32 -51q-9 -120 -9 -214q0 -103 11 -173q25 -81 113 -96q20 -3 38 -3q87 0 128 71q6 13 6 41t-6 70q-2 15 -2 29q0 49 28 73q38 42 91 42q26 0 55 -10q55 -27 64 -90q1 -7 1 -15q0 -43 -23 -106q-22 -62 -21 -102v-15 q-14 -86 -14 -121q0 -23 6 -23q2 0 4 2q-3 -1 -7 -1q-24 0 -53 42q-22 30 -45 30q-11 0 -22 -7q-56 -62 -155 -72q-16 -2 -38 -2q-54 0 -140 11h-6q-31 0 -73 43q-39 39 -68 39q-6 0 -11 -1q-165 -73 -166 -85q0 -1 3 -2q-53 7 -64 11q-35 12 -46 47q-2 15 -2 28q0 32 11 49 q17 22 73 40q50 16 65 56q21 44 37 240q0 11 1 72q0 44 -3 70q-9 78 -59 111q-20 15 -6 35q53 37 62 70q11 94 11 187q0 79 -8 158q-14 32 -69 33q-58 1 -75 30q-27 22 -42 96z" />
<glyph unicode="M" horiz-adv-x="1983" d="M27 60q-3 13 -3 25q0 35 22 63q18 22 72 40q49 17 67 49q30 37 34 98l9 303l-5 517q-7 43 -35 54q-14 3 -43 6q-30 3 -43 6q-50 11 -68 57q-14 28 -14 58q0 43 28 92q33 41 88 50q14 2 28 2q37 0 72 -15q14 -5 36 -18q27 -16 36 -20q27 -13 50 -13q15 0 29 5q56 45 97 45 q18 0 33 -9l39 7q23 4 35 -8q11 -15 11 -37q0 -12 -3 -26q-9 -45 -9 -62v-6q10 -108 124 -399q11 -37 54 -56q50 -22 62 -41q-21 -38 -21 -84q0 -25 6 -54q10 -44 49 -130q15 -24 45 -16l27 35q206 412 295 615q35 89 35 151q0 48 -21 81q-7 26 23 41q16 4 33 4q34 0 72 -16 q19 -8 48 -23q37 -21 47 -26h9q39 0 103 30q58 27 98 27q8 0 16 -1q81 -11 116 -78q8 -24 8 -46q0 -45 -32 -80q-36 -45 -139 -49l-21 -31q-15 -125 -15 -217q0 -82 12 -137q1 -15 23 -43q19 -24 13 -44q-37 -34 -44 -104q-2 -20 -2 -61q-1 -41 -3 -60q14 -259 24 -284 q11 -10 42 -29q31 -20 45 -32q38 -34 38 -79q0 -11 -2 -23q-5 -2 -3 -8t-1 -9q-17 -39 -67 -42q-10 -1 -42 0q-27 0 -41 -2h-4q-26 0 -55 36q-34 41 -56 45q-8 2 -16 2q-31 0 -67 -30q-53 -44 -77 -47q-7 0 -40 -2q-26 -1 -42 1q-47 5 -65 45q-7 22 -7 42q0 28 14 53 q16 30 65 41q51 11 67 39q33 63 40 172q2 27 4 94q1 60 4 93q1 10 1 19q0 83 -50 112q-3 2 -11 7q-7 4 -10 7q-11 10 -4 25q71 68 73 113q2 30 2 54q0 62 -11 93q-13 23 -33 8q-55 -80 -117 -221q-80 -184 -103 -228q-62 -123 -121 -309q-7 -22 -7 -45q0 -35 17 -70 q13 -27 65 -93q10 -26 -19 -46q-57 -11 -85 -11q-7 0 -12 1q-58 6 -84 55q-8 4 -17 4q-23 0 -50 -27q-35 -34 -60 -34q-4 0 -8 1q-11 -1 -21 -1q-67 0 -81 35q1 34 38 74q40 42 45 70q4 12 4 29q0 34 -15 88q-11 29 -46 153q-27 94 -55 149q-15 25 -49 35q-54 17 -55 18 q-13 18 3 51q21 20 23 58l-6 40q-111 218 -106 212q-8 6 -16 -1q-8 -6 -11 -15q-1 -13 -12 -669q9 -105 70 -138q49 -11 62 -17q34 -17 43 -52q4 -30 4 -50q0 -17 -3 -25q-23 -39 -77 -41q-19 -1 -48 2q-39 4 -46 4q2 -1 -53 58q-19 20 -38 20q-13 0 -25 -9q1 1 2 1t-45 -50 q-27 -29 -53 -27h-16q-93 0 -114 56z" />
<glyph unicode="N" horiz-adv-x="1414" d="M13 56q-4 21 -4 39q0 40 20 67q15 11 71 23q48 9 68 36q50 48 58 146q3 29 3 86q1 59 3 86l3 571q-9 65 -22 83q-14 14 -55 14q-11 0 -24 -1q-6 -1 -11 -1q-43 0 -58 36q-19 36 -19 77q0 44 22 94q29 57 75 57h2q9 3 19 3q43 0 113 -49q37 -26 61 -29q5 -1 9 -1 q29 0 57 27q73 42 85 46q22 8 41 8q28 0 52 -17q15 -17 15 -51q0 -9 -1 -20q-4 -30 -4 -49.5t4 -29.5q83 -282 138 -400q12 -30 51 -46q42 -16 54 -36q-24 -137 -29 -137l-1 1q53 -141 81 -186q23 -4 31 25q3 51 3 183q0 154 -4 420q-2 6 -4 17q-3 13 -4 18q-6 20 -22 23 q-65 9 -79 13q-42 15 -59 59q-14 29 -14 60q0 48 33 101q36 44 88 44q20 0 42 -6q10 -2 55 -29q33 -19 60 -12q9 4 43 22q29 14 46 21q21 7 39 7q31 0 56 -19q44 -31 54 -97q2 -16 2 -30q0 -47 -25 -82q-32 -36 -131 -49q-27 -14 -30 -55q-1 -11 0 -36q0 -24 -1 -36v-134 l3 -472v1v-12q0 -60 3 -426q-9 -17 -35 -18h-2q-21 0 -64 50q-21 24 -40 24q-15 0 -28 -15q-48 -63 -156 -63q-11 0 -23 1q-33 12 -37 25q-1 4 -1 9q0 25 22 59q20 31 20 57q0 7 -2 14q0 -1 -125 397q-13 67 -110 99q-18 14 -10 46q22 75 22 99q0 5 -1 7q-24 58 -89 176 q-5 3 -10 -1q-4 -4 -5 -10q-14 -112 -14 -640q0 -62 54 -110q16 -13 100 -65q28 -24 28 -78q0 -38 -27 -65q-18 -19 -52 -19h-10q-68 6 -67 6q-22 0 -64 45q-26 27 -50 27q-10 0 -19 -5q-77 -57 -104 -65q-14 2 -45 -1q-34 -4 -48 -4q-57 2 -70 52z" />
<glyph unicode="O" horiz-adv-x="1030" d="M18 752q-18 -23 7 -49q31 -32 28 -51q2 -31 4 -136q3 -86 7 -137q1 -112 62 -212q61 -99 153 -139q91 -28 170 -28q152 0 261 103q91 80 110 241q6 50 8 143q3 102 7 144v-1q4 0 45 99q-63 61 -63 182q0 11 4 104q1 24 1 45q0 34 -3 59q-6 86 -75 193q-75 116 -212 148 q-48 11 -98 11q-76 0 -156 -26q-146 -59 -185 -257q-2 -8 -29 -360q-13 -50 -46 -76zM309 436l5 193q-3 26 18 55q35 49 35 48q-3 16 -20 36q-19 24 -24 36q-16 75 -16 168q0 102 19 227q18 50 62 76q33 9 61 9q56 0 94 -37q51 -58 57 -162q2 -21 2 -50q0 -20 -1 -43 q-2 -76 -2 -94q2 -11 2 -23q0 -32 -13 -63l-57 -80q-1 -17 15 -32q21 -21 25 -28q9 -23 9 -65v-9v-22q0 -40 3 -55v-10q0 -24 3 -77q3 -39 3 -66q0 -14 -1 -24q-7 -102 -72 -137q-33 -19 -73 -19h-8q-46 3 -77 31q-34 35 -42 100q-3 22 -4 58q-2 46 -3 59z" />
<glyph unicode="P" horiz-adv-x="1016" d="M6 1370q-2 -21 -2 -39q0 -47 12 -68q15 -53 82 -57q74 -5 92 -33q1 -3 8 -331q-6 -24 -32 -47q-31 -29 -38 -42q6 -19 39 -52q30 -31 33 -57q1 -221 1 -296v-40q-3 -53 -53 -85q-10 -6 -45 -24q-27 -14 -41 -26q-31 -25 -31 -90q0 -20 3 -43q22 -40 75 -40h5q18 1 48 7 q33 6 44 7q21 2 49 31q32 34 45 40t25 6q24 0 49 -20q5 -4 32 -28q19 -17 32 -24l83 -15q-1 0 45 2q27 1 40 15q19 24 19 71q0 26 -6 58q-13 44 -64 61q-69 21 -82 33q-31 48 -33 137q0 16 1 76v22q0 32 -2 53q20 127 32 140q7 2 21 2q28 0 83 -10q10 -1 20 -1q66 0 124 41 q65 45 97 124q35 73 42 186q1 25 1 48q0 228 -71 323q-55 73 -156 88q-24 3 -49 3q-62 0 -129 -21q-14 -4 -66 -38q-30 -19 -55 -19q-9 0 -17 2q-17 8 -48 27q-33 19 -49 27q-43 21 -81 21q-14 0 -27 -3q-72 -6 -105 -102zM457 1164q2 101 72 125q48 0 82 -68 q18 -93 18 -169q0 -110 -37 -185q-16 -26 -47 -34q-23 -3 -50 15q-21 24 -33 146q1 9 1 21q0 24 -3 61q-3 51 -3 77v11z" />
<glyph unicode="Q" horiz-adv-x="1113" d="M8 743q65 -54 65 -102l-6 -128q0 -257 104 -389q70 -101 204 -119q27 -3 55 -3q84 0 179 29q70 45 83 45q17 0 30 -21q18 -28 26 -34q56 -29 104 -29q41 0 76 21q-1 -1 3 64v9q0 27 14 68q14 37 14 64q0 7 -1 14q-22 51 -66 52q-16 4 -35 -13q-23 -19 -32 -21q-5 1 -7 8 q-2 8 -5 10l9 345l17 51q-1 -2 40 39q24 24 9 48q-62 34 -62 118v5q0 11 6 77q3 27 3 48q0 17 -2 30q-27 333 -195 409q-74 38 -174 42h-17q-88 0 -160 -28q-72 -26 -128 -100q-57 -74 -66 -159v1l-18 -334q0 -28 -39 -58q-29 -23 -29 -48q0 -5 1 -11zM311 504v27q0 37 2 63 q8 102 64 152q1 24 -31 67q-27 35 -27 63q0 5 1 9q-2 31 -2 64q0 114 19 250q21 84 90 101q15 1 29 1q73 0 102 -40q21 -25 26 -69q1 -7 3 -38q1 -24 4 -39l-5 -268q-3 -19 -66 -92q0 -20 19 -42q5 -6 18 -17q11 -11 16 -17q11 -29 11 -116q0 -44 -3 -102q-13 -39 -77 -50 q-60 -11 -68 -59q-4 -10 -4 -20q0 -22 17 -46q28 -40 26 -60q-11 -16 -37 -16q-15 0 -35 5q-86 41 -90 201q0 9 -2 88z" />
<glyph unicode="R" horiz-adv-x="1180" d="M4 1275v22q0 114 38 148q34 25 76 25q71 0 165 -72q18 -8 42 -8q14 0 30 3q82 51 114 64q44 17 86 18q23 0 46 -6q204 -36 260 -208q29 -76 29 -160q0 -49 -10 -102q-24 -128 -99 -238q-1 -39 43 -97q46 -60 47 -98q10 -49 16 -149q7 -99 17 -148q11 -32 68 -76 q52 -40 58 -85q0 -76 -45 -97q-36 -11 -70 -11q-106 0 -190 110q-58 61 -71 175q0 6 -5 200q-2 13 -5 52q-3 34 -7 52q-13 59 -57 77q-69 9 -92 9q-9 0 -12 -1q-23 -18 -26 -58q-1 -9 -1 -36q-1 -22 -3 -34q3 -238 19 -290q22 -32 65 -48q13 -6 37 -12q28 -8 38 -11 q26 -31 26 -83q0 -30 -9 -67q-24 -32 -78 -32q-21 0 -46 5q2 0 -120 71q-29 17 -54 17q-37 0 -66 -38q-29 -42 -84 -48q-9 -1 -23 -1q-28 0 -75 5q-18 3 -25 24q-2 7 -5 20q-2 13 -4 19q14 67 21 77q13 9 39 23q28 15 40 23q46 29 59 73q23 109 23 221q0 67 -8 135 q-2 15 -77 117v13q73 50 75 172v12q0 37 -5 93q-7 77 -8 99q-4 38 -33 57q-12 2 -48 7q-31 4 -48 9q-54 16 -68 67zM443 1084q4 -23 6 -65q3 -47 5 -66q10 -76 54 -110q12 -13 33 -9q7 2 17 6q13 6 16 7q29 27 60 159q-1 12 -1 30.5t1 42.5q2 54 2 75q-4 88 -52 127 q-26 21 -53 21q-16 0 -32 -8q-34 -33 -45 -97q-3 -20 -6 -56q-3 -41 -5 -57z" />
<glyph unicode="S" horiz-adv-x="923" d="M17 27q-8 14 -8 30q0 20 12 42q30 60 32 67q2 9 2 22q0 44 -19 130q-8 36 -8 67q0 47 19 81q34 50 90 50q17 0 36 -5q63 -21 88 -80q14 -20 14 -66q0 -18 -2 -41q-1 -11 -1 -21q0 -56 28 -80q48 -34 89 -34q15 0 29 5q64 15 104 93q11 34 11 69q0 93 -81 188 q-60 71 -128 71q-27 0 -55 -11q-10 -1 -12 10q-3 21 -2 18q1 73 -73 164q-84 104 -96 154q-26 65 -26 144v21q4 91 41 160q106 174 298 174q26 0 54 -3q13 -3 101 -38q44 -18 80 -18q14 0 28 3l42 21q25 13 45 3q8 -4 18 -30q-19 -127 -19 -169q0 -11 1 -16q8 -44 8 -81 q0 -71 -30 -118q-33 -32 -70 -32q-20 0 -41 9q-42 11 -65 65q0 1 -11 134q-7 78 -53 110q-32 19 -67 19q-41 0 -87 -26q-58 -34 -58 -131v-7q2 -79 52 -151q45 -65 112 -102q21 -6 54 1q38 7 53 6l10 -15q5 -98 23 -125q159 -138 158 -336q0 -34 -4 -70q-8 -108 -89 -200 q-71 -80 -169 -121q-53 -14 -99 -14q-81 0 -138 44q-6 4 -20 13q-13 8 -20 12q-24 12 -45 4q-13 -7 -33 -24q-23 -20 -31 -26q-25 -18 -48 -18q-12 0 -24 5z" />
<glyph unicode="T" horiz-adv-x="1179" d="M0 1440q21 8 41 8q46 0 92 -42q-2 1 -2 2q0 9 100 39q34 25 76 25q29 0 60 -12q28 -11 126 -72q7 -1 15 -1q43 0 104 43q71 50 115 50h5h4q68 0 151 -62q4 -1 8 -1q22 0 59 32q17 15 31 15q16 0 29 -20q-1 -18 -17 -75q-10 -35 -10 -60q0 -8 1 -15q30 -97 36 -163 q5 -33 -3 -60q-1 -36 -37 -68q-38 -40 -84 -40q-11 0 -22 2q-62 18 -94 114q-3 7 -3 22q0 32 12 97q2 14 2 27q0 52 -39 74q-9 5 -19 5q-19 0 -43 -16q-46 -42 -49 -177v-12q-5 -48 -5 -133q0 -43 1 -95q-1 -69 69 -123q-3 -21 -34 -50q-30 -28 -31 -54q-6 -76 -6 -148 q0 -108 13 -206q9 -53 49 -77q102 -69 115 -69q3 0 2 3q4 -25 4 -46q0 -41 -17 -63q-27 -23 -87 -23q-33 0 -75 7q-156 38 -156 59q0 3 5 6q-45 -59 -111 -79q-28 -8 -56 -8l-74 14q-18 13 -21 43q-1 9 -1 26q0 21 -1 27q4 56 64 73q68 20 82 60q34 52 38 146v34.5v47.5 v48.5v32.5v7q0 118 -69 179q0 18 19 35q23 22 28 32q21 41 21 109v18q-19 289 -41 331q-34 35 -59 35q-9 0 -18 -5q-25 -15 -28 -54q-1 -11 0 -35q0 -23 -1 -35l1 -90q-30 -88 -72 -98q-28 -7 -51 -7q-55 0 -87 40q-30 39 -30 100q0 34 9 74q15 68 15 116q0 41 -11 67z" />
<glyph unicode="U" horiz-adv-x="1197" d="M0 1331q17 79 64 110q41 28 89 28q75 0 164 -70q31 2 98 36q49 24 85 24q9 0 17 -1h5q78 0 130 -58q26 -36 26 -79q0 -19 -5 -40q-9 -48 -58 -81q-13 -7 -79 -8q-50 0 -63 -40q-9 -54 -9 -135v-17q1 -82 1 -124v-32q0 -28 39 -58q30 -23 30 -48q0 -4 -1 -9 q-80 -52 -80 -228v-9q11 -162 11 -163q16 -89 74 -123q56 -22 99 -21q61 0 93 45q50 73 56 201v7q0 37 -7 215q-6 26 -69 93q3 17 22 31q24 17 30 26l15 30q3 112 3 200q0 228 -19 289q-2 4 -49 59q-17 20 -17 40q0 15 10 30q11 17 59 6q11 -2 60 -25q26 -13 47 -13 q8 0 15 2q78 38 81 38q14 4 27 4q31 0 53 -26q-1 -27 -32 -60q-35 -38 -42 -56q-40 -142 -40 -388v-45q-2 -61 73 -151q-4 -19 -33 -45q-28 -25 -29 -49q-6 -53 -6 -150q0 -111 -3 -153q-11 -178 -104 -259q-95 -70 -218 -80q-17 -1 -34 -1q-108 0 -189 56q-122 75 -154 257 q-10 62 -15 165q-7 138 -9 167q-5 23 -30 43q-35 28 -41 35q-1 5 -1 10q0 24 28 50q36 32 36 57l4 80h2q-2 23 -3 121q-1 77 -13 120q-20 28 -74 31q-57 4 -76 24q-35 28 -44 115z" />
<glyph unicode="V" horiz-adv-x="1182" d="M1 1345q17 101 81 120q15 4 31 3q78 0 187 -82q12 -5 25 -5q20 0 42 12q12 6 31 20q22 15 31 21q40 20 76 20q41 0 77 -27q59 -37 59 -107q0 -8 -1 -17q-6 -75 -81 -126q-11 -7 -59 -5q-38 2 -45 -29q3 -69 31 -290q5 -28 34 -48q38 -26 45 -37q4 -25 -21 -48 q-29 -25 -32 -42v-14q0 -125 34 -183q16 -1 27 30l41 157l99 482q8 88 8 109q0 67 -46 99q-27 35 -27 52q0 3 1 6q5 20 37 40h5q31 0 79 -41q38 -34 68 -34q9 0 17 3q1 0 91 37q18 7 34 7q30 0 48 -28v-5q0 -29 -41 -60q-60 -36 -90 -128q-8 -23 -22 -79q-13 -52 -23 -78 l-28 -128l-118 -515q-19 -195 -19 -205q0 -32 74 -59q57 -20 65 -69q2 -13 2 -26q0 -32 -15 -58q-27 -25 -93 -25q-33 0 -75 6q-68 25 -142 93q-12 5 -24 5q-27 0 -59 -24q-55 -41 -78 -43q-11 2 -38 1q-25 0 -38 2q-42 6 -54 44q-10 27 -10 52q0 37 23 69q6 6 42 29 q26 17 34 40q6 41 6 91q0 91 -19 213q-19 116 -75 146q-27 19 -27 28q55 99 55 114l-1 60q-10 37 -30 155q-16 98 -37 152q-16 16 -56 16h-14q-6 -1 -12 -1q-40 0 -56 24q-35 57 -34 108z" />
<glyph unicode="W" horiz-adv-x="2011" d="M33 1403q57 90 158 90q21 0 45 -4q36 -4 128 -86q25 5 79 48q44 35 78 35h7h13q102 0 139 -91q7 -31 7 -57q0 -50 -24 -83q-15 -32 -69 -50q-51 -17 -61 -51q0 -54 56 -281q6 -15 50 -35q34 -15 21 -47q-36 -37 -36 -98q0 -11 1 -23q3 -40 31 -127q2 -2 5 -6t5 -5 q6 -6 12 -1l19 23l102 464q45 325 45 336q0 76 -70 84q-12 16 -10 35q29 26 70 26q11 0 24 -2q47 -8 92 -39q5 -4 17 -15q11 -10 17 -14q22 -16 41 -8q13 8 35 24q24 17 35 23q36 23 70 23q5 0 10 -1q9 -3 26 -5q20 -2 26 -3q31 -6 45 -29q-4 -23 -34 -43q-31 -22 -36 -45 q-9 -18 -10 -51q0 -22 5 -51q75 -356 94 -392q61 -70 68 -70q1 0 1 2l-31 -58q-12 -23 -12 -44q0 -11 3 -22l34 -137q6 -16 22 -8l16 34q74 293 101 530v6q0 49 -64 111q-54 53 -54 105q0 10 2 19q2 52 44 101q27 24 67 24q50 0 121 -38q16 3 47 13q33 10 48 13q19 4 37 4 q34 0 60 -17q45 -26 52 -91q1 -12 1 -23q0 -86 -54 -121q-12 -6 -35 -11q-30 -6 -38 -9q-43 -13 -54 -54q-50 -233 -150 -789q-1 -20 -1 -37q0 -62 14 -83q14 -24 66 -39q47 -13 57 -53q9 -36 9 -64q0 -30 -10 -52q-31 -30 -90 -30q-18 0 -40 3q-13 3 -107 84 q-32 28 -61.5 28t-55.5 -28q-54 -81 -163 -81q-24 0 -50 4q-71 23 -77 76q-4 14 -4 28q0 28 15 61v-1q2 0 74 74q37 38 37 81q0 7 -1 14q-8 60 -29 153q-28 118 -34 150q-19 58 -78 73q-14 21 3 51q27 44 28 50q2 16 2 30q0 62 -35 102h-6q-32 0 -50 -41 q-109 -466 -109 -605q0 -51 61 -88q63 -37 61 -91q-10 -89 -42 -103q-28 -5 -52 -5q-71 0 -112 45q-7 5 -30 22q-18 15 -30 21q-19 11 -37 11q-16 0 -31 -9q-16 -7 -66 -45q-41 -31 -70 -37l-99 -7q-10 -1 -20 -1q-45 0 -72 20q-11 26 -11 58q0 36 14 78q16 26 84 41 q58 12 66 64q5 21 5 44q0 33 -10 71q-73 271 -71 266q-4 10 -49 41q-30 21 -14 56q23 60 23 103q0 16 -3 30q-44 230 -87 319q-21 24 -77 24h-4h-6q-57 0 -77 20q-24 17 -27 17q-25 45 -25 87q0 32 14 62z" />
<glyph unicode="X" horiz-adv-x="1342" d="M20 53q-7 29 -7 52q0 45 26 69q22 23 83 29q60 5 83 33q3 4 213 379q12 32 12 54q0 12 -3 21t-26 34q-17 18 -10 39q34 31 41 72q0 1 -120 267q-68 86 -68 93q0 1 1 1h1q-19 7 -53 10q-44 3 -55 5q-64 12 -81 69q-4 20 -4 39q0 53 36 92q37 44 99 44q21 0 46 -5 q16 -3 94 -45q33 -18 61 -18q20 0 37 9q76 65 154 65q43 0 87 -20q34 -13 52 -54q12 -30 12 -58q0 -36 -19 -70q-12 -24 -80 -59q-48 -25 -48 -73v-9q41 -119 87 -167h3q19 0 50 46q54 116 106 277q3 10 3 21q0 27 -20 55q-7 10 -25 30q-17 18 -24 28q-5 20 24 42q32 5 59 5 q84 0 121 -49q17 -3 39 11q25 17 37 18q17 2 32 2q64 0 96 -37q14 -15 20 -49q0 -37 -37 -51q-11 1 -34 5q-23 5 -34 6h-7q-35 0 -53 -28q2 5 -192 -423q-7 -15 -7 -36q0 -16 4 -36q3 -9 23 -31q15 -17 13 -32q-51 -66 -50 -86q-1 5 189 -390q43 -68 103 -83q28 -20 28 -99 q0 -14 -1 -30q-8 -31 -35 -46q-21 -7 -43 -7q-43 0 -89 27q-24 14 -58 41q-47 36 -56 42l-39 1q-4 -2 -108 -65q-49 -29 -89 -29q-13 0 -26 3q-31 22 -31 79q0 21 4 47q8 46 67 62q58 15 64 61q0 30 -45 159q-7 9 -31 65q-18 40 -44 55l-22 -7q-115 -206 -126 -238 q-6 -18 -6 -34q0 -17 7 -32q9 -18 42 -38q31 -19 37 -43q2 -18 2 -34q0 -73 -38 -103q-14 -6 -29 -6q-31 0 -66 27q-64 50 -86 54q-27 -2 -69 -40q-40 -35 -68 -35h-3q-63 0 -76 3q-41 9 -57 47z" />
<glyph unicode="Y" horiz-adv-x="1296" d="M18 1299q12 -54 54 -72h-1q0 2 82 -23q51 -15 76 -51q2 -6 9 -17l4 -8q20 -45 80 -156q52 -97 76 -157l-3 -22q-1 -14 -17 -31q-18 -17 -19 -27q83 -62 85 -106q9 -168 9 -218v-9q-6 -128 -56 -205q-14 -18 -49 -24q-39 -7 -51 -18q-16 -27 -16 -63q0 -21 6 -46 q13 -32 43 -44q9 -2 18 -2q39 0 85 33q69 50 98 55q12 4 24 4q29 0 58 -23q14 -10 35 -32q26 -25 34 -33q38 -20 77 -21h3q46 0 68 30q6 15 6 40q0 11 -1 24v8q0 45 -42 73l-77 52q-21 18 -28 57q-3 12 -5 34t-3 30q1 12 1 35q0 33 -2 88q-1 20 -1 38q0 53 5 85q2 89 90 131 q5 20 -8 57q-14 36 -6 59l119 255q10 18 29 56q19 39 30 58q37 65 84 91q18 10 53 -2q32 -11 49 4q12 23 12 47q0 23 -10 46q-11 32 -54 49q-11 4 -22 4q-25 0 -54 -17q-48 -28 -71 -28h-1q-63 51 -117 51q-14 0 -27 -3q-3 -3 -11 -7q-9 -5 -12 -8q-14 -10 -12 -24 q1 -20 35 -50q17 -26 17 -58q0 -28 -13 -61q-94 -217 -139 -270l-9 -3q-13 -3 -25 1q-30 30 -79 137q-5 15 -5 28q0 35 34 55q69 40 76 52q25 40 25 82q0 26 -10 53q-15 28 -61 61q-32 19 -70 19q-18 0 -37 -4q-57 -12 -98 -53q-19 -18 -43 -18q-23 0 -50 17q-80 50 -91 52 q-31 10 -63 10q-11 0 -23 -1q-53 -5 -78 -37q-25 -27 -25 -67q0 -19 6 -42z" />
<glyph unicode="Z" horiz-adv-x="1108" d="M24 1046q-9 23 -9 57q0 54 23 135q16 55 16 99q0 54 -24 91q-2 9 6 14q19 11 13 7q3 1 7 1q24 0 60 -29q34 -26 59 -26q5 0 10 1q104 52 243 52h5q139 -1 248 -54q-4 4 -4 8q0 15 68 14q44 0 118 -6q26 -17 15 -44l-186 -421q-8 -24 -31 -66q-25 -47 -33 -68 q-17 -40 -16 -75q0 -37 18 -70q1 -35 -31 -40q-49 -7 -53 -10q-27 -15 -44 -64q-5 -16 -48 -123q-31 -75 -36 -130q0 -66 66 -116q29 -19 69 -18q56 0 133 35q39 24 39 84q0 11 -1 24q-3 28 -3 50q0 51 16 72q32 57 91 61q79 -5 101 -68q14 -30 14 -73q0 -46 -16 -106 q-18 -67 -18 -117q0 -39 11 -68q13 -49 13 -67q0 -5 -1 -8q-21 -15 -40 11q-30 40 -33 42q-17 31 -61 31q-9 0 -20 -1q-147 -86 -260 -86q-26 0 -50 4q-22 4 -165 94q-20 8 -40 8q-35 0 -73 -23q-14 -8 -50 -34q-32 -23 -51 -33q-40 3 -47 13q-13 13 -13 33q0 13 6 28 q7 20 26 50q20 32 27 49l233 511q2 22 2 41q0 64 -19 91q9 26 48 40q41 14 54 40q51 88 148 321q3 12 3 22q0 29 -27 44q-46 28 -102 28q-18 0 -37 -3q-74 -11 -131 -59q-16 -23 -16 -63q0 -21 4 -46t5 -46q0 -40 -17 -62q-22 -48 -94 -54q-84 4 -118 71z" />
<glyph unicode="[" horiz-adv-x="758" />
<glyph unicode="\" horiz-adv-x="569" />
<glyph unicode="]" horiz-adv-x="758" />
<glyph unicode="^" />
<glyph unicode="_" horiz-adv-x="1024" />
<glyph unicode="`" horiz-adv-x="1024" />
<glyph unicode="a" horiz-adv-x="1235" d="M1 66l2 76l3 7q133 34 167 92l56 307q-14 121 -46 149q1 7 -8 28q-7 17 1 27q81 41 99 75q45 232 56 300q-1 51 -57 74q-61 25 -71 65q-16 39 -16.5 72.5t16.5 62.5q39 64 128 64q25 0 54 -5q16 -4 98 -49q41 -23 75 -23q15 0 28 4q120 56 196 56q24 0 43 -5 q60 -51 60 -130q0 -27 -7 -56q-5 -41 -69 -70q-48 -21 -48 -65q0 -8 2 -17l56 -291q6 -23 75 -63q24 -14 26 -28q4 -19 -23 -49q-25 -22 -44 -67l68 -347q29 -106 146 -123q17 -13 18 -49q0 -11 -1 -31q-1 -23 -1 -30l-17 -17q-60 -7 -109 -7q-45 0 -81 6q-136 7 -136 34 q0 5 5 11q-26 -51 -90 -53q-17 -1 -55 3q-35 3 -51 1q-18 16 -18 55v8v34q0 28 -1 33q10 18 38 33q33 18 43 29q43 35 43 99q0 8 -1 16q-2 23 -10 66q-9 44 -11 63q-24 45 -82 53q2 0 -9 0q-21 0 -90 1q-33 -6 -55 -41q-17 -82 -17 -148q0 -59 14 -104q6 -9 47 -44 q30 -25 33 -55q-1 -77 -9 -87l-22 -13q-17 -1 -33 -1q-102 0 -138 51q-6 2 -12 2q-23 0 -49 -23q-37 -31 -57 -31l-131 -1q-22 20 -21 66zM424 692l12 -29q26 -19 65 -20h7q34 0 59 17l13 18q0 2 -27 220q-6 13 -15 74q-7 46 -30 65q-16 11 -29 -11q-38 -211 -55 -334z" />
<glyph unicode="b" horiz-adv-x="1098" d="M30 1252q21 -46 99 -62q77 -16 94 -63l9 -240q4 -13 4 -24q0 -28 -25 -48q-48 -38 -54 -53q-8 -9 10 -43q71 -45 85 -182q1 -82 1 -126.5t-1 -51.5q-8 -100 -60 -152q-13 -23 -46 -34q-41 -13 -52 -23q-10 -11 -17 -62q-1 -8 -1 -16q0 -49 29 -65q27 -6 54 -6 q94 0 183 68l51 -17q75 -56 173 -67q19 -2 38 -2q80 0 142 39q139 91 178 315q3 29 3 58q0 171 -122 339q-6 20 -6 37q0 16 5 29q75 143 78 157q7 58 8 111q0 254 -164 379q-75 30 -150 30q-27 0 -54 -4q-116 -17 -182 -105q-145 76 -159 76h-8q-89 0 -130 -61 q-25 -30 -25 -70q0 -28 12 -61zM498 1235q20 44 59 45q31 2 49 -33q6 -10 14 -33q8 -21 13 -30q20 -100 20 -177q0 -108 -39 -171l-31 -23q-40 6 -43 7q-25 9 -31 35l-10 40q-6 104 -6 192q0 81 5 148zM520 383q1 106 1 156v37v6q0 32 39 58q20 16 50 1q26 -24 53 -151 q-17 -276 -19 -282q-29 -44 -48 -48q-55 11 -65 34q-11 67 -11 171v18z" />
<glyph unicode="c" horiz-adv-x="972" d="M5 751q72 48 72 167v10q-6 211 -6 212q22 188 169 285q82 52 184 55h11q102 0 172 -55h3q22 0 71 43q19 17 35 17q19 0 33 -23l-4 -177q32 -93 32 -158q0 -93 -65 -131q-27 -23 -70 -23q-21 0 -45 5q-52 17 -74 97q-1 3 -1 18q0 29 3 103v6q0 67 -40 95q-28 19 -55 19 t-53 -20q-49 -38 -57 -133l7 -312q6 -23 32 -53q30 -34 38 -50q-7 -20 -39 -55q-30 -32 -33 -58l5 -316q26 -110 86 -143q12 -2 24 -2q64 0 107 68q31 51 31 141q0 23 -2 48q-6 71 -6 120q0 53 7 79q13 22 42 17q43 -8 49 -7q35 15 59 15q12 0 21 -4l14 -21q12 -92 12 -171 q0 -310 -180 -430q-84 -46 -179 -46h-4q-108 1 -177 63q-154 126 -154 373q0 40 4 83q-3 18 -2 47q1 37 0 47q-2 53 -31 80q-5 6 -15 16l-17 17q-19 21 -14 42z" />
<glyph unicode="d" horiz-adv-x="1159" d="M13 1392q-5 -24 -5 -44q0 -31 12 -53q34 -92 159 -99q31 -16 38 -56l3 -286q-12 -34 -61 -88q-3 -8 -3 -17q0 -25 22 -52q44 -54 47 -61l2 -204v-16q0 -111 -26 -175q-23 -70 -116 -71q-26 -15 -26 -59v-6q3 -48 3 -68q0 -10 -1 -14q5 -10 30 -21q18 1 67 1q42 0 66 3 q74 10 112 69q20 10 41 -9q5 -5 17 -18q11 -12 17 -17q55 -52 146 -52q42 0 92 11q80 19 147 86q72 71 91 159l2 -2l-1 -1q-1 0 -1 6q0 44 40 384q1 27 27 58q33 39 39 52q5 12 5 25q0 29 -26 59q-44 51 -45 77q1 43 1 81q0 128 -15 209q-28 152 -118 242q-74 69 -186 69 q-18 0 -37 -2q-109 -11 -226 -76q-30 4 -106 54q-49 32 -90 32q-13 0 -25 -3q-91 -21 -112 -107zM482 345v22q0 26 1 65q1 28 1 49.5t-1 35.5q1 14 0 44t-1 45q2 52 26 77q47 54 47 79q0 17 -35 40q-26 18 -29 41q-6 41 -6 223q0 68 1 156q24 77 74 80q59 -5 88 -75l17 -113 l3 -775q-3 -115 -76 -149q-24 -12 -58 5q-47 49 -52 150z" />
<glyph unicode="e" horiz-adv-x="1096" d="M22 1357q32 73 62 86q32 23 70 22q26 0 54 -10q34 -13 115 -66q8 -1 16 -1q41 0 96 38q73 49 111 50q17 3 33 2q82 0 174 -60q7 -2 14 -3q25 0 61 26t61 26q7 0 13 -2q15 -17 10 -52q-1 -9 -5 -31q-4 -19 -4 -29q-2 -7 4 -31q4 -18 -5 -28q26 -116 28 -144l2 -28 q0 -68 -34 -110q-39 -48 -89 -48q-22 0 -47 10q-45 6 -66 56q-8 18 -8 66q0 34 4 84q1 10 1 18q0 78 -55 104q-22 8 -43 8q-36 0 -71 -23q-57 -57 -59 -183q0 -23 4 -108q1 -28 1 -51q0 -31 -2 -52q2 -36 24 -63q21 -23 78 -27q141 1 141 30q0 5 -5 12q1 -4 1 -10 q0 -23 -9 -77q-3 -16 -3 -30q0 -32 15 -54q2 -41 -12 -58q-27 -20 -55 -11q-5 2 -61 34q-21 11 -40 11q-14 0 -28 -6q-36 -27 -41 -45q20 -356 20 -354q22 -56 77 -73q19 -3 36 -3q56 0 86 36q18 18 18 45q0 13 -4 28q-15 63 -13 77v6q0 85 58 121q30 19 64 19q33 0 69 -18 q53 -41 54 -123q0 -13 -2 -28q-3 -33 -15 -88q-15 -63 -18 -81l4 -39q15 -97 15 -95q-16 -15 -38 -15q-23 0 -54 16q-15 19 -36 19q-12 0 -25 -6q-10 -4 -31 -17q-20 -11 -30 -15q-143 -24 -174 -24q-107 1 -157 71q-10 4 -20 4q-34 0 -79 -38q-49 -41 -85 -41q-8 0 -16 2 q-11 1 -39 1q-25 0 -38 1q-43 6 -60 41q-10 22 -10 43q0 31 21 61q16 14 82 27q53 11 68 57l19 52q-3 31 -3 106q0 38 1 86v35q0 100 -10 153q-5 21 -45 48q-31 21 -19 52q79 46 76 103l-4 299q-12 40 -65 40h-8h-11q-56 0 -73 28q-43 46 -43 99q0 19 6 40z" />
<glyph unicode="f" horiz-adv-x="1090" d="M28 1384q28 75 98 85q14 3 30 3q79 0 181 -71l29 -5q139 69 254 69q81 0 150 -34q8 -3 17 -3q24 0 54 19q34 21 58 21q7 0 13 -2q16 -15 6 -38q-15 -34 -15 -40q-3 -16 -3 -36q0 -50 17 -120q18 -77 18 -127q0 -15 -2 -28q-24 -60 -51 -80q-29 -20 -69 -21h-7 q-37 0 -62 18q-48 52 -48 138q0 44 12 96q2 35 -54 72q-29 15 -55 15q-40 0 -74 -33q-56 -64 -56 -190q0 -223 5 -223v1q19 -51 58 -51h2q3 -1 7 -1q28 0 73 36q31 24 56 24q13 0 24 -6q19 -26 19 -55q0 -11 -3 -23q-9 -13 -9 -51q0 -23 3 -54q1 -7 1 -12q0 -53 -48 -61 q-19 -1 -50 27q-30 27 -52 23q-33 2 -56 -25l1 1q2 0 2 -9q0 -39 -28 -241q5 -110 4 -103q10 -58 50 -81q64 -25 66 -26q37 -20 47 -56q1 -11 1 -21q0 -61 -42 -87q-36 -5 -68 -5q-120 0 -173 66q-10 4 -20 4q-29 0 -64 -30q-54 -47 -80 -48q-14 1 -42 -2q-33 -3 -45 -3 q-52 1 -69 46q-7 21 -7 40q0 41 31 77q113 85 127 85q3 0 2 -3l23 78l-3 331q-7 36 -64 84q-4 28 26 46q33 21 37 43q4 123 4 216q0 79 -3 136q-16 39 -77 40q-66 1 -85 24q-32 31 -32 80q0 28 10 61z" />
<glyph unicode="g" horiz-adv-x="983" d="M0 758q5 5 20 17q13 11 20 18q21 22 21 49q3 37 7 157q2 100 10 156q24 174 132 250q82 62 197 62h4q111 -2 203 -58q22 0 69 34q27 20 49 20q12 0 22 -5q-1 1 -2 1q-8 0 -13 -105q1 9 24 -206q2 -16 2 -31q0 -98 -76 -135q-21 -10 -43 -10q-48 0 -96 49q-45 30 -45 110 v68q0 56 -1 63q-16 39 -74 45h-2q-42 0 -65 -36q-26 -39 -42 -138l-1 -306q5 -18 42 -44q31 -22 23 -53q-75 -90 -75 -146v-8v1l-2 -198q0 -116 49 -174q34 -39 72 -39q16 0 34 8q48 16 52 76l-6 347q-4 15 -15 44q-13 33 -17 47q-7 23 -7 43q0 28 13 51q15 26 57 31h4 q22 0 65 -21q25 -13 46 -13q13 0 24 5q10 2 28 10q22 8 29 10q34 10 58 -6q23 -40 23 -79q0 -25 -10 -50q-59 -137 -63 -137v1l1 -494q-6 -23 -31 -28q-2 -1 -5 -1q-21 0 -47 37q-19 25 -39 25q-8 0 -17 -4q-110 -85 -215 -85q-44 0 -87 15q-114 48 -181 181 q-61 120 -63 266q-19 238 -16 233q-31 83 -41 83q-2 0 -3 -3z" />
<glyph unicode="h" horiz-adv-x="1320" d="M20 1377q5 31 31 58q25 26 53 33q7 1 13 1q41 0 91 -26q9 -5 47 -27q29 -17 48 -25q6 0 114 52q28 13 52 13q35 0 63 -28q23 -34 23 -77q0 -31 -12 -67q-6 -28 -57 -62q-34 -23 -34 -56q0 -9 2 -18v-17q0 -28 -2 -68q-3 -69 -4 -87v-7q0 -99 27 -153q29 -31 91 -31 q9 0 51 3q32 2 50 0q34 6 45 44l1 350q-4 34 -46 61q-42 28 -46 59q0 7 -3 48q-2 32 -1 51q4 58 38 79h9q100 0 178 -85q12 -6 26 -6q29 0 66 26q55 38 87 38q4 0 7 -1q88 -1 122 -67q12 -27 12 -56q0 -19 -5 -38q-14 -51 -54 -72q-5 -2 -78 -18q-47 -10 -65 -45 q-13 -51 -13 -307q0 -32 39 -61q41 -31 39 -65q-66 -59 -76 -95v-60q0 -286 9 -330q14 -47 75 -66q66 -20 83 -53q6 -22 6 -43q0 -29 -12 -55q-26 -28 -71 -28q-39 0 -93 21q-81 46 -75 44q-22 10 -42.5 10t-38.5 -10h1q0 -2 -93 -47q-27 -13 -50 -13q-26 0 -49 16 q-27 38 -27 79q0 21 7 42q12 23 68 68q47 37 52 80l8 49l1 283q-29 46 -98 46q-15 0 -59 -3q-37 -3 -57 -1q-31 -8 -45 -49q1 -19 1 -44.5t-1 -57.5q-3 -87 -3 -103v-6q0 -118 38 -181q8 -15 41 -35q27 -18 31 -43q5 -31 5 -54q0 -50 -24 -67q-25 -19 -69 -19q-8 0 -17 1 q-20 2 -55 44q-27 35 -53 35q-3 0 -6 -1h-2q-31 0 -76 -31q-53 -36 -75 -42q-85 0 -92 1q-52 8 -69 53q-4 20 -4 38q0 47 28 72q15 13 69 26q46 10 62 37q20 20 31 60l1 358q-4 25 -28 49q-6 5 -22 19q-14 11 -20 19q-13 30 19 44q47 19 57 44l2 351q-18 34 -79 34h-4h-4 q-63 0 -82 30q-35 38 -35 91q0 22 6 47z" />
<glyph unicode="i" horiz-adv-x="811" d="M60 156q120 95 133 95q2 0 2 -3q10 28 20 329q-12 92 -22 101q7 -8 -38 31q-22 19 -18 44q70 74 76 98q6 71 6 200q0 48 -1 105q-10 33 -36 49q-23 -2 -41 -2q-27 0 -41 4q-44 10 -62 51q-20 39 -20 76q0 34 17 67q36 64 105 64h12q7 2 15 2q41 0 108 -49q40 -28 73 -28 q26 0 48 16l2 -2q64 48 130 48q36 0 73 -14q49 -23 60 -82q-2 -94 -49 -137q-17 -24 -81 -27q-56 -3 -68 -44q-6 -51 -6 -97q0 -27 2 -52h-2q4 -144 15 -187q3 -10 35 -43q24 -24 13 -49q-8 -14 -38 -43q-25 -25 -32 -47l-1 -301q8 -100 56 -132q-1 0 58 -20q34 -11 47 -40 q7 -25 7 -46q0 -37 -22 -63q-19 -28 -55 -32q2 0 2 1q0 2 -67 2q-22 3 -92 57q-31 24 -59 24q-19 0 -36 -11q-51 -47 -112 -62q-24 -6 -47 -6q-41 0 -76 20q-20 37 -20 63q0 45 27 72z" />
<glyph unicode="j" horiz-adv-x="1068" d="M13 346q-2 15 -2 29q0 85 68 118q30 10 56 10q43 0 76 -28q43 -32 43 -116v-17q0 -89 10 -113q13 -30 52 -45q10 -4 21 -4q43 0 84 64q42 48 43 150q3 169 3 171v14q0 99 -66 144q-26 23 -20 39q62 80 67 80q1 0 1 -1q8 67 8 161q0 57 -3 124q-2 6 -5 18q-2 14 -4 19 q-7 21 -23 28q-15 3 -43 3q-31 1 -43 2q-50 8 -68 54q-16 29 -16 64q0 42 25 94q27 37 100 37q23 0 51 -4q16 -3 87 -35q42 -18 75 -18q9 0 17 1q104 56 128 63q26 8 49 8q47 0 83 -34q37 -43 37 -91q0 -19 -6 -38q-22 -56 -65 -85q-17 -17 -68 -25q-46 -7 -62 -32 q-8 -24 -12 -222q0 -127 72 -176q1 -4 1 -8q0 -26 -29 -49q-37 -30 -40 -54q-5 -43 -5 -125v-29v-42q0 -78 -3 -118q-15 -185 -127 -263q-79 -57 -174 -67q-19 -2 -36 -2q-84 0 -143 48q-33 26 -54 26q-6 0 -11 -2q-9 -4 -26 -17q-18 -13 -27 -18q-32 -17 -55 10 q-14 24 -4 59q14 46 13 61q1 30 -12 87q-15 71 -18 92z" />
<glyph unicode="k" horiz-adv-x="1250" d="M19 1370q20 73 96 92q14 3 29 3q71 0 151 -69q33 -12 52 -12q7 0 12 2q94 85 171 85q39 0 74 -22q59 -44 59 -115v-7q-1 -89 -72 -121q-12 -10 -56 -10q-11 0 -24 1h-6q-46 0 -54 -43q-14 -98 -14 -174q0 -71 12 -125q12 -24 32 -19q27 35 153 253q112 237 111 232 q1 6 1 11q0 40 -53 101q-6 15 18 30q19 8 39 8q55 0 124 -56q5 -1 10 -1q25 0 63 24q35 22 61 22q7 0 13 -1q30 -3 53 -27q15 -20 15 -39q0 -13 -7 -25q-11 -23 -40 -23q-10 3 -21 3q-52 0 -112 -78q-96 -138 -162 -278q-21 -49 -21 -105q0 -64 28 -138q21 -76 74 -250 q50 -160 74 -249q28 -70 87 -88q71 -1 88 -17q11 -20 15 -48q1 -10 1 -20q0 -42 -28 -74q-25 -12 -66 -12q-20 0 -44 3h-15q-23 1 -64 41q-32 30 -57 30q-4 0 -9 -1q-85 -36 -85 -44q0 -1 1 -2q-41 29 -58 98q-3 14 -12 60q-7 37 -13 58q-53 226 -85 325q-9 21 -36 12 q-76 -68 -76 -214q0 -28 3 -58q19 -104 71 -126q11 -12 66 -20q42 -6 49 -45q2 -14 2 -26q0 -31 -13 -49q-40 -39 -108 -39q-39 0 -86 13q-4 2 -63 50q-22 18 -43 18q-14 0 -26 -8q-59 -56 -88 -64q-11 0 -50 -2q-33 -3 -52 -1q-59 5 -79 52q-5 18 -5 34q0 26 14 43 q-1 0 -1 -1q0 -2 98 51q58 32 61 93q8 118 8 208q0 106 -11 175q-4 14 -39 47q-27 25 -17 52q69 56 71 95q-2 290 -10 320q-19 28 -76 31q-59 4 -78 29q-31 26 -31 84q0 26 6 57z" />
<glyph unicode="l" horiz-adv-x="1099" d="M2 1338q2 60 36 98q39 37 101 37q34 0 74 -11q11 -4 59 -38q27 -19 51 -19q8 0 15 2q15 6 52 25q34 18 54 25q32 12 61 12t55 -12q75 -23 87 -99q-2 -76 -44 -121q-16 -25 -105 -36q-33 -4 -47 -18q-15 -16 -15 -48q0 -8 1 -18q-8 -49 -8 -256q0 -29 25 -59 q35 -42 41 -54q-4 -21 -36 -47q-30 -26 -32 -51q-9 -120 -9 -214q0 -103 11 -173q25 -81 113 -96q20 -3 38 -3q87 0 128 71q6 13 6 41t-6 70q-2 15 -2 29q0 49 28 73q38 42 91 42q26 0 55 -10q55 -27 64 -90q1 -7 1 -15q0 -43 -23 -106q-22 -62 -21 -102v-15 q-14 -86 -14 -121q0 -23 6 -23q2 0 4 2q-3 -1 -7 -1q-24 0 -53 42q-22 30 -45 30q-11 0 -22 -7q-56 -62 -155 -72q-16 -2 -38 -2q-54 0 -140 11h-6q-31 0 -73 43q-39 39 -68 39q-6 0 -11 -1q-165 -73 -166 -85q0 -1 3 -2q-53 7 -64 11q-35 12 -46 47q-2 15 -2 28q0 32 11 49 q17 22 73 40q50 16 65 56q21 44 37 240q0 11 1 72q0 44 -3 70q-9 78 -59 111q-20 15 -6 35q53 37 62 70q11 94 11 187q0 79 -8 158q-14 32 -69 33q-58 1 -75 30q-27 22 -42 96z" />
<glyph unicode="m" horiz-adv-x="1983" d="M27 60q-3 13 -3 25q0 35 22 63q18 22 72 40q49 17 67 49q30 37 34 98l9 303l-5 517q-7 43 -35 54q-14 3 -43 6q-30 3 -43 6q-50 11 -68 57q-14 28 -14 58q0 43 28 92q33 41 88 50q14 2 28 2q37 0 72 -15q14 -5 36 -18q27 -16 36 -20q27 -13 50 -13q15 0 29 5q56 45 97 45 q18 0 33 -9l39 7q23 4 35 -8q11 -15 11 -37q0 -12 -3 -26q-9 -45 -9 -62v-6q10 -108 124 -399q11 -37 54 -56q50 -22 62 -41q-21 -38 -21 -84q0 -25 6 -54q10 -44 49 -130q15 -24 45 -16l27 35q206 412 295 615q35 89 35 151q0 48 -21 81q-7 26 23 41q16 4 33 4q34 0 72 -16 q19 -8 48 -23q37 -21 47 -26h9q39 0 103 30q58 27 98 27q8 0 16 -1q81 -11 116 -78q8 -24 8 -46q0 -45 -32 -80q-36 -45 -139 -49l-21 -31q-15 -125 -15 -217q0 -82 12 -137q1 -15 23 -43q19 -24 13 -44q-37 -34 -44 -104q-2 -20 -2 -61q-1 -41 -3 -60q14 -259 24 -284 q11 -10 42 -29q31 -20 45 -32q38 -34 38 -79q0 -11 -2 -23q-5 -2 -3 -8t-1 -9q-17 -39 -67 -42q-10 -1 -42 0q-27 0 -41 -2h-4q-26 0 -55 36q-34 41 -56 45q-8 2 -16 2q-31 0 -67 -30q-53 -44 -77 -47q-7 0 -40 -2q-26 -1 -42 1q-47 5 -65 45q-7 22 -7 42q0 28 14 53 q16 30 65 41q51 11 67 39q33 63 40 172q2 27 4 94q1 60 4 93q1 10 1 19q0 83 -50 112q-3 2 -11 7q-7 4 -10 7q-11 10 -4 25q71 68 73 113q2 30 2 54q0 62 -11 93q-13 23 -33 8q-55 -80 -117 -221q-80 -184 -103 -228q-62 -123 -121 -309q-7 -22 -7 -45q0 -35 17 -70 q13 -27 65 -93q10 -26 -19 -46q-57 -11 -85 -11q-7 0 -12 1q-58 6 -84 55q-8 4 -17 4q-23 0 -50 -27q-35 -34 -60 -34q-4 0 -8 1q-11 -1 -21 -1q-67 0 -81 35q1 34 38 74q40 42 45 70q4 12 4 29q0 34 -15 88q-11 29 -46 153q-27 94 -55 149q-15 25 -49 35q-54 17 -55 18 q-13 18 3 51q21 20 23 58l-6 40q-111 218 -106 212q-8 6 -16 -1q-8 -6 -11 -15q-1 -13 -12 -669q9 -105 70 -138q49 -11 62 -17q34 -17 43 -52q4 -30 4 -50q0 -17 -3 -25q-23 -39 -77 -41q-19 -1 -48 2q-39 4 -46 4q2 -1 -53 58q-19 20 -38 20q-13 0 -25 -9q1 1 2 1t-45 -50 q-27 -29 -53 -27h-16q-93 0 -114 56z" />
<glyph unicode="n" horiz-adv-x="1414" d="M13 56q-4 21 -4 39q0 40 20 67q15 11 71 23q48 9 68 36q50 48 58 146q3 29 3 86q1 59 3 86l3 571q-9 65 -22 83q-14 14 -55 14q-11 0 -24 -1q-6 -1 -11 -1q-43 0 -58 36q-19 36 -19 77q0 44 22 94q29 57 75 57h2q9 3 19 3q43 0 113 -49q37 -26 61 -29q5 -1 9 -1 q29 0 57 27q73 42 85 46q22 8 41 8q28 0 52 -17q15 -17 15 -51q0 -9 -1 -20q-4 -30 -4 -49.5t4 -29.5q83 -282 138 -400q12 -30 51 -46q42 -16 54 -36q-24 -137 -29 -137l-1 1q53 -141 81 -186q23 -4 31 25q3 51 3 183q0 154 -4 420q-2 6 -4 17q-3 13 -4 18q-6 20 -22 23 q-65 9 -79 13q-42 15 -59 59q-14 29 -14 60q0 48 33 101q36 44 88 44q20 0 42 -6q10 -2 55 -29q33 -19 60 -12q9 4 43 22q29 14 46 21q21 7 39 7q31 0 56 -19q44 -31 54 -97q2 -16 2 -30q0 -47 -25 -82q-32 -36 -131 -49q-27 -14 -30 -55q-1 -11 0 -36q0 -24 -1 -36v-134 l3 -472v1v-12q0 -60 3 -426q-9 -17 -35 -18h-2q-21 0 -64 50q-21 24 -40 24q-15 0 -28 -15q-48 -63 -156 -63q-11 0 -23 1q-33 12 -37 25q-1 4 -1 9q0 25 22 59q20 31 20 57q0 7 -2 14q0 -1 -125 397q-13 67 -110 99q-18 14 -10 46q22 75 22 99q0 5 -1 7q-24 58 -89 176 q-5 3 -10 -1q-4 -4 -5 -10q-14 -112 -14 -640q0 -62 54 -110q16 -13 100 -65q28 -24 28 -78q0 -38 -27 -65q-18 -19 -52 -19h-10q-68 6 -67 6q-22 0 -64 45q-26 27 -50 27q-10 0 -19 -5q-77 -57 -104 -65q-14 2 -45 -1q-34 -4 -48 -4q-57 2 -70 52z" />
<glyph unicode="o" horiz-adv-x="1030" d="M18 752q-18 -23 7 -49q31 -32 28 -51q2 -31 4 -136q3 -86 7 -137q1 -112 62 -212q61 -99 153 -139q91 -28 170 -28q152 0 261 103q91 80 110 241q6 50 8 143q3 102 7 144v-1q4 0 45 99q-63 61 -63 182q0 11 4 104q1 24 1 45q0 34 -3 59q-6 86 -75 193q-75 116 -212 148 q-48 11 -98 11q-76 0 -156 -26q-146 -59 -185 -257q-2 -8 -29 -360q-13 -50 -46 -76zM309 436l5 193q-3 26 18 55q35 49 35 48q-3 16 -20 36q-19 24 -24 36q-16 75 -16 168q0 102 19 227q18 50 62 76q33 9 61 9q56 0 94 -37q51 -58 57 -162q2 -21 2 -50q0 -20 -1 -43 q-2 -76 -2 -94q2 -11 2 -23q0 -32 -13 -63l-57 -80q-1 -17 15 -32q21 -21 25 -28q9 -23 9 -65v-9v-22q0 -40 3 -55v-10q0 -24 3 -77q3 -39 3 -66q0 -14 -1 -24q-7 -102 -72 -137q-33 -19 -73 -19h-8q-46 3 -77 31q-34 35 -42 100q-3 22 -4 58q-2 46 -3 59z" />
<glyph unicode="p" horiz-adv-x="1016" d="M6 1370q-2 -21 -2 -39q0 -46 12 -68q15 -53 82 -57q74 -5 92 -33q1 -3 8 -331q-6 -24 -32 -47q-31 -29 -38 -42q6 -19 39 -52q30 -31 33 -57q1 -221 1 -296v-40q-3 -53 -53 -85q-10 -6 -45 -24q-27 -14 -41 -26q-31 -25 -31 -90q0 -20 3 -43q22 -40 75 -40h5q18 1 48 7 q33 6 44 7q21 2 49 31q32 34 45 40t25 6q24 0 49 -20q5 -4 32 -28q19 -17 32 -24l83 -15q-1 0 45 2q27 1 40 15q19 24 19 71q0 26 -6 58q-13 44 -64 61q-69 21 -82 33q-31 48 -33 137q0 16 1 76v22q0 32 -2 53q20 127 32 140q7 2 21 2q28 0 83 -10q10 -1 20 -1q66 0 124 41 q65 45 97 124q35 73 42 186q1 25 1 48q0 229 -71 323q-55 73 -156 88q-24 3 -49 3q-63 0 -129 -21q-14 -4 -66 -38q-30 -19 -55 -19q-9 0 -17 2q-17 8 -48 27q-33 19 -49 27q-43 21 -81 21q-14 0 -27 -3q-72 -6 -105 -102zM457 1164q2 101 72 125q48 0 82 -68 q18 -93 18 -169q0 -110 -37 -185q-16 -26 -47 -34q-23 -3 -50 15q-21 24 -33 146q1 9 1 21q0 24 -3 61q-3 51 -3 77v11z" />
<glyph unicode="q" horiz-adv-x="1113" d="M8 743q65 -54 65 -102l-6 -128q0 -257 104 -389q70 -101 204 -119q27 -3 55 -3q84 0 179 29q70 45 83 45q17 0 30 -21q18 -28 26 -34q56 -29 104 -29q41 0 76 21q-1 -1 3 64v9q0 27 14 68q14 37 14 64q0 7 -1 14q-22 51 -66 52q-16 4 -35 -13q-23 -19 -32 -21q-5 1 -7 8 q-2 8 -5 10l9 345l17 51q-1 -2 40 39q24 24 9 48q-62 34 -62 118v5q0 11 6 77q3 27 3 48q0 17 -2 30q-27 333 -195 409q-74 38 -174 42h-17q-88 0 -160 -28q-72 -26 -128 -100q-57 -74 -66 -159v1l-18 -334q0 -28 -39 -58q-29 -23 -29 -48q0 -5 1 -11zM311 504v27q0 37 2 63 q8 102 64 152q1 24 -31 67q-27 35 -27 63q0 5 1 9q-2 31 -2 64q0 114 19 250q21 84 90 101q15 1 29 1q73 0 102 -40q21 -25 26 -69q1 -7 3 -38q1 -24 4 -39l-5 -268q-3 -19 -66 -92q0 -20 19 -42q5 -6 18 -17q11 -11 16 -17q11 -29 11 -116q0 -44 -3 -102q-13 -39 -77 -50 q-60 -11 -68 -59q-4 -10 -4 -20q0 -22 17 -46q28 -40 26 -60q-11 -16 -37 -16q-15 0 -35 5q-86 41 -90 201q0 9 -2 88z" />
<glyph unicode="r" horiz-adv-x="1180" d="M4 1275v22q0 114 38 148q34 25 76 25q71 0 165 -72q18 -8 42 -8q14 0 30 3q82 51 114 64q44 17 86 18q23 0 46 -6q204 -36 260 -208q29 -76 29 -160q0 -49 -10 -102q-24 -128 -99 -238q-1 -39 43 -97q46 -60 47 -98q10 -49 16 -149q7 -99 17 -148q11 -32 68 -76 q52 -40 58 -85q0 -76 -45 -97q-36 -11 -70 -11q-106 0 -190 110q-58 61 -71 175q0 6 -5 200q-2 13 -5 52q-3 34 -7 52q-13 59 -57 77q-69 9 -92 9q-9 0 -12 -1q-23 -18 -26 -58q-1 -9 -1 -36q-1 -22 -3 -34q3 -238 19 -290q22 -32 65 -48q13 -6 37 -12q28 -8 38 -11 q26 -31 26 -83q0 -30 -9 -67q-24 -32 -78 -32q-21 0 -46 5q2 0 -120 71q-29 17 -54 17q-37 0 -66 -38q-29 -42 -84 -48q-9 -1 -23 -1q-28 0 -75 5q-18 3 -25 24q-2 7 -5 20q-2 13 -4 19q14 67 21 77q13 9 39 23q28 15 40 23q46 29 59 73q23 109 23 221q0 67 -8 135 q-2 15 -77 117v13q73 50 75 172v12q0 37 -5 93q-7 77 -8 99q-4 38 -33 57q-12 2 -48 7q-31 4 -48 9q-54 16 -68 67zM443 1084q4 -23 6 -65q3 -47 5 -66q10 -76 54 -110q12 -13 33 -9q7 2 17 6q13 6 16 7q29 27 60 159q-1 12 -1 30.5t1 42.5q2 54 2 75q-4 88 -52 127 q-26 21 -53 21q-16 0 -32 -8q-34 -33 -45 -97q-3 -20 -6 -56q-3 -41 -5 -57z" />
<glyph unicode="s" horiz-adv-x="923" d="M17 27q-8 14 -8 30q0 20 12 42q30 60 32 67q2 9 2 22q0 44 -19 130q-8 36 -8 67q0 47 19 81q34 50 90 50q17 0 36 -5q63 -21 88 -80q14 -20 14 -66q0 -18 -2 -41q-1 -11 -1 -21q0 -56 28 -80q48 -34 89 -34q15 0 29 5q64 15 104 93q11 34 11 69q0 93 -81 188 q-60 71 -128 71q-27 0 -55 -11q-10 -1 -12 10q-3 21 -2 18q1 73 -73 164q-84 104 -96 154q-26 65 -26 144v21q4 91 41 160q106 174 298 174q26 0 54 -3q13 -3 101 -38q44 -18 80 -18q14 0 28 3l42 21q25 13 45 3q8 -4 18 -30q-19 -127 -19 -169q0 -11 1 -16q8 -44 8 -81 q0 -71 -30 -118q-33 -32 -70 -32q-20 0 -41 9q-42 11 -65 65q0 1 -11 134q-7 78 -53 110q-32 19 -67 19q-41 0 -87 -26q-58 -34 -58 -131v-7q2 -79 52 -151q45 -65 112 -102q21 -6 54 1q38 7 53 6l10 -15q5 -98 23 -125q159 -138 158 -336q0 -34 -4 -70q-8 -108 -89 -200 q-71 -80 -169 -121q-53 -14 -99 -14q-81 0 -138 44q-6 4 -20 13q-13 8 -20 12q-24 12 -45 4q-13 -7 -33 -24q-23 -20 -31 -26q-25 -18 -48 -18q-12 0 -24 5z" />
<glyph unicode="t" horiz-adv-x="1179" d="M0 1440q21 8 41 8q46 0 92 -42q-2 1 -2 2q0 9 100 39q34 25 76 25q29 0 60 -12q28 -11 126 -72q7 -1 15 -1q43 0 104 43q71 50 115 50h5h4q68 0 151 -62q4 -1 8 -1q22 0 59 32q17 15 31 15q16 0 29 -20q-1 -18 -17 -75q-10 -35 -10 -60q0 -8 1 -15q30 -97 36 -163 q5 -33 -3 -60q-1 -36 -37 -68q-38 -40 -84 -40q-11 0 -22 2q-62 18 -94 114q-3 7 -3 22q0 32 12 97q2 14 2 27q0 52 -39 74q-9 5 -19 5q-19 0 -43 -16q-46 -42 -49 -177v-12q-5 -48 -5 -133q0 -43 1 -95q-1 -69 69 -123q-3 -21 -34 -50q-30 -28 -31 -54q-6 -76 -6 -148 q0 -108 13 -206q9 -53 49 -77q102 -69 115 -69q3 0 2 3q4 -25 4 -46q0 -41 -17 -63q-27 -23 -87 -23q-33 0 -75 7q-156 38 -156 59q0 3 5 6q-45 -59 -111 -79q-28 -8 -56 -8l-74 14q-18 13 -21 43q-1 9 -1 26q0 21 -1 27q4 56 64 73q68 20 82 60q34 52 38 146v34.5v47.5 v48.5v32.5v7q0 118 -69 179q0 18 19 35q23 22 28 32q21 41 21 109v18q-19 289 -41 331q-34 35 -59 35q-9 0 -18 -5q-25 -15 -28 -54q-1 -11 0 -35q0 -23 -1 -35l1 -90q-30 -88 -72 -98q-28 -7 -51 -7q-55 0 -87 40q-30 39 -30 100q0 34 9 74q15 68 15 116q0 41 -11 67z" />
<glyph unicode="u" horiz-adv-x="1197" d="M0 1331q17 79 64 110q41 28 89 28q75 0 164 -70q31 2 98 36q49 24 85 24q9 0 17 -1h5q78 0 130 -58q26 -36 26 -79q0 -19 -5 -40q-9 -48 -58 -81q-13 -7 -79 -8q-50 0 -63 -40q-9 -54 -9 -135v-17q1 -82 1 -124v-32q0 -28 39 -58q30 -23 30 -48q0 -4 -1 -9 q-80 -52 -80 -228v-9q11 -162 11 -163q16 -89 74 -123q56 -22 99 -21q61 0 93 45q50 73 56 201v7q0 37 -7 215q-6 26 -69 93q3 17 22 31q24 17 30 26l15 30q3 112 3 200q0 228 -19 289q-2 4 -49 59q-17 20 -17 40q0 15 10 30q11 17 59 6q11 -2 60 -25q26 -13 47 -13 q8 0 15 2q78 38 81 38q14 4 27 4q31 0 53 -26q-1 -27 -32 -60q-35 -38 -42 -56q-40 -142 -40 -388v-45q-2 -61 73 -151q-4 -19 -33 -45q-28 -25 -29 -49q-6 -53 -6 -150q0 -111 -3 -153q-11 -178 -104 -259q-95 -70 -218 -80q-17 -1 -34 -1q-108 0 -189 56q-122 75 -154 257 q-10 62 -15 165q-7 138 -9 167q-5 23 -30 43q-35 28 -41 35q-1 5 -1 10q0 24 28 50q36 32 36 57l4 80h2q-2 23 -3 121q-1 77 -13 120q-20 28 -74 31q-57 4 -76 24q-35 28 -44 115z" />
<glyph unicode="v" horiz-adv-x="1182" d="M1 1345q17 101 81 120q15 4 31 3q78 0 187 -82q12 -5 25 -5q20 0 42 12q12 6 31 20q22 15 31 21q40 20 76 20q41 0 77 -27q59 -37 59 -107q0 -8 -1 -17q-6 -75 -81 -126q-11 -7 -59 -5q-38 2 -45 -29q3 -69 31 -290q5 -28 34 -48q38 -26 45 -37q4 -25 -21 -48 q-29 -25 -32 -42v-14q0 -125 34 -183q16 -1 27 30l41 157l99 482q8 88 8 109q0 67 -46 99q-27 35 -27 52q0 3 1 6q5 20 37 40h5q31 0 79 -41q38 -34 68 -34q9 0 17 3q1 0 91 37q18 7 34 7q30 0 48 -28v-5q0 -29 -41 -60q-60 -36 -90 -128q-8 -23 -22 -79q-13 -52 -23 -78 l-28 -128l-118 -515q-19 -195 -19 -205q0 -32 74 -59q57 -20 65 -69q2 -13 2 -26q0 -32 -15 -58q-27 -25 -93 -25q-33 0 -75 6q-68 25 -142 93q-12 5 -24 5q-27 0 -59 -24q-55 -41 -78 -43q-11 2 -38 1q-25 0 -38 2q-42 6 -54 44q-10 27 -10 52q0 37 23 69q6 6 42 29 q26 17 34 40q6 41 6 91q0 91 -19 213q-19 116 -75 146q-27 19 -27 28q55 99 55 114l-1 60q-10 37 -30 155q-16 98 -37 152q-16 16 -56 16h-14q-6 -1 -12 -1q-40 0 -56 24q-35 57 -34 108z" />
<glyph unicode="w" horiz-adv-x="2011" d="M33 1403q57 90 158 90q21 0 45 -4q36 -4 128 -86q25 5 79 48q44 35 78 35h7h13q102 0 139 -91q7 -31 7 -57q0 -50 -24 -83q-15 -32 -69 -50q-51 -17 -61 -51q0 -54 56 -281q6 -15 50 -35q34 -15 21 -47q-36 -37 -36 -98q0 -11 1 -23q3 -40 31 -127q2 -2 5 -6t5 -5 q6 -6 12 -1l19 23l102 464q45 325 45 336q0 76 -70 84q-12 16 -10 35q29 26 70 26q11 0 24 -2q47 -8 92 -39q5 -4 17 -15q11 -10 17 -14q22 -16 41 -8q13 8 35 24q24 17 35 23q36 23 70 23q5 0 10 -1q9 -3 26 -5q20 -2 26 -3q31 -6 45 -29q-4 -23 -34 -43q-31 -22 -36 -45 q-9 -18 -10 -51q0 -22 5 -51q75 -356 94 -392q61 -70 68 -70q1 0 1 2l-31 -58q-12 -23 -12 -44q0 -11 3 -22l34 -137q6 -16 22 -8l16 34q74 293 101 530v6q0 49 -64 111q-54 53 -54 105q0 10 2 19q2 52 44 101q27 24 67 24q50 0 121 -38q16 3 47 13q33 10 48 13q19 4 37 4 q34 0 60 -17q45 -26 52 -91q1 -12 1 -23q0 -86 -54 -121q-12 -6 -35 -11q-30 -6 -38 -9q-43 -13 -54 -54q-50 -233 -150 -789q-1 -20 -1 -37q0 -62 14 -83q14 -24 66 -39q47 -13 57 -53q9 -36 9 -64q0 -30 -10 -52q-31 -30 -90 -30q-18 0 -40 3q-13 3 -107 84 q-32 28 -61.5 28t-55.5 -28q-54 -81 -163 -81q-24 0 -50 4q-71 23 -77 76q-4 14 -4 28q0 28 15 61v-1q2 0 74 74q37 38 37 81q0 7 -1 14q-8 60 -29 153q-28 118 -34 150q-19 58 -78 73q-14 21 3 51q27 44 28 50q2 16 2 30q0 62 -35 102h-6q-32 0 -50 -41 q-109 -466 -109 -605q0 -51 61 -88q63 -37 61 -91q-10 -89 -42 -103q-28 -5 -52 -5q-71 0 -112 45q-7 5 -30 22q-18 15 -30 21q-19 11 -37 11q-16 0 -31 -9q-16 -7 -66 -45q-41 -31 -70 -37l-99 -7q-10 -1 -20 -1q-45 0 -72 20q-11 26 -11 58q0 36 14 78q16 26 84 41 q58 12 66 64q5 21 5 44q0 33 -10 71q-73 271 -71 266q-4 10 -49 41q-30 21 -14 56q23 60 23 103q0 16 -3 30q-44 230 -87 319q-21 24 -77 24h-4h-6q-57 0 -77 20q-24 17 -27 17q-25 45 -25 87q0 32 14 62z" />
<glyph unicode="x" horiz-adv-x="1342" d="M20 53q-7 29 -7 52q0 45 26 69q22 23 83 29q60 5 83 33q3 4 213 379q12 32 12 54q0 12 -3 21t-26 34q-17 18 -10 39q34 31 41 72q0 1 -120 267q-68 86 -68 93q0 1 1 1h1q-19 7 -53 10q-44 3 -55 5q-64 12 -81 69q-4 20 -4 39q0 53 36 92q37 44 99 44q21 0 46 -5 q16 -3 94 -45q33 -18 61 -18q20 0 37 9q76 65 154 65q43 0 87 -20q34 -13 52 -54q12 -30 12 -58q0 -36 -19 -70q-12 -24 -80 -59q-48 -25 -48 -73v-9q41 -119 87 -167h3q19 0 50 46q54 116 106 277q3 10 3 21q0 27 -20 55q-7 10 -25 30q-17 18 -24 28q-5 20 24 42q32 5 59 5 q84 0 121 -49q17 -3 39 11q25 17 37 18q17 2 32 2q64 0 96 -37q14 -15 20 -49q0 -37 -37 -51q-11 1 -34 5q-23 5 -34 6h-7q-35 0 -53 -28q2 5 -192 -423q-7 -15 -7 -36q0 -16 4 -36q3 -9 23 -31q15 -17 13 -32q-51 -66 -50 -86q-1 5 189 -390q43 -68 103 -83q28 -20 28 -99 q0 -14 -1 -30q-8 -31 -35 -46q-21 -7 -43 -7q-43 0 -89 27q-24 14 -58 41q-47 36 -56 42l-39 1q-4 -2 -108 -65q-49 -29 -89 -29q-13 0 -26 3q-31 22 -31 79q0 21 4 47q8 46 67 62q58 15 64 61q0 30 -45 159q-7 9 -31 65q-18 40 -44 55l-22 -7q-115 -206 -126 -238 q-6 -18 -6 -34q0 -17 7 -32q9 -18 42 -38q31 -19 37 -43q2 -18 2 -34q0 -73 -38 -103q-14 -6 -29 -6q-31 0 -66 27q-64 50 -86 54q-27 -2 -69 -40q-40 -35 -68 -35h-3q-63 0 -76 3q-41 9 -57 47z" />
<glyph unicode="y" horiz-adv-x="1296" d="M18 1299q12 -54 54 -72h-1q0 2 82 -23q51 -15 76 -51q2 -6 9 -17l4 -8q20 -45 80 -156q52 -97 76 -157l-3 -22q-1 -14 -17 -31q-18 -17 -19 -27q83 -62 85 -106q9 -168 9 -218v-9q-6 -128 -56 -205q-14 -18 -49 -24q-39 -7 -51 -18q-16 -27 -16 -63q0 -21 6 -46 q13 -32 43 -44q9 -2 18 -2q39 0 85 33q69 50 98 55q12 4 24 4q29 0 58 -23q14 -10 35 -32q26 -25 34 -33q38 -20 77 -21h3q46 0 68 30q6 15 6 40q0 11 -1 24v8q0 45 -42 73l-77 52q-21 18 -28 57q-3 12 -5 34t-3 30q1 12 1 35q0 33 -2 88q-1 20 -1 38q0 53 5 85q2 89 90 131 q5 20 -8 57q-14 36 -6 59l119 255q10 18 29 56q19 39 30 58q37 65 84 91q18 10 53 -2q32 -11 49 4q12 23 12 47q0 23 -10 46q-11 32 -54 49q-11 4 -22 4q-25 0 -54 -17q-48 -28 -71 -28h-1q-63 51 -117 51q-14 0 -27 -3q-3 -3 -11 -7q-9 -5 -12 -8q-14 -10 -12 -24 q1 -20 35 -50q17 -26 17 -58q0 -28 -13 -61q-94 -217 -139 -270l-9 -3q-13 -3 -25 1q-30 30 -79 137q-5 15 -5 28q0 35 34 55q69 40 76 52q25 40 25 82q0 26 -10 53q-15 28 -61 61q-32 19 -70 19q-18 0 -37 -4q-57 -12 -98 -53q-19 -18 -43 -18q-23 0 -50 17q-80 50 -91 52 q-31 10 -63 10q-11 0 -23 -1q-53 -5 -78 -37q-25 -27 -25 -67q0 -19 6 -42z" />
<glyph unicode="z" horiz-adv-x="1108" d="M24 1046q-9 23 -9 57q0 54 23 135q16 55 16 99q0 54 -24 91q-2 9 6 14q19 11 13 7q3 1 7 1q24 0 60 -29q34 -26 59 -26q5 0 10 1q104 52 243 52h5q139 -1 248 -54q-4 4 -4 8q0 15 68 14q44 0 118 -6q26 -17 15 -44l-186 -421q-8 -24 -31 -66q-25 -47 -33 -68 q-17 -40 -16 -75q0 -37 18 -70q1 -35 -31 -40q-49 -7 -53 -10q-27 -15 -44 -64q-5 -16 -48 -123q-31 -75 -36 -130q0 -66 66 -116q29 -19 69 -18q56 0 133 35q39 24 39 84q0 11 -1 24q-3 28 -3 50q0 51 16 72q32 57 91 61q79 -5 101 -68q14 -30 14 -73q0 -46 -16 -106 q-18 -67 -18 -117q0 -39 11 -68q13 -49 13 -67q0 -5 -1 -8q-21 -15 -40 11q-30 40 -33 42q-17 31 -61 31q-9 0 -20 -1q-147 -86 -260 -86q-26 0 -50 4q-22 4 -165 94q-20 8 -40 8q-35 0 -73 -23q-14 -8 -50 -34q-32 -23 -51 -33q-40 3 -47 13q-13 13 -13 33q0 13 6 28 q7 20 26 50q20 32 27 49l233 511q2 22 2 41q0 64 -19 91q9 26 48 40q41 14 54 40q51 88 148 321q3 12 3 22q0 29 -27 44q-46 28 -102 28q-18 0 -37 -3q-74 -11 -131 -59q-16 -23 -16 -63q0 -21 4 -46t5 -46q0 -40 -17 -62q-22 -48 -94 -54q-84 4 -118 71z" />
<glyph unicode="{" />
<glyph unicode="|" />
<glyph unicode="}" />
<glyph unicode="~" />
<glyph unicode="&#xa1;" horiz-adv-x="672" />
<glyph unicode="&#xa2;" horiz-adv-x="1139" />
<glyph unicode="&#xa3;" />
<glyph unicode="&#xa4;" />
<glyph unicode="&#xa5;" horiz-adv-x="1262" />
<glyph unicode="&#xa6;" />
<glyph unicode="&#xa7;" />
<glyph unicode="&#xa8;" horiz-adv-x="1024" />
<glyph unicode="&#xa9;" horiz-adv-x="1674" />
<glyph unicode="&#xaa;" horiz-adv-x="648" />
<glyph unicode="&#xab;" horiz-adv-x="944" />
<glyph unicode="&#xac;" />
<glyph unicode="&#xad;" horiz-adv-x="670" />
<glyph unicode="&#xae;" horiz-adv-x="1674" />
<glyph unicode="&#xaf;" horiz-adv-x="670" />
<glyph unicode="&#xb0;" horiz-adv-x="674" />
<glyph unicode="&#xb1;" />
<glyph unicode="&#xb2;" />
<glyph unicode="&#xb3;" />
<glyph unicode="&#xb4;" horiz-adv-x="1024" />
<glyph unicode="&#xb5;" horiz-adv-x="1180" />
<glyph unicode="&#xb6;" horiz-adv-x="1024" />
<glyph unicode="&#xb7;" horiz-adv-x="508" />
<glyph unicode="&#xb8;" horiz-adv-x="1024" />
<glyph unicode="&#xb9;" />
<glyph unicode="&#xba;" horiz-adv-x="718" />
<glyph unicode="&#xbb;" horiz-adv-x="944" />
<glyph unicode="&#xbc;" horiz-adv-x="1708" />
<glyph unicode="&#xbd;" horiz-adv-x="1964" />
<glyph unicode="&#xbe;" horiz-adv-x="1708" />
<glyph unicode="&#xbf;" horiz-adv-x="748" />
<glyph unicode="&#xc0;" horiz-adv-x="1540" />
<glyph unicode="&#xc1;" horiz-adv-x="1540" />
<glyph unicode="&#xc2;" horiz-adv-x="1540" />
<glyph unicode="&#xc3;" horiz-adv-x="1540" />
<glyph unicode="&#xc4;" horiz-adv-x="1540" />
<glyph unicode="&#xc5;" horiz-adv-x="1540" />
<glyph unicode="&#xc6;" horiz-adv-x="2118" />
<glyph unicode="&#xc7;" horiz-adv-x="1399" />
<glyph unicode="&#xc8;" horiz-adv-x="1151" />
<glyph unicode="&#xc9;" horiz-adv-x="1151" />
<glyph unicode="&#xca;" horiz-adv-x="1151" />
<glyph unicode="&#xcb;" horiz-adv-x="1151" />
<glyph unicode="&#xcc;" horiz-adv-x="657" />
<glyph unicode="&#xcd;" horiz-adv-x="657" />
<glyph unicode="&#xce;" horiz-adv-x="657" />
<glyph unicode="&#xcf;" horiz-adv-x="657" />
<glyph unicode="&#xd0;" horiz-adv-x="1518" />
<glyph unicode="&#xd1;" horiz-adv-x="1554" />
<glyph unicode="&#xd2;" horiz-adv-x="1614" />
<glyph unicode="&#xd3;" horiz-adv-x="1614" />
<glyph unicode="&#xd4;" horiz-adv-x="1614" />
<glyph unicode="&#xd5;" horiz-adv-x="1614" />
<glyph unicode="&#xd6;" horiz-adv-x="1614" />
<glyph unicode="&#xd7;" />
<glyph unicode="&#xd8;" horiz-adv-x="1614" />
<glyph unicode="&#xd9;" horiz-adv-x="1501" />
<glyph unicode="&#xda;" horiz-adv-x="1501" />
<glyph unicode="&#xdb;" horiz-adv-x="1501" />
<glyph unicode="&#xdc;" horiz-adv-x="1501" />
<glyph unicode="&#xdd;" horiz-adv-x="1233" />
<glyph unicode="&#xde;" horiz-adv-x="1120" />
<glyph unicode="&#xdf;" horiz-adv-x="1251" />
<glyph unicode="&#xe0;" horiz-adv-x="922" />
<glyph unicode="&#xe1;" horiz-adv-x="922" />
<glyph unicode="&#xe2;" horiz-adv-x="922" />
<glyph unicode="&#xe3;" horiz-adv-x="922" />
<glyph unicode="&#xe4;" horiz-adv-x="922" />
<glyph unicode="&#xe5;" horiz-adv-x="922" />
<glyph unicode="&#xe6;" horiz-adv-x="1454" />
<glyph unicode="&#xe7;" horiz-adv-x="905" />
<glyph unicode="&#xe8;" horiz-adv-x="909" />
<glyph unicode="&#xe9;" horiz-adv-x="909" />
<glyph unicode="&#xea;" horiz-adv-x="909" />
<glyph unicode="&#xeb;" horiz-adv-x="909" />
<glyph unicode="&#xec;" horiz-adv-x="514" />
<glyph unicode="&#xed;" horiz-adv-x="514" />
<glyph unicode="&#xee;" horiz-adv-x="514" />
<glyph unicode="&#xef;" horiz-adv-x="514" />
<glyph unicode="&#xf0;" horiz-adv-x="1139" />
<glyph unicode="&#xf1;" horiz-adv-x="1108" />
<glyph unicode="&#xf2;" horiz-adv-x="1010" />
<glyph unicode="&#xf3;" horiz-adv-x="1010" />
<glyph unicode="&#xf4;" horiz-adv-x="1010" />
<glyph unicode="&#xf5;" horiz-adv-x="1010" />
<glyph unicode="&#xf6;" horiz-adv-x="1010" />
<glyph unicode="&#xf7;" />
<glyph unicode="&#xf8;" horiz-adv-x="1010" />
<glyph unicode="&#xf9;" horiz-adv-x="1059" />
<glyph unicode="&#xfa;" horiz-adv-x="1059" />
<glyph unicode="&#xfb;" horiz-adv-x="1059" />
<glyph unicode="&#xfc;" horiz-adv-x="1059" />
<glyph unicode="&#xfd;" horiz-adv-x="868" />
<glyph unicode="&#xfe;" horiz-adv-x="1010" />
<glyph unicode="&#xff;" horiz-adv-x="868" />
<glyph unicode="&#x2c6;" horiz-adv-x="1024" />
<glyph unicode="&#x2dc;" horiz-adv-x="1024" />
<glyph unicode="&#x2000;" horiz-adv-x="751" />
<glyph unicode="&#x2001;" horiz-adv-x="1502" />
<glyph unicode="&#x2002;" horiz-adv-x="751" />
<glyph unicode="&#x2003;" horiz-adv-x="1502" />
<glyph unicode="&#x2004;" horiz-adv-x="500" />
<glyph unicode="&#x2005;" horiz-adv-x="375" />
<glyph unicode="&#x2006;" horiz-adv-x="250" />
<glyph unicode="&#x2007;" horiz-adv-x="250" />
<glyph unicode="&#x2008;" horiz-adv-x="187" />
<glyph unicode="&#x2009;" horiz-adv-x="300" />
<glyph unicode="&#x200a;" horiz-adv-x="83" />
<glyph unicode="&#x2010;" horiz-adv-x="670" />
<glyph unicode="&#x2011;" horiz-adv-x="670" />
<glyph unicode="&#x2012;" horiz-adv-x="670" />
<glyph unicode="&#x2013;" horiz-adv-x="1108" />
<glyph unicode="&#x2014;" horiz-adv-x="2048" />
<glyph unicode="&#x2018;" horiz-adv-x="557" />
<glyph unicode="&#x2019;" horiz-adv-x="557" />
<glyph unicode="&#x201a;" horiz-adv-x="557" />
<glyph unicode="&#x201c;" horiz-adv-x="910" />
<glyph unicode="&#x201d;" horiz-adv-x="910" />
<glyph unicode="&#x201e;" horiz-adv-x="910" />
<glyph unicode="&#x2022;" horiz-adv-x="1024" />
<glyph unicode="&#x2026;" horiz-adv-x="2048" />
<glyph unicode="&#x202f;" horiz-adv-x="300" />
<glyph unicode="&#x2039;" horiz-adv-x="631" />
<glyph unicode="&#x203a;" horiz-adv-x="631" />
<glyph unicode="&#x205f;" horiz-adv-x="375" />
<glyph unicode="&#x20ac;" />
<glyph unicode="&#x2122;" horiz-adv-x="1497" />
<glyph unicode="&#x25fc;" horiz-adv-x="1460" d="M0 0v1460h1460v-1460h-1460z" />
</font>
</defs>
</svg>
