<?xml version="1.0" standalone="no"?>
<!DOCTYPE svg PUBLIC "-//W3C//DTD SVG 1.1//EN" "http://www.w3.org/Graphics/SVG/1.1/DTD/svg11.dtd" >
<svg xmlns="http://www.w3.org/2000/svg" xmlns:xlink="http://www.w3.org/1999/xlink" version="1.1">
<metadata>
Created by FontForge 20170731 at Fri Oct  8 00:44:24 2004
 By Aleksey,,,
Generated by Fontographer 4.1
</metadata>
<defs>
<font id="MLBRedSox" horiz-adv-x="218" >
  <font-face 
    font-family="MLB Red Sox"
    font-weight="400"
    font-stretch="normal"
    units-per-em="1000"
    panose-1="0 0 4 0 0 0 0 0 0 0"
    ascent="800"
    descent="-200"
    x-height="800"
    cap-height="800"
    bbox="-3 -32 596 802"
    underline-thickness="20"
    underline-position="-163"
    unicode-range="U+0020-00C8"
  />
    <missing-glyph />
    <glyph glyph-name="glyph70" horiz-adv-x="500" 
d="M63 0v802h375v-802h-375zM125 63h250v677h-250v-677z" />
    <glyph glyph-name=".null" horiz-adv-x="0" 
 />
    <glyph glyph-name="nonmarkingreturn" 
 />
    <glyph glyph-name="space" unicode=" " 
 />
    <glyph glyph-name="zero" unicode="0" horiz-adv-x="668" 
d="M475 802h-359l-116 -116v-570l116 -116h359l115 116v570zM475 157l-41 -41h-278l-40 41v489l40 40h278l41 -40v-489z" />
    <glyph glyph-name="one" unicode="1" horiz-adv-x="367" 
d="M99 802h106l-1 -687h85v-115h-289v113h89v514h-79v64z" />
    <glyph glyph-name="two" unicode="2" horiz-adv-x="645" 
d="M591 0h-591v263l475 294v89l-41 40h-278l-40 -40v-151l-116 66v125l116 116h359l115 -116v-197l-474 -296v-77h475v-116z" />
    <glyph glyph-name="three" unicode="3" horiz-adv-x="669" 
d="M276 426l31 36h126l41 41v143l-41 41h-277l-40 -41v-160l-116 63v138l116 115h358l118 -115v-253l-47 -38l47 -39v-242l-118 -115h-358l-116 115v138l116 63v-160l40 -41h277l41 41v160l-41 41h-126l-31 36v33z" />
    <glyph glyph-name="four" unicode="4" horiz-adv-x="643" 
d="M468 301v501h-112l-356 -501v-116h356v-185h112v185h114v116h-114zM356 301h-215l215 287v-287z" />
    <glyph glyph-name="five" unicode="5" horiz-adv-x="652" 
d="M116 0l-116 116v138l116 56v-154l41 -40h277l41 40v201l-41 41h-434v404h590v-116h-474v-169h359l115 -117v-284l-115 -116h-359z" />
    <glyph glyph-name="six" unicode="6" horiz-adv-x="657" 
d="M590 640v46l-115 116h-359l-116 -116v-570l116 -116h359l115 116v241l-115 115h-318l-41 -39v213l41 40h277l41 -40v-90zM157 357h277l41 -44v-156l-41 -41h-277l-41 41v156z" />
    <glyph glyph-name="seven" unicode="7" horiz-adv-x="644" 
d="M0 583v219h592v-258q-117 -43 -254 -188q-38 -46 -69 -98q-73 -124 -98 -258h-127q36 209 187 397q46 51 87 91q98 97 158 124v74h-360v-155z" />
    <glyph glyph-name="eight" unicode="8" horiz-adv-x="672" 
d="M554 414l40 41v231l-116 116l-361 -2l-116 -116v-231l41 -41l-42 -40l1 -256l116 -116l361 2l116 116l2 256zM478 157l-41 -41h-279l-41 41v160l41 41h279l41 -41v-160zM478 519l-41 -45h-279l-41 45v129l41 41h279l41 -41v-129z" />
    <glyph glyph-name="nine" unicode="9" horiz-adv-x="668" 
d="M475 802h-359l-116 -116v-222l116 -116h318l41 40v-232l-41 -40h-278l-40 40v107l-116 -85v-62l116 -116h359l115 116v570zM475 508l-41 -44h-278l-40 44v138l40 40h278l41 -40v-138z" />
    <glyph glyph-name="A" unicode="A" horiz-adv-x="476" 
d="M139 311l37 387h57l26 -386zM83 800l-83 -799l102 -1l24 207h147l15 -207l107 1l-67 799h-245z" />
    <glyph glyph-name="B" unicode="B" horiz-adv-x="438" 
d="M235 462h-134v232h134v-232zM292 800h-292v-800h288l61 62v309l-34 33l38 41l1 295zM234 108h-133v241h133v-241z" />
    <glyph glyph-name="C" unicode="C" horiz-adv-x="412" 
d="M358 744v-91h-100v41h-149l1 -586h141l-1 79l110 -2l-2 -125l-57 -60h-240l-61 62l1 674l68 64h235z" />
    <glyph glyph-name="D" unicode="D" horiz-adv-x="439" 
d="M249 109l-136 1v588h134zM299 800h-298l-1 -799l289 -1l69 63v676z" />
    <glyph glyph-name="E" unicode="E" horiz-adv-x="414" 
d="M353 800v-105h-243v-236h141l-1 -109h-140v-243h244v-107h-354v799z" />
    <glyph glyph-name="F" unicode="F" horiz-adv-x="412" 
d="M360 799v-107h-251v-230h144v-112l-144 1l-1 -351h-108v800z" />
    <glyph glyph-name="G" unicode="G" horiz-adv-x="440" 
d="M367 739v-89l-113 1l-1 42l-146 -1l1 -586l142 -1v243l-56 1v110h168l-1 -397l-62 -62l-234 1l-65 59l1 673l70 67l234 -1z" />
    <glyph glyph-name="H" unicode="H" horiz-adv-x="439" 
d="M0 800h112v-337h140v337h105v-800h-108v353h-137v-353h-112v800z" />
    <glyph glyph-name="I" unicode="I" horiz-adv-x="194" 
d="M0 800h112v-800h-112v800z" />
    <glyph glyph-name="J" unicode="J" horiz-adv-x="438" 
d="M358 800h-111v-692h-137v78h-110v-121l66 -65h235l57 67v733z" />
    <glyph glyph-name="K" unicode="K" horiz-adv-x="439" 
d="M370 0l-144 484l129 316h-119l-126 -308v308h-110v-797h110l1 203l50 120l96 -326h113z" />
    <glyph glyph-name="L" unicode="L" horiz-adv-x="408" 
d="M0 800h113v-692h248v-108h-361v800z" />
    <glyph glyph-name="M" unicode="M" horiz-adv-x="496" 
d="M303 800l-96 -278l-97 278h-110v-800h110v461l97 -268l96 268v-461h111v800h-111z" />
    <glyph glyph-name="N" unicode="N" horiz-adv-x="435" 
d="M248 800v-424l-137 424h-111v-800h111v446l137 -446h105v800h-105z" />
    <glyph glyph-name="O" unicode="O" horiz-adv-x="434" 
d="M293 800h-232l-61 -66v-670l65 -64h227l62 62v671zM110 112v576h136v-576h-136z" />
    <glyph glyph-name="P" unicode="P" horiz-adv-x="422" 
d="M0 800h302l58 -60v-330l-65 -60h-183l-1 -350h-111v800zM247 455v235h-133v-235h133z" />
    <glyph glyph-name="Q" unicode="Q" horiz-adv-x="435" 
d="M355 736l-45 64h-243l-70 -64v-673l63 -61l112 -2l17 -32h78l-18 37l40 -1l66 59v673zM227 108l-15 32h-75l16 -33h-46v583h137v-582h-17z" />
    <glyph glyph-name="R" unicode="R" horiz-adv-x="441" 
d="M348 0l-55 351l64 65l1 326l-60 58h-298v-800h108v351h74l54 -351h112zM111 690h140v-231h-140v231z" />
    <glyph glyph-name="S" unicode="S" horiz-adv-x="428" 
d="M0 733l66 67h235l57 -59v-82h-105v35h-142v-234h185l64 -63v-330l-67 -67l-229 1l-62 63v82h105v-34l142 -1v245h-190l-59 55v322z" />
    <glyph glyph-name="T" unicode="T" horiz-adv-x="428" 
d="M359 800h-359v-110h124v-690h107v690h128v110z" />
    <glyph glyph-name="U" unicode="U" horiz-adv-x="430" 
d="M105 800v-690h133v690h112v-738l-59 -62h-225l-66 62v738h105z" />
    <glyph glyph-name="V" unicode="V" horiz-adv-x="437" 
d="M366 800h-110l-75 -474l-72 474h-109l120 -800h117z" />
    <glyph glyph-name="W" unicode="W" horiz-adv-x="535" 
d="M345 800l-28 -366l-91 348l-81 -348l-37 366h-108l68 -800h85l77 334l65 -334h90l71 800h-111z" />
    <glyph glyph-name="X" unicode="X" horiz-adv-x="444" 
d="M373 800h-117l-65 -224l-70 224h-113l129 -386l-137 -414h115l73 233l65 -233h114l-123 414z" />
    <glyph glyph-name="Y" unicode="Y" horiz-adv-x="438" 
d="M377 800h-112l-78 -277l-81 277h-106l130 -492v-308h108v308z" />
    <glyph glyph-name="Z" unicode="Z" horiz-adv-x="437" 
d="M1 800h362v-109l-244 -578h235v-113h-354v111l231 579h-230v110z" />
    <glyph glyph-name="a" unicode="a" horiz-adv-x="476" 
d="M139 311l37 387h57l26 -386zM83 800l-83 -799l102 -1l24 207h147l15 -207l107 1l-67 799h-245z" />
    <glyph glyph-name="b" unicode="b" horiz-adv-x="438" 
d="M235 462h-134v232h134v-232zM292 800h-292v-800h288l61 62v309l-34 33l38 41l1 295zM234 108h-133v241h133v-241z" />
    <glyph glyph-name="c" unicode="c" horiz-adv-x="412" 
d="M358 744v-91h-100v41h-149l1 -586h141l-1 79l110 -2l-2 -125l-57 -60h-240l-61 62l1 674l68 64h235z" />
    <glyph glyph-name="d" unicode="d" horiz-adv-x="439" 
d="M249 109l-136 1v588h134zM299 800h-298l-1 -799l289 -1l69 63v676z" />
    <glyph glyph-name="e" unicode="e" horiz-adv-x="414" 
d="M353 800v-105h-243v-236h141l-1 -109h-140v-243h244v-107h-354v799z" />
    <glyph glyph-name="f" unicode="f" horiz-adv-x="412" 
d="M360 799v-107h-251v-230h144v-112l-144 1l-1 -351h-108v800z" />
    <glyph glyph-name="g" unicode="g" horiz-adv-x="440" 
d="M367 739v-89l-113 1l-1 42l-146 -1l1 -586l142 -1v243l-56 1v110h168l-1 -397l-62 -62l-234 1l-65 59l1 673l70 67l234 -1z" />
    <glyph glyph-name="h" unicode="h" horiz-adv-x="439" 
d="M0 800h112v-337h140v337h105v-800h-108v353h-137v-353h-112v800z" />
    <glyph glyph-name="i" unicode="i" horiz-adv-x="194" 
d="M0 800h112v-800h-112v800z" />
    <glyph glyph-name="j" unicode="j" horiz-adv-x="440" 
d="M358 800h-111v-692h-137v78h-110v-121l66 -65h235l57 67v733z" />
    <glyph glyph-name="k" unicode="k" horiz-adv-x="439" 
d="M370 0l-144 484l129 316h-119l-126 -308v308h-110v-797h110l1 203l50 120l96 -326h113z" />
    <glyph glyph-name="l" unicode="l" horiz-adv-x="408" 
d="M0 800h113v-692h248v-108h-361v800z" />
    <glyph glyph-name="m" unicode="m" horiz-adv-x="496" 
d="M303 800l-96 -278l-97 278h-110v-800h110v461l97 -268l96 268v-461h111v800h-111z" />
    <glyph glyph-name="n" unicode="n" horiz-adv-x="435" 
d="M248 800v-424l-137 424h-111v-800h111v446l137 -446h105v800h-105z" />
    <glyph glyph-name="o" unicode="o" horiz-adv-x="434" 
d="M293 800h-232l-61 -66v-670l65 -64h227l62 62v671zM110 112v576h136v-576h-136z" />
    <glyph glyph-name="p" unicode="p" horiz-adv-x="422" 
d="M0 800h302l58 -60v-330l-65 -60h-183l-1 -350h-111v800zM247 455v235h-133v-235h133z" />
    <glyph glyph-name="q" unicode="q" horiz-adv-x="435" 
d="M355 736l-45 64h-243l-70 -64v-673l63 -61l112 -2l17 -32h78l-18 37l40 -1l66 59v673zM227 108l-15 32h-75l16 -33h-46v583h137v-582h-17z" />
    <glyph glyph-name="r" unicode="r" horiz-adv-x="441" 
d="M348 0l-55 351l64 65l1 326l-60 58h-298v-800h108v351h74l54 -351h112zM111 690h140v-231h-140v231z" />
    <glyph glyph-name="s" unicode="s" horiz-adv-x="428" 
d="M0 733l66 67h235l57 -59v-82h-105v35h-142v-234h185l64 -63v-330l-67 -67l-229 1l-62 63v82h105v-34l142 -1v245h-190l-59 55v322z" />
    <glyph glyph-name="t" unicode="t" horiz-adv-x="428" 
d="M359 800h-359v-110h124v-690h107v690h128v110z" />
    <glyph glyph-name="u" unicode="u" horiz-adv-x="432" 
d="M105 800v-690h133v690h112v-738l-59 -62h-225l-66 62v738h105z" />
    <glyph glyph-name="v" unicode="v" horiz-adv-x="437" 
d="M366 800h-110l-75 -474l-72 474h-109l120 -800h117z" />
    <glyph glyph-name="w" unicode="w" horiz-adv-x="535" 
d="M345 800l-28 -366l-91 348l-81 -348l-37 366h-108l68 -800h85l77 334l65 -334h90l71 800h-111z" />
    <glyph glyph-name="x" unicode="x" horiz-adv-x="444" 
d="M373 800h-117l-65 -224l-70 224h-113l129 -386l-137 -414h115l73 233l65 -233h114l-123 414z" />
    <glyph glyph-name="y" unicode="y" horiz-adv-x="438" 
d="M377 800h-112l-78 -277l-81 277h-106l130 -492v-308h108v308z" />
    <glyph glyph-name="z" unicode="z" horiz-adv-x="437" 
d="M1 800h362v-109l-244 -578h235v-113h-354v111l231 579h-230v110z" />
    <glyph glyph-name="Agrave" unicode="&#xc0;" 
 />
    <glyph glyph-name="Ccedilla" unicode="&#xc7;" 
 />
    <glyph glyph-name="Egrave" unicode="&#xc8;" 
 />
    <glyph glyph-name="glyph69" 
 />
    <glyph glyph-name="glyph70" 
 />
    <glyph glyph-name="glyph69" 
 />
    <glyph glyph-name="glyph70" 
 />
    <glyph glyph-name="ch257" 
 />
    <glyph glyph-name="ch258" 
 />
    <glyph glyph-name="ch259" 
 />
    <glyph glyph-name="ch260" 
 />
    </font>
</defs>
</svg>
