<?xml version="1.0" standalone="no"?>
<!DOCTYPE svg PUBLIC "-//W3C//DTD SVG 1.1//EN" "http://www.w3.org/Graphics/SVG/1.1/DTD/svg11.dtd" >
<svg xmlns="http://www.w3.org/2000/svg" xmlns:xlink="http://www.w3.org/1999/xlink" version="1.1">
<metadata></metadata>
<defs>
<font id="richardson_fancy_blockregular" horiz-adv-x="1014" >
<font-face units-per-em="2048" ascent="1638" descent="-410" />
<missing-glyph horiz-adv-x="508" />
<glyph unicode="&#xd;" horiz-adv-x="508" />
<glyph horiz-adv-x="0" />
<glyph horiz-adv-x="0" />
<glyph unicode=" "  horiz-adv-x="508" />
<glyph unicode="&#x09;" horiz-adv-x="508" />
<glyph unicode="&#xa0;" horiz-adv-x="508" />
<glyph unicode="!" horiz-adv-x="672" />
<glyph unicode="&#x22;" horiz-adv-x="672" />
<glyph unicode="#" horiz-adv-x="1336" />
<glyph unicode="$" />
<glyph unicode="%" horiz-adv-x="1610" />
<glyph unicode="&#x26;" horiz-adv-x="1683" />
<glyph unicode="'" horiz-adv-x="346" />
<glyph unicode="(" horiz-adv-x="758" />
<glyph unicode=")" horiz-adv-x="758" />
<glyph unicode="*" horiz-adv-x="1024" />
<glyph unicode="+" />
<glyph unicode="," horiz-adv-x="557" />
<glyph unicode="-" horiz-adv-x="670" />
<glyph unicode="." horiz-adv-x="557" />
<glyph unicode="/" horiz-adv-x="569" />
<glyph unicode="0" />
<glyph unicode="1" />
<glyph unicode="2" />
<glyph unicode="3" />
<glyph unicode="4" />
<glyph unicode="5" />
<glyph unicode="6" />
<glyph unicode="7" />
<glyph unicode="8" />
<glyph unicode="9" />
<glyph unicode=":" horiz-adv-x="557" />
<glyph unicode=";" horiz-adv-x="557" />
<glyph unicode="&#x3c;" />
<glyph unicode="=" />
<glyph unicode="&#x3e;" />
<glyph unicode="?" horiz-adv-x="748" />
<glyph unicode="@" horiz-adv-x="2019" />
<glyph unicode="A" horiz-adv-x="1337" d="M0 86q4 -69 72 -81q14 -3 27 -3q49 0 84 39q37 -41 84 -41q12 0 25 3q64 13 78 83q-12 -4 -24 -5q-27 0 -50 25q-22 24 -22 51q0 13 5 26l66 192l497 -5l66 -187q5 -13 5 -25q0 -28 -24 -52t-50 -25q-11 0 -22 5q11 -70 74 -83q12 -3 24 -3q46 0 84 41q38 -38 88 -38 q12 0 25 2q68 12 75 81q-32 -12 -60 5q-31 18 -42 61q-130 373 -202 568l-188 523q-8 20 -8 38q0 32 28 53q25 20 51 20l25 -5q-15 66 -76 83q-17 5 -35 5q-43 0 -86 -32q-41 32 -82 32q-17 0 -34 -5q-58 -17 -77 -83q11 5 22 5q23 0 48 -20q28 -22 28 -55q0 -17 -7 -36 l-193 -523q-35 -99 -99 -284q-68 -197 -99 -284q-10 -43 -43 -61q-29 -17 -58 -5zM401 533l193 537l192 -537h-385z" />
<glyph unicode="B" horiz-adv-x="1159" d="M0 51q33 11 76 45q36 45 36 76v452l-67 86l67 91v421q0 46 -31 77q-31 38 -81 45q40 56 112 56q60 0 116 -56q6 6 12 15q7 9 8 11q11 10 21 30q129 -20 289 -20q95 0 279 20q25 -41 81 -96q34 -35 91 -51q-19 -118 -19 -229.5t19 -217.5q-59 -42 -106 -96q7 -7 23 -26 q17 -19 28 -30q16 -21 55 -50q-19 -110 -19 -224.5t19 -232.5q-103 -48 -157 -147q-144 22 -282 22t-271 -22q-15 10 -35 30l-36 36q-44 -66 -116 -66q-39 0 -61 15q-12 6 -28 18q-20 16 -23 18zM269 243l81 -86q14 3 45 5q28 3 41 5q25 5 92 5q81 0 126 -5q87 0 127 -5 q46 46 71 61q-12 76 -12 156t12 164q-39 39 -76 91h-507v-391zM269 791h507q6 12 18 25q14 16 17 21q5 4 19 16q14 11 22 19q-10 51 -10 147q-2 14 -2 36q0 42 7 112q-4 4 -18 15q-14 12 -23 20l-35 36q-46 -5 -122 -5q-81 0 -121 -6q-15 0 -47 3t-50 3q-30 5 -91 5l-71 -91 v-356z" />
<glyph unicode="C" horiz-adv-x="1256" d="M0 715l66 92v451q60 50 86 76q38 31 81 102q193 -21 295 -21q170 0 299 21q25 -44 76 -87q56 -46 101 -66q0 -15 -2 -47q-3 -32 -3 -44q9 -113 107 -127q-25 -57 -78 -74q-18 -6 -37 -6q-41 0 -83 30q-44 -30 -82 -30q-63 0 -111 80q84 11 97 86q5 11 5 46q-5 5 -19 16 t-22 20l-35 35q-84 -12 -156 -12q-30 0 -57 2q-107 0 -213 15l-82 -96v-370l66 -92l-66 -91v-365l82 -92q65 5 213 16q107 0 213 -16q25 27 35 41q7 5 22 17q13 11 19 14v25q0 15 -5 25q-18 81 -97 81q29 83 102 83q37 0 86 -22q41 24 81 24q22 0 43 -7q59 -19 79 -78 q-94 -15 -107 -116q0 -11 3 -45q2 -35 2 -57q-58 -24 -101 -61q-46 -38 -76 -91q-129 21 -239 21q-28 0 -55 -1q-178 0 -300 -20q-44 71 -81 102q-26 30 -86 81v441z" />
<glyph unicode="D" horiz-adv-x="1205" d="M0 61q112 10 112 127v472l-66 86l66 106v421q0 62 -33 96q-31 31 -79 31q29 60 100 60q7 0 14 -1q75 -5 124 -59q2 2 9 11q6 9 12 15q10 20 20 30q130 -20 294 -20q166 0 289 20q84 -121 193 -152q-45 -273 -45 -573t45 -574q-58 -24 -101 -60q-46 -38 -77 -92 q-148 23 -291.5 23t-281.5 -23q-34 35 -35 36q-20 20 -31 36q-49 -73 -121 -77h-8q-66 0 -109 61zM279 259l81 -86q100 6 218 15q108 0 223 -15q20 20 31 35q7 5 20 15q13 11 21 16q-31 243 -31 487q0 215 25 486q-4 5 -18 16q-14 12 -22 20q-25 24 -41 41q-100 -8 -166 -8 q-30 0 -52 2q-71 6 -218 6l-71 -97v-340l66 -106l-66 -86v-401z" />
<glyph unicode="E" horiz-adv-x="1239" d="M0 67q63 0 88 31q24 29 24 96v451l-71 97l71 91v426q0 51 -29 86q-31 37 -83 41q29 61 104 61h5q77 -2 124 -61q2 2 9 11q6 9 12 14q5 10 20 26q51 0 107 -5q26 0 87 -3t95 -3t95 -2q61 -3 88 -3q33 0 65 3q32 2 31 2q79 11 112 40q27 24 35 77q66 -23 83 -81 q4 -15 4 -29q0 -43 -36 -83q34 -41 34 -81q0 -17 -6 -34q-18 -47 -79 -77q-14 103 -147 111q-168 16 -255 16q-22 0 -39 -1q-193 -10 -274 -10v-451h396q59 7 88 33q27 24 38 78q63 -31 80 -81q5 -15 5 -31q0 -38 -29 -80q33 -41 33 -80q0 -17 -6 -34q-18 -51 -83 -79 q-8 103 -116 112h-406v-472q29 -2 71 -2q83 0 213 7q55 3 104 3q104 0 180 -13q9 -1 18 -1q122 0 129 118q67 -15 83 -86q4 -17 4 -32q0 -48 -36 -80q30 -42 30 -81q0 -14 -4 -29q-15 -52 -77 -83q-25 109 -147 116q-15 6 -106 6h-168q-30 -3 -87 -6q-55 -2 -80 -4 q-33 0 -66 -3q-33 -2 -36 -2l-15 15l-15 15l-36 35q-34 -73 -112 -80h-12q-71 0 -109 65z" />
<glyph unicode="F" horiz-adv-x="1263" d="M0 89q117 0 117 147h5v416l-71 102l71 96v431q0 107 -112 127q38 69 117 69t116 -69q6 5 13 15q8 11 13 16q2 2 8 10q6 9 12 15q98 -15 279 -15q259 0 299 5q78 8 108 30q36 25 40 86q67 -14 83 -77q4 -16 4 -32q0 -45 -32 -88q30 -41 30 -83q0 -16 -4 -32 q-17 -57 -81 -83q-8 59 -44 87q-34 26 -104 30q-25 5 -71 5h-334q-56 5 -102 5l-71 -97v-370h401q70 4 98 26q34 26 34 91q59 -24 77 -78q6 -19 6 -38q0 -40 -27 -82q29 -45 29 -84q0 -66 -85 -114q-8 48 -41 79q-36 33 -91 33h-401v-437v-12q0 -65 31 -101q26 -29 66 -29 h10q-27 -68 -86 -85q-15 -4 -30 -4q-43 0 -82 34q-41 -30 -83 -30l-31 4q-57 16 -84 81z" />
<glyph unicode="G" horiz-adv-x="1291" d="M0 742l66 -92v-461q61 -51 91 -81q47 -48 81 -102q195 20 310 20q175 0 304 -20q4 6 56 71q41 -13 121 -58q50 -29 78 -29q5 0 9 1q-30 64 -81 198q0 198 -5 238q3 60 35 87q24 21 76 30q-19 62 -79 82q-20 7 -41 7q-43 0 -88 -28q-50 29 -93 29q-18 0 -35 -5 q-57 -18 -80 -90q117 0 117 -102q2 -5 2 -94q0 -88 3 -93q-15 -5 -46 -36q2 1 -35 -35q-92 12 -168 12q-29 0 -55 -2q-113 0 -218 -15l-87 101v375l71 92l-71 96v386l87 96q36 -3 109 -8q74 -5 109 -7q29 -2 59 -2q75 0 164 12q20 -20 35 -36q17 -16 46 -35q-5 -25 -5 -51 q-19 -75 -107 -86q53 -85 120 -85q39 0 83 29q45 -29 87 -29q19 0 38 6q54 18 78 79q-94 12 -111 127q5 30 5 101q-59 25 -102 61q-49 35 -81 91q-127 -20 -309 -20q-112 0 -305 20q-33 -54 -81 -101q-30 -30 -91 -81v-467z" />
<glyph unicode="H" horiz-adv-x="1261" d="M0 87q62 4 86 32q21 24 26 85v426l-61 91l61 86v426q0 123 -98 123q-7 0 -14 -1q20 57 77 77q21 7 41 7q39 0 75 -28q40 31 83 31q22 0 44 -8q62 -22 71 -79q-10 2 -19 2q-34 0 -58 -23q-35 -33 -35 -101v-431h553v431q0 68 -35 101q-24 23 -58 23q-9 0 -19 -2 q8 57 70 79q22 8 43 8q41 0 80 -31q38 31 79 31q20 0 41 -8q57 -21 78 -79q-7 1 -14 1q-98 0 -98 -123v-426l61 -86l-61 -91v-426q4 -61 26 -85q24 -28 86 -32q-16 -66 -76 -83q-16 -4 -32 -4q-46 0 -90 36q-45 -36 -88 -36q-14 0 -29 4q-56 17 -76 83q112 9 112 117v436 h-553v-436q0 -109 112 -117q-20 -66 -76 -83q-15 -4 -30 -4q-45 0 -92 36q-42 -36 -87 -36q-15 0 -31 4q-60 17 -75 83z" />
<glyph unicode="I" horiz-adv-x="541" d="M0 87q62 4 86 31q22 25 26 85v427l-61 91l61 86v426q0 123 -97 123q-7 0 -15 -1q21 58 76 79q20 8 40 8q39 0 77 -31q40 31 83 31q22 0 44 -8q63 -22 71 -79q-10 2 -19 2q-34 0 -58 -23q-35 -33 -35 -101v-426l61 -86l-61 -91v-427v-12q0 -97 112 -104q-20 -66 -76 -83 q-15 -4 -30 -4q-45 0 -92 36q-45 -36 -89 -36q-15 0 -30 4q-58 17 -74 83z" />
<glyph unicode="J" horiz-adv-x="1301" d="M0 340q64 -4 88 -54q19 -41 19 -134q48 -21 96 -61q49 -35 81 -91q144 26 285 26t278 -26q22 53 76 106q62 63 117 76v447l61 86l-61 91v421q0 69 35 104q25 25 58 25q9 0 18 -2q-8 57 -69 77q-20 6 -39 6q-44 0 -84 -32q-40 32 -82 32q-19 0 -38 -6q-57 -19 -78 -77 q8 1 15 1q96 0 96 -128v-421l-60 -91l60 -86v-375q-59 -43 -81 -87q-201 14 -218 15q-103 0 -218 -15q-37 44 -66 66q0 99 102 107q-16 65 -74 83q-17 5 -33 5q-43 0 -86 -33q-43 33 -86 33l-34 -5q-59 -17 -78 -83z" />
<glyph unicode="K" horiz-adv-x="1210" d="M0 94q19 -70 78 -87q16 -5 32 -5l88 36q44 -36 88 -36l32 5q58 17 78 87q-54 0 -85 29q-32 29 -32 82v360l96 112l315 -487q16 -29 16 -51q0 -13 -5 -23q-15 -27 -62 -27q23 -68 91 -83q18 -4 36 -4q48 0 96 31q33 -33 77 -33q21 0 45 8q72 24 76 86q-56 0 -94 26 q-37 24 -83 90l-11 15l-375 584l386 446q20 21 30 26q59 46 130 46q8 0 17 -1q-11 89 -82 114q-21 8 -41 8q-51 0 -105 -46q-54 45 -107 45q-11 0 -22 -2q-65 -10 -99 -78q46 0 66 -34q7 -14 7 -28q0 -22 -18 -45l-380 -436v411q0 67 37 101q29 26 69 26h11q-9 53 -73 74 q-22 8 -43 7q-43 0 -82 -31q-40 32 -82 32q-19 0 -37 -6q-57 -19 -74 -76q112 0 112 -127v-421l-61 -91l61 -87v-431q-4 -59 -26 -82q-25 -26 -91 -29z" />
<glyph unicode="L" horiz-adv-x="1185" d="M0 87q15 -65 76 -82q16 -4 32 -4q46 0 90 36q26 -36 76 -36h578q50 0 72 -13q26 -15 29 -58q39 8 56 30q26 26 27 56q0 36 -32 66q31 30 32 66q0 31 -27 56q-24 24 -56 30q1 -5 1 -10q0 -35 -25 -50q-23 -16 -77 -16h-573v477l66 92l-66 86v426q0 71 37 105q25 23 59 23 q10 0 21 -2q-8 56 -73 78q-22 7 -44 8q-43 0 -81 -30q-39 29 -79 30q-20 0 -41 -8q-58 -20 -78 -78q8 1 15 1q97 0 97 -127v-426l-61 -86l61 -92v-431q0 -59 -24 -85q-25 -28 -88 -32z" />
<glyph unicode="M" horiz-adv-x="1433" d="M0 92q63 3 86 29q22 23 26 82v391l-61 91l61 86v462q0 127 -112 127q21 58 75 77q18 6 36 6q41 0 82 -32q41 31 85 31q21 0 42 -7q62 -21 71 -75q-6 1 -12 1q-31 0 -56 -18q-33 -23 -44 -69l365 -406l360 401q-19 91 -111 91q20 58 75 77q18 6 36 6q41 0 81 -32 q41 31 85 31q21 0 43 -7q62 -21 70 -75h-11q-39 0 -65 -25q-35 -34 -35 -102v-462l60 -86l-60 -91v-391q-1 -6 -1 -13q0 -91 112 -98q-19 -70 -76 -87q-16 -5 -32 -5q-44 0 -90 36q-44 -36 -87 -36q-16 0 -32 5q-58 18 -73 87q62 3 86 29q21 23 25 82v391l-61 91l61 86v254 l-360 -396l-365 401v-259l61 -86l-61 -91v-391q0 -103 112 -111q-20 -70 -77 -87q-16 -5 -32 -5q-43 0 -89 36q-42 -36 -86 -36q-16 0 -32 5q-60 18 -75 87z" />
<glyph unicode="N" horiz-adv-x="1388" d="M0 87q63 4 88 32q24 26 24 85v426l-61 86l61 91v426q0 123 -97 123q-7 0 -15 -1q20 57 78 77q21 7 42 8q40 0 78 -29q38 29 79 29q21 0 44 -8q62 -21 70 -77q-10 2 -20 2q-25 0 -47 -15q-33 -23 -40 -73l675 -852v213l-61 86l61 91v426q0 123 -97 123q-7 0 -15 -1 q21 57 78 77q21 7 42 8q40 0 78 -29q38 29 79 29q21 0 44 -8q62 -21 70 -77q-10 2 -19 2q-34 0 -58 -23q-35 -33 -35 -101v-426l61 -91l-61 -86v-426q0 -109 112 -117q-20 -66 -76 -83q-14 -4 -29 -4q-43 0 -88 36q-45 -36 -90 -36q-16 0 -32 4q-60 17 -76 83q78 5 86 8 q22 9 26 58v10l-680 862v-218l66 -91l-66 -86v-426q0 -109 112 -117q-16 -66 -74 -83q-15 -4 -30 -4q-44 0 -89 36q-45 -36 -90 -36q-16 0 -32 4q-60 17 -76 83z" />
<glyph unicode="O" horiz-adv-x="1175" d="M0 710l61 81v446q96 75 162 178q142 -19 285 -19t288 19q76 -122 168 -147v-477l61 -81l-61 -86v-467q-84 -38 -157 -157q-144 23 -282.5 23t-270.5 -23q-73 145 -193 178v446zM223 249q58 -33 81 -86q110 16 218 16t214 -16q45 55 71 65v396l-61 86l61 81v376 q-86 86 -87 86q-99 -16 -205.5 -16.5t-220.5 16.5q-20 -41 -71 -91v-371l61 -81l-61 -86v-375z" />
<glyph unicode="P" horiz-adv-x="1200" d="M0 87q15 -66 76 -83q16 -4 31 -4q44 0 86 36q47 -36 92 -36q15 0 30 4q56 17 76 83q-112 8 -112 117v365q124 16 269.5 15.5t313.5 -15.5q75 112 188 152q-22 140 -22 282t22 286q-113 32 -188 152q-107 -25 -278 -25q-24 -1 -50 -1q-116 0 -255 26q-11 1 -20 1 q-45 0 -66 -31q-36 31 -76 31q-20 0 -40 -8q-56 -21 -77 -79q7 1 14 1q98 0 98 -123v-426l-61 -86l61 -91v-426q-4 -61 -26 -85q-24 -28 -86 -32zM279 731v558q154 -23 297 -23q108 0 210 13q11 -15 36 -41q15 -15 45 -35q-15 -137 -15 -198q0 -68 15 -198q-14 -10 -45 -40 l-36 -36q-122 15 -248.5 15t-258.5 -15z" />
<glyph unicode="Q" horiz-adv-x="1344" d="M0 706l56 -87v-441q54 -14 111 -69q52 -50 76 -104q157 27 321 27t334 -27q2 3 5 8q2 5 5 8q41 -42 41 -84q0 -39 -36 -79q34 -10 63 -10q34 0 61 14q48 26 48 88q16 -4 30 -4q37 0 55 30q16 26 16 71q0 23 -4 50q-38 -23 -72 -23q-55 0 -101 58q30 20 46 26 q-5 76 -5 223v238l61 87l-61 81v471q-81 22 -167 147q-167 -22 -333 -22t-332 22q-56 -87 -162 -177v-441zM218 249v370l61 87l-61 81v365q50 50 71 91q125 -18 248 -18q139 0 275 23q12 -24 40 -51q37 -36 41 -40v-370l-56 -81l56 -87v-360q-53 58 -53 107q0 41 37 76 q-33 8 -61 8q-34 0 -60 -13q-46 -23 -46 -76h-8q-51 0 -79 -38q-22 -31 -22 -77q0 -18 3 -38q32 24 65 24q53 0 107 -59h2h3h-5q-90 8 -194 8q-131 0 -283 -13q-24 49 -81 81zM776 173h3h-3z" />
<glyph unicode="R" horiz-adv-x="1240" d="M0 88q15 -65 74 -83q17 -5 33 -5q43 0 86 33q43 -33 86 -33l34 5q58 18 78 83q-117 9 -117 112v365q161 20 380 20l153 -395q2 -14 2 -27q0 -27 -12 -42q-22 -27 -97 -38q28 -76 95 -82q8 -1 15 -1q47 0 88 33q41 -33 90 -33q8 0 16 1q69 7 86 82q-54 0 -93 55 q-34 48 -74 168l-96 269q10 0 15 -5t15 -5q85 123 188 152q-22 144 -22 286t22 282q-110 40 -188 152q-143 -25 -274 -25q-127 0 -304 25q-14 2 -27 2q-46 0 -59 -27q-39 29 -79 30q-20 0 -40 -8q-58 -21 -74 -78q6 1 12 1q39 0 65 -24q35 -31 35 -99v-425l-61 -92l61 -86 v-431q-4 -57 -26 -81q-24 -27 -86 -31zM279 824q-4 90 -3.5 179t3.5 176l71 96q126 -12 234 -12.5t197 12.5l41 -41q14 -9 40 -35q-15 -129 -15 -198q0 -60 15 -197q-4 -5 -18 -16q-14 -12 -22 -20l-41 -41q-72 12 -179.5 12t-251.5 -12z" />
<glyph unicode="S" horiz-adv-x="1249" d="M0 345q16 64 72 83q18 6 36 6q41 0 85 -33q41 36 84 36q16 0 31 -5q58 -18 77 -87q-15 3 -27 3q-37 0 -58 -24q-22 -25 -22 -71q0 -7 1 -15q16 -10 81 -75q84 15 192 15t239 -15q41 61 71 86v314l-56 56q-160 17 -304.5 17t-273.5 -17q-59 98 -162 177v457 q105 75 162 183q146 -20 292 -19l292 19q86 -126 172 -153q-6 -33 -6 -61q0 -46 16 -82q30 -64 102 -64q3 -65 -75 -87q-23 -7 -44 -7q-48 0 -79 38q-23 -43 -70 -43q-17 0 -37 6q-77 21 -81 93q14 -2 26 -2q48 0 67 26q16 21 16 63q0 15 -2 34q-16 10 -82 76 q-114 -12 -220.5 -11.5t-205.5 11.5q-35 -62 -76 -96v-305q4 -4 34 -39q22 -26 37 -47q126 22 246 22q176 0 338 -47q71 -80 142 -122v-461q-106 -82 -168 -178q-144 19 -289 19l-289 -19q-85 123 -172 152q2 25 2 47q0 84 -31 118q-26 28 -83 28z" />
<glyph unicode="T" horiz-adv-x="1426" d="M22 1179q-7 20 -7 39q0 41 32 81q-31 40 -31 84q0 22 8 46q22 65 79 72q-2 -10 -2 -19q0 -34 24 -60q34 -37 105 -37h319l92 66l91 -66h325q108 0 116 116q70 -19 87 -78q4 -14 4 -29q0 -47 -40 -95q38 -47 38 -93q0 -14 -4 -29q-16 -61 -85 -76q-3 65 -31 91 q-25 22 -85 25h-325l-10 -4v-381l66 -91l-66 -91v-442q0 -108 116 -116q-19 -70 -77 -87q-16 -5 -32 -5l-88 36q-47 -36 -93 -36q-17 0 -33 5q-62 17 -77 87q65 3 91 31q22 25 26 85v442l-61 91l61 91v381l-6 4h-319q-128 0 -128 -101q0 -7 1 -15q-61 20 -81 78z" />
<glyph unicode="U" horiz-adv-x="1317" d="M0 1359q21 58 78 77q19 6 38 7q42 0 82 -33q38 32 81 32q21 0 42 -8q61 -21 70 -75q-7 1 -13 1q-38 0 -64 -26q-35 -34 -35 -102v-420l61 -92l-61 -86v-380q67 -58 81 -87q111 16 223.5 16t227.5 -16q19 37 77 87v380l-61 86l61 92v420q0 68 -35 102q-27 26 -64 26 q-6 0 -13 -1q8 54 70 75q22 8 43 8q44 0 85 -32q39 32 80 33q18 0 37 -7q55 -19 76 -77q-8 1 -15 1q-97 0 -97 -128v-420l61 -92l-61 -86v-456q-125 -63 -183 -178q-144 33 -289 33l-289 -33q-48 110 -182 178v456l-61 86l61 92v420q0 128 -97 128q-7 0 -15 -1z" />
<glyph unicode="V" horiz-adv-x="1398" d="M0 1354q24 62 84 81q19 6 37 6q44 0 82 -36q38 33 79 34q17 0 34 -6q55 -18 80 -79q-7 1 -13 1q-42 0 -68 -23q-24 -21 -24 -49q0 -10 3 -20l147 -431l71 -61l-20 -101l132 -411l132 411l-15 101l70 61l148 431q3 10 3 20q0 28 -24 49q-26 23 -68 23q-6 0 -13 -1 q24 61 80 79q17 5 34 6q41 0 79 -34q38 36 82 36q18 0 36 -6q59 -20 80 -81q-78 -5 -117 -111l-162 -467l20 -101l-81 -61l-208 -614h-147l-208 614l-81 61l20 101l-162 467q-39 106 -122 111z" />
<glyph unicode="W" horiz-adv-x="1870" d="M0 1349q24 61 84 82q19 6 38 6q41 0 76 -32q41 33 83 34q17 0 34 -6q56 -18 76 -79q-7 1 -13 1q-42 0 -68 -23q-24 -21 -24 -49q0 -10 3 -20l147 -431l76 -61l-20 -101l132 -406l183 786h116l178 -786l127 406l-15 101l70 61l147 431q3 11 3 21q0 27 -23 48 q-27 23 -68 23q-6 0 -13 -1q20 61 77 79q18 6 35 6q42 0 81 -34q37 32 79 32q19 0 39 -6q60 -21 80 -82q-78 0 -117 -106l-162 -467l20 -101l-81 -66l-208 -609h-162l-148 639l-147 -639h-162l-213 609l-76 66l20 101l-162 467q-39 106 -122 106z" />
<glyph unicode="X" horiz-adv-x="1154" d="M0 81q68 25 107 101l299 548l-294 538q-25 45 -45 62q-24 20 -67 24q15 65 80 83q19 5 36 5q44 0 82 -32q35 33 80 33q18 0 38 -6q68 -19 80 -83q-8 1 -16 1q-42 0 -69 -18q-22 -14 -22 -36q0 -15 10 -33l203 -365l198 365q10 19 10 34q0 21 -20 35q-24 18 -65 18 q-8 0 -16 -1q11 64 80 83q20 6 38 6q44 0 80 -33q38 32 81 32q17 0 36 -5q65 -18 80 -83q-43 -4 -67 -24q-19 -17 -44 -62l-295 -538l295 -548q46 -78 111 -101q-27 -62 -81 -77q-15 -4 -30 -4q-42 0 -86 30q-47 -30 -88 -30q-15 0 -29 4q-52 15 -71 77q57 11 72 22 q20 15 20 43q0 16 -6 36l-203 375l-203 -375q-8 -21 -8 -38q0 -27 21 -41q15 -10 74 -22q-24 -62 -75 -77q-14 -4 -29 -4q-40 0 -84 30q-44 -30 -86 -30q-15 0 -30 4q-55 15 -82 77z" />
<glyph unicode="Y" horiz-adv-x="1215" d="M0 1355q23 64 84 81q17 5 34 5q42 0 80 -30q41 29 82 29l32 -4q57 -16 84 -81q-6 1 -12 1q-37 0 -67 -22q-24 -17 -24 -36q0 -9 6 -19l234 -426l233 426q6 10 6 19q0 19 -24 36q-29 22 -66 22q-6 0 -12 -1q26 65 83 81q16 4 32 4q42 0 82 -29q38 30 80 30q17 0 35 -5 q60 -17 83 -81q-68 -14 -116 -86l-335 -599v-472q0 -102 111 -111q-15 -66 -73 -83q-15 -4 -30 -4q-44 0 -89 36q-45 -36 -90 -36l-30 4q-59 17 -78 83q65 3 90 31q22 23 27 80v472l-335 599q-49 72 -117 86z" />
<glyph unicode="Z" horiz-adv-x="1261" d="M0 1050q63 4 89 35q24 30 28 97q0 51 -10 101q105 33 172 157q168 -34 337 -34.5t338 34.5q32 -121 126 -182l-806 -1086q120 15 226 15q137 0 251 -25q31 50 81 92v14q0 115 -112 123q23 65 82 80q15 4 30 4q42 0 81 -34q36 34 78 34q14 0 29 -4q56 -15 91 -80 q-67 -4 -93 -37q-24 -30 -24 -100q0 -76 5 -102q-94 -29 -172 -152q-166 30 -322 30t-302 -30q-85 137 -157 183l827 1085q-135 -21 -257 -21q-136 0 -256 26q-14 -17 -43 -42q-35 -31 -43 -39v-17q0 -125 117 -125q-23 -65 -84 -83q-17 -5 -34 -5q-42 0 -80 32 q-32 -32 -71 -32q-16 0 -33 5q-58 18 -89 83z" />
<glyph unicode="[" horiz-adv-x="758" />
<glyph unicode="\" horiz-adv-x="569" />
<glyph unicode="]" horiz-adv-x="758" />
<glyph unicode="^" />
<glyph unicode="_" horiz-adv-x="1024" />
<glyph unicode="`" horiz-adv-x="1024" />
<glyph unicode="a" horiz-adv-x="1337" d="M0 86q4 -69 72 -81q14 -3 27 -3q49 0 84 39q37 -41 84 -41q12 0 25 3q64 13 78 83q-12 -4 -24 -5q-27 0 -50 25q-22 24 -22 51q0 13 5 26l66 192l497 -5l66 -187q5 -13 5 -25q0 -28 -24 -52t-50 -25q-11 0 -22 5q11 -70 74 -83q12 -3 24 -3q46 0 84 41q38 -38 88 -38 q12 0 25 2q68 12 75 81q-32 -12 -60 5q-31 18 -42 61q-130 373 -202 568l-188 523q-8 20 -8 38q0 32 28 53q25 20 51 20l25 -5q-15 66 -76 83q-17 5 -35 5q-43 0 -86 -32q-41 32 -82 32q-17 0 -34 -5q-58 -17 -77 -83q11 5 22 5q23 0 48 -20q28 -22 28 -55q0 -17 -7 -36 l-193 -523q-35 -99 -99 -284q-68 -197 -99 -284q-10 -43 -43 -61q-29 -17 -58 -5zM401 533l193 537l192 -537h-385z" />
<glyph unicode="b" horiz-adv-x="1159" d="M0 51q33 11 76 45q36 45 36 76v452l-67 86l67 91v421q0 46 -31 77q-31 38 -81 45q40 56 112 56q60 0 116 -56q6 6 12 15q7 9 8 11q11 10 21 30q129 -20 289 -20q95 0 279 20q25 -41 81 -96q34 -35 91 -51q-19 -118 -19 -229.5t19 -217.5q-59 -42 -106 -96q7 -7 23 -26 q17 -19 28 -30q16 -21 55 -50q-19 -110 -19 -224.5t19 -232.5q-103 -48 -157 -147q-144 22 -282 22t-271 -22q-15 10 -35 30l-36 36q-44 -66 -116 -66q-39 0 -61 15q-12 6 -28 18q-20 16 -23 18zM269 243l81 -86q14 3 45 5q28 3 41 5q25 5 92 5q81 0 126 -5q87 0 127 -5 q46 46 71 61q-12 76 -12 156t12 164q-39 39 -76 91h-507v-391zM269 791h507q6 12 18 25q14 16 17 21q5 4 19 16q14 11 22 19q-10 51 -10 147q-2 14 -2 36q0 42 7 112q-4 4 -18 15q-14 12 -23 20l-35 36q-46 -5 -122 -5q-81 0 -121 -6q-15 0 -47 3t-50 3q-30 5 -91 5l-71 -91 v-356z" />
<glyph unicode="c" horiz-adv-x="1256" d="M0 715l66 92v451q60 50 86 76q38 31 81 102q193 -21 295 -21q170 0 299 21q25 -44 76 -87q56 -46 101 -66q0 -15 -2 -47q-3 -32 -3 -44q9 -113 107 -127q-25 -57 -78 -74q-18 -6 -37 -6q-41 0 -83 30q-44 -30 -82 -30q-63 0 -111 80q84 11 97 86q5 11 5 46q-5 5 -19 16 t-22 20l-35 35q-84 -12 -156 -12q-30 0 -57 2q-107 0 -213 15l-82 -96v-370l66 -92l-66 -91v-365l82 -92q65 5 213 16q107 0 213 -16q25 27 35 41q7 5 22 17q13 11 19 14v25q0 15 -5 25q-18 81 -97 81q29 83 102 83q37 0 86 -22q41 24 81 24q22 0 43 -7q59 -19 79 -78 q-94 -15 -107 -116q0 -11 3 -45q2 -35 2 -57q-58 -24 -101 -61q-46 -38 -76 -91q-129 21 -239 21q-28 0 -55 -1q-178 0 -300 -20q-44 71 -81 102q-26 30 -86 81v441z" />
<glyph unicode="d" horiz-adv-x="1205" d="M0 61q112 10 112 127v472l-66 86l66 106v421q0 62 -33 96q-31 31 -79 31q29 60 100 60q7 0 14 -1q75 -5 124 -59q2 2 9 11q6 9 12 15q10 20 20 30q130 -20 294 -20q166 0 289 20q84 -121 193 -152q-45 -273 -45 -573t45 -574q-58 -24 -101 -60q-46 -38 -77 -92 q-148 23 -291.5 23t-281.5 -23q-34 35 -35 36q-20 20 -31 36q-49 -73 -121 -77h-8q-66 0 -109 61zM279 259l81 -86q100 6 218 15q108 0 223 -15q20 20 31 35q7 5 20 15q13 11 21 16q-31 243 -31 487q0 215 25 486q-4 5 -18 16q-14 12 -22 20q-25 24 -41 41q-100 -8 -166 -8 q-30 0 -52 2q-71 6 -218 6l-71 -97v-340l66 -106l-66 -86v-401z" />
<glyph unicode="e" horiz-adv-x="1239" d="M0 67q63 0 88 31q24 29 24 96v451l-71 97l71 91v426q0 51 -29 86q-31 37 -83 41q29 61 104 61h5q77 -2 124 -61q2 2 9 11q6 9 12 14q5 10 20 26q51 0 107 -5q26 0 87 -3t95 -3t95 -2q61 -3 88 -3q33 0 65 3q32 2 31 2q79 11 112 40q27 24 35 77q66 -23 83 -81 q4 -15 4 -29q0 -43 -36 -83q34 -41 34 -81q0 -17 -6 -34q-18 -47 -79 -77q-14 103 -147 111q-168 16 -255 16q-22 0 -39 -1q-193 -10 -274 -10v-451h396q59 7 88 33q27 24 38 78q63 -31 80 -81q5 -15 5 -31q0 -38 -29 -80q33 -41 33 -80q0 -17 -6 -34q-18 -51 -83 -79 q-8 103 -116 112h-406v-472q29 -2 71 -2q83 0 213 7q55 3 104 3q104 0 180 -13q9 -1 18 -1q122 0 129 118q67 -15 83 -86q4 -17 4 -32q0 -48 -36 -80q30 -42 30 -81q0 -14 -4 -29q-15 -52 -77 -83q-25 109 -147 116q-15 6 -106 6h-168q-30 -3 -87 -6q-55 -2 -80 -4 q-33 0 -66 -3q-33 -2 -36 -2l-15 15l-15 15l-36 35q-34 -73 -112 -80h-12q-71 0 -109 65z" />
<glyph unicode="f" horiz-adv-x="1263" d="M0 89q117 0 117 147h5v416l-71 102l71 96v431q0 107 -112 127q38 69 117 69t116 -69q6 5 13 15q8 11 13 16q2 2 8 10q6 9 12 15q98 -15 279 -15q259 0 299 5q78 8 108 30q36 25 40 86q67 -14 83 -77q4 -16 4 -32q0 -45 -32 -88q30 -41 30 -83q0 -16 -4 -32 q-17 -57 -81 -83q-8 59 -44 87q-34 26 -104 30q-25 5 -71 5h-334q-56 5 -102 5l-71 -97v-370h401q70 4 98 26q34 26 34 91q59 -24 77 -78q6 -19 6 -38q0 -40 -27 -82q29 -45 29 -84q0 -66 -85 -114q-8 48 -41 79q-36 33 -91 33h-401v-437v-12q0 -65 31 -101q26 -29 66 -29 h10q-27 -68 -86 -85q-15 -4 -30 -4q-43 0 -82 34q-41 -30 -83 -30l-31 4q-57 16 -84 81z" />
<glyph unicode="g" horiz-adv-x="1291" d="M0 742l66 -92v-461q61 -51 91 -81q47 -48 81 -102q195 20 310 20q175 0 304 -20q4 6 56 71q41 -13 121 -58q50 -29 78 -29q5 0 9 1q-30 64 -81 198q0 198 -5 238q3 60 35 87q24 21 76 30q-19 62 -79 82q-20 7 -41 7q-43 0 -88 -28q-50 29 -93 29q-18 0 -35 -5 q-57 -18 -80 -90q117 0 117 -102q2 -5 2 -94q0 -88 3 -93q-15 -5 -46 -36q2 1 -35 -35q-92 12 -168 12q-29 0 -55 -2q-113 0 -218 -15l-87 101v375l71 92l-71 96v386l87 96q36 -3 109 -8q74 -5 109 -7q29 -2 59 -2q75 0 164 12q20 -20 35 -36q17 -16 46 -35q-5 -25 -5 -51 q-19 -75 -107 -86q53 -85 120 -85q39 0 83 29q45 -29 87 -29q19 0 38 6q54 18 78 79q-94 12 -111 127q5 30 5 101q-59 25 -102 61q-49 35 -81 91q-127 -20 -309 -20q-112 0 -305 20q-33 -54 -81 -101q-30 -30 -91 -81v-467z" />
<glyph unicode="h" horiz-adv-x="1261" d="M0 87q62 4 86 32q21 24 26 85v426l-61 91l61 86v426q0 123 -98 123q-7 0 -14 -1q20 57 77 77q21 7 41 7q39 0 75 -28q40 31 83 31q22 0 44 -8q62 -22 71 -79q-10 2 -19 2q-34 0 -58 -23q-35 -33 -35 -101v-431h553v431q0 68 -35 101q-24 23 -58 23q-9 0 -19 -2 q8 57 70 79q22 8 43 8q41 0 80 -31q38 31 79 31q20 0 41 -8q57 -21 78 -79q-7 1 -14 1q-98 0 -98 -123v-426l61 -86l-61 -91v-426q4 -61 26 -85q24 -28 86 -32q-16 -66 -76 -83q-16 -4 -32 -4q-46 0 -90 36q-45 -36 -88 -36q-14 0 -29 4q-56 17 -76 83q112 9 112 117v436 h-553v-436q0 -109 112 -117q-20 -66 -76 -83q-15 -4 -30 -4q-45 0 -92 36q-42 -36 -87 -36q-15 0 -31 4q-60 17 -75 83z" />
<glyph unicode="i" horiz-adv-x="541" d="M0 87q62 4 86 31q22 25 26 85v427l-61 91l61 86v426q0 123 -97 123q-7 0 -15 -1q21 58 76 79q20 8 40 8q39 0 77 -31q40 31 83 31q22 0 44 -8q63 -22 71 -79q-10 2 -19 2q-34 0 -58 -23q-35 -33 -35 -101v-426l61 -86l-61 -91v-427v-12q0 -97 112 -104q-20 -66 -76 -83 q-15 -4 -30 -4q-45 0 -92 36q-45 -36 -89 -36q-15 0 -30 4q-58 17 -74 83z" />
<glyph unicode="j" horiz-adv-x="1301" d="M0 340q64 -4 88 -54q19 -41 19 -134q48 -21 96 -61q49 -35 81 -91q144 26 285 26t278 -26q22 53 76 106q62 63 117 76v447l61 86l-61 91v421q0 69 35 104q25 25 58 25q9 0 18 -2q-8 57 -69 77q-20 6 -39 6q-44 0 -84 -32q-40 32 -82 32q-19 0 -38 -6q-57 -19 -78 -77 q8 1 15 1q96 0 96 -128v-421l-60 -91l60 -86v-375q-59 -43 -81 -87q-201 14 -218 15q-103 0 -218 -15q-37 44 -66 66q0 99 102 107q-16 65 -74 83q-17 5 -33 5q-43 0 -86 -33q-43 33 -86 33l-34 -5q-59 -17 -78 -83z" />
<glyph unicode="k" horiz-adv-x="1210" d="M0 94q19 -70 78 -87q16 -5 32 -5l88 36q44 -36 88 -36l32 5q58 17 78 87q-54 0 -85 29q-32 29 -32 82v360l96 112l315 -487q16 -29 16 -51q0 -13 -5 -23q-15 -27 -62 -27q23 -68 91 -83q18 -4 36 -4q48 0 96 31q33 -33 77 -33q21 0 45 8q72 24 76 86q-56 0 -94 26 q-37 24 -83 90l-11 15l-375 584l386 446q20 21 30 26q59 46 130 46q8 0 17 -1q-11 89 -82 114q-21 8 -41 8q-51 0 -105 -46q-54 45 -107 45q-11 0 -22 -2q-65 -10 -99 -78q46 0 66 -34q7 -14 7 -28q0 -22 -18 -45l-380 -436v411q0 67 37 101q29 26 69 26h11q-9 53 -73 74 q-22 8 -43 7q-43 0 -82 -31q-40 32 -82 32q-19 0 -37 -6q-57 -19 -74 -76q112 0 112 -127v-421l-61 -91l61 -87v-431q-4 -59 -26 -82q-25 -26 -91 -29z" />
<glyph unicode="l" horiz-adv-x="1185" d="M0 87q15 -65 76 -82q16 -4 32 -4q46 0 90 36q26 -36 76 -36h578q50 0 72 -13q26 -15 29 -58q39 8 56 30q26 26 27 56q0 36 -32 66q31 30 32 66q0 31 -27 56q-24 24 -56 30q1 -5 1 -10q0 -35 -25 -50q-23 -16 -77 -16h-573v477l66 92l-66 86v426q0 71 37 105q25 23 59 23 q10 0 21 -2q-8 56 -73 78q-22 7 -44 8q-43 0 -81 -30q-39 29 -79 30q-20 0 -41 -8q-58 -20 -78 -78q8 1 15 1q97 0 97 -127v-426l-61 -86l61 -92v-431q0 -59 -24 -85q-25 -28 -88 -32z" />
<glyph unicode="m" horiz-adv-x="1433" d="M0 92q63 3 86 29q22 23 26 82v391l-61 91l61 86v462q0 127 -112 127q21 58 75 77q18 6 36 6q41 0 82 -32q41 31 85 31q21 0 42 -7q62 -21 71 -75q-6 1 -12 1q-31 0 -56 -18q-33 -23 -44 -69l365 -406l360 401q-19 91 -111 91q20 58 75 77q18 6 36 6q41 0 81 -32 q41 31 85 31q21 0 43 -7q62 -21 70 -75h-11q-39 0 -65 -25q-35 -34 -35 -102v-462l60 -86l-60 -91v-391q-1 -6 -1 -13q0 -91 112 -98q-19 -70 -76 -87q-16 -5 -32 -5q-44 0 -90 36q-44 -36 -87 -36q-16 0 -32 5q-58 18 -73 87q62 3 86 29q21 23 25 82v391l-61 91l61 86v254 l-360 -396l-365 401v-259l61 -86l-61 -91v-391q0 -103 112 -111q-20 -70 -77 -87q-16 -5 -32 -5q-43 0 -89 36q-42 -36 -86 -36q-16 0 -32 5q-60 18 -75 87z" />
<glyph unicode="n" horiz-adv-x="1388" d="M0 87q63 4 88 32q24 26 24 85v426l-61 86l61 91v426q0 123 -97 123q-7 0 -15 -1q20 57 78 77q21 7 42 8q40 0 78 -29q38 29 79 29q21 0 44 -8q62 -21 70 -77q-10 2 -20 2q-25 0 -47 -15q-33 -23 -40 -73l675 -852v213l-61 86l61 91v426q0 123 -97 123q-7 0 -15 -1 q21 57 78 77q21 7 42 8q40 0 78 -29q38 29 79 29q21 0 44 -8q62 -21 70 -77q-10 2 -19 2q-34 0 -58 -23q-35 -33 -35 -101v-426l61 -91l-61 -86v-426q0 -109 112 -117q-20 -66 -76 -83q-14 -4 -29 -4q-43 0 -88 36q-45 -36 -90 -36q-16 0 -32 4q-60 17 -76 83q78 5 86 8 q22 9 26 58v10l-680 862v-218l66 -91l-66 -86v-426q0 -109 112 -117q-16 -66 -74 -83q-15 -4 -30 -4q-44 0 -89 36q-45 -36 -90 -36q-16 0 -32 4q-60 17 -76 83z" />
<glyph unicode="o" horiz-adv-x="1175" d="M0 710l61 81v446q96 75 162 178q142 -19 285 -19t288 19q76 -122 168 -147v-477l61 -81l-61 -86v-467q-84 -38 -157 -157q-144 23 -282.5 23t-270.5 -23q-73 145 -193 178v446zM223 249q58 -33 81 -86q110 16 218 16t214 -16q45 55 71 65v396l-61 86l61 81v376 q-86 86 -87 86q-99 -16 -205.5 -16.5t-220.5 16.5q-20 -41 -71 -91v-371l61 -81l-61 -86v-375z" />
<glyph unicode="p" horiz-adv-x="1200" d="M0 87q15 -66 76 -83q16 -4 31 -4q44 0 86 36q47 -36 92 -36q15 0 30 4q56 17 76 83q-112 8 -112 117v365q123 15 269 15t314 -15q75 112 188 152q-22 140 -22 282t22 286q-113 32 -188 152q-107 -25 -278 -25q-24 -1 -50 -1q-116 0 -255 26q-11 1 -20 1q-45 0 -66 -31 q-36 31 -76 31q-19 0 -40 -8q-56 -21 -77 -79q7 1 14 1q98 0 98 -123v-426l-61 -86l61 -91v-426q-4 -61 -26 -85q-24 -28 -86 -32zM279 731v558q154 -23 297 -23q108 0 210 13q11 -15 36 -41q15 -15 45 -35q-15 -137 -15 -198q0 -68 15 -198q-14 -10 -45 -40l-36 -36 q-122 15 -248.5 15t-258.5 -15z" />
<glyph unicode="q" horiz-adv-x="1344" d="M0 706l56 -87v-441q54 -14 111 -69q52 -50 76 -104q157 27 321 27t334 -27q2 3 5 8q2 5 5 8q41 -42 41 -84q0 -39 -36 -79q34 -10 63 -10q34 0 61 14q48 26 48 88q16 -4 30 -4q37 0 55 30q16 26 16 71q0 23 -4 50q-38 -23 -72 -23q-55 0 -101 58q30 20 46 26 q-5 76 -5 223v238l61 87l-61 81v471q-81 22 -167 147q-167 -22 -333 -22t-332 22q-56 -87 -162 -177v-441zM218 249v370l61 87l-61 81v365q50 50 71 91q125 -18 248 -18q139 0 275 23q12 -24 40 -51q37 -36 41 -40v-370l-56 -81l56 -87v-360q-53 58 -53 107q0 41 37 76 q-33 8 -61 8q-34 0 -60 -13q-46 -23 -46 -76h-8q-51 0 -79 -38q-22 -31 -22 -77q0 -18 3 -38q32 24 65 24q53 0 107 -59h2h3h-5q-90 8 -194 8q-131 0 -283 -13q-24 49 -81 81zM776 173h3h-3z" />
<glyph unicode="r" horiz-adv-x="1240" d="M0 88q15 -65 74 -83q17 -5 33 -5q43 0 86 33q43 -33 86 -33l34 5q58 18 78 83q-117 9 -117 112v365q161 20 380 20l153 -395q2 -14 2 -27q0 -27 -12 -42q-22 -27 -97 -38q28 -76 95 -82q8 -1 15 -1q47 0 88 33q41 -33 90 -33q8 0 16 1q69 7 86 82q-54 0 -93 55 q-34 48 -74 168l-96 269q10 0 15 -5t15 -5q85 123 188 152q-22 144 -22 286t22 282q-110 40 -188 152q-143 -25 -274 -25q-127 0 -304 25q-14 2 -27 2q-46 0 -59 -27q-39 29 -79 30q-20 0 -40 -8q-58 -21 -74 -78q6 1 12 1q39 0 65 -24q35 -31 35 -99v-425l-61 -92l61 -86 v-431q-4 -57 -26 -81q-24 -27 -86 -31zM279 824q-4 90 -3.5 179t3.5 176l71 96q126 -12 234 -12.5t197 12.5l41 -41q14 -9 40 -35q-15 -129 -15 -198q0 -60 15 -197q-4 -5 -18 -16q-14 -12 -22 -20l-41 -41q-72 12 -179.5 12t-251.5 -12z" />
<glyph unicode="s" horiz-adv-x="1249" d="M0 345q16 64 72 83q18 6 36 6q41 0 85 -33q41 36 84 36q16 0 31 -5q58 -18 77 -87q-15 3 -27 3q-37 0 -58 -24q-22 -25 -22 -71q0 -7 1 -15q16 -10 81 -75q84 15 192 15t239 -15q41 61 71 86v314l-56 56q-160 17 -304.5 17t-273.5 -17q-59 98 -162 177v457 q105 75 162 183q146 -20 292 -19l292 19q86 -126 172 -153q-6 -33 -6 -61q0 -46 16 -82q30 -64 102 -64q3 -65 -75 -87q-23 -7 -44 -7q-48 0 -79 38q-23 -43 -70 -43q-17 0 -37 6q-77 21 -81 93q14 -2 26 -2q48 0 67 26q16 21 16 63q0 15 -2 34q-16 10 -82 76 q-114 -12 -220.5 -11.5t-205.5 11.5q-35 -62 -76 -96v-305q4 -4 34 -39q22 -26 37 -47q126 22 246 22q176 0 338 -47q71 -80 142 -122v-461q-106 -82 -168 -178q-144 19 -289 19l-289 -19q-85 123 -172 152q2 25 2 47q0 84 -31 118q-26 28 -83 28z" />
<glyph unicode="t" horiz-adv-x="1426" d="M22 1179q-7 20 -7 39q0 41 32 81q-31 40 -31 84q0 22 8 46q22 65 79 72q-2 -10 -2 -19q0 -34 24 -60q34 -37 105 -37h319l92 66l91 -66h325q108 0 116 116q70 -19 87 -78q4 -14 4 -29q0 -47 -40 -95q38 -47 38 -93q0 -14 -4 -29q-16 -61 -85 -76q-3 65 -31 91 q-25 22 -85 25h-325l-10 -4v-381l66 -91l-66 -91v-442q0 -108 116 -116q-19 -70 -77 -87q-16 -5 -32 -5l-88 36q-47 -36 -93 -36q-17 0 -33 5q-62 17 -77 87q65 3 91 31q22 25 26 85v442l-61 91l61 91v381l-6 4h-319q-128 0 -128 -101q0 -7 1 -15q-61 20 -81 78z" />
<glyph unicode="u" horiz-adv-x="1317" d="M0 1359q21 58 78 77q19 6 38 7q42 0 82 -33q38 32 81 32q21 0 42 -8q61 -21 70 -75q-7 1 -13 1q-38 0 -64 -26q-35 -34 -35 -102v-420l61 -92l-61 -86v-380q67 -58 81 -87q111 16 223.5 16t227.5 -16q19 37 77 87v380l-61 86l61 92v420q0 68 -35 102q-27 26 -64 26 q-6 0 -13 -1q8 54 70 75q22 8 43 8q44 0 85 -32q39 32 80 33q18 0 37 -7q55 -19 76 -77q-8 1 -15 1q-97 0 -97 -128v-420l61 -92l-61 -86v-456q-125 -63 -183 -178q-144 33 -289 33l-289 -33q-48 110 -182 178v456l-61 86l61 92v420q0 128 -97 128q-7 0 -15 -1z" />
<glyph unicode="v" horiz-adv-x="1398" d="M0 1354q24 62 84 81q19 6 37 6q44 0 82 -36q38 33 79 34q17 0 34 -6q55 -18 80 -79q-7 1 -13 1q-42 0 -68 -23q-24 -21 -24 -49q0 -10 3 -20l147 -431l71 -61l-20 -101l132 -411l132 411l-15 101l70 61l148 431q3 10 3 20q0 28 -24 49q-26 23 -68 23q-6 0 -13 -1 q24 61 80 79q17 5 34 6q41 0 79 -34q38 36 82 36q18 0 36 -6q59 -20 80 -81q-78 -5 -117 -111l-162 -467l20 -101l-81 -61l-208 -614h-147l-208 614l-81 61l20 101l-162 467q-39 106 -122 111z" />
<glyph unicode="w" horiz-adv-x="1870" d="M0 1349q24 61 84 82q19 6 38 6q41 0 76 -32q41 33 83 34q17 0 34 -6q56 -18 76 -79q-7 1 -13 1q-42 0 -68 -23q-24 -21 -24 -49q0 -10 3 -20l147 -431l76 -61l-20 -101l132 -406l183 786h116l178 -786l127 406l-15 101l70 61l147 431q3 11 3 21q0 27 -23 48 q-27 23 -68 23q-6 0 -13 -1q20 61 77 79q18 6 35 6q42 0 81 -34q37 32 79 32q19 0 39 -6q60 -21 80 -82q-78 0 -117 -106l-162 -467l20 -101l-81 -66l-208 -609h-162l-148 639l-147 -639h-162l-213 609l-76 66l20 101l-162 467q-39 106 -122 106z" />
<glyph unicode="x" horiz-adv-x="1154" d="M0 81q68 25 107 101l299 548l-294 538q-25 45 -45 62q-24 20 -67 24q15 65 80 83q19 5 36 5q44 0 82 -32q35 33 80 33q18 0 38 -6q68 -19 80 -83q-8 1 -16 1q-42 0 -69 -18q-22 -14 -22 -36q0 -15 10 -33l203 -365l198 365q10 19 10 34q0 21 -20 35q-24 18 -65 18 q-8 0 -16 -1q11 64 80 83q20 6 38 6q44 0 80 -33q38 32 81 32q17 0 36 -5q65 -18 80 -83q-43 -4 -67 -24q-19 -17 -44 -62l-295 -538l295 -548q46 -78 111 -101q-27 -62 -81 -77q-15 -4 -30 -4q-42 0 -86 30q-47 -30 -88 -30q-15 0 -29 4q-52 15 -71 77q57 11 72 22 q20 15 20 43q0 16 -6 36l-203 375l-203 -375q-8 -21 -8 -38q0 -27 21 -41q15 -10 74 -22q-24 -62 -75 -77q-14 -4 -29 -4q-40 0 -84 30q-44 -30 -86 -30q-15 0 -30 4q-55 15 -82 77z" />
<glyph unicode="y" horiz-adv-x="1215" d="M0 1355q23 64 84 81q17 5 34 5q42 0 80 -30q41 29 82 29l32 -4q57 -16 84 -81q-6 1 -12 1q-37 0 -67 -22q-24 -17 -24 -36q0 -9 6 -19l234 -426l233 426q6 10 6 19q0 19 -24 36q-29 22 -66 22q-6 0 -12 -1q26 65 83 81q16 4 32 4q42 0 82 -29q38 30 80 30q17 0 35 -5 q60 -17 83 -81q-68 -14 -116 -86l-335 -599v-472q0 -102 111 -111q-15 -66 -73 -83q-15 -4 -30 -4q-44 0 -89 36q-45 -36 -90 -36l-30 4q-59 17 -78 83q65 3 90 31q22 23 27 80v472l-335 599q-49 72 -117 86z" />
<glyph unicode="z" horiz-adv-x="1261" d="M0 1050q63 4 89 35q24 30 28 97q0 51 -10 101q105 33 172 157q168 -34 337 -34.5t338 34.5q32 -121 126 -182l-806 -1086q120 15 226 15q137 0 251 -25q31 50 81 92v14q0 115 -112 123q23 65 82 80q15 4 30 4q42 0 81 -34q36 34 78 34q14 0 29 -4q56 -15 91 -80 q-67 -4 -93 -37q-24 -30 -24 -100q0 -76 5 -102q-94 -29 -172 -152q-166 30 -322 30t-302 -30q-85 137 -157 183l827 1085q-135 -21 -257 -21q-136 0 -256 26q-14 -17 -43 -42q-35 -31 -43 -39v-17q0 -125 117 -125q-23 -65 -84 -83q-17 -5 -34 -5q-42 0 -80 32 q-32 -32 -71 -32q-16 0 -33 5q-58 18 -89 83z" />
<glyph unicode="{" />
<glyph unicode="|" />
<glyph unicode="}" />
<glyph unicode="~" />
<glyph unicode="&#xa1;" horiz-adv-x="672" />
<glyph unicode="&#xa2;" horiz-adv-x="1139" />
<glyph unicode="&#xa3;" />
<glyph unicode="&#xa4;" />
<glyph unicode="&#xa5;" horiz-adv-x="1262" />
<glyph unicode="&#xa6;" />
<glyph unicode="&#xa7;" />
<glyph unicode="&#xa8;" horiz-adv-x="1024" />
<glyph unicode="&#xa9;" horiz-adv-x="1674" />
<glyph unicode="&#xaa;" horiz-adv-x="648" />
<glyph unicode="&#xab;" horiz-adv-x="944" />
<glyph unicode="&#xac;" />
<glyph unicode="&#xad;" horiz-adv-x="670" />
<glyph unicode="&#xae;" horiz-adv-x="1674" />
<glyph unicode="&#xaf;" horiz-adv-x="670" />
<glyph unicode="&#xb0;" horiz-adv-x="674" />
<glyph unicode="&#xb1;" />
<glyph unicode="&#xb2;" />
<glyph unicode="&#xb3;" />
<glyph unicode="&#xb4;" horiz-adv-x="1024" />
<glyph unicode="&#xb5;" horiz-adv-x="1180" />
<glyph unicode="&#xb6;" horiz-adv-x="1024" />
<glyph unicode="&#xb7;" horiz-adv-x="508" />
<glyph unicode="&#xb8;" horiz-adv-x="1024" />
<glyph unicode="&#xb9;" />
<glyph unicode="&#xba;" horiz-adv-x="718" />
<glyph unicode="&#xbb;" horiz-adv-x="944" />
<glyph unicode="&#xbc;" horiz-adv-x="1708" />
<glyph unicode="&#xbd;" horiz-adv-x="1964" />
<glyph unicode="&#xbe;" horiz-adv-x="1708" />
<glyph unicode="&#xbf;" horiz-adv-x="748" />
<glyph unicode="&#xc0;" horiz-adv-x="1540" />
<glyph unicode="&#xc1;" horiz-adv-x="1540" />
<glyph unicode="&#xc2;" horiz-adv-x="1540" />
<glyph unicode="&#xc3;" horiz-adv-x="1540" />
<glyph unicode="&#xc4;" horiz-adv-x="1540" />
<glyph unicode="&#xc5;" horiz-adv-x="1540" />
<glyph unicode="&#xc6;" horiz-adv-x="2118" />
<glyph unicode="&#xc7;" horiz-adv-x="1399" />
<glyph unicode="&#xc8;" horiz-adv-x="1151" />
<glyph unicode="&#xc9;" horiz-adv-x="1151" />
<glyph unicode="&#xca;" horiz-adv-x="1151" />
<glyph unicode="&#xcb;" horiz-adv-x="1151" />
<glyph unicode="&#xcc;" horiz-adv-x="657" />
<glyph unicode="&#xcd;" horiz-adv-x="657" />
<glyph unicode="&#xce;" horiz-adv-x="657" />
<glyph unicode="&#xcf;" horiz-adv-x="657" />
<glyph unicode="&#xd0;" horiz-adv-x="1518" />
<glyph unicode="&#xd1;" horiz-adv-x="1554" />
<glyph unicode="&#xd2;" horiz-adv-x="1614" />
<glyph unicode="&#xd3;" horiz-adv-x="1614" />
<glyph unicode="&#xd4;" horiz-adv-x="1614" />
<glyph unicode="&#xd5;" horiz-adv-x="1614" />
<glyph unicode="&#xd6;" horiz-adv-x="1614" />
<glyph unicode="&#xd7;" />
<glyph unicode="&#xd8;" horiz-adv-x="1614" />
<glyph unicode="&#xd9;" horiz-adv-x="1501" />
<glyph unicode="&#xda;" horiz-adv-x="1501" />
<glyph unicode="&#xdb;" horiz-adv-x="1501" />
<glyph unicode="&#xdc;" horiz-adv-x="1501" />
<glyph unicode="&#xdd;" horiz-adv-x="1233" />
<glyph unicode="&#xde;" horiz-adv-x="1120" />
<glyph unicode="&#xdf;" horiz-adv-x="1251" />
<glyph unicode="&#xe0;" horiz-adv-x="922" />
<glyph unicode="&#xe1;" horiz-adv-x="922" />
<glyph unicode="&#xe2;" horiz-adv-x="922" />
<glyph unicode="&#xe3;" horiz-adv-x="922" />
<glyph unicode="&#xe4;" horiz-adv-x="922" />
<glyph unicode="&#xe5;" horiz-adv-x="922" />
<glyph unicode="&#xe6;" horiz-adv-x="1454" />
<glyph unicode="&#xe7;" horiz-adv-x="905" />
<glyph unicode="&#xe8;" horiz-adv-x="909" />
<glyph unicode="&#xe9;" horiz-adv-x="909" />
<glyph unicode="&#xea;" horiz-adv-x="909" />
<glyph unicode="&#xeb;" horiz-adv-x="909" />
<glyph unicode="&#xec;" horiz-adv-x="514" />
<glyph unicode="&#xed;" horiz-adv-x="514" />
<glyph unicode="&#xee;" horiz-adv-x="514" />
<glyph unicode="&#xef;" horiz-adv-x="514" />
<glyph unicode="&#xf0;" horiz-adv-x="1139" />
<glyph unicode="&#xf1;" horiz-adv-x="1108" />
<glyph unicode="&#xf2;" horiz-adv-x="1010" />
<glyph unicode="&#xf3;" horiz-adv-x="1010" />
<glyph unicode="&#xf4;" horiz-adv-x="1010" />
<glyph unicode="&#xf5;" horiz-adv-x="1010" />
<glyph unicode="&#xf6;" horiz-adv-x="1010" />
<glyph unicode="&#xf7;" />
<glyph unicode="&#xf8;" horiz-adv-x="1010" />
<glyph unicode="&#xf9;" horiz-adv-x="1059" />
<glyph unicode="&#xfa;" horiz-adv-x="1059" />
<glyph unicode="&#xfb;" horiz-adv-x="1059" />
<glyph unicode="&#xfc;" horiz-adv-x="1059" />
<glyph unicode="&#xfd;" horiz-adv-x="868" />
<glyph unicode="&#xfe;" horiz-adv-x="1010" />
<glyph unicode="&#xff;" horiz-adv-x="868" />
<glyph unicode="&#x2c6;" horiz-adv-x="1024" />
<glyph unicode="&#x2dc;" horiz-adv-x="1024" />
<glyph unicode="&#x2000;" horiz-adv-x="785" />
<glyph unicode="&#x2001;" horiz-adv-x="1570" />
<glyph unicode="&#x2002;" horiz-adv-x="785" />
<glyph unicode="&#x2003;" horiz-adv-x="1570" />
<glyph unicode="&#x2004;" horiz-adv-x="523" />
<glyph unicode="&#x2005;" horiz-adv-x="392" />
<glyph unicode="&#x2006;" horiz-adv-x="261" />
<glyph unicode="&#x2007;" horiz-adv-x="261" />
<glyph unicode="&#x2008;" horiz-adv-x="196" />
<glyph unicode="&#x2009;" horiz-adv-x="314" />
<glyph unicode="&#x200a;" horiz-adv-x="87" />
<glyph unicode="&#x2010;" horiz-adv-x="670" />
<glyph unicode="&#x2011;" horiz-adv-x="670" />
<glyph unicode="&#x2012;" horiz-adv-x="670" />
<glyph unicode="&#x2013;" horiz-adv-x="1108" />
<glyph unicode="&#x2014;" horiz-adv-x="2048" />
<glyph unicode="&#x2018;" horiz-adv-x="557" />
<glyph unicode="&#x2019;" horiz-adv-x="557" />
<glyph unicode="&#x201a;" horiz-adv-x="557" />
<glyph unicode="&#x201c;" horiz-adv-x="910" />
<glyph unicode="&#x201d;" horiz-adv-x="910" />
<glyph unicode="&#x201e;" horiz-adv-x="910" />
<glyph unicode="&#x2022;" horiz-adv-x="1024" />
<glyph unicode="&#x2026;" horiz-adv-x="2048" />
<glyph unicode="&#x202f;" horiz-adv-x="314" />
<glyph unicode="&#x2039;" horiz-adv-x="631" />
<glyph unicode="&#x203a;" horiz-adv-x="631" />
<glyph unicode="&#x205f;" horiz-adv-x="392" />
<glyph unicode="&#x20ac;" />
<glyph unicode="&#x2122;" horiz-adv-x="1497" />
<glyph unicode="&#x25fc;" horiz-adv-x="1445" d="M0 0v1445h1445v-1445h-1445z" />
</font>
</defs>
</svg>
