<?xml version="1.0" encoding="UTF-8" standalone="no"?>
<!-- Creator: CorelDRAW X6 -->

<svg
   xml:space="preserve"
   width="2.4926963in"
   height="2.555912in"
   version="1.1"
   style="clip-rule:evenodd;fill-rule:evenodd;image-rendering:optimizeQuality;shape-rendering:geometricPrecision;text-rendering:geometricPrecision"
   viewBox="0 0 2492.6963 2555.912"
   id="svg2"
   inkscape:version="1.1.2 (0a00cf5339, 2022-02-04, custom)"
   sodipodi:docname="logo_asics2.svg"
   xmlns:inkscape="http://www.inkscape.org/namespaces/inkscape"
   xmlns:sodipodi="http://sodipodi.sourceforge.net/DTD/sodipodi-0.dtd"
   xmlns="http://www.w3.org/2000/svg"
   xmlns:svg="http://www.w3.org/2000/svg"
   xmlns:rdf="http://www.w3.org/1999/02/22-rdf-syntax-ns#"
   xmlns:cc="http://creativecommons.org/ns#"
   xmlns:dc="http://purl.org/dc/elements/1.1/"><metadata
     id="metadata27"><rdf:RDF><cc:Work
         rdf:about=""><dc:format>image/svg+xml</dc:format><dc:type
           rdf:resource="http://purl.org/dc/dcmitype/StillImage" /></cc:Work></rdf:RDF></metadata><sodipodi:namedview
     pagecolor="#ffffff"
     bordercolor="#666666"
     borderopacity="1"
     objecttolerance="10"
     gridtolerance="10"
     guidetolerance="10"
     inkscape:pageopacity="0"
     inkscape:pageshadow="2"
     inkscape:window-width="1920"
     inkscape:window-height="1009"
     id="namedview25"
     showgrid="false"
     fit-margin-top="0"
     fit-margin-left="0"
     fit-margin-right="0"
     fit-margin-bottom="0"
     inkscape:zoom="0.23838384"
     inkscape:cx="-1235.4025"
     inkscape:cy="113.26271"
     inkscape:window-x="-8"
     inkscape:window-y="-8"
     inkscape:window-maximized="1"
     inkscape:current-layer="svg2"
     inkscape:pagecheckerboard="0"
     inkscape:document-units="in" /><defs
     id="defs4"><style
       type="text/css"
       id="style6"><![CDATA[
    .fil0 {fill:#2D2925}
   ]]></style></defs><path
     id="path825"
     style="fill:#000000;fill-opacity:1;stroke:none;stroke-width:0.096"
     d="M 195.72461 0.23046875 C 185.74061 -0.50153125 175.13231 0.578875 165.82031 2.546875 C 147.77231 6.386875 131.74103 13.202219 116.95703 21.074219 C 105.24503 27.314219 91.612141 36.146344 81.244141 44.402344 C 79.74262 45.62233 78.152124 47.095125 76.646484 47.96875 L 78.652344 51.410156 C 81.916344 49.970156 85.468125 46.898813 88.828125 44.882812 C 92.572125 42.578812 95.837437 40.561219 99.773438 38.449219 C 120.98944 26.929219 154.20572 12.050375 179.26172 17.234375 C 202.49372 21.938375 205.18094 40.274906 198.46094 59.378906 C 194.71694 70.130906 187.03641 83.761156 180.31641 92.785156 L 173.02148 102.29102 C 173.30948 97.395016 177.34202 86.73825 167.16602 77.90625 C 160.63802 72.24225 151.32427 70.417844 140.57227 71.089844 C 123.48427 72.241844 102.74847 80.593266 89.980469 87.697266 C 78.460469 94.129266 69.342016 99.602609 59.166016 107.47461 C 31.806016 128.78661 1.2772969 161.33047 0.029296875 199.73047 C -0.64270313 221.90647 10.397219 234.96253 25.949219 241.39453 C 43.613219 248.69053 66.07725 244.84938 82.78125 238.60938 C 110.14125 228.24137 124.82947 215.66617 144.60547 199.82617 L 162.17383 183.69727 C 165.05383 180.72127 167.64598 178.13059 170.33398 175.05859 L 176.18945 168.5293 C 205.27745 136.2733 270.36477 46.513156 221.88477 8.7851562 C 215.06877 3.5051562 205.70861 0.96246875 195.72461 0.23046875 z M 76.646484 47.96875 L 76.636719 47.953125 L 76.541016 48.050781 C 76.575495 48.031387 76.611911 47.988811 76.646484 47.96875 z M 141.05273 86.929688 L 141.05273 87.025391 C 169.18073 84.145391 165.72528 108.91366 151.61328 126.09766 C 136.82928 144.04966 102.84469 171.12284 79.804688 173.71484 C 64.060687 175.53884 54.460234 164.49867 59.740234 149.13867 C 68.476234 123.60267 110.23673 90.097688 141.05273 86.929688 z "
     transform="scale(10.416667)" /></svg>
