<?xml version="1.0" encoding="UTF-8" standalone="no"?>
<!-- Creator: CorelDRAW X6 -->

<svg
   xml:space="preserve"
   width="7.4410009in"
   height="4.2151408in"
   version="1.1"
   style="clip-rule:evenodd;fill-rule:evenodd;image-rendering:optimizeQuality;shape-rendering:geometricPrecision;text-rendering:geometricPrecision"
   viewBox="0 0 7441.0009 4215.1408"
   id="svg2"
   inkscape:version="1.1.2 (0a00cf5339, 2022-02-04, custom)"
   sodipodi:docname="logo_mizuno.svg"
   xmlns:inkscape="http://www.inkscape.org/namespaces/inkscape"
   xmlns:sodipodi="http://sodipodi.sourceforge.net/DTD/sodipodi-0.dtd"
   xmlns="http://www.w3.org/2000/svg"
   xmlns:svg="http://www.w3.org/2000/svg"
   xmlns:rdf="http://www.w3.org/1999/02/22-rdf-syntax-ns#"
   xmlns:cc="http://creativecommons.org/ns#"
   xmlns:dc="http://purl.org/dc/elements/1.1/"><metadata
     id="metadata30"><rdf:RDF><cc:Work
         rdf:about=""><dc:format>image/svg+xml</dc:format><dc:type
           rdf:resource="http://purl.org/dc/dcmitype/StillImage" /></cc:Work></rdf:RDF></metadata><sodipodi:namedview
     pagecolor="#ffffff"
     bordercolor="#666666"
     borderopacity="1"
     objecttolerance="10"
     gridtolerance="10"
     guidetolerance="10"
     inkscape:pageopacity="0"
     inkscape:pageshadow="2"
     inkscape:window-width="1920"
     inkscape:window-height="1017"
     id="namedview28"
     showgrid="false"
     fit-margin-top="0"
     fit-margin-left="0"
     fit-margin-right="0"
     fit-margin-bottom="0"
     inkscape:zoom="0.95353535"
     inkscape:cx="94.909958"
     inkscape:cy="62.923729"
     inkscape:window-x="-8"
     inkscape:window-y="-8"
     inkscape:window-maximized="1"
     inkscape:current-layer="svg2"
     inkscape:pagecheckerboard="0"
     inkscape:document-units="in" /><defs
     id="defs4"><style
       type="text/css"
       id="style6"><![CDATA[
    .fil0 {fill:#161616}
    .fil1 {fill:white}
   ]]></style></defs><g
     id="Layer_x0020_1"
     style="fill:#000000;fill-opacity:1"
     transform="translate(-545.99978,-3378.9925)"
     inkscape:label="Layer 1"><metadata
       id="CorelCorpID_0Corel-Layer" /><path
       id="path10"
       style="fill:#000000;fill-opacity:1;stroke-width:1.06667"
       d="M 714.33594 0 C 706.94394 2.8799999 698.68918 7.7767189 691.20117 11.136719 C 683.23317 14.784719 675.55258 18.434328 667.39258 21.986328 C 632.92858 36.962327 602.6875 48.192594 566.6875 59.808594 C 549.0235 65.472593 531.45757 70.657203 513.60156 76.033203 C 441.88957 97.633213 361.34432 120.76906 280.32031 120.28906 L 280.32031 120.38477 C 254.11231 120.19277 223.96699 113.56901 240.95898 83.041016 C 248.54298 69.409016 264.28859 52.897 275.80859 42.625 C 277.53659 41.089 280.41559 39.744047 281.18359 37.248047 C 278.49559 37.632047 268.41664 41.855516 265.05664 43.103516 C 259.77664 45.119516 254.11322 47.136344 248.44922 49.152344 C 237.31322 53.280344 226.27331 57.120938 214.94531 60.960938 C 153.12132 81.888937 101.47268 96.671719 38.304688 112.51172 C 31.872688 114.14372 4.5120467 119.71281 1.2480469 121.63281 C 19.680047 122.97682 37.343388 123.36155 55.775391 125.18555 C 103.10339 129.98555 155.71342 140.25745 197.85742 158.68945 C 212.16142 164.92945 223.87198 171.45566 235.58398 178.84766 C 241.34398 182.49566 263.71308 198.62506 268.70508 204.28906 C 280.80108 217.82506 283.20058 216.96015 295.39258 236.16016 C 305.76058 252.38416 306.624 258.43267 312 273.88867 C 312.67201 275.71267 312.19256 276.48047 314.97656 276.48047 C 345.60056 276.48047 380.35239 276.96082 410.40039 276.38477 C 406.65639 257.37677 402.62305 252.0963 402.62305 227.9043 C 402.62305 190.5603 420.57539 159.93833 451.77539 141.98633 C 478.27139 126.72233 516.47969 113.18411 547.67969 102.91211 C 556.12769 100.12811 663.64769 64.992859 667.67969 62.880859 C 669.59969 61.824859 676.99105 51.073531 678.62305 48.769531 L 700.12695 19.490234 C 702.52695 16.226235 704.73642 13.344672 707.23242 9.8886719 C 708.96042 7.488672 713.27994 2.3039999 714.33594 0 z M 387.45703 150.14453 C 385.63303 150.81653 375.45562 160.60989 374.01562 162.33789 C 362.01563 176.73789 350.01612 193.24867 347.32812 213.88867 C 346.84813 213.50467 346.75148 213.50569 346.27148 212.92969 L 327.74414 191.42578 C 325.24814 189.12178 323.61573 186.81572 320.92773 184.51172 C 316.60773 180.95972 294.62481 161.85619 289.63281 160.99219 L 289.53711 160.89648 C 296.44911 160.03248 308.83308 160.89572 316.70508 160.51172 C 325.15308 160.12772 333.60142 159.26498 341.85742 158.20898 L 387.45703 150.14453 z M 432.28711 247.48828 C 428.15911 247.48828 424.60852 249.0243 421.72852 251.9043 C 418.75252 254.7843 417.3125 258.33684 417.3125 262.46484 C 417.3125 266.59284 418.84852 270.14539 421.72852 273.02539 C 424.60852 276.00139 428.15911 277.44141 432.28711 277.44141 C 436.41511 277.44141 439.96766 275.90539 442.84766 273.02539 C 445.82366 270.14539 447.26367 266.59284 447.26367 262.46484 C 447.26367 258.33684 445.72766 254.7843 442.84766 251.9043 C 439.96766 248.9283 436.41511 247.48828 432.28711 247.48828 z M 432.28711 249.2168 C 435.93511 249.2168 439.10331 250.46464 441.69531 253.05664 C 444.28731 255.64864 445.53516 258.81684 445.53516 262.46484 C 445.53516 266.20884 444.28731 269.28105 441.69531 271.87305 C 439.10331 274.46505 435.93511 275.71289 432.28711 275.71289 C 428.63911 275.71289 425.47286 274.46505 422.88086 271.87305 C 420.28886 269.28105 419.03906 266.11284 419.03906 262.46484 C 419.03906 258.72084 420.28886 255.64864 422.88086 253.05664 C 425.47286 250.46464 428.63911 249.2168 432.28711 249.2168 z M 426.7207 253.91992 L 426.7207 269.95312 L 428.73633 269.95312 L 428.73633 262.94531 L 430.08008 262.94531 C 431.52008 262.94531 432.48034 263.13748 433.15234 263.52148 C 433.72834 264.00148 434.68784 265.15363 435.83984 267.26562 L 437.37695 269.95312 L 439.96875 269.95312 L 438.33594 266.97656 C 438.04794 266.49656 437.66389 265.82464 437.08789 265.05664 C 436.51189 264.28864 436.12784 263.71348 435.83984 263.52148 C 435.55184 263.32948 435.16809 263.03995 434.49609 262.75195 C 435.93609 262.55995 436.99177 262.17591 437.75977 261.50391 C 438.81577 260.63991 439.29688 259.58423 439.29688 258.24023 C 439.29687 256.99223 438.81547 256.03197 437.85547 255.16797 C 436.79947 254.30397 435.26494 253.91992 432.96094 253.91992 L 426.7207 253.91992 z M 428.73633 255.45703 L 431.80859 255.45703 C 434.20859 255.45703 435.64861 255.74431 436.22461 256.32031 C 436.80061 256.89631 437.08789 257.56794 437.08789 258.33594 C 437.08789 258.91194 436.99142 259.39305 436.60742 259.87305 C 436.22342 260.35305 435.83967 260.64003 435.26367 260.83203 C 434.49567 261.12003 433.05595 261.2168 430.75195 261.2168 L 428.73633 261.2168 L 428.73633 255.64844 L 428.73633 255.45703 z M 221.69922 275.94141 C 211.48722 276.09741 201.60056 276.91273 194.97656 279.55273 C 191.32856 280.99273 188.44777 282.72033 185.75977 284.73633 C 178.84777 289.82433 173.376 297.2172 168 304.0332 L 164.06445 308.25586 L 164.06445 276.57617 C 153.60045 275.61617 138.71939 276.48077 127.77539 276.38477 C 116.73539 276.38477 106.75125 279.74509 100.03125 285.12109 C 91.87125 291.55309 65.472078 324.48067 58.080078 333.88867 C 55.296078 337.44067 52.416812 340.41675 49.632812 343.96875 L 33.119141 363.83984 C 27.647141 370.55984 22.271422 377.18459 16.607422 383.80859 C 13.727422 387.07259 11.135859 390.62438 8.2558594 393.98438 L 0 404.06445 L 0.28710938 404.16016 C 10.271109 404.83216 22.271266 404.25586 32.447266 404.25586 L 48.576172 404.25586 C 54.048172 404.35186 52.511781 404.92852 58.175781 397.72852 C 71.903781 380.54452 87.840829 362.30403 102.04883 344.83203 C 106.94483 338.88003 111.74463 333.02397 116.64062 327.16797 C 121.82462 321.11997 125.37575 315.26489 133.34375 311.71289 C 139.96775 308.73689 155.52028 308.4482 163.48828 309.4082 L 90.335938 397.82422 C 88.703938 399.84022 86.496047 401.95216 85.248047 404.16016 L 138.14453 404.16016 L 207.74414 319.87305 C 211.48814 315.74505 215.90428 311.71237 223.48828 309.98438 C 227.61628 309.02438 243.84016 308.6402 248.16016 309.4082 L 228.96094 332.73633 C 211.10494 353.66433 192.95922 377.08822 175.19922 397.82422 C 173.56722 399.74422 171.45698 402.14445 170.20898 404.06445 C 186.24098 405.12045 205.72853 404.16016 222.14453 404.16016 C 237.98453 404.16016 249.98319 397.43986 250.36719 380.25586 C 251.23119 346.07986 250.36719 310.65706 250.36719 276.28906 C 242.44719 276.28906 231.91122 275.78541 221.69922 275.94141 z M 355.42773 308.72461 C 334.96774 308.73661 314.87928 308.97591 312.86328 309.50391 L 312.86328 328.12891 L 360.38477 328.32031 C 360.00077 329.18431 354.33666 335.61647 353.47266 336.48047 L 317.2793 376.70508 C 312.6713 384.09708 314.01562 394.08075 314.01562 403.96875 C 318.33562 404.64075 393.12095 404.54416 401.37695 404.16016 L 401.37695 385.44141 L 354.04883 385.34375 L 386.01562 349.34375 C 401.95162 332.25575 400.12861 335.8085 400.22461 309.3125 C 396.72061 308.9285 375.88773 308.71261 355.42773 308.72461 z M 626.32422 308.94727 C 618.86435 308.99793 612.52808 309.24067 610.08008 309.88867 L 610.08008 309.79102 C 593.56808 314.30302 595.29688 326.9768 595.29688 345.2168 C 595.29688 355.3928 593.75914 386.3045 597.11914 393.3125 C 603.83914 407.5205 618.52906 404.35156 636.28906 404.35156 C 643.96906 404.35156 682.4632 404.92875 686.7832 403.96875 C 704.5432 400.12875 701.56641 381.02297 701.56641 368.54297 C 701.56641 358.27097 703.00814 327.07245 699.74414 320.06445 C 693.40814 306.33645 677.37541 309.3125 660.19141 309.3125 C 654.31141 309.3125 638.75734 308.86289 626.32422 308.94727 z M 412.51172 309.02539 L 412.51172 385.05664 L 412.60742 385.15234 C 412.60742 395.80834 420.86383 404.25586 431.42383 404.25586 L 497.75977 404.25586 C 507.16777 404.25586 516 395.80869 516 386.30469 L 516 328.22461 L 535.96875 328.22461 C 542.68875 328.22461 546.52734 331.96809 546.52734 338.49609 L 546.52734 404.16016 L 583.00781 404.06445 L 583.00781 347.42383 C 583.00781 339.93583 584.16066 326.59322 581.47266 320.44922 C 578.88066 314.49722 572.832 309.02539 564 309.02539 L 479.42383 309.02539 L 479.42383 374.88086 C 479.42383 386.68886 468.47925 385.15234 460.03125 385.15234 C 445.43925 385.15234 448.99219 369.98478 448.99219 352.80078 L 448.99219 309.02539 L 412.51172 309.02539 z M 265.24805 309.12109 L 265.24805 323.04102 L 265.24805 404.25586 C 280.60805 404.25586 293.75941 406.94539 300.19141 393.02539 C 302.87941 387.26539 301.72852 373.34483 301.72852 366.04883 L 301.72852 309.3125 L 265.24805 309.12109 z M 648.86328 327.9375 C 653.37528 327.9375 657.88783 328.27219 659.42383 328.99219 C 661.43983 329.95219 664.03338 332.64072 664.60938 335.13672 C 665.47337 338.40072 664.99219 363.83956 664.99219 368.35156 C 664.99219 376.31956 665.37731 382.08047 658.94531 384.48047 C 655.77731 385.63247 640.60716 385.72882 637.53516 384.38477 C 635.42316 383.52077 632.92981 380.73789 632.25781 378.33789 C 631.39381 375.26589 631.87109 349.53709 631.87109 345.12109 C 631.87109 336.38509 631.00839 331.87219 638.40039 328.99219 L 638.30469 328.89648 C 639.84069 328.27248 644.35128 327.9375 648.86328 327.9375 z "
       transform="matrix(10.416667,0,0,10.416667,545.99978,3378.9925)" /></g></svg>
