<?xml version="1.0" encoding="UTF-8" standalone="no"?>
<!-- Creator: CorelDRAW X6 -->

<svg
   xml:space="preserve"
   width="7.8090005in"
   height="4.3298893in"
   version="1.1"
   style="clip-rule:evenodd;fill-rule:evenodd;image-rendering:optimizeQuality;shape-rendering:geometricPrecision;text-rendering:geometricPrecision"
   viewBox="0 0 7809.0005 4329.8893"
   id="svg2"
   inkscape:version="1.1.2 (0a00cf5339, 2022-02-04, custom)"
   sodipodi:docname="logo_russell.svg"
   xmlns:inkscape="http://www.inkscape.org/namespaces/inkscape"
   xmlns:sodipodi="http://sodipodi.sourceforge.net/DTD/sodipodi-0.dtd"
   xmlns="http://www.w3.org/2000/svg"
   xmlns:svg="http://www.w3.org/2000/svg"
   xmlns:rdf="http://www.w3.org/1999/02/22-rdf-syntax-ns#"
   xmlns:cc="http://creativecommons.org/ns#"
   xmlns:dc="http://purl.org/dc/elements/1.1/"><metadata
     id="metadata36"><rdf:RDF><cc:Work
         rdf:about=""><dc:format>image/svg+xml</dc:format><dc:type
           rdf:resource="http://purl.org/dc/dcmitype/StillImage" /></cc:Work></rdf:RDF></metadata><sodipodi:namedview
     pagecolor="#ffffff"
     bordercolor="#666666"
     borderopacity="1"
     objecttolerance="10"
     gridtolerance="10"
     guidetolerance="10"
     inkscape:pageopacity="0"
     inkscape:pageshadow="2"
     inkscape:window-width="1435"
     inkscape:window-height="895"
     id="namedview34"
     showgrid="false"
     fit-margin-top="0"
     fit-margin-left="0"
     fit-margin-right="0"
     fit-margin-bottom="0"
     inkscape:zoom="0.23838384"
     inkscape:cx="234.91525"
     inkscape:cy="197.16102"
     inkscape:window-x="0"
     inkscape:window-y="0"
     inkscape:window-maximized="0"
     inkscape:current-layer="Layer_x0020_1"
     inkscape:pagecheckerboard="0"
     inkscape:document-units="in" /><defs
     id="defs4"><style
       type="text/css"
       id="style6"><![CDATA[
    .fil0 {fill:#1E1D1B}
    .fil1 {fill:#1E1D1B;fill-rule:nonzero}
   ]]></style></defs><g
     id="Layer_x0020_1"
     style="fill:#000000;fill-opacity:1;stroke:none"
     transform="translate(-346,-3335)"
     inkscape:label="Layer 1"><metadata
       id="CorelCorpID_0Corel-Layer" /><path
       id="path11"
       style="fill:#000000;fill-opacity:1;stroke:none;stroke-width:0.096"
       class="fil0"
       d="M 233.56836 0 C 197.37636 97.344001 161.18419 194.78461 124.99219 292.22461 L 125.08789 292.41602 L 290.20703 292.41602 C 319.58303 211.96801 351.07127 134.87964 380.44727 54.431641 C 459.45527 44.063641 466.84784 76.896515 435.83984 133.72852 C 485.66384 132.48052 507.07267 134.78425 537.88867 130.65625 C 608.73667 121.15225 636.28853 -4.5110626 522.14453 0.9609375 C 425.95253 0.5769375 329.76036 0.288 233.56836 0 z M 359.71289 144.19141 L 359.61523 144.28711 C 407.99923 153.59911 427.68022 187.58456 421.82422 218.97656 C 414.91222 243.84056 407.90419 268.80006 400.99219 293.66406 C 445.53619 293.47206 490.07905 293.37559 534.62305 293.18359 C 539.80705 271.67959 545.08719 250.17588 550.36719 228.67188 C 558.04719 188.54387 532.99253 143.42387 450.14453 144.67188 C 420.00053 144.47987 389.85689 144.38341 359.71289 144.19141 z M 564.57617 275.03906 L 564.57617 291.64844 L 566.6875 291.64844 L 566.6875 277.53516 L 571.48828 291.64844 L 573.50391 291.64844 L 578.30469 277.72852 L 578.30469 291.64844 L 580.41602 291.64844 L 580.41602 275.03906 L 577.43945 275.03906 L 573.4082 286.56055 C 573.0242 287.71255 572.73692 288.67205 572.54492 289.24805 C 572.44892 288.67205 572.15939 287.80795 571.77539 286.75195 L 567.83984 275.03906 L 564.57617 275.03906 z M 549.2168 275.13672 L 549.2168 277.05664 L 554.6875 277.05664 L 554.6875 291.64844 L 556.89648 291.64844 L 556.89648 277.05664 L 562.36719 277.05664 L 562.36719 275.13672 L 549.2168 275.13672 z M 174.24023 319.29688 L 174.04883 319.39258 L 174.20898 319.39258 C 174.21924 319.36067 174.22998 319.32878 174.24023 319.29688 z M 174.20898 319.39258 C 167.40324 340.57696 160.59872 361.85497 153.79297 383.03906 C 150.33697 399.93506 163.29636 412.79998 185.56836 415.58398 C 190.46436 415.77598 195.26416 415.58398 200.16016 415.58398 C 224.16016 415.00798 246.23937 405.40798 255.35938 379.58398 L 275.51953 319.39258 C 252.86353 317.85658 238.08078 324.86431 232.80078 340.32031 C 228.96078 352.22431 225.02359 364.03155 221.18359 375.93555 C 213.79159 396.76755 187.20089 393.11955 191.71289 375.93555 C 197.85689 357.02355 204.09623 338.20858 210.24023 319.39258 L 174.20898 319.39258 z M 315.07227 319.29688 C 278.59227 321.50488 264.38344 375.74406 297.02344 377.66406 C 306.33544 377.66406 315.55128 377.56866 324.86328 377.47266 C 332.92728 379.20066 329.56753 389.95177 323.51953 389.75977 C 310.84753 389.75977 298.17591 389.66436 285.50391 389.56836 C 276.19191 389.56836 270.33584 392.64086 267.83984 398.88086 C 266.11184 403.77686 264.47995 408.67236 262.75195 413.56836 C 284.25595 413.56836 305.75967 413.66377 327.26367 413.75977 C 340.70367 412.22377 357.60089 400.9923 359.71289 371.9043 C 358.84889 362.8803 352.70495 357.60045 341.37695 356.06445 L 312.86328 356.06445 C 306.43128 355.00845 307.67903 344.73539 314.20703 343.77539 L 365.95117 343.77539 C 368.54317 335.71139 371.04081 327.55258 373.63281 319.39258 L 373.53516 319.29688 L 315.07227 319.29688 z M 416.64062 319.29688 C 380.16062 321.50488 365.9518 375.74406 398.5918 377.66406 C 407.9038 377.66406 417.11964 377.56866 426.43164 377.47266 C 434.49564 379.20066 431.13589 389.95177 425.08789 389.75977 C 412.41589 389.75977 399.74427 389.66436 387.07227 389.56836 C 377.76027 389.56836 371.9042 392.64086 369.4082 398.88086 C 367.6802 403.77686 366.04831 408.67236 364.32031 413.56836 C 385.82431 413.56836 407.32803 413.66377 428.83203 413.75977 C 442.27203 412.22377 459.1673 400.9923 461.2793 371.9043 C 460.4153 362.8803 454.27136 357.60045 442.94336 356.06445 L 414.43164 356.06445 C 407.99964 355.00845 409.24739 344.73539 415.77539 343.77539 L 467.51953 343.77539 C 470.11153 335.71139 472.60722 327.55258 475.19922 319.39258 L 475.10352 319.29688 L 416.64062 319.29688 z M 34.65625 319.39258 C 23.14805 350.46472 11.543553 381.53528 0.03515625 412.60742 L 52.703125 412.60742 C 62.111125 386.97542 72.095906 362.30388 81.503906 336.67188 C 106.65591 333.40787 109.05597 343.87162 99.167969 362.01562 C 115.00797 361.63162 121.92089 362.40064 131.71289 361.05664 C 154.36889 358.08064 163.2007 317.95169 126.7207 319.67969 C 96.096703 319.58369 65.37625 319.48858 34.65625 319.39258 z M 0.03515625 412.60742 L 0 412.60742 L 0 412.70312 C 0.011799725 412.67127 0.023356324 412.63928 0.03515625 412.60742 z M 496.32031 319.39258 L 465.2168 413.56836 L 553.15234 413.56836 L 561.2168 388.41602 L 505.53516 388.41602 L 509.95117 374.49609 L 556.60742 374.49609 L 562.36719 357.3125 L 515.80859 357.3125 L 519.74414 344.25586 L 572.83203 344.25586 L 581.85547 319.39258 L 496.32031 319.39258 z M 602.40039 320.25586 C 594.91239 342.81586 587.42355 365.28014 579.93555 387.74414 C 577.72755 403.48814 585.21686 413.56883 602.88086 414.04883 L 652.03125 414.04883 C 654.43125 407.42483 656.92783 400.89548 659.42383 394.27148 L 625.05664 394.27148 C 618.81664 393.40748 616.51194 389.37519 618.33594 382.36719 C 625.24794 361.63119 632.06456 340.99186 638.97656 320.25586 L 602.40039 320.25586 z M 692.64062 320.25586 C 685.15262 342.81586 677.66378 365.28014 670.17578 387.74414 C 667.96778 403.48814 675.45514 413.56883 693.11914 414.04883 L 742.27148 414.04883 C 744.67148 407.42483 747.16806 400.89548 749.66406 394.27148 L 715.29688 394.27148 C 709.05687 393.40748 706.75217 389.37519 708.57617 382.36719 C 715.48817 361.63119 722.3048 340.99186 729.2168 320.25586 L 692.64062 320.25586 z M 74.880859 365.47266 L 74.880859 365.56836 C 90.33686 368.54436 96.575953 379.39295 94.751953 389.37695 C 92.543953 397.24895 90.336906 405.21559 88.128906 413.18359 C 102.33691 413.08759 116.54395 413.08819 130.75195 412.99219 C 132.38395 406.17619 134.11214 399.26327 135.74414 392.44727 C 138.24014 379.67927 130.17539 365.28006 103.77539 365.66406 C 94.175391 365.56806 84.480859 365.56866 74.880859 365.47266 z "
       transform="matrix(10.416667,0,0,10.416667,346,3335)" /></g></svg>
