<?xml version="1.0" encoding="UTF-8" standalone="no"?>
<svg
   xmlns:dc="http://purl.org/dc/elements/1.1/"
   xmlns:cc="http://creativecommons.org/ns#"
   xmlns:rdf="http://www.w3.org/1999/02/22-rdf-syntax-ns#"
   xmlns:svg="http://www.w3.org/2000/svg"
   xmlns="http://www.w3.org/2000/svg"
   xmlns:sodipodi="http://sodipodi.sourceforge.net/DTD/sodipodi-0.dtd"
   xmlns:inkscape="http://www.inkscape.org/namespaces/inkscape"
   id="Layer_1"
   data-name="Layer 1"
   width="67.576317"
   height="44.999321"
   viewBox="0 0 67.576317 44.999321"
   version="1.1"
   sodipodi:docname="logo_outdoor.svg"
   inkscape:version="0.92.2 (5c3e80d, 2017-08-06)">
  <metadata
     id="metadata41">
    <rdf:RDF>
      <cc:Work
         rdf:about="">
        <dc:format>image/svg+xml</dc:format>
        <dc:type
           rdf:resource="http://purl.org/dc/dcmitype/StillImage" />
        <dc:title>logo-oc_sports</dc:title>
      </cc:Work>
    </rdf:RDF>
  </metadata>
  <sodipodi:namedview
     pagecolor="#ffffff"
     bordercolor="#000000"
     borderopacity="0.25"
     objecttolerance="10"
     gridtolerance="10"
     guidetolerance="10"
     inkscape:pageopacity="0"
     inkscape:pageshadow="2"
     inkscape:window-width="1920"
     inkscape:window-height="1009"
     id="namedview39"
     showgrid="false"
     fit-margin-top="0"
     fit-margin-left="0"
     fit-margin-right="0"
     fit-margin-bottom="0"
     inkscape:zoom="1.3853659"
     inkscape:cx="102.10757"
     inkscape:cy="22.499288"
     inkscape:window-x="-8"
     inkscape:window-y="-8"
     inkscape:window-maximized="1"
     inkscape:current-layer="Layer_1" />
  <defs
     id="defs4">
    <style
       id="style2">.cls-1{fill:#fff;}</style>
  </defs>
  <title
     id="title6">logo-oc_sports</title>
  <path
     style="fill:#00ff00"
     d="M 34.152489,0.0019861 C 27.472156,-0.06916332 20.73452,1.7949549 20.73452,1.7949549 12.20313,12.867085 20.92202,30.265658 20.92202,30.265658 52.4877,17.567228 53.987703,21.367695 54.048973,21.919955 a 5.62641,5.62641 0 0 0 -1.24414,-3.822266 c -5.5423,-4.63314 -28.820313,4.595703 -28.820313,4.595703 A 22.94132,22.94132 0 0 1 22.826317,7.125033 C 44.397637,0.44932297 48.720848,8.3711268 48.720848,8.3711268 A 13.42551,13.42551 0 0 0 44.646629,3.0390955 C 42.147944,0.78323797 38.160689,0.04467574 34.152489,0.0019861 Z M 54.048973,21.919955 c -0.0011,0.0209 0.0032,0.04159 0.002,0.0625 a 0.34015,0.34015 0 0 0 -0.002,-0.0625 z M 18.256005,2.3555018 A 59.33625,59.33625 0 0 0 5.701317,6.875033 c 0,0 -9.2525337,4.906807 -4.1835938,26.154297 A 56.64333,56.64333 0 0 0 18.95327,31.011752 c 0,0 -8.991976,-17.32263 -0.697265,-28.6562502 z M 10.820458,9.6289392 A 32.45615,32.45615 0 0 0 12.177879,26.853549 30.84772,30.84772 0 0 1 4.3067858,27.886752 C 1.8158758,16.316492 5.2403795,11.695346 5.2403795,11.695345 A 23.99408,23.99408 0 0 1 10.820458,9.6289392 Z M 59.031395,29.744174 c -5.094705,0.159456 -10.662647,2.517931 -16.166016,6.363281 -1.1084,0.78464 -2.627837,1.805254 -3.835937,2.490234 -14.136,8.19513 -25.904297,-5.15625 -25.904297,-5.15625 9.96371,12.79074 18.594829,12.789669 24.261719,10.199219 4.12246,-1.88065 8.15748,-6.102011 15.34375,-9.962891 9.26616,-4.98183 14.845703,-1.693359 14.845703,-1.693359 C 64.974863,30.34508 62.088218,29.6485 59.031395,29.744174 Z"
     id="path8"
     inkscape:connector-curvature="0" />
</svg>
