<?xml version="1.0" encoding="UTF-8" standalone="no"?>
<!-- Creator: CorelDRAW X6 -->

<svg
   xmlns:dc="http://purl.org/dc/elements/1.1/"
   xmlns:cc="http://creativecommons.org/ns#"
   xmlns:rdf="http://www.w3.org/1999/02/22-rdf-syntax-ns#"
   xmlns:svg="http://www.w3.org/2000/svg"
   xmlns="http://www.w3.org/2000/svg"
   xmlns:sodipodi="http://sodipodi.sourceforge.net/DTD/sodipodi-0.dtd"
   xmlns:inkscape="http://www.inkscape.org/namespaces/inkscape"
   xml:space="preserve"
   width="7.1150002in"
   height="3.6980002in"
   version="1.1"
   style="clip-rule:evenodd;fill-rule:evenodd;image-rendering:optimizeQuality;shape-rendering:geometricPrecision;text-rendering:geometricPrecision"
   viewBox="0 0 7115.0002 3698.0002"
   id="svg2"
   inkscape:version="0.91 r13725"
   sodipodi:docname="Majestic_Logo_5A68AC15955C2.svg"><metadata
     id="metadata41"><rdf:RDF><cc:Work
         rdf:about=""><dc:format>image/svg+xml</dc:format><dc:type
           rdf:resource="http://purl.org/dc/dcmitype/StillImage" /><dc:title></dc:title></cc:Work></rdf:RDF></metadata><sodipodi:namedview
     pagecolor="#ffffff"
     bordercolor="#666666"
     borderopacity="1"
     objecttolerance="10"
     gridtolerance="10"
     guidetolerance="10"
     inkscape:pageopacity="0"
     inkscape:pageshadow="2"
     inkscape:window-width="1310"
     inkscape:window-height="753"
     id="namedview39"
     showgrid="false"
     fit-margin-top="0"
     fit-margin-left="0"
     fit-margin-right="0"
     fit-margin-bottom="0"
     inkscape:zoom="0.23838384"
     inkscape:cx="325.62"
     inkscape:cy="64.260022"
     inkscape:window-x="0"
     inkscape:window-y="0"
     inkscape:window-maximized="0"
     inkscape:current-layer="svg2" /><defs
     id="defs4"><style
       type="text/css"
       id="style6"><![CDATA[
    .str0 {stroke:#2D2925;stroke-width:111.11}
    .fil2 {fill:#161616}
    .fil1 {fill:white}
    .fil0 {fill:#2D2925}
   ]]></style></defs><path
     id="polygon15"
     style="color:#000000;font-style:normal;font-variant:normal;font-weight:normal;font-stretch:normal;font-size:medium;line-height:normal;font-family:sans-serif;text-indent:0;text-align:start;text-decoration:none;text-decoration-line:none;text-decoration-style:solid;text-decoration-color:#000000;letter-spacing:normal;word-spacing:normal;text-transform:none;direction:ltr;block-progression:tb;writing-mode:lr-tb;baseline-shift:baseline;text-anchor:start;white-space:normal;clip-rule:nonzero;display:inline;overflow:visible;visibility:visible;opacity:1;isolation:auto;mix-blend-mode:normal;color-interpolation:sRGB;color-interpolation-filters:linearRGB;solid-color:#000000;solid-opacity:1;fill:#2d2925;fill-opacity:1;fill-rule:nonzero;stroke:none;stroke-width:111.11000061;stroke-linecap:butt;stroke-linejoin:miter;stroke-miterlimit:4;stroke-dasharray:none;stroke-dashoffset:0;stroke-opacity:1;color-rendering:auto;image-rendering:auto;shape-rendering:auto;text-rendering:auto;enable-background:accumulate"
     d="m 4750.4199,20.4453 -219.7578,307.4688 -118.6973,-147.0039 -101.7773,74.3769 -2457.2559,3380.2676 1187.9844,0 11.5899,-5.6973 71.2695,-35.0312 2014.0996,-2754.4453 53.5977,-83.8887 17.4609,-132.9668 -21.4746,-30.0625 -307.4102,-509.7051 -29.7929,-63.3125 -99.836,0 z m 41.7266,132.7031 302.3945,501.3887 -1.4746,-2.0625 -8.5391,65.0332 -38.4023,60.1113 -1995.9004,2729.5547 -35.1387,17.2715 -944.0195,0 2318.7461,-3189.7324 2.2227,-1.6231 139.4746,172.7344 63.5586,-76.9394 197.0781,-275.7364 z M 3366,1075 l 3,-2 3,-2 3,-2 -2,-43 -654,-1014 -3,-2 -25,-10 -40,54 -2609,3570 -30,42 -12,14 71,17 1317,0 95,-45 z m 2073,-193 -2,-2 -3,-3 -2073,2816 3085,5 669,0 -4,-40 z"
     inkscape:connector-curvature="0" /></svg>