<?xml version="1.0" encoding="UTF-8" standalone="no"?>
<!-- Creator: CorelDRAW X6 -->

<svg
   xml:space="preserve"
   width="4.9423571in"
   height="3.059in"
   version="1.1"
   style="clip-rule:evenodd;fill-rule:evenodd;image-rendering:optimizeQuality;shape-rendering:geometricPrecision;text-rendering:geometricPrecision"
   viewBox="0 0 4942.3571 3059"
   id="svg2"
   inkscape:version="1.1.2 (0a00cf5339, 2022-02-04, custom)"
   sodipodi:docname="logo_russell_2.svg"
   xmlns:inkscape="http://www.inkscape.org/namespaces/inkscape"
   xmlns:sodipodi="http://sodipodi.sourceforge.net/DTD/sodipodi-0.dtd"
   xmlns="http://www.w3.org/2000/svg"
   xmlns:svg="http://www.w3.org/2000/svg"
   xmlns:rdf="http://www.w3.org/1999/02/22-rdf-syntax-ns#"
   xmlns:cc="http://creativecommons.org/ns#"
   xmlns:dc="http://purl.org/dc/elements/1.1/"><metadata
     id="metadata36"><rdf:RDF><cc:Work
         rdf:about=""><dc:format>image/svg+xml</dc:format><dc:type
           rdf:resource="http://purl.org/dc/dcmitype/StillImage" /></cc:Work></rdf:RDF></metadata><sodipodi:namedview
     pagecolor="#ffffff"
     bordercolor="#666666"
     borderopacity="1"
     objecttolerance="10"
     gridtolerance="10"
     guidetolerance="10"
     inkscape:pageopacity="0"
     inkscape:pageshadow="2"
     inkscape:window-width="1276"
     inkscape:window-height="667"
     id="namedview34"
     showgrid="false"
     fit-margin-top="0"
     fit-margin-left="0"
     fit-margin-right="0"
     fit-margin-bottom="0"
     inkscape:zoom="0.23838384"
     inkscape:cx="-518.07203"
     inkscape:cy="79.703389"
     inkscape:window-x="0"
     inkscape:window-y="0"
     inkscape:window-maximized="0"
     inkscape:current-layer="svg2"
     inkscape:pagecheckerboard="0"
     inkscape:document-units="in" /><defs
     id="defs4"><style
       type="text/css"
       id="style6"><![CDATA[
    .fil0 {fill:#1E1D1B}
    .fil1 {fill:#1E1D1B;fill-rule:nonzero}
   ]]></style></defs><path
     id="path11"
     style="fill:#000000;fill-opacity:1;stroke:none;stroke-width:0.096"
     class="fil0"
     d="M 108.57617 0 C 72.384172 97.344 36.192 194.78461 0 292.22461 L 0.095703125 292.41602 L 165.2168 292.41602 C 194.5928 211.96802 226.07908 134.87964 255.45508 54.431641 C 334.46308 44.063641 341.85566 76.896516 310.84766 133.72852 C 360.67166 132.48052 382.08048 134.78425 412.89648 130.65625 C 483.74448 121.15225 511.29634 -4.5110625 397.15234 0.9609375 C 300.96034 0.5769375 204.76817 0.288 108.57617 0 z M 234.7207 144.19141 L 234.62305 144.28711 C 283.00705 153.59911 302.68803 187.58456 296.83203 218.97656 C 289.92003 243.84056 282.912 268.80006 276 293.66406 C 320.544 293.47206 365.08881 293.37559 409.63281 293.18359 C 414.81681 271.67959 420.09695 250.17587 425.37695 228.67188 C 433.05695 188.54388 408.00034 143.42388 325.15234 144.67188 C 295.00834 144.47988 264.8647 144.38341 234.7207 144.19141 z M 439.58398 275.03906 L 439.58398 291.64844 L 441.69531 291.64844 L 441.69531 277.53516 L 446.49609 291.64844 L 448.51172 291.64844 L 453.3125 277.72852 L 453.3125 291.64844 L 455.42383 291.64844 L 455.42383 275.03906 L 452.44727 275.03906 L 448.41602 286.56055 C 448.03202 287.71255 447.74473 288.67205 447.55273 289.24805 C 447.45673 288.67205 447.1672 287.80795 446.7832 286.75195 L 442.84766 275.03906 L 439.58398 275.03906 z M 424.22461 275.13672 L 424.22461 277.05664 L 429.69531 277.05664 L 429.69531 291.64844 L 431.9043 291.64844 L 431.9043 277.05664 L 437.37695 277.05664 L 437.37695 275.13672 L 424.22461 275.13672 z "
     transform="scale(10.416667)" /></svg>
