<?xml version="1.0" encoding="UTF-8" standalone="no"?>
<svg
   width="178.55498"
   height="115.78647"
   id="svg2"
   version="1.1"
   inkscape:version="1.1.2 (0a00cf5339, 2022-02-04, custom)"
   sodipodi:docname="logo_umbro.svg"
   xmlns:inkscape="http://www.inkscape.org/namespaces/inkscape"
   xmlns:sodipodi="http://sodipodi.sourceforge.net/DTD/sodipodi-0.dtd"
   xmlns="http://www.w3.org/2000/svg"
   xmlns:svg="http://www.w3.org/2000/svg"
   xmlns:rdf="http://www.w3.org/1999/02/22-rdf-syntax-ns#"
   xmlns:cc="http://creativecommons.org/ns#"
   xmlns:dc="http://purl.org/dc/elements/1.1/">
  <sodipodi:namedview
     pagecolor="#ffffff"
     bordercolor="#666666"
     borderopacity="1"
     objecttolerance="10"
     gridtolerance="10"
     guidetolerance="10"
     inkscape:pageopacity="0"
     inkscape:pageshadow="2"
     inkscape:window-width="1378"
     inkscape:window-height="721"
     id="namedview33"
     showgrid="false"
     fit-margin-top="0"
     fit-margin-left="0"
     fit-margin-right="0"
     fit-margin-bottom="0"
     inkscape:zoom="1.18"
     inkscape:cx="-79.237288"
     inkscape:cy="70.338983"
     inkscape:window-x="0"
     inkscape:window-y="0"
     inkscape:window-maximized="0"
     inkscape:current-layer="svg2"
     inkscape:pagecheckerboard="0" />
  <metadata
     id="metadata8">image/svg+xml<rdf:RDF>
  <cc:Work
     rdf:about="">
    <dc:format>image/svg+xml</dc:format>
    <dc:type
       rdf:resource="http://purl.org/dc/dcmitype/StillImage" />
    <dc:title>background</dc:title>
  </cc:Work>
</rdf:RDF>
</metadata>
  <defs
     id="defs5">
    <clipPath
       id="clipPath16"
       clipPathUnits="userSpaceOnUse">
      <path
         id="path18"
         d="m -212.42,1237.03 595.28002,0 0,-841.88999 -595.28002,0 0,841.88999 z"
         inkscape:connector-curvature="0" />
    </clipPath>
  </defs>
  <title
     id="title9">background</title>
  <title
     id="title11">Layer 1</title>
  <path
     id="path22"
     style="fill:#000000;fill-opacity:1;fill-rule:nonzero;stroke-width:0.509764"
     d="M 89.277344 0 C 88.108711 0 86.939722 0.1851062 86.052734 0.5546875 L 2.5996094 35.4375 C 1.0601207 36.115461 0 37.659943 0 39.449219 C -8.8817842e-16 41.238495 1.0601207 42.768104 2.5996094 43.451172 L 86.052734 78.349609 C 87.82671 79.088772 90.733075 79.088772 92.501953 78.349609 L 175.94922 43.451172 C 177.48362 42.768104 178.55469 41.238495 178.55469 39.449219 C 178.55469 37.659943 177.509 36.125262 175.97461 35.447266 L 92.501953 0.5546875 C 91.614965 0.1851062 90.445977 0 89.277344 0 z M 89.271484 10.291016 C 90.136809 10.291016 91.00256 10.427848 91.660156 10.703125 L 158.69922 38.730469 C 159.64738 39.1281 159.64738 39.764514 158.69922 40.162109 L 91.660156 68.205078 C 90.344964 68.745428 88.199958 68.745428 86.884766 68.205078 L 19.849609 40.162109 C 18.906547 39.764509 18.906547 39.128095 19.849609 38.730469 L 86.884766 10.703125 C 87.542362 10.427847 88.40616 10.291016 89.271484 10.291016 z M 89.279297 20.574219 C 88.718556 20.574219 88.15867 20.662022 87.730469 20.837891 L 47.820312 37.527344 C 47.09135 37.858705 46.572266 38.587718 46.572266 39.449219 C 46.572266 40.300515 47.09135 41.029215 47.820312 41.355469 L 87.730469 58.044922 C 88.586872 58.406865 89.973675 58.406865 90.830078 58.044922 L 130.73438 41.355469 C 131.46334 41.029215 131.97266 40.305617 131.97266 39.449219 C 131.97266 38.587718 131.46843 37.859462 130.73438 37.533203 L 130.73438 37.527344 L 90.830078 20.837891 C 90.401877 20.662022 89.840037 20.574219 89.279297 20.574219 z M 89.275391 30.876953 C 89.530272 30.876953 89.784044 30.915728 89.972656 30.992188 L 109.70117 39.230469 C 109.97645 39.347704 109.97645 39.535109 109.70117 39.652344 L 89.972656 47.90625 C 89.595431 48.059205 88.953396 48.059205 88.576172 47.90625 L 68.859375 39.652344 C 68.579006 39.535109 68.579006 39.347704 68.859375 39.230469 L 88.576172 30.992188 C 88.764784 30.915728 89.020509 30.876953 89.275391 30.876953 z M 87.984375 84.042969 L 87.984375 115.23047 L 95.320312 115.23047 L 95.320312 111.12305 L 95.412109 111.12305 C 96.431637 113.69734 99.669542 115.77148 103.33984 115.77148 C 110.19106 115.77148 113.86133 110.10731 113.86133 103.29688 C 113.86133 97.716116 110.36053 91.666572 103.99609 91.664062 L 103.99414 91.664062 L 103.99219 91.664062 C 100.81298 91.66483 98.119057 92.592424 96.085938 95.150391 L 95.994141 95.150391 L 95.994141 84.042969 L 87.984375 84.042969 z M 77.060547 91.673828 L 77.056641 91.679688 C 73.789055 91.679688 70.735636 93.004903 68.875 96.109375 C 67.641372 93.096686 64.937937 91.679688 61.660156 91.679688 C 58.040833 91.679688 54.855327 93.132921 53.259766 96.466797 L 53.183594 96.466797 L 53.183594 92.214844 L 45.929688 92.214844 L 45.929688 115.26172 L 53.892578 115.26172 L 53.892578 105.52539 C 53.892578 100.57051 55.564151 98.316406 58.398438 98.316406 C 60.651593 98.316406 61.583984 100.26425 61.583984 102.86914 L 61.583984 115.26172 L 69.546875 115.26172 L 69.546875 105.52539 C 69.546875 100.57051 71.228644 98.316406 74.052734 98.316406 C 76.310987 98.316406 77.240234 100.26425 77.240234 102.86914 L 77.240234 115.26172 L 85.207031 115.26172 L 85.207031 101.67578 C 85.207031 95.436275 83.69767 91.673828 77.060547 91.673828 z M 129.86719 91.673828 C 126.43138 91.673828 124.43886 93.534899 123.0625 96.460938 L 123.0625 96.466797 L 122.9707 96.466797 L 122.9707 92.214844 L 115.7207 92.214844 L 115.7207 115.26172 L 123.68359 115.26172 L 123.68359 105.52539 C 123.68359 101.00886 125.76353 98.316406 129.47461 98.316406 C 130.40237 98.316406 131.2685 98.316627 132.15039 98.566406 L 132.15039 91.873047 C 131.45711 91.765981 130.64712 91.673828 129.86719 91.673828 z M 146.02148 91.679688 C 138.40561 91.679688 132.61523 96.110162 132.61523 103.76172 C 132.61523 111.3776 138.41072 115.78711 146.02148 115.78711 C 153.62207 115.78711 159.41406 111.3776 159.41406 103.76172 C 159.41406 96.110162 153.61696 91.679687 146.02148 91.679688 z M 19.115234 92.214844 L 19.115234 105.25977 C 19.115234 112.64625 24.316041 115.78711 31.044922 115.78711 C 37.763609 115.78711 42.96875 112.64625 42.96875 105.25977 L 42.96875 92.214844 L 35.015625 92.214844 L 35.015625 104.61328 C 35.015625 107.45267 34.311317 110 31.048828 110 C 27.765949 110 27.0625 107.45267 27.0625 104.61328 L 27.0625 92.214844 L 19.121094 92.214844 L 19.115234 92.214844 z M 145.93555 96.888672 C 149.47331 96.888672 151.4707 99.913408 151.4707 103.45117 C 151.4707 107.72296 149.37136 110.5918 145.93555 110.5918 C 142.92284 110.5918 140.36328 107.71687 140.36328 103.82227 C 140.36328 99.805326 142.61698 96.888672 145.93555 96.888672 z M 100.8418 97.556641 C 104.0839 97.556641 105.89258 100.32601 105.89258 103.52734 C 105.89258 107.36585 103.98704 110 100.8418 110 C 98.068681 110 95.753906 107.37011 95.753906 103.84766 C 95.753906 100.23852 97.783219 97.556641 100.8418 97.556641 z " />
</svg>
