<?xml version="1.0" encoding="UTF-8" standalone="no"?>
<!-- Generator: Adobe Illustrator 12.0.1, SVG Export Plug-In . SVG Version: 6.00 Build 51448)  -->

<svg
   version="1.0"
   id="Layer_1"
   width="561.76"
   height="373.939"
   viewBox="0 0 561.76 373.939"
   overflow="visible"
   enable-background="new 0 0 561.76 373.939"
   xml:space="preserve"
   inkscape:version="1.1.2 (0a00cf5339, 2022-02-04, custom)"
   sodipodi:docname="logo_adidas.svg"
   xmlns:inkscape="http://www.inkscape.org/namespaces/inkscape"
   xmlns:sodipodi="http://sodipodi.sourceforge.net/DTD/sodipodi-0.dtd"
   xmlns="http://www.w3.org/2000/svg"
   xmlns:svg="http://www.w3.org/2000/svg"
   xmlns:rdf="http://www.w3.org/1999/02/22-rdf-syntax-ns#"
   xmlns:cc="http://creativecommons.org/ns#"
   xmlns:dc="http://purl.org/dc/elements/1.1/"><metadata
     id="metadata38"><rdf:RDF><cc:Work
         rdf:about=""><dc:format>image/svg+xml</dc:format><dc:type
           rdf:resource="http://purl.org/dc/dcmitype/StillImage" /></cc:Work></rdf:RDF></metadata><defs
     id="defs36" /><sodipodi:namedview
     pagecolor="#ffffff"
     bordercolor="#666666"
     borderopacity="1"
     objecttolerance="10"
     gridtolerance="10"
     guidetolerance="10"
     inkscape:pageopacity="0"
     inkscape:pageshadow="2"
     inkscape:window-width="1860"
     inkscape:window-height="994"
     id="namedview34"
     showgrid="false"
     inkscape:zoom="0.5180148"
     inkscape:cx="226.8275"
     inkscape:cy="186.28811"
     inkscape:window-x="0"
     inkscape:window-y="0"
     inkscape:window-maximized="0"
     inkscape:current-layer="Layer_1"
     inkscape:pagecheckerboard="0" /><path
     id="path8"
     style="fill:#000000;fill-opacity:1;stroke:none"
     d="M 336.94922 0.25 L 305.36914 19.25 L 255.21094 49.400391 L 305.36914 132.91992 L 371.58008 243.30078 L 413.63086 243.30078 L 482.9707 243.30078 L 413.63086 127.76953 L 336.94922 0.25 z M 238.57031 86.720703 L 159.43945 134.35938 L 156.74023 135.96094 L 159.43945 140.43945 L 221.25 243.30078 L 305.36914 243.30078 L 332.56055 243.30078 L 305.36914 197.85938 L 238.57031 86.720703 z M 140.17969 173.28906 L 58.349609 222.43945 L 70.849609 243.30078 L 159.43945 243.30078 L 182.24023 243.30078 L 159.43945 205.28906 L 140.17969 173.28906 z M 542.58984 232.32227 C 540.13884 232.40127 537.78016 232.99172 535.41016 234.26172 C 533.05016 235.53172 531.26992 237.30016 529.91992 239.66016 C 528.57092 242.03016 527.98047 244.47961 527.98047 247.09961 C 527.98047 249.54961 528.56992 252.00037 529.91992 254.35938 C 531.18992 256.71938 532.96008 258.49977 535.33008 259.75977 C 537.69108 261.11977 540.05984 261.71094 542.58984 261.71094 L 542.66992 261.71094 C 545.21092 261.71094 547.57141 261.11977 549.94141 259.75977 C 552.30041 258.50077 554.07984 256.71938 555.33984 254.35938 C 556.68984 251.99937 557.28906 249.54961 557.28906 247.09961 C 557.28906 244.47861 556.68984 242.02916 555.33984 239.66016 C 554.07984 237.30016 552.21961 235.53272 549.84961 234.26172 C 547.48961 232.99272 545.11992 232.32227 542.66992 232.32227 L 542.58984 232.32227 z M 542.58984 234.76953 L 542.66992 234.76953 C 544.69992 234.76953 546.73092 235.35814 548.66992 236.36914 C 550.61092 237.46914 552.12947 238.99069 553.23047 240.92969 C 554.32947 242.87969 554.83984 244.89961 554.83984 247.09961 C 554.83984 249.20961 554.32947 251.22869 553.23047 253.17969 C 552.21947 255.03069 550.69977 256.56039 548.75977 257.65039 C 546.80977 258.75039 544.78992 259.25977 542.66992 259.25977 L 542.58984 259.25977 C 540.48084 259.25977 538.44977 258.75139 536.50977 257.65039 C 534.57077 256.56039 533.05125 255.03069 532.03125 253.17969 C 530.94125 251.22969 530.34961 249.20961 530.34961 247.09961 C 530.34961 244.89961 530.94125 242.87969 532.03125 240.92969 C 533.13025 238.98969 534.65061 237.46914 536.59961 236.36914 C 538.53961 235.35814 540.55984 234.76953 542.58984 234.76953 z M 536.16992 239.33008 L 536.16992 255.19922 L 538.70898 255.19922 L 538.70898 248.44922 L 540.23047 248.44922 L 542.25 249.03906 C 542.42 249.11906 542.50984 249.20906 542.58984 249.28906 C 543.26884 249.87906 544.02922 251.06992 544.94922 252.66992 L 546.38867 255.19922 L 549.42969 255.19922 L 547.57031 252.08008 L 545.21094 248.94922 C 544.87094 248.61922 544.44938 248.35938 543.85938 248.10938 C 545.20937 248.03038 546.30939 247.51992 547.15039 246.66992 C 548.00039 245.82992 548.41992 244.81086 548.41992 243.63086 C 548.41992 242.79086 548.17016 242.03061 547.66016 241.34961 C 547.15016 240.58961 546.46991 240.09008 545.62891 239.83008 C 544.94891 239.58008 543.94084 239.41016 542.58984 239.41016 C 542.33984 239.41016 541.9982 239.33008 541.6582 239.33008 L 536.16992 239.33008 z M 538.71094 241.51953 L 541.66016 241.51953 L 542.58984 241.51953 C 543.34884 241.60953 543.85922 241.6883 544.19922 241.7793 C 544.69922 241.9383 545.03906 242.19914 545.28906 242.61914 C 545.54906 242.95914 545.63086 243.38063 545.63086 243.89062 C 545.63086 244.56063 545.37914 245.14812 544.86914 245.57812 C 544.44914 245.99812 543.69084 246.16805 542.58984 246.24805 L 541.83008 246.24805 L 538.71094 246.24805 L 538.71094 241.51953 z M 186.80078 243.30078 L 186.80078 281.38086 C 178.95078 276.32086 169.65945 273.35938 159.68945 273.35938 L 159.43945 273.35938 C 131.90945 273.53037 109.5293 295.99053 109.5293 323.51953 C 109.5293 351.04953 131.90945 373.51945 159.43945 373.68945 L 159.68945 373.68945 C 169.65945 373.68945 178.95078 370.72916 186.80078 365.66016 L 186.80078 370.90039 L 209.84961 370.90039 L 209.84961 323.51953 L 209.84961 243.30078 L 186.80078 243.30078 z M 332.65039 243.30078 L 332.65039 281.38086 C 324.79039 276.32086 315.58914 273.35938 305.61914 273.35938 L 305.36914 273.35938 C 277.83914 273.53037 255.46094 295.99053 255.46094 323.51953 C 255.46094 351.04953 277.83914 373.51945 305.36914 373.68945 L 305.61914 373.68945 C 315.58814 373.68945 324.79039 370.72916 332.65039 365.66016 L 332.65039 370.90039 L 355.69922 370.90039 L 355.69922 323.51953 L 355.69922 243.30078 L 332.65039 243.30078 z M 221.33984 243.80078 L 221.33984 265.83984 L 246.41992 265.83984 L 246.41992 243.80078 L 221.33984 243.80078 z M 515.99023 272.26172 C 502.56023 272.26172 492.43187 275.80923 485.67188 282.99023 C 480.27088 288.73023 477.65039 295.74172 477.65039 304.01172 C 477.65039 314.32272 482.71953 321.75055 493.01953 326.56055 C 496.90053 328.42055 506.36163 331.04195 521.39062 334.25195 C 531.45063 336.45195 536.50977 339.57102 536.50977 343.54102 C 536.50977 345.90002 535.50078 347.93102 533.30078 349.79102 C 530.51078 352.15102 526.29086 353.3418 520.63086 353.3418 C 513.12086 353.3418 507.79992 352.07109 504.66992 349.62109 C 501.54992 347.26009 499.94141 343.79139 499.94141 339.40039 L 474.26953 339.40039 C 474.26953 345.23039 475.50094 350.30916 477.96094 354.66016 C 480.42094 359.01016 484.11178 362.62023 489.05078 365.49023 C 496.90078 369.97023 507.21094 372.25195 519.96094 372.25195 C 528.49094 372.25195 536.08984 370.82125 542.58984 368.03125 C 543.94084 367.44125 545.12063 366.85188 546.39062 366.17188 C 556.44163 360.60087 561.50977 351.72931 561.50977 339.57031 C 561.50977 329.60931 556.3617 322.16953 545.9707 317.26953 C 545.1207 316.84953 543.94084 316.42992 542.58984 315.91992 C 537.44084 314.14892 529.07992 311.94992 517.41992 309.41992 C 507.20992 307.13992 502.05078 304.1807 502.05078 300.4707 C 502.05078 297.8507 502.98077 295.7417 504.75977 294.2207 C 507.11977 292.1907 511.33992 291.17969 517.41992 291.17969 C 523.58992 291.17969 528.05969 292.53139 530.67969 295.15039 C 532.29069 296.76039 533.46947 299.61969 534.23047 303.67969 L 542.58984 303.67969 L 558.7207 303.67969 C 558.7207 297.68869 557.49931 292.52947 555.07031 288.23047 C 552.63931 283.92047 549.01117 280.4518 544.20117 277.8418 C 543.69217 277.5018 543.1818 277.24023 542.5918 276.99023 C 535.9218 273.87023 527.05023 272.26172 515.99023 272.26172 z M 50.070312 273.35938 C 22.630312 273.53037 0.25 295.99053 0.25 323.51953 C 0.25 351.04953 22.630312 373.51945 50.070312 373.68945 L 50.330078 373.68945 C 60.290078 373.68945 69.579453 370.72916 77.439453 365.66016 L 77.439453 370.90039 L 100.49023 370.90039 L 100.49023 323.51953 L 100.49023 275.89062 L 77.439453 275.89062 L 77.439453 281.38086 C 69.579453 276.32086 60.290078 273.35938 50.330078 273.35938 L 50.070312 273.35938 z M 221.33984 273.35938 L 221.33984 370.89844 L 246.41992 370.89844 L 246.41992 273.35938 L 221.33984 273.35938 z M 413.62891 273.35938 C 386.09891 273.53037 363.71875 295.99053 363.71875 323.51953 C 363.71875 351.04953 386.09891 373.51945 413.62891 373.68945 L 413.88867 373.68945 C 423.84867 373.68945 433.13916 370.72916 440.91016 365.66016 L 440.91016 370.90039 L 463.9707 370.90039 L 463.9707 323.51953 L 463.9707 275.89062 L 440.91016 275.89062 L 440.91016 281.38086 C 433.13916 276.32086 423.84867 273.35938 413.88867 273.35938 L 413.62891 273.35938 z M 50.070312 295.99023 L 50.330078 295.99023 C 63.760078 295.99023 74.989453 305.61906 77.439453 318.28906 L 77.439453 328.75977 C 74.989453 341.42977 63.760078 351.13967 50.330078 351.13867 L 50.070312 351.13867 C 35.040312 350.96867 22.800781 338.63953 22.800781 323.51953 C 22.800781 308.41053 35.040312 296.08023 50.070312 295.99023 z M 159.43945 295.99023 L 159.68945 295.99023 C 173.11945 295.99023 184.35078 305.61906 186.80078 318.28906 L 186.80078 328.75977 C 184.35078 341.42977 173.11945 351.13967 159.68945 351.13867 L 159.43945 351.13867 C 144.31945 350.96867 132.08008 338.63953 132.08008 323.51953 C 132.08008 308.41053 144.31945 296.08023 159.43945 295.99023 z M 305.36914 295.99023 L 305.61914 295.99023 C 318.95914 295.99023 330.20039 305.61906 332.65039 318.28906 L 332.65039 328.75977 C 330.20039 341.42977 318.95914 351.13967 305.61914 351.13867 L 305.36914 351.13867 C 290.24914 350.96867 278.00977 338.63953 278.00977 323.51953 C 278.00977 308.41053 290.24914 296.08023 305.36914 295.99023 z M 413.62891 295.99023 L 413.88867 295.99023 C 427.22967 295.99023 438.46016 305.61906 440.91016 318.28906 L 440.91016 328.75977 C 438.46016 341.42977 427.22967 351.13967 413.88867 351.13867 L 413.62891 351.13867 C 398.51891 350.96867 386.26953 338.63953 386.26953 323.51953 C 386.26953 308.41053 398.51891 296.08023 413.62891 295.99023 z " /></svg>
