<?xml version="1.0" encoding="UTF-8" standalone="no"?>
<!-- Created with Inkscape (http://www.inkscape.org/) -->

<svg
   xmlns:dc="http://purl.org/dc/elements/1.1/"
   xmlns:cc="http://creativecommons.org/ns#"
   xmlns:rdf="http://www.w3.org/1999/02/22-rdf-syntax-ns#"
   xmlns:svg="http://www.w3.org/2000/svg"
   xmlns="http://www.w3.org/2000/svg"
   xmlns:sodipodi="http://sodipodi.sourceforge.net/DTD/sodipodi-0.dtd"
   xmlns:inkscape="http://www.inkscape.org/namespaces/inkscape"
   version="1.0"
   width="451.0528"
   height="351.21362"
   id="svg2347"
   inkscape:version="0.91 r13725"
   sodipodi:docname="Puma_Logo.svg">
  <metadata
     id="metadata15">
    <rdf:RDF>
      <cc:Work
         rdf:about="">
        <dc:format>image/svg+xml</dc:format>
        <dc:type
           rdf:resource="http://purl.org/dc/dcmitype/StillImage" />
        <dc:title></dc:title>
      </cc:Work>
    </rdf:RDF>
  </metadata>
  <sodipodi:namedview
     pagecolor="#ffffff"
     bordercolor="#666666"
     borderopacity="1"
     objecttolerance="10"
     gridtolerance="10"
     guidetolerance="10"
     inkscape:pageopacity="0"
     inkscape:pageshadow="2"
     inkscape:window-width="1183"
     inkscape:window-height="789"
     id="namedview13"
     showgrid="false"
     fit-margin-top="0"
     fit-margin-left="0"
     fit-margin-right="0"
     fit-margin-bottom="0"
     inkscape:zoom="0.30103705"
     inkscape:cx="-114.68916"
     inkscape:cy="83.54788"
     inkscape:window-x="0"
     inkscape:window-y="0"
     inkscape:window-maximized="0"
     inkscape:current-layer="svg2347" />
  <defs
     id="defs2349" />
  <g
     id="g2370"
     transform="translate(-417.89291,-191.51353)">
    <path
       inkscape:connector-curvature="0"
       id="path20"
       style="fill:#000000;fill-rule:nonzero;stroke:none"
       d="m 460.54275,193.01088 c -2.89779,0.44583 -5.68412,11.11747 -11.28466,16.67621 -4.09585,4.01226 -9.20875,3.76148 -11.92542,8.72124 -1.03099,1.85287 -0.69661,5.01538 -1.86692,8.05249 -2.28477,6.07412 -10.33727,6.61747 -10.33727,13.23506 -0.0279,7.14689 6.71511,8.51225 12.55249,13.58336 4.55562,4.08192 5.00145,6.89612 10.51839,8.87438 4.70887,1.60221 11.71644,-3.63609 18.02752,-1.75535 5.18256,1.54648 10.14221,2.66095 11.31252,7.98283 1.03098,4.90392 -0.0697,12.5107 -6.35287,11.63297 -2.11759,-0.23685 -11.29859,-3.3297 -22.58314,-2.13152 -13.61123,1.54636 -29.1451,5.99052 -30.6636,21.16216 -0.83593,8.48439 9.65459,18.48728 19.78298,16.45329 7.00757,-1.3793 3.69182,-9.64077 7.50913,-13.65303 5.00145,-5.14077 33.33848,17.94393 59.68321,17.94393 11.0896,0 19.33715,-2.80027 27.52896,-11.38218 0.76616,-0.65471 1.69962,-2.06186 2.88386,-2.14546 1.11447,0.0836 3.06498,1.18424 3.70575,1.65794 21.218,17.05226 37.25332,51.25454 115.22876,51.65857 10.96421,0.0557 23.46086,5.29403 33.65891,14.60031 9.0973,8.41473 14.41919,21.49653 19.58782,34.77338 7.80171,19.92231 21.78911,39.30125 42.99307,60.86744 1.15637,1.15638 18.61278,14.72581 20.00589,15.74275 0.22292,0.13932 1.50468,3.2043 1.05885,4.91785 -0.51549,12.92866 -2.39623,50.53018 25.63418,52.2298 6.85443,0.34831 5.05718,-4.47202 5.05718,-7.78778 -0.0139,-6.54792 -1.21199,-13.05394 2.24309,-19.75512 4.7228,-9.22268 -10.01694,-13.4719 -9.58504,-33.40802 0.30651,-14.86513 -12.17621,-12.32958 -18.51515,-23.65603 -3.65013,-6.56175 -6.89623,-10.04469 -6.65938,-18.06932 1.42109,-45.16638 -9.61279,-74.8409 -15.1158,-82.12712 -4.2909,-5.50301 -7.8435,-7.69026 -3.91484,-10.23974 23.39132,-15.45017 28.69927,-29.82767 28.69927,-29.82767 12.44092,-29.24252 23.62805,-55.94948 39.05036,-67.70783 3.10677,-2.4241 11.07567,-8.37294 15.96577,-10.71344 14.39132,-6.78477 21.97012,-10.89455 26.14967,-14.96265 6.61748,-6.45029 11.84195,-19.89433 5.50301,-28.04435 -7.88531,-10.05873 -21.5244,-2.0759 -27.5429,1.49064 -43.00699,25.52284 -49.34593,70.54989 -64.23881,96.4071 -11.88375,20.6606 -31.20696,35.83212 -48.48214,37.07209 -12.95653,0.96133 -26.91606,-1.65782 -40.81975,-7.75991 -33.81218,-14.82333 -52.31339,-33.96543 -56.67407,-37.35074 -9.08336,-7.00768 -79.60539,-76.23402 -136.73911,-79.06215 0,0 -7.09128,-14.19638 -8.87449,-14.43322 -4.17944,-0.52943 -8.45653,8.48439 -11.5215,9.52919 -2.88386,0.96133 -7.73205,-9.76604 -10.64378,-9.29235" />
  </g>
</svg>
