<?xml version="1.0" encoding="UTF-8" standalone="no"?>
<svg
   xmlns:dc="http://purl.org/dc/elements/1.1/"
   xmlns:cc="http://creativecommons.org/ns#"
   xmlns:rdf="http://www.w3.org/1999/02/22-rdf-syntax-ns#"
   xmlns:svg="http://www.w3.org/2000/svg"
   xmlns="http://www.w3.org/2000/svg"
   xmlns:sodipodi="http://sodipodi.sourceforge.net/DTD/sodipodi-0.dtd"
   xmlns:inkscape="http://www.inkscape.org/namespaces/inkscape"
   height="1072.6235"
   viewBox="0.2 3.5 820.02741 383.32725"
   width="2287.2571"
   version="1.1"
   id="svg10"
   sodipodi:docname="logo_kappa_2.svg"
   inkscape:version="0.92.2 (5c3e80d, 2017-08-06)">
  <metadata
     id="metadata16">
    <rdf:RDF>
      <cc:Work
         rdf:about="">
        <dc:format>image/svg+xml</dc:format>
        <dc:type
           rdf:resource="http://purl.org/dc/dcmitype/StillImage" />
        <dc:title></dc:title>
      </cc:Work>
    </rdf:RDF>
  </metadata>
  <defs
     id="defs14" />
  <sodipodi:namedview
     pagecolor="#ffffff"
     bordercolor="#666666"
     borderopacity="1"
     objecttolerance="10"
     gridtolerance="10"
     guidetolerance="10"
     inkscape:pageopacity="0"
     inkscape:pageshadow="2"
     inkscape:window-width="1680"
     inkscape:window-height="979"
     id="namedview12"
     showgrid="false"
     fit-margin-top="0"
     fit-margin-left="0"
     fit-margin-right="0"
     fit-margin-bottom="0"
     inkscape:zoom="0.1148"
     inkscape:cx="1191.0545"
     inkscape:cy="197.97664"
     inkscape:window-x="1912"
     inkscape:window-y="18"
     inkscape:window-maximized="1"
     inkscape:current-layer="svg10" />
  <path
     style="opacity:0.99900004;fill:#000000;fill-opacity:1;stroke:none;stroke-width:2.15111995;stroke-linecap:round;stroke-linejoin:miter;stroke-miterlimit:4;stroke-dasharray:none;stroke-opacity:1;paint-order:fill markers stroke"
     d="m 317.22333,2.5985846 c -1.89018,0.049657 -3.59354,0.4485812 -4.85682,1.2142064 -1.1,0.6999999 -4.69948,1.2002017 -7.99948,1.2002017 -19.8,0.2000001 -20.30038,0.3000385 -23.9004,3.7000384 -1.8,1.8000009 -7.09978,6.8996869 -11.89978,11.2996819 -4.7,4.400001 -8.80026,8.900612 -9.10024,9.900614 -0.30001,1.1 0.40003,4.099976 1.60003,6.799976 1.7,3.900001 1.90034,5.699514 1.30033,9.599512 -0.49999,2.600001 -0.80023,6.799949 -0.70023,9.399946 0.2,4.400002 -0.10001,5.000218 -6.30001,11.700218 -3.6,3.899999 -6.49957,7.50031 -6.49957,8.100311 0,0.499999 1.49963,2.299738 3.39964,3.999739 1.89999,1.700002 3.69987,4.600009 4.09987,6.300007 1.7,7.499998 0.1,20.299744 -3.70004,29.699744 -0.5,1.4 -2.19947,6.29998 -3.79947,10.99998 -1.5,4.7 -4.20031,12.00006 -6.00031,16.30005 -3.7,8.70001 -4.89971,9.7001 -17.09973,13.70009 -3.49998,1.20001 -7.3,2.49981 -8.40001,2.99981 -7.8,3.5 -14.90026,3.70036 -21.70026,0.80036 -4.9,-2.1 -5.00018,-2.10039 -10.10018,-0.3004 -2.9,1.00001 -6.19951,2.50021 -7.49951,3.30021 -1.5,1 -3.60057,1.2998 -6.20057,0.8998 -5.00001,-0.6 -6.79986,0.80028 -10.89986,8.60028 l -3.09993,5.80004 1.99987,4.40027 c 1.1,2.40001 1.99987,5.89978 1.99987,7.69978 0,1.8 0.90059,4.79971 2.00057,6.59971 1.10001,1.8 1.99973,4.20034 1.89973,5.50034 0,1.2 -3.60004,7.80002 -7.90004,14.70002 -6.6,10.5 -20.9998,34.09962 -24.4998,40.09962 -5.5,9.5 -18.80044,29.10042 -23.40043,34.40041 -10.300005,11.8 -21.699689,21.49951 -39.09969,33.19952 -17.9,12.1 -45.00005,25.99996 -59.30005,30.39997 -7.5999996,2.30001 -9.9998482,3.50008 -10.89984811,5.30008 -1.3999998,3.20002 0.39997351,6.20015 4.69997311,8.00017 3.2000004,1.39999 3.4000714,1.69989 3.2000714,5.6999 -0.2,3.79999 0.1000708,4.39986 3.2000706,6.19988 1.9,1.10002 6.600017,2.60103 10.500015,3.40103 3.900002,0.69998 9.799419,1.79902 13.199417,2.399 6.599998,1.20004 16.800007,0.40086 29.900009,-2.49913 10.999999,-2.5 24.100047,-3.09987 33.600046,-1.49991 4.600006,0.70001 12.200156,1.29964 16.900156,1.29964 9.9,0.10003 13.80019,-1.60033 16.40019,-7.10035 1.8,-3.79999 2.09997,-12.79963 0.49997,-16.9996 -1.8,-4.80001 -1.60004,-14.40061 0.49996,-18.80059 1.20002,-2.5 8.3,-10.30003 19.4,-21.00003 33,-32 47.8,-46.99953 49.3,-49.99954 2.8,-5.7 7.40001,-12.49988 8.40001,-12.49988 1.4,0 2.59995,2.09946 11.49995,18.99946 17.4,33 20.00008,37.49988 31.00008,55.49987 2.10001,3.30001 6.60018,10.70034 10.10018,16.50033 9.6,15.99999 19.29953,28.09993 26.39953,32.99993 6.6,4.5 12.30027,5.20083 41.10026,4.80083 l 26.09983,-0.3004 3.70003,-2.90039 c 2.1,-1.50001 5.29993,-5.2999 7.29997,-8.29988 1.89998,-2.99999 7.40018,-9.69962 12.20019,-14.89958 7.79999,-8.50001 10.3001,-12.20027 17.40012,-25.90027 1.10001,-2.20001 2.99988,-5.40024 4.09986,-7.00024 6.20003,-9 10.7002,-18.29974 12.20018,-25.49974 2.30001,-10.5 3.1999,-14.10002 3.70003,-14.70001 1.39988,-1.30001 2.89982,1.79972 7.1998,14.99972 2.60003,7.8 5.4997,15.70025 6.59971,17.50025 2.10003,3.6 5.9002,18.39968 5.9002,22.79963 0,3.6 2.50025,16.39992 4.40026,22.49995 2.99999,9.70001 7.19987,15.40008 15.09986,20.50003 2.8,1.80002 5.09998,1.90044 32.49998,1.90044 28.00002,0 29.79975,-0.10028 35.99975,-2.30026 16.80003,-5.8 28.20014,-16.19987 51.50014,-47.09986 7.8,-10.3 24.10007,-36.89984 33.10007,-53.89984 6.70002,-12.6 11.29973,-19.20032 12.89973,-18.60033 0.8,0.30001 3.30046,3.79978 5.60048,7.69978 6.40001,10.8 10.49994,16.60029 15.19999,21.20029 5.69997,5.7 16.90006,14.89983 24.2001,19.79983 3.29996,2.2 8.29999,5.90044 10.99997,8.20045 2.8,2.2 6.59942,5.1 8.49943,6.3 3.99997,2.4 15.9004,14.49942 19.70039,19.9994 2.4,3.60001 2.49963,4.10035 1.79962,13.90035 -0.59998,9.99998 -0.59944,10.30078 2.00058,13.70077 1.39995,1.90001 3.39942,3.79931 4.29941,4.19931 0.89999,0.4 11.2002,0.80058 22.7002,1.00067 11.59998,0.1 23.70035,0.69889 27.00035,1.29891 8.80002,1.60001 39.6996,1.40035 46.89958,-0.29968 10.90001,-2.59999 12.1999,-9.29973 1.9999,-10.79974 -2.70002,-0.4 -5.79946,-1.10004 -6.89943,-1.60004 -12.3,-5.79999 -18.80004,-9.60059 -28.90005,-16.70058 -6.50004,-4.70001 -14.80021,-9.89937 -18.50021,-11.59938 -10.2,-4.8 -16.00017,-9.10033 -25.30018,-18.60033 -12.80002,-13 -21.89998,-24.70003 -38.30001,-48.80003 -9.89999,-14.6 -11.89992,-17.30011 -24.59992,-34.70012 -5.20001,-6.99999 -12.09991,-15.79962 -14.5999,-18.59962 -1.80002,-1.8 -1.60019,-3.40008 0.89981,-11.60008 1.40002,-4.5 2.20013,-9.90042 2.20013,-15.00042 l 0.10014,-7.79992 -3.90031,-3.39963 c -4.99999,-4.3 -7.99948,-4.39984 -10.09947,-0.39984 -2,3.8 -5.00028,4.99968 -12.80031,4.99968 -5.10002,0 -7.39982,0.59977 -12.99983,3.49977 -7.89999,4.1 -10.80027,4.30034 -19.1003,1.30033 -7.99998,-2.8 -9.50002,-4.29987 -12.10005,-12.49988 -1.29999,-3.7 -3.29971,-8.60041 -4.49971,-10.80041 -3.3,-6 -21.30039,-35.69977 -28.1004,-46.49977 -9,-14.1 -11.79997,-21.69987 -8.89997,-23.499866 1.80002,-1.100004 0.99998,-7.899816 -1.60004,-13.499816 -1.49998,-3.199999 -2.29973,-6.300476 -1.89973,-7.700479 0.30001,-1.199999 -2.5e-4,-3.300105 -0.70026,-4.800106 -0.89999,-2.099998 -0.79946,-3.200042 0.40054,-5.80004 1.49997,-3.000005 1.39984,-3.49951 -0.10014,-5.399508 -0.90002,-1.1 -2.79997,-2.300103 -4.19999,-2.700104 -3.79999,-0.800001 -7.7,-4.300078 -8.40001,-7.400078 -0.29998,-1.499998 -2.80033,-6.000048 -5.50034,-10.000045 -3.3,-4.900003 -4.99967,-8.399882 -4.99967,-10.399883 0,-2.299998 -0.99992,-4.100243 -4.09989,-7.000242 -7,-6.699995 -8.50008,-7.300077 -17.90008,-7.400077 -4.69999,0 -9.59999,-0.399668 -10.99997,-0.799668 -2,-0.5 -3.30036,-0.09996 -5.50034,1.600036 -3.89998,3.100001 -10.99976,4.799872 -16.59977,4.099872 -3.39998,-0.4 -5.80035,-9.9e-5 -9.20037,1.499902 -4.59999,2.099999 -6.19935,4.000023 -12.09937,14.70002 -1.6,2.699999 -3.20058,5.400311 -3.60058,6.000308 -0.4,0.499999 -0.99963,3.199605 -1.29964,5.99961 -0.30001,2.7 -1.00016,8.200048 -1.70017,12.10005 -1.29999,6.799999 -1.20011,7.199781 1.4999,13.999783 1.50002,3.799989 3.39985,9.100353 4.09986,11.800353 0.69997,2.599997 2.40004,6.500143 3.70003,8.500143 1.39999,2 3.00003,5.300065 3.70004,7.400075 0.99998,3.29999 1.00005,4.09991 -0.49996,5.69991 -0.89985,1 -2.69987,2.0997 -4.09985,2.3997 -2.80001,0.7 -3.29979,4.60041 -0.89982,6.60041 2.10003,1.8 1.89976,4.99978 -0.70022,7.69978 -1.90002,2 -1.99997,2.69974 -0.99995,6.09974 1.59986,5.20001 0.50024,8.39996 -6.09975,17.79996 -10.90001,15.7 -18.10042,29.20005 -21.30043,39.90006 -1.50001,4.99999 -3.59975,3.50035 -8.19975,-5.49965 -3.90001,-7.6 -7.2003,-13.40007 -16.5003,-28.90007 -1.49998,-2.5 -4.49983,-8.20003 -6.69985,-12.60002 -3.79999,-7.70001 -8.7998,-13.80026 -17.69981,-21.70026 -2.99998,-2.8 -3.99993,-4.30004 -3.59993,-5.80004 0.30001,-1.1 0.89978,-2.29997 1.39977,-2.59997 1.39998,-0.8 0.99995,-3.99951 -0.60009,-5.39951 -0.89985,-0.8 -1.29982,-2.10007 -0.89982,-3.20007 0.4,-1.3 -0.0999,-2.60031 -1.49987,-3.90031 -1.50001,-1.500001 -1.8999,-2.699702 -1.4999,-4.499702 0.49999,-1.700001 -3.2e-4,-3.399942 -1.30035,-5.199942 -3.19996,-4.399997 -3.4002,-6.100508 -1.20022,-7.200508 1.90009,-1.1 2.00004,-1.899518 1.60004,-13.799521 -0.89999,-26.999998 -1.79952,-37.800055 -3.29949,-42.000056 -3.20001,-8.600002 -16.00048,-20.2003615 -22.4005,-20.2003615 -1,0 -3.79974,-1.0998368 -6.09974,-2.4998368 -2.7,-1.5187498 -5.8745,-2.3412392 -8.72282,-2.4144081 -0.27692,-0.00711 -0.55065,-0.0071 -0.82068,0 z M 284.94253,115.5702 c 3.06055,0.0459 6.59925,2.03029 8.22425,5.34279 1.30001,2.9 1.40027,3.70007 0.20027,5.30007 -1.9,2.7 -14.29995,7.90027 -15.69995,6.50028 -1.2,-1.2 0.69953,-11.60043 2.79953,-15.00042 0.975,-1.50001 2.63957,-2.17026 4.4759,-2.14272 z m 237.74499,4.84282 c 4.75462,-0.13061 12.04949,9.83277 20.57919,28.29997 5.3,11.49999 6.19985,14.80015 4.09985,14.80015 -2.50003,1e-5 -12.59986,-5.50041 -23.49987,-12.90041 -8.00002,-5.4 -11.99992,-8.99985 -11.99992,-10.89985 0,-0.8 1.30028,-3.59974 2.80026,-6.09974 1.6,-2.50001 3.1999,-5.90036 3.5999,-7.60035 0.4,-1.6 1.19957,-3.59999 1.79959,-4.2 0.75622,-0.91093 1.6342,-1.37266 2.621,-1.39977 z M 307.5671,191.61285 c 1.90001,-0.1 3.29951,3.29991 3.29951,7.79991 0,8.2 3.59991,23.1 7.79991,32.00001 2.5,5.29999 2.50032,5.70049 1.30034,14.00049 -0.60002,4.7 -1.09994,14.29959 -0.99994,21.19959 0.1,11.9 -0.79981,16.90016 -2.9998,16.90016 -1.40001,0 -4.90058,-4.40002 -8.30058,-10.50001 -5.3,-9.30001 -6.00002,-10.49999 -10.50002,-17.3 -2.4,-3.49999 -4.29942,-6.49984 -4.29943,-6.69984 10e-6,-0.39999 -5.50053,-8.60026 -17.70053,-26.40024 -2.9,-4.2 -5.19937,-8.39981 -5.29938,-9.29981 0,-1.2 3.19972,-3.30037 10.79972,-7.10037 5.9,-2.90001 12.69998,-6.69974 15.19999,-8.19975 2.5,-1.59999 5.90021,-3.69997 7.50021,-4.69997 1.7,-0.9 3.50002,-1.70017 4.2,-1.70017 z m 217.98858,15.03893 c 0.80663,-0.0391 2.11096,0.58633 6.11093,2.46133 3.10002,1.5 6.80041,2.99977 8.20043,3.49977 24.90004,8.3 31.50007,10.90019 31.50007,12.20018 0,2 -5.60033,8.09962 -33.30034,35.89962 -13.00001,13.1 -24.19978,23.80026 -24.99978,23.80026 -0.69998,0 -2.70016,-1.5002 -4.30013,-3.3002 -3.70003,-3.9 -3.60015,-5.8994 1.49987,-26.2994 0.4,-1.5 3.00035,-3.30061 8.10033,-5.70061 4.1,-2 9.1001,-4.79944 11.1001,-6.39944 3.49998,-2.6 3.5994,-2.90061 3.1994,-7.80061 -0.30001,-2.9 -2.09942,-8.29985 -4.29944,-12.99985 -4.9,-10.3 -5.80003,-13.70002 -4.20003,-14.70003 0.60002,-0.37499 0.90462,-0.63758 1.38859,-0.66102 z"
     id="path926"
     inkscape:connector-curvature="0" />
</svg>
