<?xml version="1.0" encoding="UTF-8" standalone="no"?>
<!-- Creator: CorelDRAW X6 -->

<svg
   xml:space="preserve"
   width="7.8653035in"
   height="2.5559125in"
   version="1.1"
   style="clip-rule:evenodd;fill-rule:evenodd;image-rendering:optimizeQuality;shape-rendering:geometricPrecision;text-rendering:geometricPrecision"
   viewBox="0 0 7865.3035 2555.9125"
   id="svg2"
   inkscape:version="1.1.2 (0a00cf5339, 2022-02-04, custom)"
   sodipodi:docname="logo_asics.svg"
   xmlns:inkscape="http://www.inkscape.org/namespaces/inkscape"
   xmlns:sodipodi="http://sodipodi.sourceforge.net/DTD/sodipodi-0.dtd"
   xmlns="http://www.w3.org/2000/svg"
   xmlns:svg="http://www.w3.org/2000/svg"
   xmlns:rdf="http://www.w3.org/1999/02/22-rdf-syntax-ns#"
   xmlns:cc="http://creativecommons.org/ns#"
   xmlns:dc="http://purl.org/dc/elements/1.1/"><metadata
     id="metadata27"><rdf:RDF><cc:Work
         rdf:about=""><dc:format>image/svg+xml</dc:format><dc:type
           rdf:resource="http://purl.org/dc/dcmitype/StillImage" /></cc:Work></rdf:RDF></metadata><sodipodi:namedview
     pagecolor="#ffffff"
     bordercolor="#666666"
     borderopacity="1"
     objecttolerance="10"
     gridtolerance="10"
     guidetolerance="10"
     inkscape:pageopacity="0"
     inkscape:pageshadow="2"
     inkscape:window-width="1560"
     inkscape:window-height="896"
     id="namedview25"
     showgrid="false"
     fit-margin-top="0"
     fit-margin-left="0"
     fit-margin-right="0"
     fit-margin-bottom="0"
     inkscape:zoom="0.23838384"
     inkscape:cx="245.40254"
     inkscape:cy="111.16525"
     inkscape:window-x="0"
     inkscape:window-y="0"
     inkscape:window-maximized="0"
     inkscape:current-layer="Layer_x0020_1"
     inkscape:pagecheckerboard="0"
     inkscape:document-units="in" /><defs
     id="defs4"><style
       type="text/css"
       id="style6"><![CDATA[
    .fil0 {fill:#2D2925}
   ]]></style></defs><g
     id="Layer_x0020_1"
     style="fill:#000000;fill-opacity:1;stroke:none"
     transform="translate(-316.69657,-4222.4785)"
     inkscape:label="Layer 1"><metadata
       id="CorelCorpID_0Corel-Layer" /><path
       id="path842"
       style="fill:#000000;fill-opacity:1;stroke:none;stroke-width:0.096"
       d="M 188.15039 0.0078125 C 180.51831 0.095114255 172.80431 1.0708749 165.82031 2.546875 C 147.77231 6.3868752 131.74103 13.202218 116.95703 21.074219 C 105.24503 27.314219 91.614094 36.146343 81.246094 44.402344 C 79.744564 45.622337 78.152132 47.095128 76.646484 47.96875 L 78.652344 51.410156 C 81.916344 49.970156 85.470078 46.898814 88.830078 44.882812 C 92.574078 42.578812 95.837436 40.561219 99.773438 38.449219 C 120.98944 26.929218 154.20572 12.050375 179.26172 17.234375 C 202.49372 21.938375 205.18094 40.274905 198.46094 59.378906 C 194.71694 70.130907 187.03641 83.761156 180.31641 92.785156 L 173.02148 102.29102 C 173.30948 97.395011 177.34202 86.73825 167.16602 77.90625 C 160.63802 72.24225 151.32427 70.417844 140.57227 71.089844 C 123.48426 72.241844 102.74847 80.593265 89.980469 87.697266 C 78.460468 94.129266 69.342016 99.602608 59.166016 107.47461 C 31.806013 128.78661 1.277297 161.33047 0.029296875 199.73047 C -0.64270316 221.90647 10.397218 234.96253 25.949219 241.39453 C 43.613219 248.69053 66.077249 244.84938 82.78125 238.60938 C 110.14125 228.24136 124.82947 215.66617 144.60547 199.82617 L 162.17383 183.69727 C 165.05383 180.72127 167.64598 178.13059 170.33398 175.05859 L 176.18945 168.5293 C 205.27745 136.2733 270.36477 46.513159 221.88477 8.7851562 C 215.06877 3.505156 205.70861 0.96246879 195.72461 0.23046875 C 193.22861 0.04746874 190.69442 -0.021288085 188.15039 0.0078125 z M 76.646484 47.96875 L 76.636719 47.953125 L 76.541016 48.050781 C 76.575486 48.031392 76.61192 47.988805 76.646484 47.96875 z M 337.08984 56.472656 C 333.42565 56.445498 329.60875 56.59375 325.46875 56.59375 L 293.11719 56.59375 L 285.24609 86.546875 L 285.24609 86.642578 C 298.97409 86.834578 312.79739 86.642578 326.52539 86.642578 C 332.95739 86.642578 339.29259 87.121281 341.30859 92.113281 C 343.13259 96.433281 340.63786 105.45794 339.00586 109.58594 C 316.06186 111.12194 301.1813 105.36261 276.0293 119.47461 C 262.2053 127.25061 247.03761 140.78636 244.34961 161.23438 C 241.66161 182.06638 253.94942 198.48303 275.35742 202.70703 C 285.72542 204.81903 299.54984 203.95313 310.58984 203.95312 C 322.20584 203.95312 335.74036 204.62542 347.06836 203.85742 C 352.06036 187.24942 356.09317 169.77822 360.70117 153.07422 C 365.30917 136.27422 370.20598 119.18536 374.33398 102.19336 C 379.61398 80.593357 369.91741 65.810314 354.94141 59.570312 C 350.09341 57.554312 345.48498 56.810314 340.70898 56.570312 C 339.51498 56.510312 338.31124 56.481709 337.08984 56.472656 z M 439.42188 56.689453 C 416.76587 56.689453 396.70067 66.002281 387.38867 86.738281 C 382.87667 96.818281 380.95739 109.58602 386.52539 119.66602 C 391.42139 128.59402 398.90959 134.06541 407.93359 139.44141 C 416.38159 144.43341 427.90147 149.42542 432.60547 155.85742 C 435.96547 160.36942 433.18138 167.47411 430.10938 170.16211 C 426.17337 173.61811 419.26148 173.90625 413.02148 173.90625 C 405.09009 173.90625 377.39049 173.53203 371.54883 174.00195 C 370.58883 175.53795 363.58203 201.93878 363.58203 204.05078 C 377.11803 203.85878 390.74916 204.05078 404.28516 204.05078 C 428.66916 204.05078 447.58131 201.5532 460.44531 178.0332 C 464.95731 169.7772 469.27784 155.47359 466.58984 144.43359 C 459.19784 113.71359 407.1655 110.35333 417.4375 93.361328 C 420.2215 88.753328 424.63683 86.738281 431.54883 86.738281 C 445.27683 86.642281 459.10208 86.834281 472.83008 86.738281 C 473.88608 81.554281 480.79806 59.569453 480.41406 56.689453 C 466.87806 56.881453 453.05388 56.689453 439.42188 56.689453 z M 504.2207 56.689453 L 465.62891 204.05078 L 498.07617 204.05078 C 499.51617 200.69078 505.94973 173.90602 507.67773 167.66602 C 511.03773 155.37802 514.10934 143.18703 517.27734 130.70703 C 519.48534 122.16303 536.47775 59.473453 536.09375 56.689453 L 504.2207 56.689453 z M 641.98047 56.689453 C 611.83647 56.497453 591.67719 56.786437 569.11719 70.898438 C 552.60519 81.266438 538.30122 97.20214 529.94922 118.99414 C 525.82122 129.74614 522.55758 142.61031 523.51758 155.57031 C 525.24558 180.33831 540.41223 197.71367 563.74023 202.51367 C 575.90478 205.09984 592.45943 203.96058 605.50195 204.05078 L 613.66211 173.90625 C 596.67011 173.81025 576.60522 176.49797 565.94922 166.41797 C 555.00522 156.14597 553.94856 140.30544 560.47656 124.27344 C 565.75656 111.12144 575.74019 100.94673 586.49219 94.802734 C 602.62019 85.682734 613.56567 86.738578 634.01367 86.642578 L 641.98047 56.689453 z M 696.125 56.785156 C 682.301 56.785156 672.89386 58.994969 663.00586 65.042969 C 644.57386 76.082969 633.15 102.09742 642.75 119.85742 C 653.502 139.53742 680.38208 144.43478 688.83008 156.05078 C 692.19008 160.56278 689.50198 167.56981 686.33398 170.25781 C 682.49398 173.71381 675.58209 174.00195 669.24609 174.00195 C 655.59687 174.00195 641.9461 174.09522 628.29688 174.00195 C 626.72785 175.12539 626.32489 178.83357 625.75781 180.81836 C 624.50981 185.42636 619.90069 201.45848 619.80469 204.14648 C 633.34069 203.95448 646.97377 204.14648 660.50977 204.14648 C 684.22177 204.14648 704.38027 201.4572 716.57227 178.0332 C 728.28427 155.5692 726.46027 135.69823 704.57227 121.49023 C 691.42027 112.85023 666.74845 104.88298 673.56445 93.458984 C 676.25245 88.850984 680.76573 86.833984 687.67773 86.833984 C 701.40573 86.737984 715.22903 86.833984 728.95703 86.833984 L 736.92578 56.785156 L 696.125 56.785156 z M 628.29688 174.00195 C 628.32155 173.98428 628.32434 173.9226 628.34961 173.90625 L 628.06055 174.00195 C 628.13932 174.0025 628.2181 174.00141 628.29688 174.00195 z M 145.96094 86.800781 C 168.70639 87.211787 164.84328 109.98766 151.61328 126.09766 C 136.82928 144.04966 102.84469 171.12284 79.804688 173.71484 C 64.060686 175.53884 54.460234 164.49867 59.740234 149.13867 C 68.476235 123.60267 110.23673 90.097688 141.05273 86.929688 L 141.05273 87.025391 C 142.81073 86.845391 144.44457 86.773381 145.96094 86.800781 z M 310.68359 139.18555 C 312.10069 139.17072 313.5593 139.17445 315.0293 139.18945 C 320.9093 139.24945 326.95681 139.48941 331.13281 139.44141 L 322.01367 173.90625 C 314.90967 174.00225 296.47709 174.76919 290.62109 173.61719 C 272.95709 170.16119 279.29359 144.52958 299.93359 140.01758 C 302.56159 139.44158 306.4323 139.23002 310.68359 139.18555 z M 740.95703 174.96289 C 737.02103 174.96289 733.75666 176.30584 730.97266 179.08984 C 728.18866 181.87384 726.8457 185.13822 726.8457 189.07422 C 726.8457 193.01022 728.18866 196.27459 730.97266 199.05859 C 733.75666 201.84259 737.02103 203.18555 740.95703 203.18555 C 744.89303 203.18555 748.15741 201.84259 750.94141 199.05859 C 753.72541 196.27459 755.06836 193.01022 755.06836 189.07422 C 755.06836 185.13822 753.72541 181.87384 750.94141 179.08984 C 748.15741 176.30584 744.89303 174.96289 740.95703 174.96289 z M 740.95703 176.59375 C 744.41303 176.59375 747.38906 177.74619 749.78906 180.24219 C 752.18906 182.64219 753.4375 185.61822 753.4375 189.07422 C 753.4375 192.53022 752.18906 195.41025 749.78906 197.90625 C 747.38906 200.30625 744.41303 201.55469 740.95703 201.55469 C 737.50103 201.55469 734.525 200.40225 732.125 197.90625 C 729.725 195.50625 728.47656 192.53022 728.47656 189.07422 C 728.47656 185.61822 729.725 182.73819 732.125 180.24219 C 734.525 177.84219 737.50103 176.59375 740.95703 176.59375 z M 735.67773 181.00977 L 735.67773 196.08203 L 737.59766 196.08203 L 737.59766 189.45898 L 738.8457 189.45898 C 740.1897 189.45898 741.14861 189.6492 741.72461 190.0332 C 742.30061 190.4172 743.16441 191.66594 744.31641 193.58594 L 745.75781 196.08203 L 748.15625 196.08203 L 746.62109 193.29883 C 746.33309 192.81883 745.94905 192.24261 745.37305 191.47461 C 744.89305 190.70661 744.5087 190.2252 744.2207 190.0332 C 744.0287 189.8412 743.54866 189.55363 742.97266 189.26562 C 744.31666 189.07362 745.37292 188.68928 746.04492 188.11328 C 747.00492 187.34528 747.48438 186.29097 747.48438 185.04297 C 747.48438 183.89097 747.10063 182.93011 746.14062 182.16211 C 745.18062 181.39411 743.6452 181.00977 741.5332 181.00977 L 735.67773 181.00977 z M 737.59766 182.64258 L 740.38086 182.64258 C 742.68486 182.64258 744.02947 182.93016 744.60547 183.41016 C 745.18147 183.98616 745.46875 184.56208 745.46875 185.33008 C 745.46875 185.81008 745.27628 186.28953 744.98828 186.76953 C 744.70028 187.15353 744.22023 187.53877 743.74023 187.63477 C 743.06823 187.82677 741.62958 187.92188 739.51758 187.92188 L 737.59766 187.92188 L 737.59766 182.64258 z "
       transform="matrix(10.416667,0,0,10.416667,316.69657,4222.4785)" /></g></svg>
