<?xml version="1.0" encoding="UTF-8" standalone="no"?>
<!-- Created with Inkscape (http://www.inkscape.org/) -->

<svg
   xmlns:dc="http://purl.org/dc/elements/1.1/"
   xmlns:cc="http://creativecommons.org/ns#"
   xmlns:rdf="http://www.w3.org/1999/02/22-rdf-syntax-ns#"
   xmlns:svg="http://www.w3.org/2000/svg"
   xmlns="http://www.w3.org/2000/svg"
   xmlns:sodipodi="http://sodipodi.sourceforge.net/DTD/sodipodi-0.dtd"
   xmlns:inkscape="http://www.inkscape.org/namespaces/inkscape"
   version="1.2"
   width="1595.6567"
   height="319.19275"
   id="svg2"
   inkscape:version="0.91 r13725"
   sodipodi:docname="logo_macron.svg">
  <sodipodi:namedview
     pagecolor="#ffffff"
     bordercolor="#666666"
     borderopacity="1"
     objecttolerance="10"
     gridtolerance="10"
     guidetolerance="10"
     inkscape:pageopacity="0"
     inkscape:pageshadow="2"
     inkscape:window-width="1414"
     inkscape:window-height="785"
     id="namedview27"
     showgrid="false"
     fit-margin-top="0"
     fit-margin-left="0"
     fit-margin-right="0"
     fit-margin-bottom="0"
     inkscape:zoom="0.24756139"
     inkscape:cx="315.62588"
     inkscape:cy="-20.766183"
     inkscape:window-x="0"
     inkscape:window-y="0"
     inkscape:window-maximized="0"
     inkscape:current-layer="svg2" />
  <defs
     id="defs4" />
  <metadata
     id="metadata7">
    <rdf:RDF>
      <cc:Work
         rdf:about="">
        <dc:format>image/svg+xml</dc:format>
        <dc:type
           rdf:resource="http://purl.org/dc/dcmitype/StillImage" />
        <dc:title></dc:title>
      </cc:Work>
    </rdf:RDF>
  </metadata>
  <path
     inkscape:connector-curvature="0"
     style="fill:#000000;stroke:none"
     id="path3277"
     d="m 443.4688,318.01316 c -25.0544,-3.1792 -47.204,-17.7478 -56.9184,-37.4374 -2.8985,-5.8747 -4.4564,-15.5547 -4.9931,-31.0248 -0.7224,-20.8184 -0.2865,-23.4424 5.8783,-35.38531 12.8305,-24.85592 29.976,-32.79792 89.8707,-41.62928 40.63663,-5.99179 50.35968,-9.23894 56.71691,-18.94128 4.68221,-7.14597 3.15183,-20.67942 -3.13747,-27.74487 -10.89868,-12.2437 -39.24028,-15.14178 -57.58944,-5.88882 -8.8776,4.47669 -11.3156,7.30218 -15.2949,17.72568 l -4.7339,12.40008 -32.5453,0.0263 -32.5453,0.0263 0,-6.82899 c 0,-13.00805 7.7803,-31.28572 18.2962,-42.98198 19.3351,-21.5052 47.7424,-30.97778 92.94962,-30.99453 33.85228,-0.0126 49.76235,2.57539 68.4609,11.13586 15.76917,7.21936 22.59557,13.22766 29.40542,25.88139 4.87124,9.05149 5.1566,13.31797 6.49093,97.04424 0.82232,51.59971 2.42265,90.49351 3.89562,94.67731 1.37497,3.9054 3.25737,8.9647 4.18315,11.2429 1.55735,3.8324 -0.89553,4.1421 -32.79932,4.1421 l -34.48251,0 -2.56862,-9.5391 c -1.73297,-6.4357 -3.49527,-8.9716 -5.41684,-7.7947 -1.56651,0.9595 -6.49712,4.2132 -10.95691,7.2305 -17.36659,11.7495 -53.82774,18.2542 -82.16574,14.6583 z m 66.8799,-49.3211 c 17.98476,-8.1672 26.90672,-26.0546 26.93174,-53.99477 l 0.0142,-14.73475 -6.50907,2.50646 c -3.57998,1.37855 -17.7851,4.41502 -31.5669,6.74768 -13.78182,2.33266 -29.08557,6.15246 -34.00827,8.48846 -15.5122,7.36102 -22.0034,24.89442 -14.9487,40.37782 6.3936,14.0324 39.62823,19.9003 60.08799,10.6091 z m 215.11607,49.5266 c -62.36845,-6.9873 -102.87935,-54.9973 -102.87935,-121.92368 0,-21.63772 5.21125,-45.61343 13.99352,-64.38067 8.40682,-17.965 28.66267,-40.05865 44.75793,-48.81876 33.4807,-18.22251 89.3198,-18.83546 124.0084,-1.36125 28.4011,14.30688 43.0933,34.80839 50.2944,70.18069 l 1.566,7.69253 -32.7334,-0.0246 -32.7334,-0.0246 -6.4934,-13.95746 c -5.6391,-12.12082 -8.114,-14.76499 -18.8085,-20.09428 -27.0871,-13.49807 -54.9019,-2.42669 -67.9313,27.03931 -11.5669,26.15856 -11.0522,61.65661 1.2631,87.11807 20.8918,43.1927 80.2818,35.4145 91.6793,-12.007 l 1.5645,-6.5091 31.9085,0 c 29.7392,0 31.9085,0.30489 31.9085,4.4845 0,9.9344 -10.0666,36.1106 -19.0749,49.6006 -21.0704,31.5531 -64.826,48.3032 -112.2899,42.9857 z m 453.66203,0.5239 c -7.5168,-0.6171 -9.9231,-1.7115 -9.0077,-4.097 3.0085,-7.84 172.6619,-209.69397 174.6075,-207.74835 3.7865,3.78647 9.0766,34.50761 9.0766,52.71031 0,72.95654 -49.7705,137.30184 -119.5848,154.60414 -15.5916,3.8641 -39.3807,5.8205 -55.0916,4.5309 z M 0,193.92805 0,74.39795 l 31.9536,0 31.9536,0 0,14.70435 0,14.70435 11.2429,-10.90926 c 13.9674,-13.55287 26.6286,-20.00073 45.1223,-22.97906 30.4172,-4.89855 62.737,5.4328 77.3888,24.73812 l 7.2915,9.60729 9.9675,-10.33021 c 5.6304,-5.83528 16.8072,-13.53091 25.6865,-17.68602 13.8842,-6.49722 18.1159,-7.34457 36.2535,-7.2595 34.6441,0.16249 58.7037,10.53312 72.3792,31.19826 12.2778,18.55306 12.9012,24.47357 12.9012,122.52109 l 0,90.7508 -33.0228,0 -33.0229,0 -0.7059,-82.2509 c -0.6492,-75.63663 -1.0729,-82.9904 -5.2693,-91.44638 -6.2028,-12.49873 -20.8975,-19.1723 -37.8065,-17.16968 -14.5605,1.72448 -22.0206,6.89207 -29.8216,20.65747 l -5.9173,10.44152 -0.7349,79.88397 -0.7348,79.884 -32.7846,0 -32.7847,0 -0.8846,-82.2509 c -1.0165,-94.5132 -1.2721,-95.8388 -20.254,-105.02776 -20.4599,-9.90449 -44.6799,-0.77913 -55.3268,20.84545 -5.5003,11.17151 -5.6285,12.9468 -6.4227,88.91611 l -0.8103,77.5171 -32.9185,0 -32.9184,0 z m 868.66417,0 0,-119.5301 31.9536,0 31.9536,0 0.01,20.71066 0.01,20.71066 4.4708,-7.33168 c 6.723,-11.02507 21.4177,-24.44461 33.4776,-30.57258 13.1392,-6.67634 34.44433,-10.86086 45.86283,-9.00789 l 8.4803,1.37635 0,31.05216 0,31.05217 -23.0776,0 c -21.08583,0 -24.06383,0.57968 -34.50423,6.71647 -13.4723,7.91892 -23.8778,22.98411 -27.4816,39.7881 -1.4073,6.56189 -2.5131,38.74654 -2.5131,73.14199 l 0,61.4238 -34.3206,0 -34.3205,0 0,-119.53011 z m 501.78973,0 0,-119.5301 31.9536,0 31.9536,0 0,15.60229 0,15.60229 10.4008,-10.7017 c 20.3212,-20.90896 47.8793,-29.3993 81.5729,-25.13172 33.7911,4.27995 51.6379,17.89089 62.9246,47.98982 4.1966,11.19147 4.6765,20.26899 5.4976,103.98053 l 0.8997,91.7187 -33.0719,0 -33.0718,0 -0.8291,-78.7005 c -0.8266,-78.47344 -0.846,-78.73433 -6.7463,-90.41218 -8.593,-17.00743 -15.8395,-21.42852 -35.0942,-21.41125 -25.4964,0.023 -39.8033,11.69408 -45.2039,36.87632 -1.494,6.96627 -2.5445,41.13256 -2.5445,82.75611 l 0,70.8915 -34.3206,0 -34.3205,0 z m -265.5972,98.38841 c -29.9252,-20.0281 -50.7026,-46.849 -62.7702,-81.02791 -4.7205,-13.36974 -6.3808,-23.42854 -7.2223,-43.75744 -1.3495,-32.60051 3.0752,-54.80022 16.1149,-80.85285 10.7398,-21.45744 24.8553,-39.09025 26.8838,-33.58271 2.7205,7.38619 46.6824,244.27891 45.9813,247.77411 -0.5586,2.7847 -5.1107,0.7341 -18.9875,-8.5532 z m 69.8874,-130.06467 c -21.7783,-10.20582 -36.3763,-26.44102 -53.0838,-59.0372 -13.3327,-26.01212 -26.8101,-68.50036 -23.1336,-72.93022 5.0236,-6.05317 31.2284,-19.26598 49.4356,-24.9261398 14.8,-4.60096996 22.6719,-5.48955996 47.3386,-5.34361996 25.8356,0.15285 31.9844,1.00015996 48.4994,6.68334996 33.2686,11.4484898 62.2669,32.7915798 80.4773,59.2323598 l 8.9361,12.97472 -9.814,11.72171 c -22.6426,27.04408 -56.5974,53.99274 -84.4553,67.02902 -21.1398,9.8925 -48.6895,11.86475 -64.2003,4.59602 z m 54.9298,-21.27458 c 31.3319,-14.23306 44.274,-51.10475 28.2634,-80.5215 -11.0187,-20.24496 -29.4521,-31.36762 -51.9852,-31.36762 -15.2605,0 -26.2303,4.41896 -38.51,15.51298 -30.7772,27.80537 -23.0662,77.59593 14.7439,95.20263 14.7338,6.86093 33.9241,7.33515 47.4879,1.17351 z"
     sodipodi:nodetypes="csssssssscccssssssssscscscccccssssccsssssscccssssccsssscsssscccccccssscssssscccsssscccccssssccccccccccssccccsssscccccccccccsssscccsssssccccssssssssscsssscsssssssss" />
</svg>
