<?xml version="1.0" encoding="utf-8"?>
<!-- Generated by Shoe Palace, Inc. http://www.shoepalace.com/ -->
<!DOCTYPE svg PUBLIC "-//W3C//DTD SVG 1.1//EN" "http://www.w3.org/Graphics/SVG/1.1/DTD/svg11.dtd">
<svg preserveAspectRatio="xMidYMid" width="256px" height="256px" viewBox="0 0 256 256" xmlns="http://www.w3.org/2000/svg" version="1.1" xmlns:xlink="http://www.w3.org/1999/xlink">
	<path fill-rule="evenodd" clip-rule="evenodd" fill="#060807" d="M127.5-0.5c70.7,0,129.1,57.9,128,130.2c-1.1,69.5-58.3,126.9-130.1,125.8c-69.5-1-127-58.4-125.9-130.3C0.7,55.9,57.4-0.5,127.5-0.5z M10,127.5C10,192.2,62.7,245,127.3,245c64.8,0,117.7-52.6,117.7-117.3C245,62.9,192.3,10,127.7,10C62.7,10,10,62.7,10,127.5z M74.8,127.3c2.1-2.5,4.2-5.1,6.5-7.5c1.3-1.4,2-3,2-5c0-1.9,0-3.8,0-5.7c0-6.2,0.1-12.5,0-18.7c0-1-0.7-2.4-1.5-2.9c-1.1-0.8-2.4,0-3.3,0.9c-1.6,1.6-3.3,3.1-4.8,4.9C68.3,99.4,63,105.7,57.9,112c-6.2,7.7-12.3,15.5-18.4,23.3c-2,2.6-3.9,5.3-5.6,8.2c-1.7,3-1.1,5.1,1.4,7.5c2.3,2.3,5,3.3,8.4,3.1c10.6-0.4,21.3-0.5,31.9-0.7c2.9-0.1,5.9,0.1,8.8,0.2c1.7,0,3.4-0.1,5,0c2,0.2,2.2,0.5,2.2,2.5c0,3.7-0.1,7.5-0.1,11.2c0,2.7-0.2,5.4-0.2,8.1c0,4.4,0.3,8.8,0.1,13.2c-0.2,4,1.6,4.6,4.2,4.6c3.6,0,7.2,0.2,10.8,0.1c2.7,0,5.4-0.1,8.1-0.5c2.9-0.4,3.1-0.9,3.2-3.7c0.1-10.3,0.1-20.7,0.1-31c0-4.3,0.3-5.1,4.8-4.9c3.6,0.2,4-0.2,4.5-3.8c0.1-0.8,0.2-1.6,0.1-2.4c-0.1-4-0.2-7.9-0.3-11.9c-0.1-4.9-0.6-5.4-5.4-5.4c-2.6,0-3-0.4-3-2.9c0-4,0-8.1,0.1-12.1c0.2-10.7,0.5-21.4,0.7-32.1c0.2-12,0.4-23.9,0.6-35.9c0.1-3.1-2-3.4-4.1-2.3c-0.6,0.3-1.1,0.9-1.6,1.4c-2.1,2.3-4.1,4.6-6.2,6.8c-3.6,3.8-7.3,7.6-11,11.4c-1.9,1.9-2.7,4.3-2.7,7c-0.1,3.8-0.3,7.6-0.3,11.4c-0.2,9.8-0.4,19.5-0.5,29.3c-0.1,4.6-0.1,9.3-0.2,13.9c-0.1,3.5-0.4,3.9-3.9,4c-4.3,0.1-8.7,0.2-13,0.2c-0.9,0-1.8-0.3-3.2-0.5C73.9,128.6,74.3,127.9,74.8,127.3z M185.8,111.8c-0.4,1.1-0.8,2.3-1.4,3.3c-3.7,6.3-7.4,12.7-11.2,18.9c-5.8,9.5-11.7,19-17.5,28.5c-4.8,7.8-9.5,15.7-14.5,23.3c-3.9,5.9-8.3,11.5-12.5,17.3c-1.1,1.5-2.1,3-3.1,4.5c-0.8,1.1-1.4,2.4-0.7,3.7c0.7,1.4,2.1,1.4,3.5,1.2c0.5-0.1,1-0.1,1.5-0.1c9.2,0.1,18.5,0.2,27.7,0.2c2.7,0,4.8-1.4,5.9-3.9c0.5-1.1,0.9-2.3,1.2-3.5c2.5-11.4,6.5-22.2,11.9-32.5c13-24.7,27.1-48.7,41.4-72.6c1.8-3,3.2-6.2,4.7-9.4c0.4-0.9,0.6-2,0.5-3c-0.2-2.8-1.8-4.2-5.3-4.6c-9-1.1-17.9-0.5-26.7,1.1c-8.3,1.5-16.4,4-24.9,4.4c-7.6,0.4-15.1,0.9-22.6-1c-1.3-0.3-2.6-0.5-3.9-0.5c-2.1,0-3.6,0.9-4.6,2.8c-1.5,2.8-1.9,5.8-1.5,9c1,9.2,0.8,18.3,0.4,27.5c-0.1,2.6,0,5.3,0.2,7.9c0.1,1.4,1.1,2.4,2.6,2.6c3.8,0.3,7-0.9,9-4.3c1.2-2.1,2.2-4.3,2.9-6.6c2-7.2,5.5-10.2,12.9-11.2c6.9-0.9,13.7-2.2,20.6-3.4c1-0.2,2-0.2,3-0.2C185.4,111.5,185.6,111.6,185.8,111.8z M68,63c-0.6-2.7-1.8-3.1-3.8-1.3c-6.4,5.5-12.6,11.2-19,16.7c-3.5,3-5.5,6.4-4.3,11.2c0.1,0.3,0,0.6,0,0.9c0.3,3.7,0.5,7.5,0.9,11.2c0.2,1.5,0.3,3.4,2.1,4c1.8,0.6,2.8-1,3.8-2.1c5-6.1,10.2-12,16.2-17.1c4.3-3.7,5.8-8.1,5.6-13.5C69,69.6,68.7,66.3,68,63z"/>
</svg>
