<?xml version="1.0" encoding="UTF-8" standalone="no"?>
<!-- Generator: Adobe Illustrator 12.0.1, SVG Export Plug-In . SVG Version: 6.00 Build 51448)  -->

<svg
   version="1.0"
   id="Layer_1"
   width="783.96191"
   height="130.39"
   viewBox="0 0 783.9619 130.39"
   overflow="visible"
   enable-background="new 0 0 561.76 373.939"
   xml:space="preserve"
   inkscape:version="1.1.2 (0a00cf5339, 2022-02-04, custom)"
   sodipodi:docname="logo_adidas_2.svg"
   style="overflow:visible"
   xmlns:inkscape="http://www.inkscape.org/namespaces/inkscape"
   xmlns:sodipodi="http://sodipodi.sourceforge.net/DTD/sodipodi-0.dtd"
   xmlns="http://www.w3.org/2000/svg"
   xmlns:svg="http://www.w3.org/2000/svg"
   xmlns:rdf="http://www.w3.org/1999/02/22-rdf-syntax-ns#"
   xmlns:cc="http://creativecommons.org/ns#"
   xmlns:dc="http://purl.org/dc/elements/1.1/"><metadata
     id="metadata38"><rdf:RDF><cc:Work
         rdf:about=""><dc:format>image/svg+xml</dc:format><dc:type
           rdf:resource="http://purl.org/dc/dcmitype/StillImage" /></cc:Work></rdf:RDF></metadata><defs
     id="defs36" /><sodipodi:namedview
     pagecolor="#ffffff"
     bordercolor="#666666"
     borderopacity="1"
     objecttolerance="10"
     gridtolerance="10"
     guidetolerance="10"
     inkscape:pageopacity="0"
     inkscape:pageshadow="2"
     inkscape:window-width="1535"
     inkscape:window-height="728"
     id="namedview34"
     showgrid="false"
     inkscape:zoom="0.5180148"
     inkscape:cx="156.36619"
     inkscape:cy="188.21856"
     inkscape:window-x="0"
     inkscape:window-y="0"
     inkscape:window-maximized="0"
     inkscape:current-layer="Layer_1"
     fit-margin-top="0"
     fit-margin-left="0"
     fit-margin-right="0"
     fit-margin-bottom="0"
     inkscape:pagecheckerboard="0" /><path
     id="polygon14"
     style="stroke-width:0.536474"
     d="M 149.46094 0 L 132.51953 10.193359 L 105.60938 26.367188 L 132.51953 71.173828 L 168.03906 130.39062 L 190.59766 130.39062 L 227.79688 130.39062 L 190.59766 68.412109 L 149.46094 0 z M 409.25195 0 L 409.25195 38.080078 C 401.40195 33.020078 392.11258 30.060547 382.14258 30.060547 L 381.89258 30.060547 C 354.36258 30.231547 331.98242 52.691703 331.98242 80.220703 C 331.98242 107.7507 354.36258 130.22063 381.89258 130.39062 L 382.14258 130.39062 C 392.11258 130.39062 401.40195 127.43033 409.25195 122.36133 L 409.25195 127.59961 L 432.30273 127.59961 L 432.30273 80.220703 L 432.30273 0 L 409.25195 0 z M 555.10156 0 L 555.10156 38.080078 C 547.24156 33.020078 538.04227 30.060547 528.07227 30.060547 L 527.82227 30.060547 C 500.29227 30.231547 477.91211 52.691703 477.91211 80.220703 C 477.91211 107.7507 500.29227 130.22063 527.82227 130.39062 L 528.07227 130.39062 C 538.04127 130.39062 547.24156 127.43033 555.10156 122.36133 L 555.10156 127.59961 L 578.15234 127.59961 L 578.15234 80.220703 L 578.15234 0 L 555.10156 0 z M 443.79102 0.5 L 443.79102 22.539062 L 468.87109 22.539062 L 468.87109 0.5 L 443.79102 0.5 z M 738.44336 28.960938 C 725.01336 28.960937 714.88305 32.510406 708.12305 39.691406 C 702.72205 45.431406 700.10352 52.440938 700.10352 60.710938 C 700.10352 71.021937 705.17266 78.451719 715.47266 83.261719 C 719.35366 85.121719 728.8128 87.741172 743.8418 90.951172 C 753.9018 93.151172 758.96289 96.270234 758.96289 100.24023 C 758.96289 102.59923 757.95195 104.63023 755.75195 106.49023 C 752.96195 108.85023 748.74203 110.04102 743.08203 110.04102 C 735.57203 110.04102 730.25109 108.77031 727.12109 106.32031 C 724.00109 103.95931 722.39258 100.49061 722.39258 96.099609 L 696.72266 96.099609 C 696.72266 101.92961 697.95211 107.01033 700.41211 111.36133 C 702.87211 115.71133 706.56295 119.32141 711.50195 122.19141 C 719.35195 126.67141 729.66211 128.95117 742.41211 128.95117 C 750.94211 128.95117 758.54102 127.52047 765.04102 124.73047 C 766.39202 124.14047 767.5718 123.55109 768.8418 122.87109 C 778.8928 117.30009 783.96289 108.43048 783.96289 96.271484 C 783.96289 86.310484 778.81287 78.870703 768.42188 73.970703 C 767.57188 73.550703 766.39202 73.129141 765.04102 72.619141 C 759.89202 70.848141 751.53109 68.649141 739.87109 66.119141 C 729.66109 63.839141 724.50195 60.879922 724.50195 57.169922 C 724.50195 54.549922 725.43389 52.440922 727.21289 50.919922 C 729.57289 48.889922 733.79109 47.880859 739.87109 47.880859 C 746.04109 47.880859 750.51281 49.230609 753.13281 51.849609 C 754.74381 53.459609 755.92259 56.320859 756.68359 60.380859 L 765.04102 60.380859 L 781.17188 60.380859 C 781.17188 54.389859 779.95244 49.230641 777.52344 44.931641 C 775.09244 40.621641 771.46234 37.151016 766.65234 34.541016 C 766.14334 34.201016 765.63297 33.941406 765.04297 33.691406 C 758.37297 30.571406 749.50336 28.960938 738.44336 28.960938 z M 443.79102 30.058594 L 443.79102 127.59961 L 468.87109 127.59961 L 468.87109 30.058594 L 443.79102 30.058594 z M 272.52148 30.060547 C 245.08148 30.231547 222.70117 52.691703 222.70117 80.220703 C 222.70117 107.7507 245.08148 130.22063 272.52148 130.39062 L 272.78125 130.39062 C 282.74125 130.39062 292.03258 127.43033 299.89258 122.36133 L 299.89258 127.59961 L 322.94141 127.59961 L 322.94141 80.220703 L 322.94141 32.591797 L 299.89258 32.591797 L 299.89258 38.080078 C 292.03258 33.020078 282.74125 30.060547 272.78125 30.060547 L 272.52148 30.060547 z M 636.08008 30.060547 C 608.55008 30.231547 586.17188 52.691703 586.17188 80.220703 C 586.17188 107.7507 608.55008 130.22063 636.08008 130.39062 L 636.3418 130.39062 C 646.3018 130.39062 655.59033 127.43033 663.36133 122.36133 L 663.36133 127.59961 L 686.42188 127.59961 L 686.42188 80.220703 L 686.42188 32.591797 L 663.36133 32.591797 L 663.36133 38.080078 C 655.59033 33.020078 646.3018 30.060547 636.3418 30.060547 L 636.08008 30.060547 z M 96.683594 46.388672 L 54.232422 71.947266 L 52.783203 72.804688 L 54.232422 75.208984 L 87.392578 130.39062 L 132.51953 130.39062 L 147.10742 130.39062 L 132.51953 106.01172 L 96.683594 46.388672 z M 272.52148 52.689453 L 272.78125 52.689453 C 286.21125 52.689453 297.44258 62.320234 299.89258 74.990234 L 299.89258 85.460938 C 297.44258 98.130938 286.21125 107.84084 272.78125 107.83984 L 272.52148 107.83984 C 257.49148 107.66984 245.25195 95.33875 245.25195 80.21875 C 245.25195 65.10975 257.49148 52.779453 272.52148 52.689453 z M 381.89258 52.689453 L 382.14258 52.689453 C 395.57258 52.689453 406.80195 62.320234 409.25195 74.990234 L 409.25195 85.460938 C 406.80195 98.130938 395.57258 107.84084 382.14258 107.83984 L 381.89258 107.83984 C 366.77258 107.66984 354.53125 95.33875 354.53125 80.21875 C 354.53125 65.10975 366.77258 52.779453 381.89258 52.689453 z M 527.82227 52.689453 L 528.07227 52.689453 C 541.41227 52.689453 552.65156 62.320234 555.10156 74.990234 L 555.10156 85.460938 C 552.65156 98.130938 541.41227 107.84084 528.07227 107.83984 L 527.82227 107.83984 C 512.70227 107.66984 500.46289 95.33875 500.46289 80.21875 C 500.46289 65.10975 512.70227 52.779453 527.82227 52.689453 z M 636.08008 52.689453 L 636.3418 52.689453 C 649.6828 52.689453 660.91133 62.320234 663.36133 74.990234 L 663.36133 85.460938 C 660.91133 98.130938 649.6828 107.84084 636.3418 107.83984 L 636.08008 107.83984 C 620.97008 107.66984 608.7207 95.33875 608.7207 80.21875 C 608.7207 65.10975 620.97008 52.779453 636.08008 52.689453 z M 43.900391 92.832031 L 0 119.19922 L 6.7050781 130.39062 L 54.232422 130.39062 L 66.462891 130.39062 L 54.232422 109.99805 L 43.900391 92.832031 z " /></svg>
