<?xml version="1.0" encoding="UTF-8" standalone="no"?>
<!-- Generated by Shoe Palace, Inc. http://www.shoepalace.com/ -->

<svg
   preserveAspectRatio="xMidYMid"
   width="256.07797"
   height="188.68976"
   viewBox="0 0 256.07797 188.68976"
   version="1.1"
   id="svg2"
   inkscape:version="1.1.2 (0a00cf5339, 2022-02-04, custom)"
   sodipodi:docname="logo_newera.svg"
   xmlns:inkscape="http://www.inkscape.org/namespaces/inkscape"
   xmlns:sodipodi="http://sodipodi.sourceforge.net/DTD/sodipodi-0.dtd"
   xmlns="http://www.w3.org/2000/svg"
   xmlns:svg="http://www.w3.org/2000/svg"
   xmlns:rdf="http://www.w3.org/1999/02/22-rdf-syntax-ns#"
   xmlns:cc="http://creativecommons.org/ns#"
   xmlns:dc="http://purl.org/dc/elements/1.1/">
  <metadata
     id="metadata10">
    <rdf:RDF>
      <cc:Work
         rdf:about="">
        <dc:format>image/svg+xml</dc:format>
        <dc:type
           rdf:resource="http://purl.org/dc/dcmitype/StillImage" />
      </cc:Work>
    </rdf:RDF>
  </metadata>
  <defs
     id="defs8" />
  <sodipodi:namedview
     pagecolor="#ffffff"
     bordercolor="#666666"
     borderopacity="1"
     objecttolerance="10"
     gridtolerance="10"
     guidetolerance="10"
     inkscape:pageopacity="0"
     inkscape:pageshadow="2"
     inkscape:window-width="1453"
     inkscape:window-height="753"
     id="namedview6"
     showgrid="false"
     fit-margin-top="0"
     fit-margin-left="0"
     fit-margin-right="0"
     fit-margin-bottom="0"
     inkscape:zoom="0.921875"
     inkscape:cx="-66.169492"
     inkscape:cy="94.372881"
     inkscape:window-x="0"
     inkscape:window-y="0"
     inkscape:window-maximized="0"
     inkscape:current-layer="svg2"
     inkscape:pagecheckerboard="0" />
  <path
     d="m 226.67799,70.111975 c -1.9,-3.1 -3.9,-5.8 -6.6,-7.7 -3.9,-3.5 -9.3,-5 -14.3,-6.2 -23.5,-4.2 -47,-8.5 -70.1,-12.7 -5.7,-11.2 -17.7,-17.7 -29.6,-20.4 -30.500005,-7.7 -60.900005,-15.4000005 -91.400005,-22.8000005 -3.5,-0.7 -7.6999997,-0.3 -10.3999997,2 -3.50000001,2.7 -4.60000001,6.9 -4.20000001,11.2000005 7.30000001,55.1 14.59999971,109.899995 22.39999971,164.999995 0.4,4.6 3.9,8.5 8.1,9.6 3.9,1.2 7.7,0.4 11.6,-1.2 28.5,-10.8 56.7,-22.4 85.200005,-33.2 5,-1.9 9.6,-3.5 14.6,-4.2 2.7,-0.4 6.2,-0.4 8.5,1.9 1.9,1.9 2.3,5 4.2,6.9 3.1,4.2 8.9,5 13.9,4.6 8.5,-0.8 15.4,-5.4 22.7,-9.6 21.6,-12.3 43.2,-24.7 64.8,-37 -10.1,-15.7 -19.8,-31.199995 -29.4,-46.199995 z m 0.4,13.9 c 1.9,3.1 3.9,6.6 5.8,9.6 -18.5,3.5 -37,6.899995 -55.5,9.999995 -2.3,-5.399995 -5,-10.399995 -7.3,-15.399995 18.8,-1.1 38.1,-2.7 57,-4.2 z m -25.4,-20.4 c 4.2,0.8 9.3,0.4 13.1,3.1 2.7,1.5 4.2,5 6.2,7.7 -19.7,-0.8 -39.3,-1.5 -59,-1.9 -2.3,-4.6 -4.6,-9.3 -6.9,-14.3 15.7,1.9 31.1,3.4 46.6,5.4 z m -174.300005,-45.9 c 11.6,2.3 23.2,4.6 34.7,6.9 1.5,3.5 2.3,6.9 3.1,10.8 0.4,-2.7 1.5,-5 3.9,-6.6 2.7,-1.5 5.8,-1.5 8.9,-1.2 8.9,1.9 17.7,3.5 26.200005,5.4 6.6,1.5 13.1,3.5 18.1,8.1 4.6,4.2 7.3,9.6 9.6,15.4 6.9,15.8 13.5,31.6 20.4,47.799995 -2.3,-1.2 -4.6,-2.3 -6.9,-2.7 -7.7,-1.5 -15.8,0 -23.5,0.8 -5,-13.099995 -9.6,-25.799995 -14.3,-38.899995 -1.5,-4.2 -3.5,-8.5 -7.3,-11.2 -3.100005,-2.3 -6.900005,-3.5 -10.400005,-3.9 -7.3,-0.8 -14.6,-1.9 -21.6,-2.7 5.8,20.6 11.6,41 17.7,60.999995 -13.1,1.9 -26.2,3.5 -39.3,5 -6.5,-30.799995 -12.7,-62.399995 -19.3,-93.999995 z M 174.27799,138.71197 c -4.2,-0.8 -8.5,-3.5 -10,-7.3 -1.2,-3.1 -5,-3.5 -8.1,-3.5 -8.1,0.4 -15.8,3.1 -23.5,5 -25.8,7.3 -51.300005,15 -77.100005,22.4 -1.9,-9.3 -3.9,-18.9 -5.8,-28.1 26.2,-5 52.800005,-9.6 79.000005,-14.6 6.2,-1.2 12.7,-2.3 18.9,-1.2 3.5,0.8 6.6,1.9 8.9,4.6 1.9,2.3 3.1,5.4 4.2,8.1 25.4,-7.3 51.3,-15 76.7,-22.4 2.3,3.5 4.2,6.9 6.6,10.4 -16.2,7.3 -32.8,14.6 -49,21.6 -6.2,3.5 -13.5,6.2 -20.8,5 z"
     id="path4"
     inkscape:connector-curvature="0"
     style="fill:#000000" />
</svg>
