<?xml version="1.0" encoding="UTF-8" standalone="no"?>
<!-- Generator: Adobe Illustrator 16.0.0, SVG Export Plug-In . SVG Version: 6.00 Build 0) -->

<svg
   xmlns:dc="http://purl.org/dc/elements/1.1/"
   xmlns:cc="http://creativecommons.org/ns#"
   xmlns:rdf="http://www.w3.org/1999/02/22-rdf-syntax-ns#"
   xmlns:svg="http://www.w3.org/2000/svg"
   xmlns="http://www.w3.org/2000/svg"
   xmlns:sodipodi="http://sodipodi.sourceforge.net/DTD/sodipodi-0.dtd"
   xmlns:inkscape="http://www.inkscape.org/namespaces/inkscape"
   version="1.1"
   id="Layer_1"
   x="0px"
   y="0px"
   width="187.09111"
   height="60.446342"
   viewBox="0 0 187.09111 60.446344"
   xml:space="preserve"
   inkscape:version="0.91 r13725"
   sodipodi:docname="rawlings.svg"><metadata
     id="metadata21"><rdf:RDF><cc:Work
         rdf:about=""><dc:format>image/svg+xml</dc:format><dc:type
           rdf:resource="http://purl.org/dc/dcmitype/StillImage" /><dc:title></dc:title></cc:Work></rdf:RDF></metadata><defs
     id="defs19" /><sodipodi:namedview
     pagecolor="#ffffff"
     bordercolor="#666666"
     borderopacity="1"
     objecttolerance="10"
     gridtolerance="10"
     guidetolerance="10"
     inkscape:pageopacity="0"
     inkscape:pageshadow="2"
     inkscape:window-width="1125"
     inkscape:window-height="726"
     id="namedview17"
     showgrid="false"
     fit-margin-top="0"
     fit-margin-left="0"
     fit-margin-right="0"
     fit-margin-bottom="0"
     inkscape:zoom="1.2243458"
     inkscape:cx="93.547399"
     inkscape:cy="30.234842"
     inkscape:window-x="0"
     inkscape:window-y="0"
     inkscape:window-maximized="0"
     inkscape:current-layer="Layer_1" /><path
     style="clip-rule:evenodd;fill:#000000;fill-opacity:1;fill-rule:evenodd;stroke:none"
     d="m 108.49948,0.00537874 c -4.31901,-0.279855 -8.979989,10.42075026 -11.81836,18.10937526 -1.135,3.071 -2.14686,6.842641 -2.63086,10.431641 -1.42,0.331 -2.599453,0.206859 -3.314453,-0.369141 0.798,-4.805 0.07727,-8.405156 -1.802734,-8.160156 -3.516,0.458 -2.139985,8.101531 -1.833984,10.394531 -1.07,6.573005 -4.281235,9.094235 -6.115235,8.865235 -1.223,-0.153 -1.682328,-2.44494 -0.611328,-5.960938 l 3.287109,-11.310547 -5.349609,0.609375 -3.132813,10.394531 c -1.682,5.654999 -4.280921,6.878909 -5.044921,6.878909 -0.765,0 -1.528016,0.15204 -0.916016,-2.75196 l 4.126953,-13.908199 -5.427734,0.6875 -2.521485,8.789063 c -1.987,6.725996 -5.503562,9.171876 -6.726562,9.171876 -1.223,0 -1.987,-1.37561 -1.375,-3.97461 L 61.11276,24.679207 56.833463,25.06202 c -0.993,0 -1.451984,0.306312 -1.833984,1.070312 -0.611,-0.458 -1.827156,-0.887312 -3.285156,-1.070312 -1.223,-0.153 -7.721641,1.222562 -10.931641,9.476564 -3.347,8.606 9.22e-4,12.99381 3.669922,13.75781 3.668,0.765 5.808563,-1.98595 8.101563,-4.12695 3.057,6.268 9.16989,0.15301 11.46289,-1.83399 3.668,5.197 9.476547,0.60939 11.310547,-1.22461 1.376,3.821 7.490859,3.36233 9.630859,0.61133 2.409001,-3.177 4.046672,-6.8115 5.013672,-10.187498 1.322,0.313 2.587969,0.384719 3.792969,0.261719 -0.17,4.926999 1.042344,8.888919 4.902347,9.169919 4.204999,0.307 6.880809,-3.13298 8.257809,-4.58398 0.152,1.299 1.37333,3.36198 4.73633,3.20898 4.432,-0.076 10.9282,-14.903951 12.5332,-17.501951 0.971,-1.572 1.52931,-0.765328 1.07031,0.763672 l -4.20312,14.292969 5.42578,-0.68945 c 4.127,-16.203003 7.7965,-16.659816 8.5625,-16.507816 0.764,0.153 0.61067,1.832969 -0.61133,5.042969 -1.222,3.21 -3.21067,9.478497 0.61133,11.312497 3.732,1.792 7.53719,-2.10729 8.99219,-6.279294 0.494,3.23 2.4734,5.015784 4.6914,5.425784 2.062,0.383 3.74411,-0.15278 6.03711,-2.675784 0,0 -0.37531,1.300624 -0.94531,3.265624 -4.516,4.381 -9.75569,9.71302 -11.05469,11.79102 -1.527,2.445 -4.15754,8.77537 0.68946,11.23437 5.273,2.676 9.9357,-4.5852 11.8457,-11.1582 l 3.72656,-12.54102 c 2.389,-1.844997 4.49031,-4.073091 6.32031,-6.371091 10.631,10.350001 20.31224,-4.585109 21.36524,-6.537109 1.066,-1.988 -0.38508,-3.517922 -1.45508,-2.294922 -0.764,1.529 -2.44528,3.363735 -4.73828,5.427734 0,-1.834 -0.76383,-6.725062 -1.29883,-8.789062 -0.535,-2.063 -0.61116,-5.885406 -0.53516,-7.5664063 0.076,-1.682 -4.05128,-3.592953 -4.73828,-1.376953 -2.793,8.8680003 -9.54081,17.5424683 -13.13281,21.4804683 l 5.33594,-17.964843 -4.2793,0.382812 c -1.146,0.459 -1.45098,0.916641 -1.83398,1.681641 -0.611,-0.764 -1.75632,-1.375 -3.82032,-1.375 -1.066,0 -7.64451,1.373906 -10.85351,9.628906 -0.281,0.72 -0.51599,1.412219 -0.70899,2.074219 l 0.0918,-1.06836 c -5.043,14.444996 -6.9535,8.101907 -6.1875,5.503907 l 1.98633,-6.572266 c 1.223,-3.974 0.76567,-6.268547 -1.98633,-7.185547 -2.752,-0.917 -5.50389,1.52925 -7.33789,4.28125 -2.139,-4.891 -6.18909,-2.980812 -7.87109,-0.382812 -1.682,2.598 -5.58005,10.700812 -7.87305,13.757812 -3.363,4.738002 -3.5163,1.909192 -2.9043,-0.382812 l 3.97461,-13.75586 -5.50195,0.763672 -3.05859,10.851563 c -8.405999,13.985999 -10.164249,5.503479 -9.781249,1.146484 0.002,-0.107 0.006,-0.218125 0.01,-0.328125 4.999999,-2.658 8.615449,-8.359734 10.689449,-12.052734 3.133,-5.58 5.57797,-14.9028133 0.91797,-17.88281326 -0.43706,-0.279469 -0.88133,-0.426127 -1.32812,-0.455078 z m 0.32226,5.79492196 c 0.14743,-0.02282 0.27952,0.0053 0.39258,0.08594 1.344,0.961 -1.98794,8.5592033 -3.21094,11.1582043 -1.885,4.147999 -4.54715,7.184093 -7.160149,9.121093 1.940619,-8.507812 7.767129,-20.0229003 9.978509,-20.3652343 z m 8.49414,0.826172 c -1.553,0 -2.81054,1.35339 -2.81054,3.02539 10e-4,1.6710003 1.25854,3.0273443 2.81054,3.0273443 1.553,0 2.81055,-1.356344 2.81055,-3.0273443 0,-1.672 -1.25755,-3.02539 -2.81055,-3.02539 z M 30.845182,8.8432697 C 18.243095,9.0786317 7.7567288,21.934129 2.7221352,33.927254 c -5.1970001,12.382 -2.44539073,23.84537 3.9746094,25.98437 6.4200004,2.14101 9.7060314,-2.59662 11.0820314,-6.26562 l 5.121094,-15.82031 c 0.382,-1.224 0.687984,-1.30078 1.833984,-1.30078 2.828,-0.076 4.127281,8.10203 4.738281,11.08203 0.537,2.615 3.444063,10.9217 22.164063,10.4707 40.97,-0.987 74.632422,-14.96414 79.482422,-17.11914 1.378,-0.61 0.91962,-2.13869 -0.60938,-1.67969 -10.055,3.261 -41.914355,14.11252 -82.693355,12.22852 -11.621,-0.537 -12.380672,-7.26055 -12.763672,-8.56055 -0.722999,-2.459 -3.057593,-7.10805 -4.433593,-7.87305 10.853,-1.680996 13.222,-10.316371 13.375,-12.609371 0.153,-2.293 1.222172,-12.9925153 -11.923828,-13.6035153 -0.410813,-0.01913 -0.818091,-0.02517 -1.22461,-0.01758 z m -0.197265,2.5683593 c 1.317414,-0.03171 2.57039,0.272344 3.716796,0.964844 7.337001,4.434 2.138766,19.717781 -7.490234,18.800781 -0.993,-0.153 -1.069328,-0.841312 -0.611328,-2.445312 0.459,-1.605001 2.369922,-7.108063 5.044922,-8.789063 0.458,-0.153 0.227703,-0.612156 -0.154297,-0.535156 -2.217,0.305 -8.864875,4.584844 -11.921875,14.214843 l -6.115234,18.343748 c -0.917,2.599 -3.2089532,5.96292 -5.5019542,3.66992 C 5.3227133,53.343234 5.5753227,44.102864 10.214323,32.401863 14.535167,21.502301 23.533878,11.582869 30.647917,11.411629 Z M 173.80026,15.96241 c 0.916,4.89 1.37503,9.705688 -0.91797,12.304688 -2.148,2.435 -3.08994,-0.230891 -5.08594,-2.587891 2.807,-4.087 4.77691,-7.918797 6.00391,-9.716797 z m -17.36328,0.681641 c 0.1796,0.0068 0.36258,0.03428 0.54883,0.08203 2.597,0.994 0.45617,6.112453 0.0762,7.564453 -0.383,1.453 -3.59174,7.645219 -6.80274,6.574219 -1.951,-0.65 -0.2295,-6.498031 0.6875,-8.332031 0.86063,-1.719375 2.79621,-5.99094 5.49024,-5.888672 z M 51.927213,29.792488 c 0.177924,0.0091 0.360625,0.03617 0.546876,0.08398 2.292999,0.84 0.229656,5.807756 -0.152344,7.259756 -0.382,1.452 -2.905235,7.18624 -6.115235,6.11524 -1.953,-0.65 -0.457015,-6.03905 0.458985,-7.87305 0.85875,-1.719368 2.592861,-5.722531 5.261718,-5.585931 z m 115.835937,5.533206 c -2.195,0 -3.97656,1.72598 -3.97656,3.83398 0,2.152 1.78056,3.87891 3.97656,3.87891 2.184,0 3.95508,-1.72691 3.95508,-3.87891 0,-2.108 -1.77208,-3.83398 -3.95508,-3.83398 z m 0,0.7539 c 1.77,0 3.20117,1.37608 3.20117,3.08008 0,1.759 -1.43217,3.125 -3.20117,3.125 -1.791,0 -3.22266,-1.366 -3.22266,-3.125 0,-1.704 1.43166,-3.08008 3.22266,-3.08008 z m -1.47266,0.93946 0,4.31445 0.6543,0 0,-1.98633 0.77539,0 1.26758,1.98633 0.75391,0 -1.34375,-1.98633 c 0.788,-0.022 1.39843,-0.3394 1.39843,-1.1914 0,-0.36 -0.16418,-0.74269 -0.49218,-0.92969 -0.338,-0.186 -0.70908,-0.20703 -1.08008,-0.20703 l -1.9336,0 z m 0.6543,0.49218 1.14844,0 c 0.557,0 1.04687,0.0778 1.04687,0.63477 0.001,0.775 -0.85161,0.66602 -1.47461,0.66602 l -0.7207,0 0,-1.30079 z m -14.6582,3.76758 c -1.334,4.514 -2.87099,9.62064 -3.70899,12.05664 -1.68,4.892 -6.87947,2.97941 -2.98047,-3.05859 0.752,-1.165 2.79146,-4.85505 6.68946,-8.99805 z"
     id="path7"
     inkscape:connector-curvature="0" /></svg>