<?xml version="1.0" encoding="UTF-8" standalone="no"?>
<!-- Created with Inkscape (http://www.inkscape.org/) -->

<svg
   width="56.444443mm"
   height="26.967201mm"
   viewBox="0 0 199.99999 95.553075"
   id="svg4196"
   version="1.1"
   inkscape:version="1.1.2 (0a00cf5339, 2022-02-04, custom)"
   sodipodi:docname="logo_rawlings_2.svg"
   xmlns:inkscape="http://www.inkscape.org/namespaces/inkscape"
   xmlns:sodipodi="http://sodipodi.sourceforge.net/DTD/sodipodi-0.dtd"
   xmlns="http://www.w3.org/2000/svg"
   xmlns:svg="http://www.w3.org/2000/svg"
   xmlns:rdf="http://www.w3.org/1999/02/22-rdf-syntax-ns#"
   xmlns:cc="http://creativecommons.org/ns#"
   xmlns:dc="http://purl.org/dc/elements/1.1/">
  <defs
     id="defs4198" />
  <sodipodi:namedview
     id="base"
     pagecolor="#ffffff"
     bordercolor="#666666"
     borderopacity="1.0"
     inkscape:pageopacity="0.0"
     inkscape:pageshadow="2"
     inkscape:zoom="0.35"
     inkscape:cx="-464.28571"
     inkscape:cy="-34.285714"
     inkscape:document-units="px"
     inkscape:current-layer="layer1"
     showgrid="false"
     fit-margin-top="0"
     fit-margin-left="0"
     fit-margin-right="0"
     fit-margin-bottom="0"
     inkscape:window-width="1920"
     inkscape:window-height="1057"
     inkscape:window-x="1912"
     inkscape:window-y="-8"
     inkscape:window-maximized="1"
     inkscape:pagecheckerboard="0" />
  <metadata
     id="metadata4201">
    <rdf:RDF>
      <cc:Work
         rdf:about="">
        <dc:format>image/svg+xml</dc:format>
        <dc:type
           rdf:resource="http://purl.org/dc/dcmitype/StillImage" />
      </cc:Work>
    </rdf:RDF>
  </metadata>
  <g
     inkscape:label="Layer 1"
     inkscape:groupmode="layer"
     id="layer1"
     transform="translate(-271.97851,-401.62538)">
    <path
       id="path13-4"
       style="clip-rule:evenodd;fill:#000000;fill-opacity:1;fill-rule:evenodd;stroke-width:3.8066"
       d="M 110.61523 0 C 49.774295 0 0 23.700837 0 52.935547 C 0 70.324112 16.593831 85.337964 43.457031 94.816406 C 43.457031 94.816406 44.247286 94.815548 45.039062 95.603516 C 60.048503 98.762993 82.966707 101.92383 100.34766 101.92383 C 156.44937 101.92383 213.33398 79.0101 213.33398 49.775391 C 213.33398 19.752713 169.08805 7.114802 161.18555 5.53125 C 145.38433 2.3717726 128.78797 0 110.61523 0 z M 109.82617 3.9550781 C 163.55258 3.9550781 204.64258 22.913049 204.64258 48.988281 C 204.64258 74.275545 156.44579 97.1875 101.92383 97.1875 C 48.197438 97.1875 8.6992188 78.222811 8.6992188 52.935547 C 8.6992188 26.867931 55.308006 3.9550781 109.82617 3.9550781 z M 128.00977 12.646484 C 115.36422 12.646484 97.194797 15.011736 86.132812 18.966797 C 74.28286 22.914242 56.89803 30.81701 45.839844 41.882812 C 33.986084 52.149213 31.617522 64.00179 33.197266 71.904297 C 34.780818 79.01122 43.469184 84.542969 58.482422 84.542969 C 71.915926 83.755001 80.60564 79.011646 90.087891 69.533203 C 94.02772 65.578142 99.559273 57.675282 102.71875 50.568359 C 105.09027 49.772775 108.24958 49.772775 110.62109 50.568359 C 114.57235 52.144285 116.94379 56.099419 118.52734 60.046875 C 120.10328 63.99432 123.26308 69.524975 129.58203 71.896484 C 135.90861 75.055962 158.81538 79.00366 167.50586 77.427734 C 170.67295 76.639766 171.46094 75.056405 171.46094 73.480469 C 171.46094 71.896927 169.87867 71.109375 168.30273 71.109375 C 161.98377 70.321407 154.08067 67.948786 147.76172 66.365234 C 143.80666 65.577266 137.4876 63.205684 134.32812 56.886719 C 132.74457 54.515209 129.58526 50.569022 126.42578 49.773438 C 123.26629 48.985469 120.10719 48.196171 118.53125 47.408203 C 125.63818 47.408203 130.38068 46.61414 134.32812 45.826172 C 140.64708 45.038204 151.70892 43.45372 159.61523 37.134766 C 167.51013 30.8158 165.93352 22.12518 156.45508 18.177734 C 149.34053 15.010641 139.86353 12.646484 128.00977 12.646484 z M 128.07031 18.064453 C 138.73311 18.222716 145.38672 21.333391 145.38672 26.869141 C 146.17469 36.347583 129.58119 42.666016 116.93945 42.666016 C 114.57174 42.666016 111.40872 41.878048 109.04102 42.666016 C 110.62075 34.763498 119.31471 28.445077 124.8457 26.869141 C 125.63367 26.869141 124.84656 26.072266 124.05859 26.072266 C 115.36049 26.86785 105.88154 30.028927 95.611328 37.923828 C 85.337301 45.826335 75.066833 67.952945 72.695312 71.900391 C 68.744059 77.431388 60.842403 80.592223 54.523438 78.220703 C 48.200675 75.849194 48.992532 69.529034 50.572266 63.998047 C 52.943786 58.46705 64.793393 41.878637 79.806641 32.392578 C 88.497115 26.869197 105.08898 18.177734 123.26172 18.177734 C 124.94091 18.078286 126.54706 18.041844 128.07031 18.064453 z "
       transform="matrix(0.93749999,0,0,0.93749999,271.97851,401.62538)" />
  </g>
</svg>
