<?xml version="1.0" encoding="UTF-8" standalone="no"?>
<!-- Generator: Adobe Illustrator 14.0.0, SVG Export Plug-In . SVG Version: 6.00 Build 43363)  -->

<svg
   xmlns:dc="http://purl.org/dc/elements/1.1/"
   xmlns:cc="http://creativecommons.org/ns#"
   xmlns:rdf="http://www.w3.org/1999/02/22-rdf-syntax-ns#"
   xmlns:svg="http://www.w3.org/2000/svg"
   xmlns="http://www.w3.org/2000/svg"
   xmlns:sodipodi="http://sodipodi.sourceforge.net/DTD/sodipodi-0.dtd"
   xmlns:inkscape="http://www.inkscape.org/namespaces/inkscape"
   version="1.1"
   id="Layer_1"
   x="0px"
   y="0px"
   width="238.58203"
   height="140.55078"
   viewBox="0 0 238.58203 140.55078"
   enable-background="new 0 0 250 190"
   xml:space="preserve"
   inkscape:version="0.91 r13725"
   sodipodi:docname="logo_under_armour.svg"><metadata
     id="metadata35"><rdf:RDF><cc:Work
         rdf:about=""><dc:format>image/svg+xml</dc:format><dc:type
           rdf:resource="http://purl.org/dc/dcmitype/StillImage" /><dc:title></dc:title></cc:Work></rdf:RDF></metadata><defs
     id="defs33" /><sodipodi:namedview
     pagecolor="#ffffff"
     bordercolor="#666666"
     borderopacity="1"
     objecttolerance="10"
     gridtolerance="10"
     guidetolerance="10"
     inkscape:pageopacity="0"
     inkscape:pageshadow="2"
     inkscape:window-width="1226"
     inkscape:window-height="778"
     id="namedview31"
     showgrid="false"
     fit-margin-top="0"
     fit-margin-left="0"
     fit-margin-right="0"
     fit-margin-bottom="0"
     inkscape:zoom="1.2421053"
     inkscape:cx="-40.614402"
     inkscape:cy="50.532777"
     inkscape:window-x="0"
     inkscape:window-y="0"
     inkscape:window-maximized="0"
     inkscape:current-layer="Layer_1" /><g
     id="g4133"
     transform="translate(-1.9375e-5,6.2499998e-7)"><path
       inkscape:connector-curvature="0"
       id="path5"
       d="m 63.652344,0 c 0,0 -14.923328,1.6516094 -34.486328,8.8496094 C 6.8810156,17.034609 0,22.361328 0,22.361328 0.92489712,41.52495 18.005151,58.794821 44.164062,70.291016 18.019893,81.788135 0.94791716,99.049831 0.0234375,118.20312 c 0,0 6.8948281,5.31191 29.1738285,13.50391 19.562,7.198 34.49414,8.84375 34.49414,8.84375 l -0.07617,-42.671874 c 0,-6.382183 2.563641,-12.901003 7.404297,-18.664062 14.785357,3.573698 31.108767,5.587808 48.244137,5.591797 l 0.0137,0 c 17.15707,-0.004 33.50143,-2.021718 48.30274,-5.603516 4.848,5.765918 7.41601,12.289301 7.41601,18.675781 l -0.0742,42.671874 c 0,0 14.92218,-1.64575 34.49218,-8.84375 22.286,-8.192 29.16797,-13.50391 29.16797,-13.50391 -0.92039,-19.161387 -18.00458,-36.428677 -44.16601,-47.925776 26.1449,-11.496216 43.21611,-28.760095 44.13671,-47.916016 0,0 -6.88196,-5.326719 -29.16796,-13.5117186 C 189.82977,1.6526094 174.89258,0 174.89258,0 l 0.0742,42.679688 c 0,6.384656 -2.56499,12.904434 -7.40821,18.669921 -14.78768,-3.574925 -31.11311,-5.589852 -48.25,-5.595703 -17.15901,0.0059 -33.504025,2.026283 -48.306637,5.609375 C 66.152562,55.594422 63.583984,49.069415 63.583984,42.679688 L 63.652344,0 Z m 55.640626,60.679688 0.0156,0 0.49024,0.01562 c 15.47649,0 28.09156,3.789946 37.34179,9.578126 -9.25294,5.800718 -21.87973,9.599609 -37.37304,9.599609 l -0.9961,0 c -15.4746,0 -28.087797,-3.790082 -37.335933,-9.580078 9.251966,-5.799399 21.879453,-9.597657 37.375003,-9.597657 l 0.48242,-0.01562 z"
       style="fill:#000000;fill-opacity:1" /></g></svg>