<?xml version="1.0" encoding="UTF-8" standalone="no"?>
<!-- Generator: Adobe Illustrator 16.0.0, SVG Export Plug-In . SVG Version: 6.00 Build 0) -->

<svg
   version="1.1"
   id="Layer_1"
   x="0px"
   y="0px"
   width="127.64359"
   height="46.124962"
   viewBox="0 0 127.6436 46.124963"
   xml:space="preserve"
   inkscape:version="1.1.2 (0a00cf5339, 2022-02-04, custom)"
   sodipodi:docname="logo_oneill.svg"
   xmlns:inkscape="http://www.inkscape.org/namespaces/inkscape"
   xmlns:sodipodi="http://sodipodi.sourceforge.net/DTD/sodipodi-0.dtd"
   xmlns="http://www.w3.org/2000/svg"
   xmlns:svg="http://www.w3.org/2000/svg"
   xmlns:rdf="http://www.w3.org/1999/02/22-rdf-syntax-ns#"
   xmlns:cc="http://creativecommons.org/ns#"
   xmlns:dc="http://purl.org/dc/elements/1.1/"><metadata
     id="metadata27"><rdf:RDF><cc:Work
         rdf:about=""><dc:format>image/svg+xml</dc:format><dc:type
           rdf:resource="http://purl.org/dc/dcmitype/StillImage" /></cc:Work></rdf:RDF></metadata><defs
     id="defs25" /><sodipodi:namedview
     pagecolor="#ffffff"
     bordercolor="#666666"
     borderopacity="1"
     objecttolerance="10"
     gridtolerance="10"
     guidetolerance="10"
     inkscape:pageopacity="0"
     inkscape:pageshadow="2"
     inkscape:window-width="1135"
     inkscape:window-height="480"
     id="namedview23"
     showgrid="false"
     fit-margin-top="0"
     fit-margin-left="0"
     fit-margin-right="0"
     fit-margin-bottom="0"
     inkscape:zoom="1.2243458"
     inkscape:cx="63.707492"
     inkscape:cy="11.843059"
     inkscape:window-x="189"
     inkscape:window-y="23"
     inkscape:window-maximized="0"
     inkscape:current-layer="Layer_1"
     inkscape:pagecheckerboard="0" /><path
     inkscape:connector-curvature="0"
     id="path7"
     d="m 115.60012,45.523098 c 1.309,0.084 1.525,0.744 0.312,0.574 0,0 -58.125001,-4.051 -86.046001,-10.58 -62.905,-14.705 -13.602,-31.4859999 30.455,-34.79099988 28.403,-2.13100002 65.745001,0.32599998 67.294001,8.73399998 0.73,3.9699999 -12.762,8.3639999 -19.289,8.8729999 -0.498,0.162 -1.01,-0.121 -0.607,-0.27 7.158,-2.642 13.564,-11.9309999 -8.555001,-13.8319999 -0.469,-0.041 -0.387,0.215 -0.129,0.291 8.121001,1.986 12.873001,8.5299999 1.191001,13.2359999 -0.324001,0.124 -0.465001,-0.263 -0.379001,-0.365 5.432001,-23.5589999 -76.349,-13.9399999 -88.473,0.049 -5.5610003,6.417 14.96,13.617 18.916,15.043 16.101,5.922 72.224001,11.622 71.606001,11.508 C 13.677119,33.418098 11.378119,7.9100981 72.902119,3.5610981 c 0.402,0.108 0.004,0.338 -0.373,0.258 -7.74,1.073 -42.093,28.1439999 43.071001,41.7039999 l 0,0 z"
     style="clip-rule:evenodd;fill:#000000;fill-opacity:1;fill-rule:evenodd" /></svg>
