<?xml version="1.0" encoding="UTF-8" standalone="no"?>
<svg
   xmlns:dc="http://purl.org/dc/elements/1.1/"
   xmlns:cc="http://creativecommons.org/ns#"
   xmlns:rdf="http://www.w3.org/1999/02/22-rdf-syntax-ns#"
   xmlns:svg="http://www.w3.org/2000/svg"
   xmlns="http://www.w3.org/2000/svg"
   xmlns:sodipodi="http://sodipodi.sourceforge.net/DTD/sodipodi-0.dtd"
   xmlns:inkscape="http://www.inkscape.org/namespaces/inkscape"
   height="1581.7902"
   viewBox="0.2 3.5 858.36559 565.28992"
   width="2394.1917"
   version="1.1"
   id="svg10"
   sodipodi:docname="logo_kappa.svg"
   inkscape:version="0.92.2 (5c3e80d, 2017-08-06)">
  <metadata
     id="metadata16">
    <rdf:RDF>
      <cc:Work
         rdf:about="">
        <dc:format>image/svg+xml</dc:format>
        <dc:type
           rdf:resource="http://purl.org/dc/dcmitype/StillImage" />
        <dc:title></dc:title>
      </cc:Work>
    </rdf:RDF>
  </metadata>
  <defs
     id="defs14" />
  <sodipodi:namedview
     pagecolor="#ffffff"
     bordercolor="#666666"
     borderopacity="1"
     objecttolerance="10"
     gridtolerance="10"
     guidetolerance="10"
     inkscape:pageopacity="0"
     inkscape:pageshadow="2"
     inkscape:window-width="1680"
     inkscape:window-height="979"
     id="namedview12"
     showgrid="false"
     fit-margin-top="0"
     fit-margin-left="0"
     fit-margin-right="0"
     fit-margin-bottom="0"
     inkscape:zoom="0.1148"
     inkscape:cx="1200.3516"
     inkscape:cy="707.5859"
     inkscape:window-x="1912"
     inkscape:window-y="18"
     inkscape:window-maximized="1"
     inkscape:current-layer="svg10" />
  <path
     style="opacity:0.99900004;fill:#000000;fill-opacity:1;stroke:none;stroke-width:2.15111995;stroke-linecap:round;stroke-linejoin:miter;stroke-miterlimit:4;stroke-dasharray:none;stroke-opacity:1;paint-order:fill markers stroke"
     d="m 320.55653,2.4402481 c -1.89019,0.049657 -3.59355,0.4485813 -4.85683,1.2142065 -1.1,0.6999999 -4.69948,1.2002016 -7.99948,1.2002016 -19.8,0.2 -20.30039,0.3000382 -23.9004,3.7000382 -1.8,1.8000006 -7.09978,6.8996866 -11.89978,11.2996816 -4.7,4.400001 -8.80025,8.900614 -9.10024,9.900616 -0.30001,1.1 0.40003,4.099973 1.60003,6.799973 1.7,3.900002 1.90034,5.699515 1.30034,9.599513 -0.5,2.600001 -0.80024,6.799948 -0.70024,9.399946 0.2,4.400001 -0.10001,5.000218 -6.30001,11.700218 -3.6,3.899998 -6.49957,7.50031 -6.49957,8.100311 0,0.499999 1.49963,2.299738 3.39963,3.999739 1.9,1.700001 3.69988,4.600009 4.09988,6.30001 1.7,7.499998 0.1,20.299738 -3.70004,29.699738 -0.5,1.4 -2.19947,6.29998 -3.79947,10.99998 -1.5,4.7 -4.20031,12.00006 -6.00031,16.30006 -3.7,8.7 -4.89972,9.70009 -17.09973,13.70008 -3.49999,1.20001 -7.30001,2.49981 -8.40001,2.99981 -7.8,3.5 -14.90026,3.70037 -21.70026,0.80037 -4.9,-2.1 -5.00018,-2.1004 -10.10018,-0.30041 -2.9,1.00001 -6.19951,2.50021 -7.49951,3.30021 -1.5,1 -3.60057,1.2998 -6.20058,0.8998 -5,-0.6 -6.79985,0.80028 -10.89984,8.60028 l -3.09994,5.80004 1.99987,4.40027 c 1.1,2.40001 1.99987,5.89978 1.99987,7.69978 0,1.8 0.90058,4.79971 2.00056,6.59971 1.10001,1.8 1.99974,4.20034 1.89974,5.50034 0,1.2 -3.60004,7.80002 -7.90004,14.70002 -6.6,10.5 -20.9998,34.09962 -24.4998,40.09962 -5.5,9.5 -18.80044,29.10042 -23.40043,34.40042 -10.3,11.8 -21.699692,21.49951 -39.099693,33.19951 -17.9,12.1 -45.000047,25.99996 -59.300047,30.39997 -7.6,2.30001 -9.9998483,3.50008 -10.8998482,5.30007 -1.4000001,3.20001 0.3999732,6.20017 4.6999731,8.00019 3.2000001,1.39999 3.4000711,1.69989 3.2000711,5.6999 -0.2,3.79999 0.100071,4.39986 3.200071,6.19988 1.9,1.10002 6.600015,2.60035 10.500013,3.40035 3.900002,0.69998 9.79942,1.7997 13.19942,2.39968 6.599998,1.20001 16.800006,0.40018 29.900008,-2.49981 11,-2.5 24.100044,-3.09991 33.600042,-1.49991 4.6,0.69998 12.20016,1.30032 16.90016,1.30032 9.9,0.1 13.80019,-1.60036 16.40019,-7.10038 1.8,-3.79999 2.09997,-12.80028 0.49997,-17.00027 -1.8,-4.80001 -1.60004,-14.39992 0.49996,-18.7999 1.20001,-2.5 8.3,-10.30003 19.4,-21.00003 33,-32 47.8,-46.99953 49.3,-49.99954 2.8,-5.7 7.40001,-12.49988 8.40001,-12.49988 1.4,0 2.59995,2.09946 11.49995,18.99946 17.4,33 20.00008,37.49988 31.00007,55.49987 2.10001,3.30001 6.60019,10.70034 10.10019,16.50033 9.6,16 19.29953,28.09994 26.39953,32.99994 6.6,4.5 12.30027,5.20012 41.10026,4.80012 l 26.09985,-0.29973 3.70004,-2.90035 c 2.09999,-1.50001 5.29992,-5.29989 7.29993,-8.29988 1.90001,-2.99999 7.40017,-9.7003 12.20018,-14.90027 7.8,-8.50001 10.30014,-12.19958 17.40013,-25.89958 1.10001,-2.20001 2.99988,-5.40025 4.09985,-7.00025 6.20003,-9 10.70021,-18.29973 12.20019,-25.49973 2.30001,-10.5 3.19993,-14.10002 3.70007,-14.70002 1.39987,-1.3 2.89978,1.79972 7.19979,14.99972 2.59999,7.8 5.4997,15.70026 6.59971,17.50026 2.1,3.6 5.90017,18.39967 5.90017,22.79962 0,3.6 2.50028,16.39992 4.40029,22.49992 2.99999,9.70001 7.19984,15.40009 15.09982,20.50007 2.80001,1.80002 5.09999,1.90044 32.49999,1.90044 28.00001,0 29.79975,-0.10028 35.99974,-2.30026 16.80003,-5.8 28.20015,-16.19987 51.50014,-47.09987 7.8,-10.3 24.10008,-36.89984 33.10008,-53.89984 6.70002,-12.6 11.29972,-19.20032 12.89973,-18.60033 0.8,0.30001 3.30046,3.79978 5.60047,7.69978 6.40001,10.8 10.49998,16.6003 15.2,21.2003 5.7,5.7 16.90009,14.89982 24.2001,19.79982 3.29999,2.2 8.29998,5.90045 10.99996,8.20045 2.80001,2.2 6.59946,5.10001 8.49947,6.30001 3.99997,2.4 15.9004,14.49941 19.70039,19.99939 2.4,3.60001 2.4996,4.10036 1.79959,13.90036 -0.59998,9.99998 -0.59941,10.30007 2.00058,13.70009 1.39998,1.89998 3.39945,3.79999 4.29944,4.19999 0.89999,0.4 11.2002,0.79993 22.7002,0.99995 11.59998,0.1 23.70032,0.69961 27.00032,1.29963 8.80001,1.60001 39.6996,1.40031 46.89961,-0.29972 10.90001,-2.59999 12.19986,-9.29969 1.99986,-10.7997 -2.70001,-0.4 -5.79942,-1.10004 -6.89939,-1.60004 -12.3,-5.79999 -18.80007,-9.60059 -28.90008,-16.70058 -6.50001,-4.70001 -14.80021,-9.89938 -18.50021,-11.59939 -10.2,-4.8 -16.00017,-9.10032 -25.30015,-18.60032 -12.80002,-13 -21.90001,-24.70004 -38.30004,-48.80004 -9.89999,-14.6 -11.89993,-17.30011 -24.59992,-34.70011 -5.20001,-7 -12.09987,-15.79963 -14.59987,-18.59963 -1.80002,-1.8 -1.60022,-3.40008 0.89978,-11.60008 1.40002,-4.5 2.20013,-9.90042 2.20013,-15.00042 l 0.10013,-7.79991 -3.9003,-3.39964 c -4.99999,-4.3 -7.99948,-4.39983 -10.09947,-0.39983 -2.00001,3.8 -5.00028,4.99967 -12.80028,4.99967 -5.10002,0 -7.39985,0.59977 -12.99986,3.49977 -7.89999,4.1 -10.80027,4.30034 -19.1003,1.30034 -7.99998,-2.8 -9.50003,-4.29988 -12.10005,-12.49989 -1.29999,-3.7 -3.29971,-8.60041 -4.49971,-10.80041 -3.3,-6 -21.30039,-35.69977 -28.10041,-46.49977 -9,-14.1 -11.79996,-21.69986 -8.89997,-23.499859 1.80002,-1.100004 0.99999,-7.89982 -1.60004,-13.49982 -1.49997,-3.199999 -2.29972,-6.300476 -1.89972,-7.700479 0.30001,-1.199999 -2.5e-4,-3.300105 -0.70023,-4.800106 -0.89999,-2.099999 -0.79946,-3.200042 0.40054,-5.80004 1.49998,-3.000002 1.39984,-3.49951 -0.10013,-5.399508 -0.90003,-1.1 -2.80001,-2.300103 -4.20003,-2.700104 -3.79999,-0.800001 -7.70001,-4.300078 -8.40002,-7.400078 -0.29997,-1.499998 -2.80032,-6.000048 -5.50034,-10.000045 -3.3,-4.9 -4.99967,-8.399883 -4.99967,-10.399883 0,-2.299999 -0.99987,-4.100243 -4.09985,-7.000243 -7,-6.699995 -8.50012,-7.300076 -17.90012,-7.400076 -4.69998,0 -9.59998,-0.399668 -10.99996,-0.799668 -2.00001,-0.5 -3.30036,-0.09996 -5.50035,1.600036 -3.89998,3.100001 -10.99975,4.799873 -16.59976,4.099873 -3.39999,-0.4 -5.80035,-10e-5 -9.20038,1.499901 -4.59999,2.099999 -6.19934,4.000022 -12.09933,14.700019 -1.6,2.7 -3.20061,5.400312 -3.60062,6.000309 -0.4,0.499999 -0.99962,3.199608 -1.29963,5.99961 -0.30001,2.7 -1.00016,8.200048 -1.70017,12.10005 -1.3,6.799999 -1.20011,7.199784 1.4999,13.999787 1.50001,3.799989 3.39988,9.100349 4.09989,11.800348 0.69998,2.599998 2.40004,6.500144 3.70004,8.500144 1.39998,2 3.00002,5.300072 3.70003,7.400082 0.99998,3.29999 1.00002,4.0999 -0.49999,5.6999 -0.89985,1 -2.69987,2.09971 -4.09986,2.39971 -2.8,0.7 -3.29978,4.60041 -0.89981,6.60041 2.10003,1.8 1.89976,4.99977 -0.70023,7.69977 -1.90001,2 -1.99993,2.69974 -0.99991,6.09974 1.59986,5.20001 0.50024,8.39996 -6.09975,17.79996 -10.90001,15.7 -18.10042,29.20006 -21.30043,39.90006 -1.50001,5 -3.59975,3.50036 -8.19974,-5.49964 -3.90002,-7.6 -7.20034,-13.40008 -16.50035,-28.90008 -1.49997,-2.5 -4.49982,-8.20002 -6.69984,-12.60001 -3.79999,-7.70001 -8.7998,-13.80027 -17.69981,-21.70027 -2.99999,-2.8 -3.9999,-4.30004 -3.5999,-5.80004 0.30001,-1.1 0.89978,-2.29997 1.39977,-2.59997 1.39998,-0.8 0.99991,-3.99951 -0.60013,-5.39951 -0.89985,-0.8 -1.29978,-2.10007 -0.89977,-3.20007 0.4,-1.3 -0.0999,-2.6003 -1.49991,-3.9003 -1.50001,-1.500004 -1.8999,-2.699709 -1.4999,-4.499709 0.49999,-1.700001 -3.3e-4,-3.399942 -1.30036,-5.199942 -3.19997,-4.399997 -3.4002,-6.100508 -1.20018,-7.200508 1.90002,-1.100001 2.00004,-1.899518 1.60004,-13.799518 -0.89999,-27.000001 -1.79952,-37.800057 -3.29949,-42.000058 -3.20001,-8.600002 -16.0005,-20.2003622 -22.40052,-20.2003622 -1,0 -3.79974,-1.0998368 -6.09974,-2.4998366 -2.7,-1.5187499 -5.8745,-2.3412392 -8.72282,-2.4144081 -0.27692,-0.00711 -0.55065,-0.0071 -0.82067,0 z M 288.27572,115.41186 c 3.06055,0.0459 6.59925,2.03029 8.22425,5.34279 1.3,2.9 1.40027,3.70007 0.20027,5.30007 -1.9,2.7 -14.29995,7.90028 -15.69995,6.50028 -1.2,-1.2 0.69953,-11.60042 2.79953,-15.00042 0.975,-1.5 2.63957,-2.17026 4.4759,-2.14272 z m 237.74497,4.84282 c 4.75462,-0.13061 12.0495,9.83278 20.57919,28.29998 5.3,11.49999 6.19989,14.80015 4.09989,14.80015 -2.50003,1e-5 -12.59989,-5.50042 -23.49987,-12.90042 -8.00002,-5.4 -11.99992,-8.99985 -11.99992,-10.89985 0,-0.8 1.30025,-3.59974 2.80022,-6.09974 1.60001,-2.5 3.1999,-5.90035 3.5999,-7.60034 0.4,-1.6 1.19961,-3.6 1.79963,-4.20001 0.75623,-0.91093 1.63417,-1.37266 2.62096,-1.39977 z m -215.1204,71.19983 c 1.9,-0.1 3.29951,3.29991 3.29951,7.79991 0,8.2 3.59991,23.10001 7.79991,32.00002 2.5,5.29999 2.50033,5.70048 1.30034,14.00048 -0.60001,4.7 -1.09994,14.2996 -0.99994,21.1996 0.1,11.9 -0.79981,16.90015 -2.9998,16.90015 -1.40001,0 -4.90058,-4.40001 -8.30058,-10.50001 -5.3,-9.3 -6.00002,-10.49999 -10.50002,-17.29999 -2.4,-3.5 -4.29943,-6.49985 -4.29944,-6.69985 1e-5,-0.39999 -5.50052,-8.60025 -17.70052,-26.40023 -2.9,-4.20001 -5.19937,-8.39981 -5.29937,-9.29981 0,-1.2 3.19971,-3.30038 10.79971,-7.10038 5.9,-2.9 12.69999,-6.69974 15.19999,-8.19975 2.5,-1.59999 5.90021,-3.69997 7.50021,-4.69997 1.7,-0.9 3.50001,-1.70017 4.2,-1.70017 z m 217.98856,15.03894 c 0.80664,-0.0391 2.11097,0.58632 6.11094,2.46132 3.10001,1.5 6.80044,2.99977 8.20046,3.49977 24.90001,8.3 31.50004,10.90019 31.50004,12.20018 0,2 -5.60034,8.09962 -33.30035,35.89962 -13,13.1 -24.19977,23.80027 -24.99977,23.80027 -0.69998,0 -2.70013,-1.50021 -4.30013,-3.30021 -3.7,-3.9 -3.60011,-5.8994 1.49991,-26.2994 0.4,-1.5 3.00031,-3.30061 8.10029,-5.70061 4.1,-2 9.10013,-4.79944 11.10014,-6.39944 3.49998,-2.6 3.59936,-2.90061 3.19936,-7.80061 -0.30001,-2.9 -2.09942,-8.29985 -4.29945,-12.99985 -4.9,-10.3 -5.79999,-13.70002 -4.19999,-14.70002 0.59999,-0.375 0.90459,-0.63758 1.38855,-0.66102 z M 138.99766,403.5205 c -15.25649,-0.0393 -32.8665,0.41782 -34.49775,1.31785 -1.2,0.69997 -5.700047,4.39983 -10.000046,8.29988 -22.800001,20.79997 -38.69952,34.40014 -39.499522,34.20012 -0.600001,-0.19999 -1.000066,-8.70046 -1.100068,-20.80044 -0.1,-11.30001 -0.599933,-21.09972 -0.999934,-21.7997 -0.600001,-0.90003 -6.900004,-1.20022 -25.700004,-1.20022 -23.5999939,0 -25.0004007,0.10046 -26.0004015,1.90045 C 0.59993444,406.73843 0.2,428.73815 0.2,469.73817 c 0,50.39992 0.30033507,62.79959 1.3003352,64.19957 1.3,1.7 3.1994321,1.80017 25.7994358,1.70018 21.099999,-0.20002 24.600567,-0.39961 25.600569,-1.7996 0.9,-1.2 1.099799,-6.70005 0.899799,-20.50006 l -0.399832,-18.79989 3.099936,-3.30022 c 4.7,-4.69998 10.900051,-9.70033 12.10005,-9.70033 0.600001,0 2.899806,2.30048 5.099807,5.10049 2.2,2.8 4.899731,6.29991 6.099744,7.79992 1.099994,1.39999 7.200383,9.29969 13.400385,17.59968 6.299999,8.19999 11.700051,15.40037 12.100051,16.00035 0.5,0.50003 2.0999,2.50014 3.5999,4.30016 l 2.79954,3.2995 28.90007,-0.10014 c 15.9,0 29.30044,-0.2994 29.70044,-0.59941 1.3,-0.8 1.09947,-3.10052 -0.40053,-4.60053 -0.7,-0.70001 -2.99994,-3.50001 -5.19994,-6.30002 -2.2,-2.69998 -8.69975,-10.69967 -14.49975,-17.59967 -5.8,-7 -12.99966,-15.69999 -15.99966,-19.39999 -3,-3.80002 -8.40061,-10.29988 -12.00061,-14.5999 -12.50001,-15.00001 -14.99972,-18.09985 -14.99972,-19.29985 0,-1.29999 3.79981,-5.00024 11.39981,-11.20027 11.5,-9.19998 27.70015,-22.3003 34.20015,-27.50028 8.1,-6.60003 9.79998,-8.39994 8.89998,-9.89992 -0.39376,-0.65627 -10.83613,-0.98686 -22.7023,-1.01744 z m 650.61855,29.53377 c -12.60416,0.038 -26.04146,0.98413 -37.51643,2.78415 -16.60001,2.59999 -33.2998,12.59944 -35.49979,21.09944 -1.40002,5.60001 -1.40009,5.60048 22.99988,5.60048 h 22.60007 l 3.09994,-3.50048 c 4.00001,-4.39994 11.20006,-6.79991 20.50007,-6.79998 14.2,-0.0999 22.99984,6.40005 19.79984,14.70004 -0.30001,0.89999 -2.09975,2.50003 -3.99976,3.70003 -2.80001,1.7 -7.99977,2.60024 -29.19977,4.90025 -14.09998,1.60001 -29.10021,3.69997 -33.20021,4.69999 -16.20001,3.79995 -27.60005,12.39963 -29.89999,22.79961 -1.90005,8.40002 -0.30008,12.7001 7.29993,20.00011 9.70001,9.19998 20.69973,12.49987 42.29977,12.49987 17.19996,0 25.90045,-1.69964 37.60047,-7.59966 4.9,-2.49996 9.19976,-4.20027 9.79978,-3.9003 0.49999,0.4 0.89981,1.69996 0.89981,3.09994 0,1.3 0.90061,3.30029 2.00055,4.4003 1.90004,1.89987 3.29953,1.99986 24.29955,1.99986 26.69999,0 26.39994,0.10053 24.09997,-7.99948 -1.3,-4.30001 -1.7,-12.20033 -2.1,-37.00041 l -0.39986,-31.50003 -2.70008,-5.30007 c -3.00003,-6.10001 -5.19973,-8.09965 -12.89973,-11.79965 -5.3,-2.5 -7.70029,-3.00006 -23.30029,-5.30007 -7.48127,-1.09374 -16.78046,-1.61349 -26.58372,-1.58394 z m -335.09574,0.63164 c -7.80229,-0.0708 -15.8953,0.55835 -21.5203,1.85211 -7.8,1.79999 -11.49993,3.60011 -18.29994,9.00011 -4.59999,3.69999 -6.40012,2.79993 -6.29998,-3.20008 -1.1e-4,-2.40001 -0.50035,-4.40022 -1.30036,-4.90025 -2.19998,-1.39999 -47.29993,-1.09958 -48.69988,0.3004 -1.70003,1.7 -1.70003,128.90002 0,130.60002 1.69996,1.69999 48.90033,1.69999 50.60033,0 0.89999,-0.89999 1.1995,-7.29994 1.1995,-22.49993 0,-18.4 0.20002,-21.39995 1.60004,-21.99997 0.8,-0.29997 2.50003,0.2998 3.70003,1.39977 3.79999,3.40003 12.30018,8.29988 14.30018,8.29988 0.99998,0 4.2001,0.70005 6.90011,1.60004 7.49999,2.30001 29.99959,2.00004 38.4996,-0.49996 20.89996,-6.1 33.70049,-17.59974 37.60047,-33.89975 1.80002,-7.60001 1.79987,-22.50025 -0.10014,-28.50026 -5.3,-17.39998 -22.2998,-32.09987 -41.79977,-36.09988 -4.41876,-0.91874 -10.31147,-1.39726 -16.37989,-1.45225 z m -197.13699,0.19324 c -11.48079,0.0444 -22.63989,0.55248 -29.68363,1.55874 -7.10001,0.99998 -14.29966,2.39993 -15.99966,3.09994 -11.5,4.9 -17.80003,8.60018 -21.00003,12.20018 -3.4,3.99997 -5.30044,9.6002 -4.00044,11.7002 0.4,0.70001 8.40057,1.10008 23.50057,1.10008 h 22.89976 l 2.10001,-2.70012 c 3.5,-4.39998 6.70028,-5.99994 14.90028,-7.29994 17,-2.59998 31.29981,4.99978 26.59981,13.99978 -2.5,4.9 -7.39977,6.60017 -24.99977,8.50015 -25.5,2.80001 -28.60042,3.19972 -36.50042,4.49971 -4.1,0.70001 -9.20025,1.89991 -11.20025,2.59999 -13.7,4.99985 -17.29941,7.40018 -22.09939,14.30018 -2.9,4.19999 -3.20007,5.30004 -3.20007,12.10005 0,6.9 0.29993,7.90035 3.09993,11.80033 3.6,4.9 10.19952,10.09976 15.89953,12.39977 2.2,0.99998 8.70032,2.49964 14.40031,3.39963 16.8,2.70001 42.00028,0.60041 51.60027,-4.39958 1.8,-0.89999 5.39992,-2.7999 7.79992,-4.09985 5.00001,-2.60006 8.20007,-2.30034 7.40007,0.79964 -0.29999,1.10001 0.19994,2.89974 0.99994,3.99976 1.39999,2 2.29956,2.09999 25.89957,2.09999 19.3,0 24.60046,-0.29965 25.00047,-1.29963 0.2,-0.70001 -0.20007,-3.9998 -1.10007,-7.1998 -1.20001,-4.70002 -1.49991,-12.10048 -1.49991,-35.50051 0,-33.29998 -0.50027,-36.69951 -6.50027,-43.6995 -5,-5.80003 -12.89967,-9.4005 -26.49967,-11.9005 -7.7625,-1.40626 -23.05585,-2.1158 -37.81686,-2.05869 z m 374.59177,0.12605 c -6.56317,-0.0211 -12.82537,0.34547 -16.67537,1.13296 -8.50001,1.70003 -11.50003,3.09973 -18.90003,8.69974 -6.1,4.69998 -7.69979,4.1 -7.69979,-2.59999 v -4.19999 h -51.00015 l -0.29972,64.90051 c -0.0999,47.09999 0.0998,65.29947 0.89981,66.19947 0.89999,1.10001 6.00023,1.40045 24.30024,1.40045 12.69999,0 24.0996,-0.30008 25.3996,-0.60009 2.20002,-0.59999 2.20013,-0.9001 2.20013,-16.30004 0,-18.30001 0.79996,-26.10008 2.59998,-26.80009 0.8,-0.30001 3.50045,1.0998 6.10044,2.99981 9.49999,6.9 24.59981,10.29978 41.29981,9.29983 17.2,-1.00002 26.69978,-4.49964 40.19978,-14.89959 7.7,-5.80003 14.80013,-23.8001 14.80013,-37.3001 0,-22.1 -18.30011,-44.40023 -40.89996,-50.00024 -4.95012,-1.2375 -13.88652,-1.90539 -22.3249,-1.93264 z m -197.41706,26.71885 c 0.69004,-0.004 1.4045,0 2.14201,0.014 8.10001,0.30001 9.39968,0.60024 13.39969,3.30021 7.20001,4.90001 8.60028,8.09965 8.60028,20.69962 0,10.2 -0.0998,10.80045 -2.99981,15.00044 -1.69999,2.29998 -5.10019,5.39996 -7.5002,6.79998 -3.90002,2.1 -5.79981,2.39968 -13.49982,2.39968 -11.60002,0 -16.30033,-2.30015 -20.70033,-10.10015 -2.5,-4.40001 -2.99996,-6.4999 -3.09995,-12.49991 -0.30001,-12.79999 4.19971,-21.19964 12.89973,-24.39965 2.27499,-0.78749 5.92813,-1.19233 10.7584,-1.2142 z m 180.56802,0.15194 c 7.58682,0.0528 14.7427,2.63075 19.27397,7.16201 7.79999,7.8 7.30007,28.10012 -0.99995,36.80011 -4.79998,5.09998 -7.90049,6.09975 -18.20049,6.09975 -8.59999,0.1 -10.00005,-0.19998 -14.20004,-2.59999 -6.30002,-3.79999 -9.09952,-9.60012 -9.59952,-20.00007 -0.8,-15.60003 5.09999,-24.59953 17.29999,-26.89951 2.14374,-0.39376 4.30174,-0.57707 6.42604,-0.5623 z m 188.16628,26.97024 c 2.26582,-0.0298 2.40743,1.91708 2.40743,7.69205 0,6.5 -0.39953,8.00008 -2.79954,11.60009 -3.90002,5.79999 -8.30056,7.69976 -19.80052,8.19975 -10.2,0.4 -13.59967,-0.49981 -18.59962,-5.0998 -2.70002,-2.40001 -3.00039,-7.19988 -0.8004,-10.39988 1.6,-2.30001 11.10017,-6.30002 14.80017,-6.30002 2.5,0 14.10034,-2.60053 20.20035,-4.60053 2.09375,-0.65627 3.56225,-1.07811 4.59213,-1.09166 z m -530.39252,2.6917 h 4.30014 v 6.19985 c -0.1,8.40001 -2.59974,13.90028 -8.19974,17.50026 -3.9,2.50003 -5.30029,2.79997 -14.90029,3.09994 -9.1,0.30001 -11.19988,0.10003 -14.59989,-1.60004 -5.19999,-2.69998 -6.50027,-4.39983 -6.50027,-8.79984 -1e-5,-2.69998 0.80037,-4.40029 2.90037,-6.50025 2.4,-2.40004 4.89986,-3.30007 17.19986,-5.80007 7.9,-1.69999 14.59959,-3.19975 14.89958,-3.49976 0.30001,-0.4 2.50024,-0.60009 4.90024,-0.60009 z"
     id="path859"
     inkscape:connector-curvature="0" />
</svg>
