<?xml version="1.0" encoding="UTF-8" standalone="no"?>
<!-- Generator: Adobe Illustrator 12.0.0, SVG Export Plug-In . SVG Version: 6.00 Build 51448)  -->

<svg
   version="1.1"
   id="Layer_1"
   width="372.738"
   height="164.504"
   viewBox="0 0 372.738 164.504"
   overflow="visible"
   enable-background="new 0 0 372.738 164.504"
   xml:space="preserve"
   inkscape:version="1.1.2 (0a00cf5339, 2022-02-04, custom)"
   sodipodi:docname="logo_maxim.svg"
   xmlns:inkscape="http://www.inkscape.org/namespaces/inkscape"
   xmlns:sodipodi="http://sodipodi.sourceforge.net/DTD/sodipodi-0.dtd"
   xmlns="http://www.w3.org/2000/svg"
   xmlns:svg="http://www.w3.org/2000/svg"
   xmlns:rdf="http://www.w3.org/1999/02/22-rdf-syntax-ns#"
   xmlns:cc="http://creativecommons.org/ns#"
   xmlns:dc="http://purl.org/dc/elements/1.1/"><metadata
     id="metadata9"><rdf:RDF><cc:Work
         rdf:about=""><dc:format>image/svg+xml</dc:format><dc:type
           rdf:resource="http://purl.org/dc/dcmitype/StillImage" /></cc:Work></rdf:RDF></metadata><defs
     id="defs7" /><sodipodi:namedview
     pagecolor="#ffffff"
     bordercolor="#666666"
     borderopacity="1"
     objecttolerance="10"
     gridtolerance="10"
     guidetolerance="10"
     inkscape:pageopacity="0"
     inkscape:pageshadow="2"
     inkscape:window-width="1920"
     inkscape:window-height="1017"
     id="namedview5"
     showgrid="false"
     inkscape:zoom="0.77266068"
     inkscape:cx="-9.7067189"
     inkscape:cy="82.830668"
     inkscape:window-x="-8"
     inkscape:window-y="-8"
     inkscape:window-maximized="1"
     inkscape:current-layer="Layer_1"
     inkscape:pagecheckerboard="0" /><path
     id="path3"
     d="M 18.685547 0.001953125 C 12.090111 -0.021570312 5.84075 0.44239062 0 1.4472656 C 13.684 8.9572656 27.931297 39.047562 21.654297 60.976562 C 48.446297 60.976562 89.762719 74.446781 111.13672 89.175781 C 111.13672 80.405781 92.897594 47.192625 66.683594 30.265625 C 92.295594 38.979625 123.57183 53.852547 153.04883 72.310547 C 88.453828 109.00655 35.821891 149.02891 28.837891 164.50391 C 66.651891 144.46891 108.11141 131.42772 151.81641 126.88672 C 161.71041 116.00872 173.49719 105.4438 186.36719 95.466797 C 199.23619 105.4438 211.02588 116.00872 220.92188 126.88672 C 264.62887 131.42772 306.08516 144.46891 343.91016 164.50391 C 336.92416 149.02891 284.28169 109.00759 219.67969 72.308594 C 249.15969 53.853594 280.43864 38.979625 306.05664 30.265625 C 279.84364 47.191625 261.60352 80.405781 261.60352 89.175781 C 282.98252 74.446781 324.29212 60.976562 351.07812 60.976562 C 344.81912 39.047562 359.06228 8.9572656 372.73828 1.4472656 C 326.01428 -6.5917344 253.11519 19.952344 186.36719 54.277344 C 127.96531 24.242969 64.853596 0.16661719 18.685547 0.001953125 z " /></svg>
