<?xml version="1.0" encoding="UTF-8" standalone="no"?>
<!-- Generator: Adobe Illustrator 12.0.0, SVG Export Plug-In . SVG Version: 6.00 Build 51448)  -->

<svg
   version="1.1"
   id="Layer_1"
   width="175.748"
   height="88.457001"
   viewBox="0 0 175.748 88.457002"
   overflow="visible"
   enable-background="new 0 0 192.756 192.756"
   xml:space="preserve"
   inkscape:version="1.1.2 (0a00cf5339, 2022-02-04, custom)"
   sodipodi:docname="logo_ssk.svg"
   style="overflow:visible"
   xmlns:inkscape="http://www.inkscape.org/namespaces/inkscape"
   xmlns:sodipodi="http://sodipodi.sourceforge.net/DTD/sodipodi-0.dtd"
   xmlns="http://www.w3.org/2000/svg"
   xmlns:svg="http://www.w3.org/2000/svg"
   xmlns:rdf="http://www.w3.org/1999/02/22-rdf-syntax-ns#"
   xmlns:cc="http://creativecommons.org/ns#"
   xmlns:dc="http://purl.org/dc/elements/1.1/"><metadata
     id="metadata19"><rdf:RDF><cc:Work
         rdf:about=""><dc:format>image/svg+xml</dc:format><dc:type
           rdf:resource="http://purl.org/dc/dcmitype/StillImage" /></cc:Work></rdf:RDF></metadata><defs
     id="defs17" /><sodipodi:namedview
     pagecolor="#ffffff"
     bordercolor="#666666"
     borderopacity="1"
     objecttolerance="10"
     gridtolerance="10"
     guidetolerance="10"
     inkscape:pageopacity="0"
     inkscape:pageshadow="2"
     inkscape:window-width="1920"
     inkscape:window-height="1017"
     id="namedview15"
     showgrid="false"
     fit-margin-top="0"
     fit-margin-left="0"
     fit-margin-right="0"
     fit-margin-bottom="0"
     inkscape:zoom="1.2243458"
     inkscape:cx="-35.529178"
     inkscape:cy="41.654898"
     inkscape:window-x="-8"
     inkscape:window-y="-8"
     inkscape:window-maximized="1"
     inkscape:current-layer="Layer_1"
     inkscape:pagecheckerboard="0" /><path
     id="path7"
     style="clip-rule:evenodd;fill-rule:evenodd"
     d="M 82.486328 0 C 69.129328 0 58.302734 9.906 58.302734 22.125 C 58.302734 34.016 68.386203 43.654359 80.408203 44.193359 L 0.068359375 44.207031 L 0 44.613281 C 13.111 44.613281 23.740234 54.338031 23.740234 66.332031 C 23.740234 78.326031 13.111 88.050781 0 88.050781 L 0 88.435547 L 85.435547 88.457031 C 98.791547 88.457031 109.61914 78.551031 109.61914 66.332031 C 109.61914 54.341031 99.102563 44.659906 87.476562 44.253906 L 167.92188 44.228516 L 167.92188 43.84375 C 154.81088 43.84375 144.18164 34.12 144.18164 22.125 C 144.18164 10.13 154.81088 0.40625 167.92188 0.40625 L 167.85352 0 L 82.486328 0 z M 123.71875 69.992188 C 122.06875 69.992188 120.34511 70.709641 119.41211 72.431641 C 118.47811 74.154641 118.90917 75.516172 120.20117 76.951172 L 123.71875 80.396484 L 117.18945 80.396484 L 114.89258 86.136719 L 128.81445 86.136719 C 131.46945 86.208719 132.18619 84.487 132.61719 83.625 C 133.04819 82.763 133.12066 80.251781 131.97266 79.175781 L 128.45508 75.730469 L 134.8418 75.730469 L 137.13867 69.992188 L 123.71875 69.992188 z M 141.58789 69.992188 C 139.93789 69.992188 138.21425 70.709641 137.28125 72.431641 C 136.34825 74.153641 136.77831 75.516172 138.07031 76.951172 L 141.58789 80.396484 L 135.05859 80.396484 L 132.76172 86.136719 L 146.68359 86.136719 C 149.33859 86.208719 150.05633 84.487 150.48633 83.625 C 150.91733 82.764 150.9908 80.251781 149.8418 79.175781 L 146.32422 75.730469 L 152.71094 75.730469 L 155.00781 69.992188 L 141.58789 69.992188 z M 156.94531 69.992188 L 150.55859 86.138672 L 157.73438 86.138672 L 160.39062 79.464844 L 164.33789 86.138672 L 171.44141 86.138672 L 167.2793 79.177734 L 175.74805 69.992188 L 167.56641 69.992188 L 161.39453 76.738281 L 164.12109 69.992188 L 156.94531 69.992188 z " /></svg>
