<?xml version="1.0" encoding="UTF-8" standalone="no"?>
<!-- Created with Inkscape (http://www.inkscape.org/) -->

<svg
   xmlns:dc="http://purl.org/dc/elements/1.1/"
   xmlns:cc="http://creativecommons.org/ns#"
   xmlns:rdf="http://www.w3.org/1999/02/22-rdf-syntax-ns#"
   xmlns:svg="http://www.w3.org/2000/svg"
   xmlns="http://www.w3.org/2000/svg"
   xmlns:sodipodi="http://sodipodi.sourceforge.net/DTD/sodipodi-0.dtd"
   xmlns:inkscape="http://www.inkscape.org/namespaces/inkscape"
   width="80.511513mm"
   height="16.877705mm"
   viewBox="0 0 285.27701 59.80289"
   id="svg4162"
   version="1.1"
   inkscape:version="0.91 r13725"
   sodipodi:docname="logo_reebok2.svg">
  <defs
     id="defs4164" />
  <sodipodi:namedview
     id="base"
     pagecolor="#ffffff"
     bordercolor="#666666"
     borderopacity="1.0"
     inkscape:pageopacity="0.0"
     inkscape:pageshadow="2"
     inkscape:zoom="0.35"
     inkscape:cx="-556.64721"
     inkscape:cy="-541.52713"
     inkscape:document-units="px"
     inkscape:current-layer="layer1"
     showgrid="false"
     fit-margin-top="0"
     fit-margin-left="0"
     fit-margin-right="0"
     fit-margin-bottom="0"
     inkscape:window-width="1920"
     inkscape:window-height="1017"
     inkscape:window-x="-8"
     inkscape:window-y="-8"
     inkscape:window-maximized="1" />
  <metadata
     id="metadata4167">
    <rdf:RDF>
      <cc:Work
         rdf:about="">
        <dc:format>image/svg+xml</dc:format>
        <dc:type
           rdf:resource="http://purl.org/dc/dcmitype/StillImage" />
        <dc:title></dc:title>
      </cc:Work>
    </rdf:RDF>
  </metadata>
  <g
     inkscape:label="Layer 1"
     inkscape:groupmode="layer"
     id="layer1"
     transform="translate(0,0)">
    <path
       style="fill:#000000;fill-opacity:1"
       d="m -1.671482e-4,-4.8370089e-4 0,58.30468770089 11.3886801482,0 -0.0059,-26.041016 23.41797,26.041016 14.45312,0 -21.60937,-24.064454 c 1.078,0.074 2.16523,0.115235 3.24023,0.115235 7.412,0 16.63086,-4.705016 16.63086,-16.541016 0,-14.2799997 -11.82573,-17.81445270089 -22.30273,-17.81445270089 l -25.2129001482,0 z M 145.84945,0.0015163 l 0,58.3046877 1.97265,0 c 0,0 4.99377,-2.81811 5.25977,-2.91211 0.729,0.783 5.64303,4.400391 12.45703,4.400391 0.867,0 1.61647,0.02 2.48047,0 11.388,-0.274 19.62695,-7.342203 19.62695,-19.033203 l 0,-10.185547 c 0,-11.456 -8.29219,-19.0625 -19.74219,-19.0625 -5.231,0 -8.8055,1.425234 -10.8125,3.115234 l 0,-14.6269527 -11.24218,0 z m 95.20898,0.002 0,58.3007817 11.29688,0 0,-20.697266 18.70117,20.699219 14.2207,0 -21.44727,-23.771485 20.37696,-23.121094 -14.06055,0 c -0.959,1.086 -17.79101,20.201172 -17.79101,20.201172 l 0,-31.6113277 -11.29688,0 z M 11.388513,9.9800793 c 0,0 7.3414,0 13.6914,0 6.349,0 11.91406,1.9897027 11.91406,7.9707027 0,6.019 -3.49206,8.205078 -11.91406,8.205078 l -13.6914,0 0,-16.1757807 z M 213.09945,11.429298 c -11.493,0.34 -19.74805,7.042109 -19.74805,19.037109 l 0,10.185547 c 0,11.896 8.18581,18.59825 19.63281,19.03125 0.699,0.025 1.83452,0.021 2.47852,0 11.455,-0.362 19.63476,-7.06325 19.63476,-19.03125 l 0,-10.185547 c 0,-11.924 -8.17818,-18.697109 -19.74218,-19.037109 -0.545,-0.016 -1.66886,-0.017 -2.25586,0 z m -142.695317,0.0039 c -11.568,0.385 -19.74414,7.074156 -19.74414,19.035156 l 0,10.1875 c 0,11.395 8.50214,18.520297 19.49414,19.029297 1.167,0.053 1.76917,0 2.57617,0 13.744,0 18.84333,-6.990641 19.48633,-14.931641 l -10.33398,0 c -0.309,1.475 -0.76957,5.34961 -9.47657,5.34961 -1.504,0 -3.6029,-0.353329 -5.1289,-0.861328 -6.439,-2.147 -5.40821,-10.079532 -5.40821,-10.519532 l 30.54297,0 0,-0.002 0,-8.257812 c 0,-11.957 -8.37028,-18.645297 -19.86328,-19.029297 -0.137,-0.003 -1.98653,-0.003 -2.14453,0 z m 47.374997,0 c -11.567,0.385 -19.744137,7.074156 -19.744137,19.035156 l 0,10.1875 c 0,11.395 8.503137,18.520297 19.494137,19.029297 1.167,0.053 1.76718,0 2.57618,0 13.74,0 18.84332,-6.990641 19.48632,-14.931641 l -10.33398,0 c -0.309,1.475 -0.76956,5.34961 -9.47656,5.34961 -1.506,0 -3.60291,-0.353329 -5.12891,-0.861328 -6.43901,-2.148 -5.4082,-10.081485 -5.4082,-10.521485 l 30.54492,0 0,-8.257812 c 0,-11.957 -8.37223,-18.645297 -19.86524,-19.029297 -0.137,-0.003 -1.98653,-0.003 -2.14453,0 z m -47.009757,9.472568 c 0.503,-0.02 1.056,-0.018 1.5,0 4.925,0.228 9.04882,2.80925 9.04882,8.78125 l 0,0.8125 -19.48632,0 c 10e-4,-0.157 0.0039,-0.533781 0.0039,-0.800781 0,-6.179 4.0856,-8.565969 8.9336,-8.792969 z m 47.374997,0 c 0.505,-0.02 1.05595,-0.018 1.50195,0 4.921,0.228 9.04883,2.80925 9.04883,8.78125 l 0,0.8125 -19.49024,0 c 0,-0.157 0.004,-0.533781 0.004,-0.800781 0,-6.179 4.08355,-8.565969 8.93555,-8.792969 z m 96.03906,0.414062 c 0.251,-7.49e-4 0.50969,0.0083 0.80469,0.02734 4.499,0.275 8.875,2.64675 8.875,9.09375 l 0,10.285156 c 0,6.368001 -4.37875,8.780735 -8.84375,9.052735 -0.21,0.016 -1.36389,0.018 -1.58789,0 -4.543,-0.298 -8.84571,-2.774735 -8.84571,-9.052735 l 0,-10.285156 c 0,-6.493 4.31671,-8.82275 8.84571,-9.09375 0.259,-0.016 0.50095,-0.02659 0.75195,-0.02734 z m -47.48242,0.08984 c 0.252,-6.25e-4 0.51119,0.0064 0.80469,0.02344 4.501,0.276 8.87304,2.64475 8.87304,9.09375 l 0,10.283203 c 0,6.371 -4.37875,8.783641 -8.84375,9.056641 -0.207,0.012 -1.36193,0.015 -1.58593,0 -4.543,-0.300001 -8.84375,-2.776641 -8.84375,-9.056641 l 0,-10.283203 c 0,-6.49 4.31779,-8.82175 8.84179,-9.09375 0.2585,-0.0145 0.50191,-0.02281 0.75391,-0.02344 z"
       id="path22"
       inkscape:connector-curvature="0" />
  </g>
</svg>
